<?xml version="1.0" encoding="utf-8"?>
<!-- Generator: Adobe Illustrator 23.0.2, SVG Export Plug-In . SVG Version: 6.00 Build 0)  -->
<svg version="1.1" xmlns="http://www.w3.org/2000/svg" xmlns:xlink="http://www.w3.org/1999/xlink" x="0px" y="0px"
	 viewBox="0 0 500 500" style="enable-background:new 0 0 500 500;" xml:space="preserve">
<style type="text/css">
	.st0{display:none;}
	.st1{display:inline;fill:#EFEBEB;}
	.st2{opacity:0.33;fill:#DDCACA;}
	.st3{fill:#B3ADEC;}
	.st4{display:inline;fill:#78BA9A;}
	.st5{display:inline;fill:#FFA938;}
	.st6{display:inline;}
	.st7{fill:#E1806D;}
	.st8{display:inline;fill:#E1806D;}
	.st9{fill:#6756AD;}
	.st10{fill:#EFEBEB;}
	.st11{fill:#37366A;}
	.st12{font-family:'Montserrat-Regular';}
	.st13{font-size:6.0268px;}
	.st14{fill:#A43F60;}
	.st15{fill:#F3F4E9;}
	.st16{font-size:4.4893px;}
	.st17{opacity:0.57;}
	.st18{font-size:4.1015px;}
	.st19{fill:none;stroke:#37366A;stroke-width:0.5;stroke-miterlimit:10;}
	.st20{opacity:0.52;}
	.st21{fill:none;stroke:#50C3E2;stroke-width:0.5;stroke-miterlimit:10;}
	.st22{opacity:0.25;fill:#6756AD;}
	.st23{fill:#F5BA9A;}
	.st24{fill:#FFA938;}
	.st25{fill:#594656;}
	.st26{fill:#B96944;}
	.st27{fill:#53648C;}
	.st28{fill:#5D95BA;}
	.st29{fill:#8FCAEC;}
	.st30{fill:#F49E78;}
	.st31{fill:#514540;}
	.st32{opacity:0.28;}
	.st33{fill:#F28279;}
	.st34{display:inline;fill:#6756AD;}
	.st35{font-family:'Montserrat-Medium';}
	.st36{font-size:15.3164px;}
	.st37{font-family:'Montserrat-Black';}
	.st38{fill:#9AACBB;}
</style>
<g id="Background" class="st0">
	<rect class="st1" width="500" height="500"/>
</g>
<g id="Objects">
	<g>
		<path class="st2" d="M60.45,149.19l111.48-0.35l-28.44-5.8c0,0,1.16-31.92-12.77-25.54c-13.93,6.38-14.51,20.31-14.51,20.31
			s-5.22-12.77-12.77-8.13c-7.54,4.64-11.03,12.77-11.03,12.77s-2.71-9.19-7.54-9.71c-4.14-0.45-12,8.29-16.13,13.21L60.45,149.19z"
			/>
		<path class="st2" d="M367.06,200.97l91.97-0.26l-23.46-4.31c0,0,0.96-23.72-10.53-18.97c-11.49,4.74-11.97,15.09-11.97,15.09
			s-4.31-9.49-10.53-6.04c-6.22,3.45-9.1,9.49-9.1,9.49s-2.23-6.83-6.22-7.21c-3.41-0.33-9.9,6.16-13.3,9.81L367.06,200.97z"/>
		<path class="st2" d="M217.45,69.18l91.97-0.29l-23.46-4.79c0,0,0.96-26.33-10.53-21.07c-11.49,5.27-11.97,16.76-11.97,16.76
			s-4.31-10.53-10.53-6.7c-6.22,3.83-9.1,10.53-9.1,10.53s-2.23-7.58-6.22-8.01c-3.41-0.37-9.9,6.84-13.3,10.9L217.45,69.18z"/>
	</g>
	<g>
		<path class="st3" d="M379.23,53.26l-6.99,2.43l-3.03-8.74c-5.59-16.11-23.26-24.67-39.36-19.08
			c-16.11,5.59-24.66,23.25-19.06,39.36l3.03,8.74l-7.02,2.44c-5.46,1.89-8.39,7.93-6.49,13.39l19.74,56.85
			c1.92,5.54,7.97,8.48,13.43,6.59l72.44-25.15c5.54-1.92,8.48-7.98,6.55-13.52l-19.74-56.85
			C390.82,54.25,384.77,51.33,379.23,53.26z M323.98,62.65c-3.07-8.83,1.62-18.51,10.45-21.58c8.83-3.06,18.5,1.63,21.57,10.46
			l3.03,8.74l-32.01,11.11L323.98,62.65z M365.96,114.47l5.04,14.52c0.21,0.61-0.15,1.24-0.77,1.46l-6.95,2.41
			c-0.53,0.18-1.21-0.08-1.43-0.7l-5.04-14.52c-5.39-0.19-10.41-3.59-12.31-9.05c-2.44-7.02,1.29-14.73,8.34-17.17
			c7.04-2.44,14.74,1.29,17.18,8.32C371.91,105.2,370.07,110.98,365.96,114.47z"/>
		<g class="st0">
			<path class="st4" d="M331.32,334.13c-1.72-3.35,2.31-6.95,6.02-7.61c3.71-0.66,7.91-0.16,10.87-2.5
				c3.95-3.13,3.74-9.94,8.12-12.43c3.51-2,8.15-0.09,11.87-1.67c4.62-1.97,5.92-8.4,10.45-10.56c3.61-1.72,8.33,0.22,10.18,3.78
				c1.84,3.55,1,8.14-1.56,11.22c-2,2.41-4.96,4.1-6.2,6.97c-1.94,4.5,1.12,9.95-0.66,14.51c-3.31,8.42-18.92,5.89-21.63,14.52
				c-0.6,1.92-0.35,3.99-0.51,6c-0.47,5.97-4.68,11.19-9.88,14.17c-5.2,2.98-11.29,4.01-17.27,4.43c-2.44,0.17-5.02,0.22-7.2-0.9
				c-2.05-1.05-3.48-3.02-4.59-5.03C312.14,355.99,309.18,339.02,331.32,334.13"/>
		</g>
		<g class="st0">
			<path class="st5" d="M216.15,327.21c3.86-2.55,1.71-8.82-1.86-11.76c-3.57-2.94-8.37-4.93-10.12-9.22
				c-2.34-5.72,1.98-12.89-1.19-18.19c-2.55-4.25-8.67-5.01-11.69-8.94c-3.76-4.88-1.27-12.55-4.82-17.59
				c-2.83-4.02-9.05-4.78-13.16-2.09c-4.11,2.69-5.97,8.11-5.09,12.94c0.69,3.78,2.84,7.37,2.44,11.19
				c-0.63,5.98-7.19,9.96-8.03,15.92c-1.54,11,16.69,17.69,14.39,28.56c-0.51,2.42-2.03,4.48-3.07,6.73
				c-3.1,6.67-1.74,14.79,2.04,21.11c3.77,6.32,9.66,11.09,15.8,15.13c2.51,1.65,5.23,3.26,8.24,3.37c2.83,0.11,5.53-1.13,7.94-2.62
				C223.5,362.14,236.89,345.76,216.15,327.21"/>
		</g>
		<g class="st0">
			<g class="st6">
				<path class="st7" d="M317.45,341c5.4-2.33,10.26-6.64,14.29-10.8c10.87-11.22,17.61-25.88,21.16-40.97
					c3.21-13.65,3.92-27.77,3.25-41.74c-0.06-1.18-1.9-1.19-1.85,0c1.51,31.39-4.73,69.92-32.82,89.02
					c-1.57,1.07-3.22,2.14-4.97,2.89C315.43,339.88,316.37,341.47,317.45,341L317.45,341z"/>
			</g>
			<path class="st8" d="M353.16,283.96c0,0,1.78-10.17,15.25-11.78C368.41,272.18,363.49,284.21,353.16,283.96z"/>
			<path class="st8" d="M348.74,298.99c0,0,4.1-9.47,17.58-7.89C366.32,291.09,358.73,301.65,348.74,298.99z"/>
			<path class="st8" d="M343.02,312.24c0,0,6.12-8.31,18.9-3.75C361.92,308.48,352.16,317.07,343.02,312.24z"/>
			<path class="st8" d="M355.23,268.16c0,0,1.75-10,14.99-11.58C370.22,256.58,365.39,268.42,355.23,268.16z"/>
			<path class="st8" d="M355.41,250.79c0,0-7.54-6.79-1.85-18.85C353.56,231.94,361.02,242.31,355.41,250.79z"/>
			<path class="st8" d="M355.45,261.1c0,0-9.98-1.84-11.44-15.1C344.01,245.99,355.8,250.94,355.45,261.1z"/>
			<path class="st8" d="M354.46,276.33c0,0-9.98-1.84-11.44-15.1C343.02,261.23,354.8,266.17,354.46,276.33z"/>
			<path class="st8" d="M351.86,290.59c0,0-9.83-2.54-10.35-15.87C341.51,274.73,352.92,280.48,351.86,290.59z"/>
			<path class="st8" d="M347.34,304.84c0,0-9.83-2.54-10.35-15.87C336.98,288.98,348.39,294.73,347.34,304.84z"/>
		</g>
		<g>
			<path class="st9" d="M319.16,376.78H218.04c-11.68,0-21.15-9.47-21.15-21.15V116.71c0-11.68,9.47-21.15,21.15-21.15h101.12
				c11.68,0,21.15,9.47,21.15,21.15v238.93C340.31,367.31,330.84,376.78,319.16,376.78z"/>
			<path class="st10" d="M318.88,366.84H218.32c-8.18,0-14.81-6.63-14.81-14.81V118.64c0-8.18,6.63-14.81,14.81-14.81h100.56
				c8.18,0,14.81,6.63,14.81,14.81v233.39C333.69,360.21,327.06,366.84,318.88,366.84z"/>
			<path class="st9" d="M307.56,103.83h-8.47c-2.6,0-4.7,2.11-4.7,4.7v3.36c0,2.6-2.11,4.7-4.7,4.7h-37.75c-2.6,0-4.7-2.11-4.7-4.7
				v-3.36c0-2.6-2.11-4.7-4.7-4.7h-24.04v-2.41h89.07V103.83z"/>
			<g>
				<g>
					<g>
						<path class="st11" d="M272.22,144.36c0.55-0.3,0.93-0.87,0.93-1.54c0-0.97-0.79-1.75-1.75-1.75c-0.97,0-1.75,0.78-1.75,1.75
							c0,0.67,0.38,1.24,0.93,1.54c-1.11,0.35-1.91,1.39-1.91,2.61v1.38h5.47v-1.38C274.13,145.75,273.33,144.71,272.22,144.36z"/>
						<g>
							<text transform="matrix(1 0 0 1 248.0692 158.0378)" class="st11 st12 st13">Create Account</text>
						</g>
					</g>
					<g>
						<path class="st14" d="M294.03,328.27h-52.21c-0.54,0-0.98-0.44-0.98-0.98v-10.21c0-0.54,0.44-0.98,0.98-0.98h52.21
							c0.54,0,0.98,0.44,0.98,0.98v10.21C295.01,327.83,294.57,328.27,294.03,328.27z"/>
						<g>
							<text transform="matrix(1 0 0 1 258.579 323.508)" class="st15 st12 st16">Register</text>
						</g>
					</g>
					<g>
						<g class="st17">
							<text transform="matrix(1 0 0 1 221.8573 174.3825)" class="st11 st12 st18">Email Address</text>
						</g>
						<g>
							<text transform="matrix(1 0 0 1 226.4677 187.7697)" class="st11 st12 st18">youremail@gmail.c</text>
						</g>
						<path class="st19" d="M318.18,193.77h-93.57c-1.52,0-2.76-1.24-2.76-2.76v-9.41c0-1.52,1.24-2.76,2.76-2.76h93.57
							c1.52,0,2.76,1.24,2.76,2.76v9.41C320.94,192.54,319.71,193.77,318.18,193.77z"/>
					</g>
					<g>
						<g>
							<g class="st20">
								<text transform="matrix(1 0 0 1 221.8573 207.6144)" class="st11 st12 st18">Country</text>
							</g>
							<g>
								<g>
									<text transform="matrix(1 0 0 1 226.4677 220.8722)" class="st11 st12 st18">Your text</text>
								</g>
								<path class="st19" d="M318.18,227.13h-93.57c-1.52,0-2.76-1.24-2.76-2.76v-9.41c0-1.52,1.24-2.76,2.76-2.76h93.57
									c1.52,0,2.76,1.24,2.76,2.76v9.41C320.94,225.9,319.71,227.13,318.18,227.13z"/>
							</g>
						</g>
					</g>
					<g>
						<g>
							<g class="st20">
								<text transform="matrix(1 0 0 1 221.8573 242.7023)" class="st11 st12 st18">City</text>
							</g>
							<g>
								<g>
									<text transform="matrix(1 0 0 1 226.4677 255.9611)" class="st11 st12 st18">Your City</text>
								</g>
								<path class="st19" d="M318.18,262.22h-93.57c-1.52,0-2.76-1.24-2.76-2.76v-9.41c0-1.52,1.24-2.76,2.76-2.76h93.57
									c1.52,0,2.76,1.24,2.76,2.76v9.41C320.94,260.99,319.71,262.22,318.18,262.22z"/>
							</g>
						</g>
					</g>
					<g>
						<g>
							<g class="st20">
								<text transform="matrix(1 0 0 1 221.8573 277.9621)" class="st11 st12 st18">Password</text>
							</g>
							<g>
								<g>
									<text transform="matrix(1 0 0 1 226.4677 291.2199)" class="st11 st12 st18">Entry password</text>
								</g>
								<path class="st19" d="M318.18,297.48h-93.57c-1.52,0-2.76-1.24-2.76-2.76v-9.41c0-1.52,1.24-2.76,2.76-2.76h93.57
									c1.52,0,2.76,1.24,2.76,2.76v9.41C320.94,296.24,319.71,297.48,318.18,297.48z"/>
							</g>
						</g>
					</g>
				</g>
				<line class="st21" x1="267.06" y1="182.87" x2="267.06" y2="188.14"/>
			</g>
		</g>
	</g>
	<g>
		<path class="st22" d="M318.23,419.36c0-1.16-28.54-2.11-63.74-2.11c-35.2,0-63.74,0.94-63.74,2.11c0,1.16,28.54,2.11,63.74,2.11
			C289.7,421.47,318.23,420.53,318.23,419.36z"/>
		<g>
			<path class="st23" d="M261.23,284.5c0,0,6.33,9.78,7.77,5.54c1.43-4.24,2.31-6.83,2.31-6.83s-1.8-2.95-2.75-2.04
				c-1,0.95-2.29-0.78-2.29-0.78L261.23,284.5z"/>
			<g>
				<path class="st23" d="M292.53,233.92l2.62-15.2c1.72-0.55,3.48-1.88,2.88-3.93c-0.3-1.03-1.11-1.57-2.05-1.93
					c-0.36-0.13-2.19-0.66-2.31,0.04c0-0.01,1-5.48,1-5.48l-17.82-8.6c0,0-1.62,10.91-1.64,11.04c0.03-0.17-1.73-0.56-1.97-0.54
					c-0.9,0.1-1.77,0.93-2.12,1.71c-0.93,2.07,0.87,4.68,3.11,4.72c0,0,0.31,4.89,1.44,6.63c1.13,1.74,6.37,2.94,6.37,2.94
					l-0.57,6.62L292.53,233.92z"/>
			</g>
			<g>
				<path class="st24" d="M298.55,235.17c-8.05-2.26-19.37-4.25-19.37-4.25l-7.5,53.44l31.61-0.98L298.55,235.17z"/>
			</g>
			<g>
				<path class="st24" d="M298.55,235.17c10.52,2.76,20.9,4.84,31.71,5.95c-2.41-10.95-3.73-19.33-6.87-28.63
					c3-0.76,8.87-2.26,11.87-3.02c0,0,9.96,34.69,6.93,39.31c-5.14,7.87-30.76,2.69-30.76,2.69l-12.12-2.16L298.55,235.17z"/>
			</g>
			<g>
				<path class="st24" d="M244.41,246.93c0,0,33.93-16.6,35.49-15.99c1.56,0.61,2.88,8.31,2.88,8.31s-12.3,7.83-31.32,16.67
					l17.3,23.55l-8.62,6.18c0,0-23.76-26.7-22.86-32.22C237.99,249.18,244.41,246.93,244.41,246.93z"/>
			</g>
			<path class="st23" d="M334.75,209.6c0,0-1.4-9.82-1.57-10.1c-0.17-0.28-0.17-2.01-2.69-1.59c0,0-0.17-3.11-1.62-3.17
				c-1.46-0.06-3.08,0.34-3.08,0.34s-1.64-7.98-2.7-9.36c-1.16-1.51-2.79,2.47-0.27,12.19c0,0,1.4,6.61,0.98,6.85
				c-1.13,0.66-2.68,0.54-4.82-3.13c-2.28-3.9-5.12-2.58-3.72,0.45c1.4,3.03,3.39,6.94,4.67,8c1.29,1.06,4.01,0.9,4.01,0.9l0.4,1.26
				L334.75,209.6z"/>
			<g>
				<path class="st25" d="M303.3,283.39c-3.81,57.83-16.74,129.2-16.74,129.2l12.66,5.36h-26.96l17.68-126.21h-6.06l-44.73,126.29
					h-26.93l15.32-5.59l44.72-132.19L303.3,283.39z"/>
			</g>
			<path class="st26" d="M296.81,213.27c1.51-3.01,3.27-10.33-1.31-12.36c-2.37-1.06-4.84-2.57-6.65-3.79
				c-2.79-1.87-6.25-2.61-9.49-1.71c-0.52,0.14-1.03,0.33-1.5,0.56c-3.19,1.57-5.35,10.05-5.35,10.05l3.14,0.79
				c0,0,3.5,15.57,9.26,18.77l5.75,1.22l3.4,0.76L296.81,213.27z"/>
			<g>
				<g>
					<path class="st26" d="M292.64,199.83c0.02-0.93-0.01-1.86-0.11-2.79c-0.04-0.38-0.63-0.38-0.6,0c0.1,0.93,0.13,1.86,0.11,2.79
						C292.04,200.21,292.63,200.21,292.64,199.83L292.64,199.83z"/>
				</g>
			</g>
			<g>
				<g>
					<path class="st26" d="M292.64,199.95c0.39-0.25,0.52-0.7,0.74-1.1c0.28-0.5,0.59-0.97,0.94-1.43c0.23-0.3-0.28-0.6-0.51-0.3
						c-0.27,0.36-0.53,0.73-0.76,1.12c-0.2,0.33-0.38,0.99-0.71,1.2C292.02,199.64,292.32,200.15,292.64,199.95L292.64,199.95z"/>
				</g>
			</g>
		</g>
	</g>
	<g>
		<path class="st22" d="M182.45,404.02c0-1.16-28.54-2.11-63.74-2.11s-63.74,0.94-63.74,2.11c0,1.16,28.54,2.11,63.74,2.11
			S182.45,405.19,182.45,404.02z"/>
		<g>
			<path class="st25" d="M140.64,182.74c-1.2-0.27-2.31-0.32-3.84-0.46c-2.28-0.21-4.36,1.27-6.09,2.77
				c-1.73,1.51-2.97,3.48-4.09,5.48c-1.14,2.04-2.21,4.41-1.53,6.65c0.17,0.57,0.46,1.13,0.45,1.72c-0.02,1.85-2.58,2.55-3.38,4.23
				c-0.99,2.07,1.03,4.85-0.34,6.69c-0.68,0.92-2,1.21-2.64,2.15c-0.51,0.74-0.49,1.71-0.45,2.61c0.01,0.18,0.03,0.39,0.16,0.51
				c0.11,0.1,0.28,0.12,0.43,0.14c7.3,0.7,14.53-0.88,21.83-0.18c0.88,0.08,1.77,0.17,2.65,0.07c1.26-0.15,2.44-0.68,3.6-1.2
				c6.31-2.88,12.63-3.62,18.79-6.79c0.26-0.13,0.53-0.28,0.66-0.54c0.1-0.2,0.1-0.43,0.07-0.65c-0.17-1.63-1.37-3.1-2.92-3.59
				c-1.61-0.5-3.53-0.06-4.87-1.08c-0.97-0.73-1.32-2.02-1.45-3.23c-0.26-2.45,0.02-5.29-1.76-7.01c-1.39-1.34-3.62-1.49-5.02-2.82
				c-0.8-0.76-1.22-1.82-1.87-2.71C147.16,182.87,143.95,181.35,140.64,182.74"/>
			<g>
				<path class="st27" d="M128.44,267.1L87.74,395.89l-16.02,6.18H95.5l45.95-121.33c0.29-0.78,1.04-1.29,1.87-1.29l0,0
					c1.19,0,2.12,1.03,1.99,2.22L133.2,402.06h24.06l-16.06-5.31c0,0,14.97-70.01,18.3-91.92c3.33-21.91-1.5-37.39-1.5-37.39
					S142.4,262.5,128.44,267.1z"/>
			</g>
			<g>
				<path class="st7" d="M128.91,220.75c3.73-3.9,18.56-4.34,23.92-2.14c5.36,2.2,15.22,30.68,15.22,30.68l-9.81,3.85l-6.09-23.81
					l-19.08-2.63L128.91,220.75z"/>
			</g>
			<g>
				<path class="st7" d="M153.98,232.83c0,0,1.67-3.94,2.03-6.98c0.36-3.04-3.78-6.02-3.78-6.02l-22.44,5.82l1.4,13.37l-3.29,27.01
					l28.52,1.06l-2.87-34.14"/>
			</g>
			<g>
				<path class="st28" d="M131.49,233.6c-0.1,0-0.19-0.03-0.27-0.09c-0.2-0.15-0.24-0.44-0.09-0.64l1.6-2.12
					c0.15-0.2,0.44-0.24,0.64-0.09c0.2,0.15,0.24,0.44,0.09,0.64l-1.59,2.12C131.77,233.54,131.63,233.6,131.49,233.6z"/>
			</g>
			<g>
				<path class="st29" d="M117.24,270.63c1.71-1,3.43-2,5.15-3"/>
			</g>
			<g>
				<path class="st23" d="M139.46,217.54c-0.31-2.98,1.21-6-3.6-7.93c-6.63-2.66-8.05-25.52,3.92-25.57
					c11.98-0.05,11.39,15.04,11.34,19.52c-0.05,4.48-3.99,5.62-4.98,7.24c-0.99,1.62-0.13,6.74-0.13,6.74H139.46z"/>
			</g>
			<g>
				<path class="st23" d="M132.67,200.22c0,1.47-1.03,2.66-2.3,2.66c-1.27,0-2.3-1.19-2.3-2.66c0-1.47,1.03-2.66,2.3-2.66
					C131.64,197.57,132.67,198.76,132.67,200.22z"/>
			</g>
			<g>
				<ellipse class="st23" cx="151.85" cy="198.17" rx="2.3" ry="2.66"/>
			</g>
			<path class="st3" d="M201.43,246.57l-3.55-9l-100.4,39.41c-3.88-5.24-10.1-8.63-17.11-8.63c-11.75,0-21.27,9.52-21.27,21.27
				s9.52,21.27,21.27,21.27s21.27-9.52,21.27-21.27c0-0.87-0.06-1.73-0.16-2.58l76.46-30.96l4.2,9.24l9.33-4.27l-3.28-7.35l3.02-1.6
				l3.56,7.07l6.67-3.56l-3.7-7.54L201.43,246.57z M80.37,303.49c-7.65,0-13.86-6.2-13.86-13.86c0-7.65,6.21-13.86,13.86-13.86
				c7.65,0,13.86,6.2,13.86,13.86C94.23,297.28,88.03,303.49,80.37,303.49z"/>
			<g>
				<path class="st7" d="M128.91,220.75c0,0-25.31,22.54-25.45,26.72c-0.14,4.18,14.91,26.19,14.91,26.19l7.52-4.76l-10.54-19.73
					l17.15-16.35c0,0,0.56,3.8,1.93,4.83l0.76-15.04L128.91,220.75z"/>
			</g>
			<path class="st25" d="M148.72,189.3c-3.29,0.17-17.88,1.65-17.88,1.65s2.13-8.76,8.94-9.1
				C148.72,181.4,148.72,189.3,148.72,189.3z"/>
			<path class="st25" d="M130.87,198.54c0,0,11.82-1.11,13.89-6.69c0,0,3.92,5.02,6.22,4.76c0,0,0.38-6.6-1.05-7.49
				s-19.56,0.95-19.56,0.95S129.9,194.3,130.87,198.54z"/>
			<path class="st23" d="M118.69,273.4c0,0,3.23,6.81,3.41,6.97s0.58,1.42,2.31,0.55c0,0,0.82,2.22,1.89,1.93
				c1.07-0.29,2.16-0.94,2.16-0.94s1.3,1.73,2.26,0.81c1.12-1.07,0.06-2.25-0.74-3.54c0,0-2.5-4.48-2.25-4.75
				c0.67-0.73,1.82-0.99,4.21,1.19c2.53,2.31,4.29,0.72,2.6-1.16c-1.7-1.88-4.02-4.27-5.19-4.75c-1.17-0.48-3.11,0.25-3.11,0.25
				l-0.57-0.83L118.69,273.4z"/>
			<path class="st7" d="M170.45,259.12c0,0-1.81,5.15-4.98,6.02c-3.17,0.87-20.92,4.47-20.92,4.47v-7.02L170.45,259.12z"/>
			<path class="st23" d="M144.55,263.43h-1.35c0,0-0.3-0.95-0.5-1.26c-0.56-0.9-7.99-1.85-7.85-0.87c0.14,0.97,1.36,1.21,3.98,1.7
				c0,0-9.8,2.38-8.88,3.15c0.92,0.78,7.04-1.01,7.04-1.01s-6.63,2.16-6.16,3.63c0.27,0.84,6.99-1.14,6.99-1.14
				s-6.85,2.45-5.63,3.27c1.21,0.83,8.78-1.03,9.51-1.29c0.73-0.26,1.01-1.67,1.01-1.67l1.85-0.31V263.43z"/>
			<g>
				<path class="st25" d="M138.96,179.18c0.26,1.08,0.37,2.43,0.99,3.38c0.26,0.39,0.89,0.03,0.63-0.37
					c-0.57-0.87-0.68-2.2-0.92-3.21C139.56,178.52,138.85,178.72,138.96,179.18L138.96,179.18z"/>
			</g>
			<g>
				<path class="st25" d="M140.56,182.62c0.37-0.67,0.77-1.31,1.2-1.95c0.26-0.39-0.37-0.76-0.63-0.37
					c-0.43,0.63-0.83,1.28-1.2,1.95C139.69,182.67,140.33,183.04,140.56,182.62L140.56,182.62z"/>
			</g>
			<g>
				<path class="st30" d="M141.98,198.03c-0.03,0.84-0.01,1.68,0.09,2.52c0.05,0.43,0.01,1.2,0.31,1.52
					c0.17,0.19,0.53,0.17,0.74,0.21c0.8,0.12,1.61,0.22,2.42,0.32c-0.04-0.1-0.09-0.21-0.13-0.31c-0.69,0.65-1.42,1.13-2.29,1.5
					c-0.22,0.09-0.03,0.41,0.18,0.32c0.9-0.38,1.66-0.88,2.37-1.55c0.13-0.12,0.02-0.29-0.13-0.31c-0.84-0.11-2.55-0.02-2.99-0.9
					c-0.41-0.83-0.24-2.41-0.21-3.3C142.35,197.8,141.98,197.8,141.98,198.03L141.98,198.03z"/>
			</g>
			<g>
				<path class="st31" d="M145.74,200.55c0.11-0.84-0.43-2.79,0.63-3.2c0.94-0.36,1.53,0.42,1.67,1.21c0.09,0.5,0.18,0.99,0.27,1.49
					c0.04,0.23,0.4,0.13,0.35-0.1c-0.22-1.22-0.27-3.29-2.08-3.05c-1.69,0.23-1.07,2.57-1.21,3.64
					C145.34,200.79,145.71,200.79,145.74,200.55L145.74,200.55z"/>
			</g>
			<g>
				<path class="st31" d="M136.28,201.05c0.11-0.84-0.43-2.79,0.63-3.2c0.94-0.36,1.53,0.42,1.67,1.21c0.09,0.5,0.18,0.99,0.27,1.49
					c0.04,0.23,0.4,0.13,0.35-0.1c-0.22-1.22-0.27-3.29-2.08-3.05c-1.69,0.23-1.07,2.57-1.21,3.64
					C135.88,201.29,136.25,201.29,136.28,201.05L136.28,201.05z"/>
			</g>
			<g>
				<path class="st30" d="M138.78,203.18c0.39,3.05,5.56,3.66,7.45,1.81c0.17-0.16-0.09-0.42-0.26-0.26
					c-1.58,1.54-6.47,1.18-6.83-1.55C139.12,202.95,138.75,202.95,138.78,203.18L138.78,203.18z"/>
			</g>
			<g>
				<path class="st30" d="M138.71,203.69c0.11-0.32,0.43-0.53,0.77-0.48c0.23,0.04,0.33-0.31,0.1-0.35
					c-0.54-0.09-1.05,0.2-1.22,0.73C138.28,203.82,138.63,203.92,138.71,203.69L138.71,203.69z"/>
			</g>
			<g class="st32">
				<path class="st33" d="M138.25,201.96c0.16,0.41-0.56,1.08-1.66,1.31c-0.53,0.12-1.09,0.1-1.4,0c-0.3-0.1-0.52-0.21-0.63-0.4
					c-0.05-0.1-0.05-0.22,0.03-0.35c0.07-0.13,0.22-0.26,0.41-0.37c0.37-0.2,0.76-0.34,1.26-0.45
					C137.21,201.51,138.08,201.55,138.25,201.96z"/>
			</g>
			<g class="st32">
				<path class="st33" d="M150.27,201.13c0.16,0.41-0.56,1.08-1.66,1.31c-0.53,0.12-1.09,0.1-1.4,0c-0.3-0.1-0.52-0.21-0.63-0.4
					c-0.05-0.1-0.05-0.22,0.03-0.35c0.07-0.13,0.22-0.26,0.41-0.37c0.37-0.2,0.76-0.34,1.26-0.45
					C149.23,200.67,150.11,200.71,150.27,201.13z"/>
			</g>
			<g>
				<path class="st30" d="M130.21,198.85c-0.72,0.02-1.1,0.7-1.04,1.37c0.07,0.68,0.54,1.2,1.23,1.25c0.24,0.02,0.23-0.35,0-0.37
					c-0.97-0.07-1.28-1.85-0.2-1.89C130.45,199.2,130.45,198.84,130.21,198.85L130.21,198.85z"/>
			</g>
			<g>
				<path class="st30" d="M129.23,199.85c0.35,0.44,0.88,0.67,1.43,0.63c0.23-0.02,0.24-0.38,0-0.37c-0.47,0.03-0.88-0.16-1.18-0.52
					C129.35,199.4,129.09,199.66,129.23,199.85L129.23,199.85z"/>
			</g>
			<g>
				<path class="st30" d="M151.67,199.48c0.79,0.19,1.23-0.53,1.33-1.22c0.11-0.76-0.36-1.49-1.16-1.57c-0.23-0.02-0.23,0.35,0,0.37
					c0.51,0.05,0.86,0.56,0.82,1.04c-0.04,0.47-0.28,1.17-0.89,1.02C151.54,199.07,151.44,199.42,151.67,199.48L151.67,199.48z"/>
			</g>
			<g>
				<path class="st30" d="M151.89,198.4c0.35-0.31,0.56-0.71,0.63-1.18c0.03-0.23-0.32-0.33-0.35-0.1c-0.06,0.4-0.23,0.74-0.54,1.01
					C151.46,198.29,151.72,198.55,151.89,198.4L151.89,198.4z"/>
			</g>
		</g>
	</g>
	<text transform="matrix(1 0 0 1 137.1238 448.4275)" class="st0"><tspan x="0" y="0" class="st34 st35 st36">Online </tspan><tspan x="45.67" y="0" class="st34 st37 st36">Registration Concept</tspan></text>
</g>
<g id="Designed_by_freepik" class="st0">
	<g class="st6">
		<g id="XMLID_29_">
			<g id="XMLID_48_">
				<path id="XMLID_56_" class="st38" d="M260.1,470.54c-0.43,0.44-0.8,0.93-1.11,1.45l-0.47-0.24c-0.07-0.3-0.35-0.5-0.66-0.47
					c-0.33,0.04-0.57,0.34-0.53,0.67c0.04,0.33,0.34,0.57,0.67,0.53c0.07-0.01,0.13-0.03,0.18-0.05l0.45,0.23
					c-0.25,0.55-0.43,1.14-0.54,1.74l0.75,0.13c0.23-1.31,0.85-2.51,1.79-3.47L260.1,470.54z"/>
				<path id="XMLID_55_" class="st38" d="M265.59,468.24c-0.17,0-0.34,0.01-0.51,0.02l-0.07-0.63c0.19-0.15,0.3-0.39,0.27-0.64
					c-0.05-0.39-0.4-0.67-0.8-0.63c-0.39,0.05-0.67,0.4-0.63,0.8c0.03,0.25,0.19,0.46,0.4,0.56l0.07,0.62
					c-0.71,0.12-1.4,0.33-2.06,0.65l0.33,0.68c0.93-0.45,1.94-0.67,3-0.67c0.5,0,0.99,0.05,1.48,0.16l0.16-0.74
					C266.69,468.3,266.14,468.24,265.59,468.24z"/>
				<path id="XMLID_54_" class="st38" d="M272.19,470.79c0.33-0.04,0.57-0.34,0.53-0.67c-0.04-0.33-0.34-0.57-0.67-0.53
					c-0.31,0.04-0.54,0.3-0.53,0.61l-0.42,0.36c-0.42-0.43-0.89-0.81-1.41-1.14l-0.4,0.64c1.13,0.71,2.02,1.73,2.56,2.93l0.69-0.31
					c-0.25-0.55-0.57-1.07-0.94-1.55l0.4-0.35C272.06,470.79,272.13,470.8,272.19,470.79z"/>
				<path id="XMLID_53_" class="st38" d="M265.04,478.45c-0.39,0.02-0.77,0.03-1.16,0.03c-0.88,0-1.73-0.06-2.48-0.18
					c-0.39-0.06-0.85-0.15-1.27-0.29c1.05,1.86,3.07,3.13,5.39,3.13c2.86,0,5.26-1.92,5.95-4.5c-0.68,0.45-1.51,0.83-2.46,1.12
					C267.84,478.12,266.46,478.36,265.04,478.45z"/>
				<path id="XMLID_49_" class="st38" d="M265.59,469.76c-3.35,0-6.08,2.67-6.08,5.94c0,0.43,0.05,0.85,0.14,1.26
					c0.67,0.48,2.71,0.89,5.35,0.73c2.88-0.17,5.3-0.96,6.67-2.16c-0.01-0.19-0.02-0.39-0.05-0.58
					C271.24,471.99,268.65,469.76,265.59,469.76z M263.43,476.27c-1.02,0-1.85-0.83-1.85-1.85c0-1.02,0.83-1.85,1.85-1.85
					c1.02,0,1.85,0.83,1.85,1.85C265.28,475.44,264.45,476.27,263.43,476.27z M268.17,475.36c-0.75,0-1.36-0.61-1.36-1.36
					s0.61-1.36,1.36-1.36c0.75,0,1.36,0.61,1.36,1.36S268.92,475.36,268.17,475.36z"/>
			</g>
			<path id="XMLID_46_" class="st38" d="M281.6,471.62c-0.29-0.12-0.81-0.31-1.38-0.24c-0.55,0.07-0.84,0.34-0.84,1.01v0.87h2.23
				v1.72h-2.23v5.45h-1.93v-5.45h-1.34v-1.72h1.34v-0.89c0-1.68,0.9-2.78,2.57-2.78c0.64,0,1.16,0.12,1.59,0.31L281.6,471.62z"/>
			<path id="XMLID_44_" class="st38" d="M286.3,474.96c-0.18-0.03-0.36-0.05-0.53-0.05c-0.9,0-1.51,0.55-1.51,1.61v3.91h-1.93v-7.17
				h1.87v0.78c0.45-0.67,1.14-0.98,2.02-0.98c0.41,0,0.85,0.13,1.09,0.34L286.3,474.96z"/>
			<path id="XMLID_41_" class="st38" d="M293.97,476.83c0,0.22-0.01,0.49-0.04,0.65h-5.08c0.21,1.04,0.93,1.49,1.84,1.49
				c0.62,0,1.3-0.25,1.81-0.69l1.13,1.24c-0.81,0.75-1.85,1.09-3.06,1.09c-2.2,0-3.72-1.5-3.72-3.75c0-2.26,1.48-3.8,3.63-3.8
				C292.54,473.07,293.96,474.6,293.97,476.83z M288.85,476.17h3.18c-0.18-0.92-0.73-1.44-1.56-1.44
				C289.55,474.73,289.02,475.28,288.85,476.17z"/>
			<path id="XMLID_38_" class="st38" d="M301.62,476.83c0,0.22-0.01,0.49-0.04,0.65h-5.08c0.21,1.04,0.93,1.49,1.84,1.49
				c0.62,0,1.3-0.25,1.81-0.69l1.13,1.24c-0.81,0.75-1.85,1.09-3.06,1.09c-2.2,0-3.72-1.5-3.72-3.75c0-2.26,1.48-3.8,3.63-3.8
				C300.2,473.07,301.61,474.6,301.62,476.83z M296.5,476.17h3.18c-0.18-0.92-0.73-1.44-1.56-1.44
				C297.21,474.73,296.67,475.28,296.5,476.17z"/>
			<path id="XMLID_35_" class="st38" d="M309.96,476.84c0,2.15-1.49,3.77-3.47,3.77c-0.96,0-1.64-0.38-2.11-0.93v3.71h-1.92v-10.13
				h1.89v0.79c0.47-0.58,1.15-0.98,2.14-0.98C308.47,473.07,309.96,474.69,309.96,476.84z M304.29,476.84
				c0,1.13,0.75,1.98,1.84,1.98c1.14,0,1.85-0.88,1.85-1.98c0-1.1-0.71-1.98-1.85-1.98C305.03,474.87,304.29,475.71,304.29,476.84z"
				/>
			<path id="XMLID_32_" class="st38" d="M313.07,470.91c0,0.7-0.54,1.23-1.24,1.23c-0.7,0-1.23-0.53-1.23-1.23
				c0-0.7,0.53-1.24,1.23-1.24C312.53,469.67,313.07,470.22,313.07,470.91z M312.81,480.43h-1.93v-7.17h1.93V480.43z"/>
			<path id="XMLID_30_" class="st38" d="M316.03,475.81l2.7-2.55h2.37l-3.48,3.38l3.5,3.8h-2.38l-2.72-2.9v2.9h-1.93v-10.66h1.93
				V475.81z"/>
		</g>
		<g>
			<path class="st38" d="M184.41,480.37v-1.05c-0.53,0.72-1.39,1.23-2.39,1.23c-1.85,0-3.15-1.41-3.15-3.71
				c0-2.26,1.29-3.72,3.15-3.72c0.95,0,1.82,0.47,2.39,1.25v-3.76h1.1v9.77H184.41z M184.41,478.45v-3.21
				c-0.4-0.62-1.24-1.14-2.12-1.14c-1.42,0-2.27,1.17-2.27,2.74c0,1.57,0.85,2.72,2.27,2.72
				C183.17,479.56,184.02,479.06,184.41,478.45z"/>
			<path class="st38" d="M186.93,476.82c0-2.05,1.46-3.71,3.49-3.71c2.14,0,3.4,1.67,3.4,3.79v0.28h-5.73
				c0.09,1.33,1.03,2.45,2.55,2.45c0.81,0,1.63-0.32,2.18-0.89l0.53,0.72c-0.7,0.7-1.65,1.08-2.81,1.08
				C188.44,480.54,186.93,479.03,186.93,476.82z M190.4,474.02c-1.51,0-2.26,1.27-2.31,2.36h4.64
				C192.72,475.33,192.01,474.02,190.4,474.02z"/>
			<path class="st38" d="M194.61,479.43l0.57-0.79c0.47,0.54,1.36,1.01,2.33,1.01c1.08,0,1.67-0.51,1.67-1.22
				c0-1.71-4.38-0.66-4.38-3.28c0-1.1,0.95-2.04,2.64-2.04c1.2,0,2.05,0.45,2.62,1.03l-0.51,0.76c-0.42-0.51-1.2-0.89-2.11-0.89
				c-0.97,0-1.57,0.48-1.57,1.11c0,1.55,4.38,0.53,4.38,3.28c0,1.19-0.95,2.14-2.78,2.14C196.31,480.54,195.32,480.19,194.61,479.43
				z"/>
			<path class="st38" d="M201.48,471.55c0-0.41,0.34-0.75,0.73-0.75c0.41,0,0.75,0.34,0.75,0.75c0,0.41-0.34,0.73-0.75,0.73
				C201.81,472.28,201.48,471.96,201.48,471.55z M201.67,480.37v-7.07h1.1v7.07H201.67z"/>
			<path class="st38" d="M204.58,482.18l0.56-0.82c0.59,0.7,1.29,0.97,2.3,0.97c1.17,0,2.27-0.57,2.27-2.12v-1.01
				c-0.51,0.72-1.38,1.26-2.37,1.26c-1.85,0-3.15-1.38-3.15-3.66c0-2.27,1.29-3.68,3.15-3.68c0.95,0,1.8,0.47,2.37,1.25v-1.07h1.1
				v6.87c0,2.34-1.64,3.08-3.37,3.08C206.24,483.24,205.42,483,204.58,482.18z M209.71,478.33v-3.09c-0.38-0.62-1.23-1.14-2.11-1.14
				c-1.42,0-2.27,1.13-2.27,2.7c0,1.55,0.85,2.7,2.27,2.7C208.48,479.49,209.33,478.95,209.71,478.33z"/>
			<path class="st38" d="M217.41,480.37v-4.63c0-1.24-0.63-1.64-1.58-1.64c-0.86,0-1.68,0.53-2.09,1.1v5.17h-1.1v-7.07h1.1v1.03
				c0.5-0.59,1.46-1.2,2.52-1.2c1.48,0,2.26,0.75,2.26,2.29v4.97H217.41z"/>
			<path class="st38" d="M219.93,476.82c0-2.05,1.46-3.71,3.49-3.71c2.14,0,3.4,1.67,3.4,3.79v0.28h-5.73
				c0.09,1.33,1.03,2.45,2.55,2.45c0.81,0,1.63-0.32,2.18-0.89l0.53,0.72c-0.7,0.7-1.66,1.08-2.81,1.08
				C221.44,480.54,219.93,479.03,219.93,476.82z M223.4,474.02c-1.51,0-2.26,1.27-2.31,2.36h4.64
				C225.72,475.33,225.02,474.02,223.4,474.02z"/>
			<path class="st38" d="M233.35,480.37v-1.05c-0.53,0.72-1.39,1.23-2.39,1.23c-1.85,0-3.15-1.41-3.15-3.71
				c0-2.26,1.29-3.72,3.15-3.72c0.95,0,1.82,0.47,2.39,1.25v-3.76h1.1v9.77H233.35z M233.35,478.45v-3.21
				c-0.4-0.62-1.25-1.14-2.12-1.14c-1.42,0-2.27,1.17-2.27,2.74c0,1.57,0.85,2.72,2.27,2.72
				C232.1,479.56,232.95,479.06,233.35,478.45z"/>
			<path class="st38" d="M239.69,480.37v-9.77h1.1v3.76c0.57-0.78,1.42-1.25,2.39-1.25c1.85,0,3.15,1.46,3.15,3.72
				c0,2.3-1.3,3.71-3.15,3.71c-1,0-1.86-0.51-2.39-1.23v1.05H239.69z M242.9,479.56c1.44,0,2.29-1.16,2.29-2.72
				c0-1.57-0.85-2.74-2.29-2.74c-0.86,0-1.73,0.53-2.11,1.14v3.21C241.17,479.06,242.04,479.56,242.9,479.56z"/>
			<path class="st38" d="M247.53,482.14c0.16,0.07,0.43,0.12,0.6,0.12c0.48,0,0.81-0.16,1.05-0.75l0.47-1.07l-2.96-7.15h1.19
				l2.36,5.8l2.34-5.8h1.2l-3.54,8.51c-0.42,1.03-1.14,1.42-2.08,1.44c-0.23,0-0.6-0.04-0.81-0.1L247.53,482.14z"/>
		</g>
	</g>
</g>
</svg>
