<svg id="Capa_1" xmlns="http://www.w3.org/2000/svg" viewBox="0 0 22.3 20"><style>.st0{fill:#e4af18}.st1{fill:#f4bf1a}.st2{fill:#ffd949}.st3{fill:#dca815}.st4{fill:#c49214}.st5{fill:#fcc62d}</style><g id="XMLID_21_"><path id="XMLID_148_" class="st0" d="M11.2 17.3c-5.5 0-10-1.1-10-2.3v2.7c0 1.2 4.5 2.3 10 2.3s10-1.1 10-2.3V15c0 1.2-4.5 2.3-10 2.3"/><path id="XMLID_147_" class="st1" d="M10 13.1c-5.5 0-10-1.1-10-2.3v2.7c0 1.2 4.5 2.3 10 2.3s10-1.1 10-2.3v-2.7c0 1.1-4.5 2.3-10 2.3"/><path id="XMLID_146_" class="st0" d="M12.3 8.8c-5.5 0-10-1.1-10-2.3v2.7c0 1.2 4.5 2.3 10 2.3s10-1.1 10-2.3V6.5c0 1.2-4.5 2.3-10 2.3"/><path id="XMLID_145_" class="st2" d="M20 2c0 1.2-4.5 2.3-10 2.3S0 3.1 0 2C0 .8 4.5 0 10 0s10 .8 10 2"/><path id="XMLID_144_" class="st1" d="M10 4.2C4.5 4.2 0 3.1 0 1.9v2.7c0 1.2 4.5 2.3 10 2.3s10-1.1 10-2.3V1.9c0 1.2-4.5 2.3-10 2.3"/><path id="XMLID_143_" class="st3" d="M1.5 3.1v2.7c.3.1.5.2.8.2V3.4c-.3-.1-.5-.2-.8-.3"/><path id="XMLID_142_" class="st3" d="M17.7 3.4V6c.3 0 .5-.1.8-.2V3.1c-.3.1-.5.2-.8.3"/><path id="XMLID_141_" class="st3" d="M3.5 3.6v2.7c.2.1.5.1.7.2V3.8c-.2-.1-.5-.1-.7-.2"/><path id="XMLID_140_" class="st3" d="M15.8 3.8v2.7c.3 0 .5-.1.8-.1V3.6c-.3.1-.6.1-.8.2"/><path id="XMLID_139_" class="st3" d="M5.4 3.9v2.7c.3 0 .5.1.8.1V4c-.3 0-.6 0-.8-.1"/><path id="XMLID_138_" class="st3" d="M13.8 4v2.7c.3 0 .5-.1.8-.1V3.9c-.2.1-.5.1-.8.1"/><path id="XMLID_137_" class="st3" d="M7.3 4.1v2.7h.8V4.2c-.3 0-.5 0-.8-.1"/><path id="XMLID_136_" class="st3" d="M11.9 4.2v2.7h.8V4.1c-.3.1-.5.1-.8.1"/><path id="XMLID_135_" class="st3" d="M10 4.2h-.4v2.7h.8V4.2H10"/><path id="XMLID_134_" class="st4" d="M3.8 7.7v2.7c.2.1.5.2.8.2V8c-.3-.1-.5-.2-.8-.3"/><path id="XMLID_133_" class="st4" d="M20 8v2.7c.3-.1.5-.2.8-.2V7.7c-.3.1-.5.2-.8.3"/><path id="XMLID_132_" class="st4" d="M5.8 8.2v2.7c.2.1.5.1.7.2V8.4c-.2-.1-.5-.1-.7-.2"/><path id="XMLID_131_" class="st4" d="M18.1 8.4v2.7c.3 0 .5-.1.8-.1V8.2c-.3.1-.6.1-.8.2"/><path id="XMLID_130_" class="st4" d="M7.7 8.6v2.7c.3 0 .5.1.8.1V8.7c-.3-.1-.6-.1-.8-.1"/><path id="XMLID_129_" class="st4" d="M16.2 8.7v2.7c.3 0 .5-.1.8-.1V8.6c-.3 0-.6 0-.8.1"/><path id="XMLID_128_" class="st4" d="M9.6 8.8v2.7h.8V8.8h-.8"/><path id="XMLID_127_" class="st4" d="M14.2 8.8v2.7h.8V8.8h-.8"/><path id="XMLID_126_" class="st4" d="M12.3 8.8h-.4v2.7h.8V8.8h-.4"/><path id="XMLID_125_" class="st3" d="M1.5 12v2.7c.2.1.5.2.8.2v-2.7c-.3-.1-.5-.2-.8-.2"/><path id="XMLID_124_" class="st3" d="M17.7 12.2v2.7c.3-.1.5-.2.8-.2V12c-.3 0-.5.1-.8.2"/><path id="XMLID_123_" class="st3" d="M3.5 12.5v2.7c.2.1.5.1.8.1v-2.7c-.3 0-.6-.1-.8-.1"/><path id="XMLID_122_" class="st3" d="M15.8 12.6v2.7c.3 0 .5-.1.8-.1v-2.7c-.3 0-.6.1-.8.1"/><path id="XMLID_121_" class="st3" d="M5.4 12.8v2.7c.3 0 .5.1.8.1v-2.7c-.3 0-.6-.1-.8-.1"/><path id="XMLID_120_" class="st3" d="M13.8 12.9v2.7c.3 0 .5-.1.8-.1v-2.7c-.2 0-.5.1-.8.1"/><path id="XMLID_119_" class="st3" d="M7.3 13v2.7h.8V13h-.8"/><path id="XMLID_118_" class="st3" d="M11.9 13v2.7h.8V13h-.8"/><path id="XMLID_117_" class="st3" d="M10 13.1h-.4v2.7h.8v-2.7H10"/><path id="XMLID_116_" class="st4" d="M2.7 16.2v2.7c.2.1.5.1.8.2v-2.7c-.3 0-.6-.1-.8-.2"/><path id="XMLID_115_" class="st4" d="M18.8 16.4v2.7c.3-.1.5-.2.8-.2v-2.7c-.2.1-.5.2-.8.2"/><path id="XMLID_114_" class="st4" d="M4.6 16.7v2.7c.2.1.5.1.8.1v-2.7c-.3 0-.5 0-.8-.1"/><path id="XMLID_113_" class="st4" d="M16.9 16.9v2.7c.3 0 .5-.1.8-.1v-2.7c-.3 0-.5 0-.8.1"/><path id="XMLID_112_" class="st4" d="M6.5 17v2.7c.3 0 .5.1.8.1v-2.7c-.3 0-.5 0-.8-.1"/><path id="XMLID_111_" class="st4" d="M15 17.1v2.7c.3 0 .5-.1.8-.1V17c-.3.1-.5.1-.8.1"/><path id="XMLID_110_" class="st4" d="M8.5 17.2v2.7h.8v-2.7h-.8"/><path id="XMLID_109_" class="st4" d="M13.1 17.3V20h.8v-2.7c-.3-.1-.6-.1-.8 0"/><path id="XMLID_108_" class="st4" d="M11.2 17.3h-.4V20h.8v-2.7h-.4"/><path id="XMLID_107_" class="st5" d="M19.7 14c-1.1 1-5 1.8-9.7 1.8-3.7 0-6.9-.5-8.6-1.2-.2.1-.2.3-.2.5 0 1.2 4.5 2.3 10 2.3s10-1.1 10-2.3c0-.5-.6-.8-1.5-1.1"/><path id="XMLID_106_" class="st2" d="M12.3 11.5c-5.1 0-9.3-1-9.9-2-1.5.3-2.4.8-2.4 1.3 0 1.2 4.5 2.3 10 2.3s10-1.1 10-2.3v-.2c-1.9.6-4.6.9-7.7.9"/><path id="XMLID_105_" class="st5" d="M19.6 5.2c-1.2.9-5 1.7-9.6 1.7-2.9 0-5.6-.3-7.4-.8-.2.2-.3.3-.3.5 0 1.2 4.5 2.3 10 2.3s10-1.1 10-2.3c0-.6-1-1-2.7-1.4"/></g></svg>