<svg id="Layer_1" xmlns="http://www.w3.org/2000/svg" viewBox="0 0 193.3 140"><style>.st1{fill:#6681f2}.st3{fill:#fff}.st27{opacity:.24}</style><path d="M52.4 136.1c36.8 6.1 74.3 5.1 110.8-2.8 4.7-1 9.4-2.2 13.4-4.9 3.4-2.3 5.9-5.7 8.1-9.2 8.2-13 12-30.2 4.9-43.8-7.6-14.5-24.7-20.7-37.2-31.2-9.6-8-16.6-18.7-24.2-28.7-3.1-4.1-6.5-8.2-11.1-10.6-3.8-1.9-8.1-2.5-12.3-3.1C87.5-.6 68-2.4 54.3 8.6 37.1 22.4 37 50.7 19.4 63.9c-3.4 2.5-7.3 4.4-10.5 7.2-11.5 10-11.2 32.1-2.5 43.8 10.2 13.6 30.2 18.6 46 21.2z" opacity=".24" fill="#6681f2"/><path class="st1" d="M132.5 31.8l-4.1.3-.4-5.1-43.5 49.8-23.8-19.6L4 108.9l-2.8-3.1 59.4-54.2L84 71l40.5-46.4-5.7 1.6-1.1-4 13.8-3.9z"/><linearGradient id="SVGID_1_" gradientUnits="userSpaceOnUse" x1="53.808" y1="118.044" x2="119.987" y2="-88.372" gradientTransform="matrix(1 0 0 -1 0 140.92)"><stop offset="0" stop-color="#010101" stop-opacity="0"/><stop offset=".95" stop-color="#010101"/></linearGradient><path fill="url(#SVGID_1_)" d="M132.5 31.8l-4.1.3-.4-5.1-43.5 49.8-23.8-19.6L4 108.9l-2.8-3.1 59.4-54.2L84 71l40.5-46.4-5.7 1.6-1.1-4 13.8-3.9z"/><path class="st1" d="M20.7 93.6c3.3 2.2 5.5 5.7 8.6 8.2l-2.7 7.3-1.8-1.9c-1.5-1.6-3.1-3.3-4.9-4.6-1.8-1.3-4-2.1-6.3-2 0 0 1.1-6.8 1.7-7.5 1.7-1.8 3.3-.8 5.4.5z"/><path class="st3" d="M16.3 93.9l-.6 4.2c.8.2 1.4.8 1.4 1.6 0 0 5.6 1.8 7.7 5.8 0 0 1.4-.4 1.9.2l1.1-2.7s-.7-.9-.5-1.7c0 0-5.3-7.1-8.7-7.7-.7.3-1.5.4-2.3.3z"/><path class="st1" d="M52.1 21.9h6.8V115h-6.8zm34.7-11.2h7.9v104.2h-7.9zm28.5 0h7.3v104.2h-7.3z"/><linearGradient id="SVGID_2_" gradientUnits="userSpaceOnUse" x1="56.904" y1="107.023" x2="53.491" y2="26.137" gradientTransform="matrix(1 0 0 -1 0 140.92)"><stop offset="0" stop-color="#010101" stop-opacity="0"/><stop offset=".95" stop-color="#010101"/></linearGradient><path fill="url(#SVGID_2_)" d="M52.1 21.9h6.8V115h-6.8z"/><linearGradient id="SVGID_3_" gradientUnits="userSpaceOnUse" x1="91.998" y1="107.498" x2="88.582" y2="26.615" gradientTransform="matrix(1 0 0 -1 0 140.92)"><stop offset="0" stop-color="#010101" stop-opacity="0"/><stop offset=".95" stop-color="#010101"/></linearGradient><path fill="url(#SVGID_3_)" d="M86.8 10.7h7.9v104.2h-7.9z"/><linearGradient id="SVGID_4_" gradientUnits="userSpaceOnUse" x1="127.306" y1="81.071" x2="123.889" y2=".185" gradientTransform="matrix(1 0 0 -1 -7.14 115.87)"><stop offset="0" stop-color="#010101" stop-opacity="0"/><stop offset=".95" stop-color="#010101"/></linearGradient><path fill="url(#SVGID_4_)" d="M115.3 10.7h7.3v104.2h-7.3z"/><path class="st1" d="M43.7 57.4h98.5c3.1 0 5.5 2.5 5.5 5.5v59.7H38.2V62.9c0-3 2.5-5.5 5.5-5.5z"/><path class="st3" d="M44.4 62.1h97.4v55.5H44.4z"/><linearGradient id="SVGID_5_" gradientUnits="userSpaceOnUse" x1="61.77" y1="58.112" x2="77.526" y2="-23.526" gradientTransform="matrix(1 0 0 -1 -7.15 115.87)"><stop offset="0" stop-color="#010101" stop-opacity="0"/><stop offset=".95" stop-color="#010101"/></linearGradient><path d="M48.7 75.6l.4 1.3s15-.2 16.3-.8c.8-.4 1.4-1.1 1.6-2l-.5-3.3-3.4-6-14.4 10.8z" opacity=".26" fill="url(#SVGID_5_)"/><path fill="none" d="M44.4 117.6V62.1"/><path class="st1" d="M31.4 122.3h122.8v.4c0 4.7-3.8 8.5-8.5 8.5H39.9c-4.7 0-8.5-3.8-8.5-8.5v-.4z"/><linearGradient id="SVGID_6_" gradientUnits="userSpaceOnUse" x1="92.701" y1="12.892" x2="92.898" y2="22.15" gradientTransform="matrix(1 0 0 -1 0 140.92)"><stop offset="0" stop-color="#fff" stop-opacity="0"/><stop offset=".95" stop-color="#fff"/></linearGradient><path d="M31.4 122.3h122.8v.4c0 4.7-3.8 8.5-8.5 8.5H39.9c-4.7 0-8.5-3.8-8.5-8.5v-.4z" fill="url(#SVGID_6_)"/><path class="st1" d="M44.6 14.5c.3-.6.8-1.2.9-1.9.1-.7-.2-1.5-.9-1.7s-1.5.4-2.2.1c-.4-.2-.7-.7-.9-1.1-.5-1-1.4-1.8-2.5-2.1-1.1-.3-2.3-.1-3.1.7l-.7.7c-.6.3-1.4.3-2-.1-.5-.3-1-.7-1.5-.4-.2.2-.4.4-.4.7-.2 1.2.7 2.3 1 3.5.5 1.5.2 3.2-.1 4.7-.5 2.2-1 4.5-2.4 6.3-1.4 1.8-3.6 2.7-5.1 4.4-1.5 1.7-2.1 4-2.5 6.2-.2.7-.2 1.4 0 2 .2.4.5.8.9 1.2 1.4 1.5 3 3 4.9 3.7 2.1.8 4.4.6 6.6.5 1.5 0 3.1 0 4.6-.2 1.5-.3 3-.9 4-2.1.9-1.1 1.3-2.5 1.4-3.9 0-1.4-.1-2.8-.3-4.1-.4-3-.7-5.9-.8-8.9-.2-2.9-.3-5.7 1.1-8.2z"/><linearGradient id="SVGID_7_" gradientUnits="userSpaceOnUse" x1="36.4" y1="96.007" x2="48.16" y2="96.007" gradientTransform="matrix(1 0 0 -1 -7.15 115.87)"><stop offset="0" stop-color="#010101" stop-opacity="0"/><stop offset=".95" stop-color="#010101"/></linearGradient><path d="M29.5 26.3c-.2.5-.4 1-.1 1.4l3.6-2.6c.1-.1.2-.1.3-.1.1 0 .2.1.2.2l.9 1.8 1.7-2.4 3.5 3.5c.3.3.8.7 1.2.4.3-.3.2-.7 0-1.1-1.1-2.3-1.4-5.2-2-7.7-.2-1-.3-1.9-.6-2.9-.6-2.5-2.8-4-4.6-5.7.3 1.2.6 2.3.9 3.5l-.9-.4c-1.2 2.1-2 4.3-2.3 6.7-.1 2-.9 3.6-1.8 5.4z" opacity=".26" fill="url(#SVGID_7_)"/><linearGradient id="SVGID_8_" gradientUnits="userSpaceOnUse" x1="37.693" y1="100.196" x2="44.686" y2="100.196" gradientTransform="matrix(1 0 0 -1 -7.15 115.87)"><stop offset="0" stop-color="#e5c6d6"/><stop offset=".42" stop-color="#ead4d0"/><stop offset="1" stop-color="#f0e9cb"/></linearGradient><path d="M34.3 14.6c.7.2 1.3.4 1.9.7.6.3 1.1.8 1.3 1.5.1.3 0 .5-.1.7-.2.1-.5.2-.8.1-1.5-.3-3-.7-4.5-1.2-.4-.1-.8-.3-1.1-.6-.3-.3-.5-.7-.5-1.1.4-2 2.7-.5 3.8-.1z" fill="url(#SVGID_8_)"/><linearGradient id="SVGID_9_" gradientUnits="userSpaceOnUse" x1="37.346" y1="97.877" x2="44.33" y2="97.877" gradientTransform="matrix(1 0 0 -1 -7.15 115.87)"><stop offset="0" stop-color="#e5c6d6"/><stop offset=".42" stop-color="#ead4d0"/><stop offset="1" stop-color="#f0e9cb"/></linearGradient><path d="M33.9 16.9c.7.2 1.3.4 1.9.7.6.3 1.1.8 1.3 1.5.1.3.1.5-.1.7-.2.1-.5.2-.8.1-1.5-.3-3-.7-4.5-1.2-.4-.1-.8-.3-1.1-.6-.3-.3-.5-.7-.5-1.1.4-2 2.8-.4 3.8-.1z" fill="url(#SVGID_9_)"/><linearGradient id="SVGID_10_" gradientUnits="userSpaceOnUse" x1="36.907" y1="95.817" x2="43.89" y2="95.817" gradientTransform="matrix(1 0 0 -1 -7.15 115.87)"><stop offset="0" stop-color="#e5c6d6"/><stop offset=".42" stop-color="#ead4d0"/><stop offset="1" stop-color="#f0e9cb"/></linearGradient><path d="M33.5 19c.7.2 1.3.4 1.9.7.6.3 1.1.8 1.3 1.5.1.3 0 .5-.1.7-.2.1-.5.2-.8.1-1.5-.3-3-.7-4.5-1.2-.4-.1-.8-.3-1.1-.6-.3-.3-.5-.7-.5-1.1.4-2 2.7-.5 3.8-.1z" fill="url(#SVGID_10_)"/><linearGradient id="SVGID_11_" gradientUnits="userSpaceOnUse" x1="36.429" y1="93.763" x2="43.416" y2="93.763" gradientTransform="matrix(1 0 0 -1 -7.15 115.87)"><stop offset="0" stop-color="#e5c6d6"/><stop offset=".42" stop-color="#ead4d0"/><stop offset="1" stop-color="#f0e9cb"/></linearGradient><path d="M33 21c.7.2 1.3.4 1.9.7.6.3 1.1.8 1.3 1.5.1.3 0 .5-.1.7-.2.2-.5.2-.8.1-1.5-.3-3-.7-4.5-1.2-.4-.1-.8-.3-1.1-.6-.3-.3-.5-.7-.5-1.1.4-2 2.8-.4 3.8-.1z" fill="url(#SVGID_11_)"/><linearGradient id="SVGID_12_" gradientUnits="userSpaceOnUse" x1="41.977" y1="94.363" x2="56.304" y2="94.363" gradientTransform="matrix(1 0 0 -1 -7.15 115.87)"><stop offset="0" stop-color="#e5c6d6"/><stop offset=".42" stop-color="#ead4d0"/><stop offset="1" stop-color="#f0e9cb"/></linearGradient><path d="M45.8 17.9c-2-3-5.7-4.5-9.3-4.9-.6-.1-1.4 0-1.6.6-.1.2 0 .5.1.7.6 1.3 2.5 1.5 3.1 2.8.2.4.3.9.3 1.3.3 3.9 1.5 7.9 4.3 10.5.5.5 1 .8 1.6 1 .5.1 1.1.1 1.6 0 .8-.1 1.5-.1 2.3-.3.8-.1 1-.2.9-1-.2-1.2-.8-2.4-1-3.7-.5-2.3-.9-4.8-2.3-7z" fill="url(#SVGID_12_)"/><path class="st3" d="M50.3 28.6v.3c0 .1-.1.2-.2.2l-4.6 3-.6.3c-.2 0-.4-.1-.6-.2-1-.7-1.7-1.7-2-2.8v-.3c.1-.1.2-.1.3-.2 1.8-.6 3.3-2 5-2.9 2-1.1 2.2.9 2.7 2.6z"/><path class="st1" d="M144.8 13c-.4-.5-.6-1.1-.8-1.7-.1-.6.2-1.4.8-1.5.6-.2 1.4.4 2 .1.4-.2.6-.6.8-1 .5-.9 1.2-1.5 2.2-1.9 1-.3 2-.1 2.7.6l.6.6c.6.3 1.2.2 1.7-.1.4-.3.9-.6 1.3-.4.2.1.3.3.4.6.2 1.1-.6 2.1-.9 3.1-.4 1.3-.2 2.8.1 4.2.4 1.9.8 4 2.1 5.5s3.2 2.4 4.5 3.9c1.3 1.5 1.9 3.5 2.2 5.5.2.6.2 1.2 0 1.8-.2.4-.4.7-.8 1-1.3 1.3-2.6 2.6-4.3 3.3-1.8.7-3.9.5-5.8.5-1.4 0-2.7 0-4.1-.2-1.3-.2-2.7-.8-3.6-1.8-.8-1-1.2-2.2-1.2-3.4 0-1.2.1-2.4.3-3.7.4-2.6.6-5.2.7-7.9.3-2.5.3-4.9-.9-7.1z"/><linearGradient id="SVGID_13_" gradientUnits="userSpaceOnUse" x1="151.617" y1="93.284" x2="166.667" y2="93.284" gradientTransform="matrix(1 0 0 -1 -7.15 115.87)"><stop offset="0" stop-color="#010101" stop-opacity="0"/><stop offset=".95" stop-color="#010101"/></linearGradient><path d="M146.4 11.4c.4-.2.7.2 1.1.5.9.7 2.1.6 2.8-.3.3-.3.4-.7.5-1.1.4.1.8.4 1 .9.1.2.2.4.4.5h.3c.5-.3 1-.7 1.3-1.2l.7-.9c.6.6.4 1.5.2 2.3-.4 2-.3 4.1.4 6.1.2.5.4 1 .7 1.4.4.5.9.9 1.5 1.3.9.8 1.7 1.7 2.3 2.8l-4-1.9c-.5-.2-1.1-.4-1.4-.1-.2.2-.3.5-.3.8-.2 1.1-.6 2.1-1.1 3l-.5-3c0-.3-.1-.6-.4-.8-.5-.3-1.1.2-1.3.7-.6 1.2-.6 2.7-1.1 3.9-.3.8-.9 1.5-1.2 2.4-.7 1.6-.6 3.5.3 5.1.2.4.5.8.4 1.2-.1.5-.6.8-1.2.8-.5-.1-1-.3-1.3-.7-1.3-1.3-1.8-3.2-1.8-5 .1-1.4.3-2.9.7-4.2.3-1.4.7-2.8 1.2-4.1.7-1.6 1.8-3.2 1.8-4.9 0-1.2-.6-2-1.1-3-.5-.8-1.8-2.1-.9-2.5z" opacity=".26" fill="url(#SVGID_13_)"/><linearGradient id="SVGID_14_" gradientUnits="userSpaceOnUse" x1="-1016.416" y1="101.841" x2="-1010.265" y2="101.841" gradientTransform="rotate(180 -429.591 57.935)"><stop offset="0" stop-color="#e5c6d6"/><stop offset=".42" stop-color="#ead4d0"/><stop offset="1" stop-color="#f0e9cb"/></linearGradient><path d="M154 13.1c-.6.2-1.1.4-1.7.6-.5.3-1 .7-1.2 1.3-.1.2 0 .5.1.7.2.1.4.2.7.1 1.3-.2 2.7-.6 4-1 .3-.1.7-.3 1-.5.3-.2.4-.6.4-.9-.3-2-2.4-.6-3.3-.3z" fill="url(#SVGID_14_)"/><linearGradient id="SVGID_15_" gradientUnits="userSpaceOnUse" x1="-1016.722" y1="99.797" x2="-1010.571" y2="99.797" gradientTransform="rotate(180 -429.591 57.935)"><stop offset="0" stop-color="#e5c6d6"/><stop offset=".42" stop-color="#ead4d0"/><stop offset="1" stop-color="#f0e9cb"/></linearGradient><path d="M154.3 15.1c-.6.2-1.1.4-1.7.6-.5.3-1 .7-1.2 1.3-.1.2 0 .5.1.7.2.1.4.2.7.1 1.3-.2 2.7-.6 3.9-1 .3-.1.7-.3 1-.5.3-.2.4-.6.4-.9-.2-2-2.3-.6-3.2-.3z" fill="url(#SVGID_15_)"/><linearGradient id="SVGID_16_" gradientUnits="userSpaceOnUse" x1="-1017.114" y1="97.984" x2="-1010.963" y2="97.984" gradientTransform="rotate(180 -429.591 57.935)"><stop offset="0" stop-color="#e5c6d6"/><stop offset=".42" stop-color="#ead4d0"/><stop offset="1" stop-color="#f0e9cb"/></linearGradient><path d="M154.7 16.9c-.6.2-1.1.4-1.7.6-.5.3-1 .7-1.2 1.3-.1.2 0 .5.1.7.2.1.4.2.7.1 1.3-.2 2.7-.6 3.9-1.1.3-.1.7-.3 1-.5.3-.2.4-.6.4-.9-.2-1.9-2.3-.5-3.2-.2z" fill="url(#SVGID_16_)"/><linearGradient id="SVGID_17_" gradientUnits="userSpaceOnUse" x1="-1017.524" y1="96.177" x2="-1011.373" y2="96.177" gradientTransform="rotate(180 -429.591 57.935)"><stop offset="0" stop-color="#e5c6d6"/><stop offset=".42" stop-color="#ead4d0"/><stop offset="1" stop-color="#f0e9cb"/></linearGradient><path d="M155.1 18.7c-.6.2-1.1.4-1.7.6-.5.3-1 .7-1.2 1.3-.1.2 0 .5.1.7.2.1.4.2.7.1 1.3-.2 2.7-.6 3.9-1.1.3-.1.7-.3 1-.5.3-.2.4-.6.4-.9-.2-1.8-2.3-.5-3.2-.2z" fill="url(#SVGID_17_)"/><linearGradient id="SVGID_18_" gradientUnits="userSpaceOnUse" x1="-1012.638" y1="96.697" x2="-1000.028" y2="96.697" gradientTransform="rotate(180 -429.591 57.935)"><stop offset="0" stop-color="#e5c6d6"/><stop offset=".42" stop-color="#ead4d0"/><stop offset="1" stop-color="#f0e9cb"/></linearGradient><path d="M143.8 16c1.8-2.7 5-3.9 8.2-4.3.5-.1 1.2 0 1.4.5 0 .2 0 .4-.1.6-.5 1.1-2.2 1.4-2.8 2.5-.1.4-.2.8-.2 1.2-.3 3.4-1.3 6.9-3.8 9.2-.4.4-.9.7-1.4.9-.5.1-.9.1-1.4 0-.7-.1-1.4-.1-2-.2-.7-.1-.9-.2-.8-.9.2-1.1.7-2.1.9-3.2.4-2.1.8-4.4 2-6.3z" fill="url(#SVGID_18_)"/><path class="st3" d="M138.7 27.6v.3c.1.1.2.2.3.2l5.6 2.1c.2.1.5.2.7.1.2-.1.4-.2.6-.4.9-.9 1.4-2.1 1.5-3.4 0-.1 0-.2-.1-.3-.1-.1-.2-.1-.3-.1-2.1-.3-4-1.4-5.9-2-2.5-.6-2.3 1.6-2.4 3.5z"/><path d="M116.9 117.6H72.4c0-1 1.3-6.1 2.3-6.8s3.2-.3 4.4-.3c3.9 0 7.8-.1 11.6-.2 3.9-.1 7.8-.3 11.6-.6 1.1-.1 10.9-1.5 11.1-1 1.2 2.2 3.4 7.9 3.5 8.9z" fill="#606161"/><path class="st1" d="M47.1 75.8l15.8-.9c.7 0 1.4-.1 1.8-.6s.3-1.2.3-1.9c-.5-3.7-.5-7.5-.2-11.3.1-1.4.3-2.8 1.1-3.9s2.3-1.8 3.6-1.2c.2.1.4.2.7.3.8.1 1.1-1.1.6-1.7-.5-.6-1.4-.7-2.1-.8-4.2-.3-8.3-.1-12.5-.5-2.4-.2-4.8-1-7 .3-6.9 3.9-3.5 16.4-2.1 22.2z"/><linearGradient id="SVGID_19_" gradientUnits="userSpaceOnUse" x1="61.38" y1="30.427" x2="97.487" y2="30.427" gradientTransform="matrix(1 0 0 -1 -7.15 115.87)"><stop offset="0" stop-color="#010101" stop-opacity="0"/><stop offset=".95" stop-color="#010101"/></linearGradient><path d="M56.5 53.5l-2.2-.3s2.8 8.3 5.9 13.1c3.2 4.9 7.4 12.9 7.5 14.8.1 2 5.1 21.9 3.3 27.7s-3.9 8.7-3.9 8.7h23.4l-1.3-41-31.4-23" opacity=".26" fill="url(#SVGID_19_)"/><linearGradient id="SVGID_20_" gradientUnits="userSpaceOnUse" x1="66.984" y1="68.029" x2="49.651" y2="16.691" gradientTransform="matrix(1 0 0 -1 -7.15 115.87)"><stop offset="0" stop-color="#fff" stop-opacity="0"/><stop offset=".95" stop-color="#fff"/></linearGradient><path d="M48.2 54.2s-3.2 2 .8 16.7c0 0 1.5-.1 1.5 1.7l10.3-.8s-.6-1.4 1.3-1.8c0 0-2.8-10.5-2.2-12.5.3-1.3.2-2.6-.4-3.7 0 0-5.1-.6-5.9-.7s-3-.8-5.4 1.1z" fill="url(#SVGID_20_)"/><path class="st1" d="M63.5 21.8c2.1-1 4.5-.8 6.7-1 2.4-.3 4.7-1.1 6.8-2.4-.2 3.5.3 7.1 1.4 10.4-2.1-.1-4.4-.1-6.2 1-1.6 1-2.6 2.7-4.2 3.7-1.8 1.1-4.1.9-6.2.8.7-1.4-.2-3-1.2-4.2-1.1-1.5-2-2.8-1-4.5.9-1.6 2.3-2.9 3.9-3.8z"/><linearGradient id="SVGID_21_" gradientUnits="userSpaceOnUse" x1="73.263" y1="98.264" x2="111.996" y2="-6.91" gradientTransform="matrix(1 0 0 -1 -7.15 115.87)"><stop offset="0" stop-color="#010101" stop-opacity="0"/><stop offset=".95" stop-color="#010101"/></linearGradient><path d="M64 22.1c1.8-.9 4-.7 6-.9 2.1-.2 4.2-1 6-2.1-.1 3.1.3 6.3 1.2 9.3-1.9-.1-3.9-.1-5.5.9-1.4.9-2.3 2.4-3.7 3.3-1.6.9-3.6.8-5.5.7.6-1.2-.2-2.6-1-3.7-1-1.3-1.8-2.5-.9-4 .8-1.6 2-2.7 3.4-3.5z" fill="url(#SVGID_21_)"/><path class="st1" d="M163.2 23.2c-.3-1.9.3-4 2-5 1-.6 2.2-.6 3.3-.6l7.7-.2c-.3 2.4.4 4.9 1.8 6.8 1.3 1.8 3.3 3.1 4.5 4.9 2 3.2 1.6 7.4-.9 10.2-3.6-.5-7.3-.3-10.8.6.8-2.1-.6-4.4-2.1-6-2.6-2.8-4.9-6.8-5.5-10.7z"/><linearGradient id="SVGID_22_" gradientUnits="userSpaceOnUse" x1="194.218" y1="94.577" x2="133.287" y2="60.996" gradientTransform="matrix(1 0 0 -1 -7.15 115.87)"><stop offset="0" stop-color="#010101" stop-opacity="0"/><stop offset=".95" stop-color="#010101"/></linearGradient><path d="M164.4 24c-.4-1.8.1-3.8 1.4-4.8.8-.6 1.8-.7 2.8-.8l6.6-.6c-.1 2.3.6 4.5 2 6.3 1.3 1.6 3 2.7 4.2 4.4 1.9 2.8 1.9 7-.2 9.6-3.2-.3-6.3.1-9.3 1.2.6-2-.8-4.1-2.2-5.5-2.3-2.5-4.5-6.2-5.3-9.8z" opacity=".26" fill="url(#SVGID_22_)"/><path class="st1" d="M12.6 72.9c-.2.1-.3.2-.3.4s.1.5.2.6c1.6 2.1 3.3 4.1 5.1 6 .1.2.3.3.6.4.3 0 .5 0 .7-.2l3.2-1.5c1.1-.5 2.3-1.1 3.2-2 1.7-1.8 1.9-4.5 2-6.9-2.4-2.1-4.7-6.2-7.6-4.3-2.6 1.7-4.6 5.5-7.1 7.5zm146.7 27c2.2 1.8 4.6 3.4 7.1 4.9 1.1-4.9 5.8-7.8 9.8-10.1-7.4-8.6-15.2 6.6-16.9 5.2z"/><g class="st27"><path class="st1" d="M155.8 82.9v-3.2c-4.2-.4-6.7-2.9-7.1-6.3h3.1c.4 2 2 3.5 4 3.8v-8.6c-4.7-1.4-6.6-3.2-6.6-6.5 0-3.6 2.8-5.9 6.6-6.2v-2.4h2v2.4c4.7.5 6.2 3.5 6.4 5.7h-3c-.4-1.4-1.2-2.9-3.4-3.3V66c5.4 1.5 7 3.8 7 7 0 3.9-2.6 6.2-7 6.6V83l-2-.1zm0-17.3v-7.2c-2.5.2-3.5 1.7-3.5 3.4 0 1.8.8 2.9 3.5 3.8zm2 3.7v8c2.4-.2 3.7-1.5 3.7-3.8 0-1.9-.8-3.2-3.7-4.2z"/></g><path class="st3" d="M156.8 82.7v-3.2c-4.2-.4-6.7-2.9-7.1-6.3h3.1c.4 2 2 3.5 4 3.8v-8.6c-4.7-1.4-6.6-3.2-6.6-6.5 0-3.6 2.8-5.9 6.6-6.2v-2.4h2v2.4c4.7.5 6.2 3.5 6.4 5.7h-3c-.4-1.4-1.2-2.9-3.4-3.3V66c5.4 1.5 7 3.8 7 7 0 3.9-2.6 6.2-7 6.6v3.2l-2-.1zm0-17.3v-7.2c-2.5.2-3.5 1.7-3.5 3.4s.8 2.8 3.5 3.8zm2 3.6v8c2.4-.2 3.7-1.5 3.7-3.8 0-1.8-.8-3.1-3.7-4.2z"/><g class="st27"><path class="st1" d="M155.6 34.5v-1.2c-1.5-.1-2.4-1-2.5-2.2h1.1c.1.7.7 1.2 1.4 1.3v-3c-1.7-.5-2.3-1.1-2.3-2.3 0-1.3 1-2.1 2.3-2.2v-.8h.7v.9c1.7.2 2.2 1.2 2.3 2h-1.1c-.1-.6-.6-1.1-1.2-1.2v2.7c1.9.6 2.5 1.3 2.5 2.5 0 1.4-.9 2.2-2.5 2.3v1.2h-.7zm0-6.2v-2.5c-.9.1-1.2.6-1.2 1.2s.3 1 1.2 1.3zm.8 1.3v2.8c.9-.1 1.3-.5 1.3-1.3 0-.6-.3-1.1-1.3-1.5z"/></g><path class="st3" d="M156 34.4v-1.2c-1.5-.1-2.4-1-2.5-2.2h1.1c.1.7.7 1.3 1.4 1.4v-3c-1.7-.5-2.3-1.1-2.3-2.3 0-1.3 1-2.1 2.3-2.2V24h.7v.9c1.7.2 2.2 1.2 2.3 2h-1.1c-.1-.6-.6-1.1-1.2-1.2v2.7c1.9.6 2.5 1.3 2.5 2.5 0 1.4-.9 2.2-2.5 2.3v1.2h-.7zm0-6.1v-2.5c-.9.1-1.2.6-1.2 1.2 0 .5.3.9 1.2 1.3zm.7 1.3v2.8c.9-.1 1.3-.5 1.3-1.3 0-.7-.3-1.2-1.3-1.5z"/><g class="st27"><path class="st1" d="M32.6 38v-1.2c-1.5-.1-2.4-1-2.5-2.2h1.1c.1.7.7 1.2 1.4 1.3v-3c-1.7-.5-2.3-1.1-2.3-2.3 0-1.3 1-2.1 2.3-2.2v-.8h.7v.9c1.7.2 2.2 1.2 2.3 2h-1.1c-.1-.6-.6-1.1-1.2-1.2V32c1.9.6 2.5 1.3 2.5 2.5 0 1.4-.9 2.2-2.5 2.3V38h-.7zm0-6.1v-2.5c-.9.1-1.2.6-1.2 1.2 0 .5.3.9 1.2 1.3zm.7 1.2V36c.9-.1 1.3-.5 1.3-1.3 0-.7-.2-1.2-1.3-1.6z"/></g><path class="st3" d="M33 37.9v-1.1c-1.5-.1-2.4-1-2.5-2.2h1.1c.1.7.7 1.2 1.4 1.3v-3c-1.7-.5-2.3-1.1-2.3-2.3 0-1.3 1-2.1 2.3-2.2v-.9h.7v.9c1.7.2 2.2 1.2 2.3 2h-1.1c-.1-.6-.6-1.1-1.2-1.2V32c1.9.5 2.5 1.3 2.5 2.5 0 1.4-.9 2.2-2.5 2.3v1.1H33zm0-6.1v-2.5c-.9.1-1.2.6-1.2 1.2s.2.9 1.2 1.3zm.7 1.3v2.8c.9-.1 1.3-.5 1.3-1.3 0-.7-.3-1.2-1.3-1.5z"/><g class="st27"><path class="st1" d="M9.3 92.1v-1.5c-2-.2-3.2-1.4-3.4-3h1.5c.2 1 .9 1.7 1.9 1.8v-4.1c-2.2-.7-3.1-1.5-3.1-3.1 0-1.7 1.3-2.8 3.1-2.9v-1.2h1v1.2c2.2.2 3 1.7 3.1 2.7H12c-.2-.8-.8-1.4-1.6-1.5v3.7c2.6.7 3.3 1.8 3.3 3.3 0 1.9-1.2 3-3.3 3.1v1.5H9.3zm0-8.2v-3.4c-1.2.1-1.7.8-1.7 1.6s.4 1.3 1.7 1.8zm.9 1.7v3.8c1.2-.1 1.8-.7 1.8-1.8 0-.9-.4-1.5-1.8-2z"/></g><path class="st3" d="M9.7 92v-1.5c-2-.2-3.2-1.4-3.4-3h1.5c.2 1 .9 1.7 1.9 1.8v-4.1c-2.2-.7-3.1-1.5-3.1-3.1 0-1.7 1.3-2.8 3.1-2.9V78h1v1.2c2.2.2 3 1.7 3.1 2.7h-1.5c-.2-.8-.8-1.4-1.6-1.5V84c2.6.7 3.3 1.8 3.3 3.3 0 1.9-1.2 3-3.3 3.1V92h-1zm0-8.2v-3.4c-1.2.1-1.7.8-1.7 1.6s.5 1.3 1.7 1.8zm1 1.7v3.8c1.2-.1 1.8-.7 1.8-1.8 0-.9-.4-1.5-1.8-2z"/><g class="st27"><path class="st1" d="M58.4 58.4h-1.1c-.1 1.4-1 2.3-2.1 2.4v-1.1c.7-.1 1.2-.7 1.3-1.3h-2.9c-.5 1.6-1.1 2.2-2.2 2.2-1.2 0-2-.9-2.1-2.2h-.8v-.7h.8c.2-1.6 1.2-2.1 1.9-2.2v1c-.6.1-1 .6-1.1 1.2h2.6c.5-1.8 1.3-2.4 2.4-2.4 1.3 0 2.1.9 2.2 2.4h1.1v.7zm-5.9 0h-2.4c.1.9.6 1.2 1.2 1.2.5 0 .9-.2 1.2-1.2zm1.3-.7h2.7c-.1-.8-.5-1.3-1.3-1.3-.6.1-1.1.4-1.4 1.3z"/></g><path class="st3" d="M58.3 58.1h-1.1c-.1 1.4-1 2.3-2.1 2.4v-1.1c.7-.1 1.2-.7 1.3-1.3h-2.9c-.5 1.6-1.1 2.2-2.2 2.2-1.2 0-2-.9-2.1-2.2h-.8v-.7h.8c.2-1.6 1.2-2.1 1.9-2.2v1c-.6.1-1 .6-1.1 1.2h2.6c.5-1.8 1.3-2.4 2.4-2.4 1.3 0 2.1.9 2.2 2.4h1.1v.7zm-5.8 0H50c.1.9.6 1.2 1.2 1.2.5 0 .9-.3 1.3-1.2zm1.2-.7h2.7c-.1-.8-.5-1.3-1.3-1.3-.6.1-1.1.3-1.4 1.3z"/><g class="st27"><path class="st1" d="M68.8 29.2l-.2-.7c-1 .2-1.7-.2-2-.9l.7-.2c.2.4.7.7 1.1.6l-.6-1.9c-1.1 0-1.7-.3-1.9-1-.2-.8.2-1.5 1-1.8l-.2-.5.4-.1.2.5c1.1-.2 1.6.4 1.8.8l-.7.2c-.2-.4-.6-.6-1-.5l.5 1.7c1.3 0 1.8.4 2 1.1.3.9-.2 1.5-1.1 1.9l.2.7-.2.1zm-1.2-3.8l-.5-1.6c-.4.1-.7.5-.6.9.2.5.5.7 1.1.7zm.7.7l.5 1.8c.4-.1.7-.6.6-1v-.1c-.1-.4-.4-.7-1.1-.7z"/></g><path class="st3" d="M69 29.1l-.2-.7c-1 .2-1.7-.2-2-.9l.7-.2c.2.4.7.7 1.1.6L68 26c-1.1 0-1.7-.3-1.9-1-.2-.8.2-1.5 1-1.8l-.2-.5.4-.1.2.5c1.1-.2 1.6.4 1.8.8l-.7.2c-.2-.4-.6-.6-1-.5l.5 1.7c1.3 0 1.8.4 2 1.1.3.9-.2 1.5-1.1 1.9l.2.7-.2.1zm-1.2-3.8l-.5-1.6c-.4.1-.7.5-.6.9.2.5.5.7 1.1.7zm.7.7l.5 1.8c.4-.1.7-.6.6-1v-.1c-.1-.4-.4-.7-1.1-.7z"/><g class="st27"><path class="st1" d="M170.1 97.9l-.4-.3c-.3.5-1 .6-1.5.3l.3-.4c.3.1.7.1.9-.2l-1.2-.8c-.7.5-1.1.6-1.5.2-.5-.4-.6-1-.2-1.5l-.3-.2.2-.3.3.2c.3-.4.9-.6 1.4-.3l-.3.4c-.3-.1-.6-.1-.8.1l1 .8c.7-.6 1.2-.6 1.6-.3.5.4.6 1 .2 1.6l.4.3-.1.4zm-2.3-1.7l-1-.7c-.2.2-.2.6.1.8.3.2.5.2.9-.1zm.7.1l1.1.8c.2-.3.2-.6-.1-.8h-.1c-.2-.3-.5-.3-.9 0z"/></g><path class="st3" d="M170.2 97.7l-.4-.3c-.3.5-1 .6-1.5.3l.3-.4c.3.1.7.1.9-.2l-1.2-.8c-.6.5-1.1.6-1.5.2-.5-.4-.6-1-.2-1.5l-.3-.2.2-.3.3.2c.3-.4.9-.6 1.4-.3l-.3.4c-.3-.1-.6-.1-.8.1l1 .8c.7-.6 1.2-.6 1.6-.3.5.4.6 1 .2 1.6l.4.3-.1.4zm-2.3-1.7l-1-.7c-.2.2-.2.6.1.8.3.2.5.2.9-.1zm.7.1l1.1.8c.2-.3.2-.6-.1-.8h-.1c-.2-.2-.5-.3-.9 0z"/><path class="st1" d="M175.2 80.5c-.2 2.4-2.6 3-2.4 5.4 1.9-.7 4-.6 5.9-.1 1.9.5 3.7 1.5 5.6 2.2.1-.7.3-1.5.6-2.1.4-.7.8-1.3 1.1-2-.5.1-1-.3-1.4-.6-1.7-1.2-3.8-1.7-5.9-1.9-.5-.2-3.6 0-3.5-.9z"/><g class="st27"><path class="st1" d="M178.5 85.1l.2-.4c-.4-.2-.6-.6-.5-1l.3.1c-.1.2 0 .5.3.6l.4-.9c-.4-.4-.6-.6-.4-1 .2-.4.6-.6 1-.4l.1-.3.2.1-.1.3c.4.2.5.5.4.9l-.3-.1c0-.2 0-.4-.2-.5l-.4.8c.5.4.6.7.4 1.1-.2.4-.6.6-1 .4l-.2.4-.2-.1zm.8-1.9l.3-.8c-.2-.1-.4 0-.5.2 0 .2 0 .4.2.6zm.1.5l-.4.9c.2.1.5 0 .6-.2.1-.3.1-.5-.2-.7z"/></g><path class="st3" d="M178.7 85.1l.1-.4c-.4-.2-.6-.6-.5-1l.3.1c-.1.2.1.5.3.6l.4-.9c-.4-.4-.6-.6-.4-1 .2-.4.6-.6 1-.4l.1-.3.2.1-.1.3c.4.2.5.5.4.9l-.3-.1c0-.2 0-.4-.2-.5l-.4.8c.5.4.6.7.4 1.1-.2.4-.6.6-1 .4l-.1.4-.2-.1zm.8-1.9l.3-.8c-.2-.1-.4 0-.5.2-.1.2-.1.4.2.6zm0 .5l-.4.9c.2.1.5 0 .6-.2.1-.3.1-.5-.2-.7z"/><g class="st27"><path class="st1" d="M169.9 29.3l.8-.3c-.3-1.2.2-2 1.1-2.4l.3.8c-.5.3-.8.8-.7 1.3l2.2-.7c0-1.3.3-2 1.2-2.2.9-.3 1.8.2 2.2 1.2l.6-.2.2.5-.6.2c.3 1.3-.4 1.9-1 2.2l-.3-.8c.4-.2.7-.7.6-1.2l-2 .6c0 1.5-.4 2.1-1.3 2.4-1 .3-1.8-.2-2.3-1.3l-.8.3-.2-.4zm4.5-1.4l1.9-.6c-.1-.5-.6-.8-1.1-.7h-.1c-.5.2-.7.5-.7 1.3zm-.8.8l-2.1.7c.3.6.7.9 1.3.7.5-.2.8-.5.8-1.4z"/></g><path class="st3" d="M170 29.5l.8-.3c-.3-1.2.2-2 1.1-2.4l.3.8c-.5.3-.8.8-.7 1.3l2.2-.7c0-1.3.3-2 1.2-2.2.9-.3 1.8.2 2.2 1.2l.6-.2.2.5-.6.2c.3 1.3-.4 1.9-1 2.2l-.2-.8c.4-.2.6-.7.6-1.2l-2 .6c0 1.5-.4 2.1-1.3 2.4-1 .3-1.8-.2-2.3-1.3l-.8.3-.3-.4zm4.5-1.4l1.9-.6c-.1-.5-.6-.8-1.1-.7h-.1c-.4.2-.6.6-.7 1.3zm-.8.9l-2.1.7c.3.6.7.9 1.3.7.5-.3.8-.6.8-1.4z"/><g class="st27"><path class="st1" d="M21.8 101.6l.1-.5c-.6-.1-1-.6-.9-1.2l.5.1c0 .3.2.6.5.7l.3-1.3c-.7-.4-.9-.7-.8-1.2.1-.5.7-.9 1.2-.8l.1-.4.3.1-.1.3c.5.1.9.6.8 1.1l-.5-.1c0-.3-.2-.5-.4-.6l-.2 1.2c.8.4 1 .8.9 1.3-.1.6-.6.9-1.3.8l-.1.5h-.4zm.6-2.7l.2-1.1c-.3-.1-.6.1-.7.4 0 .2.1.4.5.7zm.2.6l-.3 1.3c.3.1.6-.1.7-.4v-.1c.1-.3 0-.5-.4-.8z"/></g><path class="st1" d="M22 101.6l.1-.5c-.6-.1-1-.6-.9-1.2l.5.1c0 .3.2.6.5.7l.3-1.3c-.7-.4-.9-.7-.8-1.2.1-.5.7-.9 1.2-.8l.1-.4.3.1-.1.4c.5.1.9.6.8 1.1l-.5-.1c0-.3-.2-.5-.4-.6l-.2 1.1c.8.4 1 .8.9 1.3-.1.6-.6.9-1.3.8l-.1.5H22zm.6-2.7l.2-1.1c-.3-.1-.6.1-.6.4v.1c-.1.1 0 .3.4.6zm.2.6l-.3 1.3c.3.1.6-.1.7-.4v-.1c.1-.3 0-.5-.4-.8z"/><g class="st27"><path class="st1" d="M34.3 65.1V63c-2.8-.2-4.5-1.9-4.7-4.2h2.1c.2 1.3 1.3 2.3 2.6 2.5v-5.7c-3.1-.9-4.3-2.1-4.3-4.3 0-2.4 1.8-3.9 4.3-4.1v-1.6h1.3v1.6c3.1.3 4.1 2.3 4.3 3.8h-2c-.2-1.1-1.1-2-2.3-2.2V54c3.6 1 4.6 2.5 4.6 4.6 0 2.6-1.7 4.1-4.6 4.3V65l-1.3.1zm0-11.5v-4.8C32.6 49 32 50 32 51.1s.5 1.9 2.3 2.5zm1.3 2.4v5.3c1.6-.2 2.5-1 2.5-2.5 0-1.2-.5-2.1-2.5-2.8z"/></g><path class="st3" d="M34.9 64.9v-2.1c-2.8-.2-4.5-1.9-4.7-4.2h2.1c.2 1.3 1.3 2.3 2.6 2.5v-5.7c-3.1-.9-4.3-2.1-4.3-4.3 0-2.4 1.8-3.9 4.3-4.1v-1.6h1.3V47c3.1.3 4.1 2.3 4.3 3.8h-2c-.2-1.1-1.1-2-2.3-2.2v5.1c3.6 1 4.6 2.5 4.6 4.6 0 2.6-1.7 4.1-4.6 4.3V65l-1.3-.1zm0-11.5v-4.8c-1.7.1-2.3 1.2-2.3 2.3s.6 1.9 2.3 2.5zm1.4 2.5v5.3c1.6-.2 2.5-1 2.5-2.5 0-1.3-.6-2.1-2.5-2.8z"/><path class="st1" d="M144.6 33.3c-8.9 14.3-27.8 42.2-29.8 58.9-.5 4.2-.6 8.4-.7 12.6-.1 1.1 0 3-.6 3.9-1 1.6-3.1 1.3-5 1.5-6.5.7-13.4.7-20.1.7-4.9 0-9.6-.1-13.8-.1-.3-4.9-.7-10.4-1-15.3-.2-4.4-.5-8.8-1.8-13.1-1.1-3.5-2.8-6.8-4.6-10.1-6.8-12.5-14-24.8-21.4-37-.5-.8-2.9-3.8-2.6-4.7 0-.1.1-.2.1-.3.2-.4.5-.7.9-1 1.2-1 2.4-1.8 3.8-2.4.3-.2.6-.2 1-.2.5.1 2.7 2.4 3 2.8L71.3 49c4.1 4.2 8.8 5.5 14.5 7.2 2.5.8 5.2.9 7.9 1 6.2.1 13.9.1 18.6-4.4 5.6-5.4 21.3-20.1 26.5-26l5.5 3.2c.4.2.7.5 1 .8.3.8-.2 1.8-.7 2.5z"/><linearGradient id="SVGID_23_" gradientUnits="userSpaceOnUse" x1="97.249" y1="58.95" x2="107.406" y2="58.95" gradientTransform="matrix(1 0 0 -1 -7.15 115.87)"><stop offset="0" stop-color="#e5c6d6"/><stop offset=".42" stop-color="#ead4d0"/><stop offset="1" stop-color="#f0e9cb"/></linearGradient><path d="M92.4 63c1.5 1.2 3.5 1.5 5.2.6.7-.3 1.3-.8 1.7-1.4.3-.7.5-1.4.5-2.1l.3-2.5c.2-1.3.2-2.7.1-4-.2-1.3-.6-2.5-1.5-3.3-1.2-.9-2.9-.7-4.4.1-4.8 2.7-5.5 9.4-1.9 12.6z" fill="url(#SVGID_23_)"/><linearGradient id="SVGID_24_" gradientUnits="userSpaceOnUse" x1="99.62" y1="52.163" x2="104.251" y2="70.085" gradientTransform="matrix(1 0 0 -1 -7.15 115.87)"><stop offset="0" stop-color="#010101" stop-opacity="0"/><stop offset=".95" stop-color="#010101"/></linearGradient><path d="M99.5 52.9S96 61.8 90.7 60c0 0-1.4-.3-.1-5.9 1.3-5.6 8.9-1.2 8.9-1.2z" opacity=".26" fill="url(#SVGID_24_)"/><linearGradient id="SVGID_25_" gradientUnits="userSpaceOnUse" x1="91.731" y1="72.322" x2="111.599" y2="72.322" gradientTransform="matrix(1 0 0 -1 -7.15 115.87)"><stop offset="0" stop-color="#e5c6d6"/><stop offset=".42" stop-color="#ead4d0"/><stop offset="1" stop-color="#f0e9cb"/></linearGradient><path d="M84.7 46c.4 3.5 2 7.1 5 8.7 2.8 1.5 6.4 1 9.3-.5 1.2-.6 2.3-1.4 3.1-2.5.7-1.1 1.2-2.2 1.5-3.5.6-2.1 1-4.2.8-6.4-.5-6.3-6.1-11.1-12.4-10.5-1.2.1-2.4.4-3.5.8-2.4 1-3.5 2.5-3.6 5.1-.2 3-.5 5.9-.2 8.8z" fill="url(#SVGID_25_)"/><path d="M83.3 37.8c0-1.1.2-2.2-.1-3.3-.3-1-.9-1.8-1.3-2.8-.6-1.7-.2-3.6 1-4.9.7-.8 1.6-1.3 2.6-1.6 1.3-.4 2.6-.4 3.9-.1.8.2 1.6.5 2.4.7 1.2.2 2.4.2 3.6.1 1.9 0 3.8.2 5.5 1 1.7.8 3.2 2.2 3.7 4.1.1.5.2 1 .5 1.5.3.4.6.7 1 1.1.8.9.9 2.1 1 3.3.1.9.1 1.8-.2 2.7-.3.8-.9 1.5-1.3 2.2-.6 1-1 2.1-1.3 3.3-.2-.4-.1-.9-.2-1.4-.1-.5-.3-1-.8-1-.4 0-.7.3-.8.7-.1.4-.3.7-.5 1-.1.1-.2.2-.4.2-.1 0-.2-.2-.2-.3-.3-1.2.1-2.4.1-3.6.1-1.8-.6-3.6-2-4.9-1.3-1.1-2.9-1.9-4.6-2.1-1.7-.2-3.4-.2-5.1 0-1 .1-2 .2-2.9.8-.9.6-1.4 1.7-1.7 2.8-.2.9-.1 2.6-.8 3.3-.9-.6-1.1-1.9-1.1-2.8z" fill="#e08142"/><path class="st3" d="M14.8 72.3s.1 1.8-.5 2.1l3 3.7s1.3-1 2.1-.5c0 0 2.6-3.5 4.5-5.3 1.9-1.8 3.2-2.8 3.2-2.8s-2.4-2.9-3.3-3.5-1.6-.9-1.6-.9-2.2.3-7.4 7.2z"/><linearGradient id="SVGID_26_" gradientUnits="userSpaceOnUse" x1="27.174" y1="40.296" x2="33.566" y2="40.296" gradientTransform="matrix(1 0 0 -1 -7.15 115.87)"><stop offset="0" stop-color="#010101" stop-opacity="0"/><stop offset=".95" stop-color="#010101"/></linearGradient><path d="M20.7 78.4s4.7-7.2 5.4-6.8c.7.4-.3 3.7-.6 4.3-.3.6-2.9 2.5-2.9 2.5L20 79.6l.7-1.2z" fill="url(#SVGID_26_)"/><linearGradient id="SVGID_27_" gradientUnits="userSpaceOnUse" x1="82.921" y1="49.539" x2="-17.137" y2="14.087" gradientTransform="matrix(1 0 0 -1 -7.15 115.87)"><stop offset="0" stop-color="#010101" stop-opacity="0"/><stop offset=".95" stop-color="#010101"/></linearGradient><path d="M84.7 110.9l-10-.1c-.3-4.9-.7-10.4-1-15.3-.2-4.4-.5-8.8-1.8-13.1-1.1-3.5-2.8-6.8-4.6-10.1-6.8-12.5-14-24.8-21.4-37-.5-.8-2.9-3.8-2.6-4.7 0-.1.1-.2.1-.3l2.3-1.9 1.5 3.1s21.3 30.2 26.5 34.2c5.2 3.9 8.9 13.4 8.7 15.5-.2 1.9 5 23.8 6.2 28.6.2.8-3.9 1.1-3.9 1.1z" fill="url(#SVGID_27_)"/><g class="st27"><path class="st1" d="M24 70.8l-.4-.5c-.5.4-1.3.4-1.8-.1l.5-.4c.3.2.7.3 1 .1l-1-1.2c-.9.4-1.3.3-1.7-.2-.4-.5-.3-1.3.2-1.7l-.3-.4.3-.2.3.4c.5-.4 1.2-.4 1.6.1l-.4.4c-.3-.2-.6-.2-.9-.1l.9 1.1c1-.4 1.5-.3 1.8.2.5.6.4 1.2-.2 1.8l.4.5-.3.2zm-2.1-2.5l-.9-1c-.3.2-.3.6-.1.9.3.2.5.3 1 .1zm.8.3l1 1.2c.3-.2.4-.6.1-.9l-.1-.1c-.2-.3-.5-.4-1-.2z"/></g><path class="st1" d="M24.1 70.6l-.4-.5c-.5.4-1.3.4-1.8-.1l.5-.4c.3.2.7.3 1 .1l-1-1.2c-.9.4-1.3.3-1.7-.2-.4-.5-.3-1.3.2-1.7l-.3-.3.3-.2.3.4c.5-.4 1.2-.4 1.6.1l-.4.4c-.3-.2-.6-.2-.9-.1l.9 1.1c1-.4 1.5-.3 1.8.2.5.6.4 1.2-.2 1.8l.4.5-.3.1zM22 68.1l-.9-1c-.3.2-.3.6-.1.9.3.2.5.3 1 .1zm.8.3l1 1.2c.3-.2.4-.7.1-1v-.1c-.3-.2-.6-.3-1.1-.1z"/></svg>