<svg id="Layer_1" xmlns="http://www.w3.org/2000/svg" viewBox="0 0 211.6 144.8"><style>.st0{opacity:.24;enable-background:new}.st0,.st3{fill:#6681f2}.st5{fill:#fff}.st8{fill:#606161}</style><path class="st0" d="M10.2 100.7C7.8 97.8 6.3 94.4 5 91 .7 80.6-2.6 68.9 2.9 59c4-7.2 12-12 20.1-15.7 21.7-10 46-15.1 67.1-25.9 4.4-2.3 8.7-4.8 13.7-5.8 5.1-1 10.4-.3 15.5.7 7.7 1.4 15.2 3.2 22.7 5.3 3.6 1.1 7.3 2.2 10.3 4.2 4 2.5 6.8 6.2 9.9 9.6C173 43 187.9 51 199.9 61.5c5.5 4.8 10.6 10.5 11.6 17.3.8 6-1.8 12.1-6 16.8s-10 8.2-16 11.1c-8.6 4.1-18.7 7.7-22.5 15.7-1.5 3.2-1.8 6.7-3.3 9.8-2.7 5.6-9 9.4-15.6 11.1s-13.6 1.6-20.5 1.5l-26.4-.4c-8.9-.1-18.7-.5-25.3-5.8-3.5-2.7-10.5-16.6-37.3-23.3-10.5-2.6-21.8-6.3-28.4-14.6z"/><linearGradient id="SVGID_1_" gradientUnits="userSpaceOnUse" x1="100.06" y1="17.139" x2="105.761" y2="17.139" gradientTransform="matrix(1 0 0 -1 0 139.296)"><stop offset="0" stop-color="#e5c6d6"/><stop offset=".42" stop-color="#ead4d0"/><stop offset="1" stop-color="#f0e9cb"/></linearGradient><path fill="url(#SVGID_1_)" d="M100.1 109.7l.2 24.7 3 .3 2.5-24.6z"/><linearGradient id="SVGID_2_" gradientUnits="userSpaceOnUse" x1="112.341" y1="17.139" x2="118.042" y2="17.139" gradientTransform="matrix(1 0 0 -1 0 139.296)"><stop offset="0" stop-color="#e5c6d6"/><stop offset=".42" stop-color="#ead4d0"/><stop offset="1" stop-color="#f0e9cb"/></linearGradient><path fill="url(#SVGID_2_)" d="M112.3 109.7l.3 24.7 3 .3 2.4-24.6z"/><path class="st0" d="M47.4 0h122.8c5.3 0 9.7 4.3 9.7 9.7v72.2c0 5.3-4.3 9.7-9.7 9.7H47.4c-5.3 0-9.7-4.3-9.7-9.7V9.7c.1-5.4 4.4-9.7 9.7-9.7z"/><path class="st0" d="M179.9 10.4v68.1c0 5.2-4.2 9.4-9.4 9.4H47.2c-5.2 0-9.4-4.2-9.4-9.4V10.4c0-.4 0-.8.1-1.2.5-4.7 4.5-8.2 9.3-8.2h123.3c4.7 0 8.7 3.5 9.3 8.2.1.4.1.8.1 1.2z"/><path class="st3" d="M179.8 9.2h-142c.6-4.7 4.6-8.2 9.4-8.2h123.3c4.7 0 8.7 3.5 9.3 8.2z"/><circle cx="108.6" cy="4.9" r="3" opacity=".65" fill="#fff"/><path class="st5" d="M109.6 11.2h66.3v37.1h-66.3zm-67.8 0h66.3v73.7H41.8z"/><path class="st3" d="M55.9 54.9c4.9-2.3 10.9-2.6 16.6-2.8 6.2-.2 12.8-.3 17.9 2.4 2.6 1.3 4.5 3.3 6.4 5.2.7.6 1.3 1.3 1.7 2.1.5 1 .5 2.1.5 3.2v14.7c0 1 0 2-.5 2.8-1.4 2.5 3.4 2.4-.1 2.4-15.6 0-56.6.1-56.6.1.9-.1 1.9-8.4 1.8-9.2-.1-2.9-.9-5.4.5-8.1 2.5-5 5.9-10.1 11.8-12.8z"/><linearGradient id="SVGID_3_" gradientUnits="userSpaceOnUse" x1="101.695" y1="86.118" x2="187.228" y2="-21.125" gradientTransform="matrix(1 0 0 -1 -12.99 136.166)"><stop offset="0" stop-color="#010101" stop-opacity="0"/><stop offset=".95" stop-color="#010101"/></linearGradient><path d="M92.1 69.7c-.3 2.5-1.4 4.9-2 7.4s-.4 5.4 1.3 7.2c1.7 1.8 6.7 6 7.2 6.6.9 1.2 11.5-.8 14.5-.5 1.6.2 3.3-5.4 5-8.9.5-.9 1.3-1.6 1.8-2.5 1.4-2.1 1.4-4.9.8-7.5-.6-2.5-1.6-4.9-2-7.4-.6-3.1-.3-6.4-1.7-9.2-2.6-4.8-13.1-7.7-18.2-6.1-9 2.9-5.8 14.2-6.7 20.9z" fill="url(#SVGID_3_)"/><path class="st5" d="M109.6 50h66.3v37.1h-66.3z"/><path d="M167.1 82.4c-1.2-1.4-2.7-2.6-3.8-4.2-1.1-1.7-1.6-3.7-3-5.2-2.1-2.3-5.5-2.7-8.6-2.2s-5.9 1.7-9 2.1c-3.7.5-8-.1-10.9 2.4-1.5 1.3-2.3 3.2-4 4.4-1.4 1-3.2 1.2-4.9 1.3-1.7.2-3.5.4-4.9 1.3-1.4.9-2.3 2.9-1.5 4.4 1 1.8 3.5 1.9 5.5 1.7 9-.8 17.9-1.4 26.9-1.5 4.5-.1 9 0 13.5.3 1.1.1 5.7 1.1 6.3.3 1.2-1.2-.8-4.2-1.6-5.1z" opacity=".18" fill="#6681f2"/><path class="st3" d="M96.3 67.2c-.3 2.5-1.4 4.9-2 7.4-.5 2.5-.4 5.4 1.3 7.2 1.7 1.8 6.7 6 7.2 6.6.9 1.2 11.5-.8 14.5-.5 1.6.2 3.3-5.4 5-8.9.5-.9 1.3-1.6 1.8-2.5 1.4-2.1 1.4-4.9.8-7.5-.6-2.5-1.6-4.9-2-7.4-.6-3.1-.3-6.4-1.7-9.2-2.6-4.8-13.1-7.7-18.2-6.1-9 3-5.9 14.3-6.7 20.9z"/><path class="st8" d="M110.1 28.8c3.1.6 5.7 2.8 6.6 5.8.8 2.6.2 5.4.4 8.1.1 2.2.7 4.4 1.8 6.4.6 1.2 1.4 2.3 1.9 3.6 1.4 3.6.2 7.7-2.9 10-1.5 1.1-3.3 1.6-4.9 2.4-2.1 1.1-4 2.6-5.4 4.4-2.4 0-4.1-2.4-4.6-4.8-.4-2.4.1-4.8-.2-7.2-.5-4.1-3.1-8.3-1.7-12.2.6-1.7 2-3.2 1.9-5-.1-3.1-3.3-5-1.3-8.2 1.5-2.4 5.7-3.7 8.4-3.3zM99 84.2l20.9.5s.9 5.4.4 8.6c-.4 3.2-.7 10.5-.7 10.5l-1.2 6.9-19.4.4s-.3-21.3 0-26.9z"/><path class="st3" d="M101.2 132.9c-.3 0-.5 0-.7.2-.3.3-.4.7-.4 1.1l.3 1.2c0 .3 0 .7.3 1 .2.1.4.2.7.2.5 0 .9.1 1.4.1.2 0 .3 0 .5-.1.4-.2.4-.7.3-1.1 0-.4.4-2.2.2-2.5-.5-.5-2.1-.2-2.6-.1zm12.2 0c-.3 0-.5 0-.7.2-.3.3-.5.7-.4 1.1l.3 1.2c0 .3 0 .7.3 1 .2.1.4.2.7.2.4 0 .9.1 1.4.1.2 0 .3 0 .5-.1.4-.2.4-.7.3-1.1 0-.4.4-2.2.2-2.5-.4-.5-2.1-.2-2.6-.1z"/><path class="st8" d="M101.6 136c-.5-.1-1-.1-1.4.2-.1.1-.2.1-.2.2-.1 0-.2.1-.3.1-.5.1-.9.5-1.1.9-.1.5-.1 1 .1 1.5l.3.6c.2.1.3.2.5.2.8.2 1.6.3 2.4.3.5 0 1 0 1.4-.3.4-.3.5-1 .6-1.5.1-.4 0-.9 0-1.3-.4-1.4-1.3-.7-2.3-.9zm12.3 0c-.5-.1-1-.1-1.4.2-.1.1-.2.1-.2.2-.1 0-.2.1-.3.1-.5.1-.9.5-1.1.9-.1.5-.1 1 .1 1.5l.3.6c.2.1.3.2.5.2.8.2 1.6.3 2.4.3.5 0 1 0 1.4-.3.4-.3.5-1 .6-1.5.1-.4 0-.9 0-1.3-.4-1.4-1.3-.7-2.3-.9z"/><linearGradient id="SVGID_4_" gradientUnits="userSpaceOnUse" x1="89.447" y1="86.305" x2="106.74" y2="86.305" gradientTransform="scale(1 -1) rotate(-9.811 -708.03 161.09)"><stop offset="0" stop-color="#e5c6d6"/><stop offset=".42" stop-color="#ead4d0"/><stop offset="1" stop-color="#f0e9cb"/></linearGradient><path d="M70 60.1c1.7 1.3 4 2.3 6.2 1.9 3-.5 4.7-3.3 5.1-5.9.4-2.6-.2-5.4-.1-8 .1-1.7.5-3.4 0-5-.7-2.5-3.4-4.4-6.2-4.8-2.8-.3-5.6.7-7.5 2.7-2.6 2.9-1.8 6.4-2 9.9-.1 3.4 1.5 6.9 4.5 9.2z" fill="url(#SVGID_4_)"/><linearGradient id="SVGID_5_" gradientUnits="userSpaceOnUse" x1="86.867" y1="80.284" x2="86.292" y2="109.233" gradientTransform="matrix(1 0 0 -1 -12.99 136.166)"><stop offset="0" stop-color="#010101" stop-opacity="0"/><stop offset=".95" stop-color="#010101"/></linearGradient><path d="M66.2 47.7s3 8.6 8.6 8.6c5.7 0 6.5-2.9 6.5-2.9l-.2-4.6-14.9-1.1z" fill="url(#SVGID_5_)"/><linearGradient id="SVGID_6_" gradientUnits="userSpaceOnUse" x1="73.436" y1="99.52" x2="99.876" y2="99.52" gradientTransform="matrix(1 0 0 -1 -12.99 136.166)"><stop offset="0" stop-color="#e5c6d6"/><stop offset=".42" stop-color="#ead4d0"/><stop offset="1" stop-color="#f0e9cb"/></linearGradient><path d="M86.6 37.5c-.1 2.5-.4 5.1-1.2 7.4s-2.2 4.6-4.3 6c-2.9 2-6.9 2.1-10.1.7-3.3-1.4-5.8-4.1-7.4-7.2-1.7-3.1-2.7-6.6-3-10.1-.2-2.6.2-5.5 1.4-7.9 1.3-2.5 3.8-4.2 6.5-5 2.7-.8 5.5-.9 8.4-.8 2.3.1 4.6.2 6.7 1.3 2.3 1.2 3.7 3.4 3.4 6-.6 3.1-.2 6.5-.4 9.6z" fill="url(#SVGID_6_)"/><path class="st8" d="M64.2 36.2c-.7-.4-1.1-1.4-1.9-1.4-.5 0-1 .3-1.2.8-.2.5-.2 1-.1 1.5.2 1.2.8 2.2 1.7 3 .4.3.8.7 1 1.1.1.3.1.7 0 1.1l-.3 2.5c-1.3-.4-2.2-1.6-2.7-2.8s-.7-2.6-.8-4c-.1-.9-.3-1.8-.4-2.7-.2-1.8-.3-3.7-.4-5.5l-.1-1.9c-.1-2.3-.2-4.7.3-7 .1-.6.3-1.2.7-1.6.5-.5 1-.9 1.6-1.1l4.9-2.5c1.3-.7 2.7-1.3 4.1-1.8 1.1-.3 2.2-.5 3.4-.7 1.8-.3 3.6-.5 5.3-.1 2.2.6 4 2.3 6.3 2.7 1.1.2 2.3.2 3.3.6 2.2.8 3.4 3.3 3.6 5.7.1 1.5 0 3.1-1 4.3-.8 1-2.1 1.5-3.1 2.4-1 1-1.5 2.6-2.6 3.4-1.3 1-3.2.8-4.7.2-1.5-.7-2.8-1.7-4.2-2.6-.7-.4-1.5-.8-2.3-.6-1.1.2-1.8 1.5-2.8 2-.9.5-2 .5-3 .3-1.2-.2-2.6-.5-3.5.7-.4 1.1-.8 2.8-1.1 4z"/><linearGradient id="SVGID_7_" gradientUnits="userSpaceOnUse" x1="75.629" y1="97.689" x2="78.724" y2="99.396" gradientTransform="matrix(1 0 0 -1 -12.99 136.166)"><stop offset="0" stop-color="#010101" stop-opacity="0"/><stop offset=".95" stop-color="#010101"/></linearGradient><path d="M63 37.5l-.3-.6c-.1-.2-.3-.3-.5-.3s-.4.2-.4.5c0 .2 0 .4.1.7.1.4.3.9.5 1.3.1.3.3.5.5.7.3.2.6.3.9.4h.3c.1-.1.1-.1.1-.2.1-.4.3-1.2-.1-1.5-.1-.1-.4-.1-.5-.2-.3-.4-.5-.6-.6-.8z" opacity=".5" fill="url(#SVGID_7_)"/><path class="st3" d="M128.8 45.2c2.4-4 7-6.4 11.7-6.3 1.6 0 3.3.1 4.9.1 4.7 0 11.7-1.6 15.7.8 1.7 1 3 5.4 3.9 7.2.2.4.3.8.1 1.1-.2.3-.6.3-.9.3-8.3-.1-16.5 0-24.8-.1h-11.6c-.1-1 .3-2 1-3.1z"/><linearGradient id="SVGID_8_" gradientUnits="userSpaceOnUse" x1="175.524" y1="101.022" x2="183.458" y2="101.022" gradientTransform="matrix(.96 .27 .27 -.96 -51.821 85.965)"><stop offset="0" stop-color="#e5c6d6"/><stop offset=".42" stop-color="#ead4d0"/><stop offset="1" stop-color="#f0e9cb"/></linearGradient><path d="M145 41c.4.3.8.5 1.3.7.9.4 1.9.5 2.9.4 1-.2 1.9-.8 2.1-1.8.1-.5.1-1 0-1.5l-.2-1.8c-.1-.9-.2-1.8-.7-2.5-.8-1.3-2.4-1.8-3.8-1.2-.9.4-1.6 1.2-2 2.1-.8 1.9-1.5 4 .4 5.6z" fill="url(#SVGID_8_)"/><linearGradient id="SVGID_9_" gradientUnits="userSpaceOnUse" x1="159.504" y1="96.715" x2="162.959" y2="115.464" gradientTransform="matrix(1 0 0 -1 -12.99 136.166)"><stop offset="0" stop-color="#010101" stop-opacity="0"/><stop offset=".95" stop-color="#010101"/></linearGradient><path d="M150.5 34.4s-1.9 5.4-4.6 5.4c-2.7 0-2-2.6-2-2.6l6.6-2.8z" fill="url(#SVGID_9_)"/><linearGradient id="SVGID_10_" gradientUnits="userSpaceOnUse" x1="152.949" y1="107.26" x2="166.167" y2="107.26" gradientTransform="matrix(1 0 0 -1 -12.99 136.166)"><stop offset="0" stop-color="#e5c6d6"/><stop offset=".42" stop-color="#ead4d0"/><stop offset="1" stop-color="#f0e9cb"/></linearGradient><path d="M140.1 32.2c.2.9.7 1.8 1 2.7.1.4.3.8.5 1.2.4.5 1 1 1.6 1.2 1.4.5 2.9.4 4.2-.1 1.8-.8 3.1-2.5 3.8-4.4.7-1.9 1.9-3.7 1.9-5.7 0-.9-1-1.9-1.3-2.7-.3-.9-1-1.6-1.6-2.2-.6-.6-1.2-1.1-2-1.5-1.8-.9-4-.4-5.7.7-.6.3-1.1.8-1.5 1.3-1 1.3-.8 2.9-.8 4.5s-.5 3.2-.1 5z" fill="url(#SVGID_10_)"/><path d="M137.8 23.1c-.5-.9-.7-2-.9-3.1-.1-.3-.1-.5 0-.8.2-.4.6-.5.9-.8.6-.6.1-1.6.2-2.4 0-1 .8-1.8 1.7-2.2.9-.4 1.9-.4 2.9-.5 1.3-.1 2.7 0 3.7.9.5.5.8 1.2 1.3 1.7 1.1.9 2.8.3 4.3.7 1.2.3 2.2 1.3 2.4 2.6.2 1.2-.3 2.6.4 3.7.2.3.6.6.7 1 .1.4.1.9-.1 1.3-.5 1.6-1.3 3.2-2.2 4.6-.2.3-.4.5-.7.7-.3.1-.8 1.9-1 1.6-.3-.4 0-2.7.3-3 .3-.3.6-.7.8-1 .2-.6-.1-1.3-.7-1.5-.5-.2-1.1 0-1.4.5.3-2-.7-4.3-2.7-4.7-1.2-.2-2.3.2-3.4.7-2.3.7-4.7 3.2-6.5 0z" fill="#e08142"/><linearGradient id="SVGID_11_" gradientUnits="userSpaceOnUse" x1="164.769" y1="108.107" x2="161.395" y2="108.5" gradientTransform="matrix(1 0 0 -1 -12.99 136.166)"><stop offset="0" stop-color="#010101" stop-opacity="0"/><stop offset=".95" stop-color="#010101"/></linearGradient><path d="M151.2 27.2c0-.1.1-.2.2-.2s.2 0 .3.1c.2.1.3.2.4.4v.4c-.1.3-.2.5-.3.7-.1.2-.4.4-.7.4-.1 0-.3-.3-.3-.4 0-.1.1-.2.2-.3.1-.3 0-.8.2-1.1z" fill="url(#SVGID_11_)"/><path class="st8" d="M141.1 55.3c2-.7 4.1-.6 6.2-.3 1.2.2 2.3.4 3.4 1 1.9 1.1 2.8 3.4 3.3 5.5.4 2.2.5 4.4 1.3 6.5.9 2.4 2.7 4.4 3.4 6.8 1 4-1.4 8-5.4 9-.6.1-1.2.2-1.8.2-1.6 0-3.1-.5-4.7-.5-3.3 0-6.4 2.2-9.6 1.6-2.6-.5-4.5-2.9-5.6-5.4-.7-1.5-1.1-3.3-.6-4.8.7-2.2 3-3.4 4-5.5 1.3-2.6.3-5.6 1.4-8.2.9-2.4 2.1-4.9 4.7-5.9z"/><path class="st5" d="M152.4 76.3c1.8.3 3.7.2 5.2 1.2.9.7 1.4 1.6 1.6 2.7.2 1.1.2 2.1.2 3.2l-.1 3.2c0 .1 0 .2-.1.3-.1.1-.2.1-.4.1l-27.2.1c-.5-1.7-.2-3.6.7-5.1.8-1.3 1.5-2.6 2.7-3.5 1.7-1.3 5.5-1.4 7.3-2.4.5-.3 0-.7.6-.8.5-.1.3-.8.8-.8 1.5 0 3.3-.2 4.8.2 1.4.3 2.4 1.3 3.9 1.6z"/><linearGradient id="SVGID_12_" gradientUnits="userSpaceOnUse" x1="154.497" y1="60.517" x2="161.668" y2="60.517" gradientTransform="matrix(1 0 0 -1 -12.99 136.166)"><stop offset="0" stop-color="#e5c6d6"/><stop offset=".42" stop-color="#ead4d0"/><stop offset="1" stop-color="#f0e9cb"/></linearGradient><path d="M141.8 77.2c-.1.4-.2.9-.3 1.3 0 1 .5 2 1.4 2.6.9.5 2 .6 3 .1s1.8-1.4 2.2-2.5c.4-1.1.6-2.2.5-3.4 0-1.5 0-3-.3-4.6.1-.5-.3-1-.8-1.1h-.2c-1.9-.2-3.6.6-4.4 2.5-.2.6-.3 1.1-.4 1.7-.1 1.2-.4 2.3-.7 3.4z" fill="url(#SVGID_12_)"/><linearGradient id="SVGID_13_" gradientUnits="userSpaceOnUse" x1="156.898" y1="59.016" x2="167.589" y2="73.738" gradientTransform="matrix(1 0 0 -1 -12.99 136.166)"><stop offset="0" stop-color="#010101" stop-opacity="0"/><stop offset=".95" stop-color="#010101"/></linearGradient><path d="M142.4 74.9s-.2 1.4.5 1.9c.6.5 3.1 1.7 4.3 0 .7-1.1 1.2-2.4 1.4-3.7l-6.2 1.8z" fill="url(#SVGID_13_)"/><linearGradient id="SVGID_14_" gradientUnits="userSpaceOnUse" x1="161.999" y1="71.061" x2="174.49" y2="71.061" gradientTransform="scale(1 -1) rotate(-9.2 -704.82 149.991)"><stop offset="0" stop-color="#e5c6d6"/><stop offset=".42" stop-color="#ead4d0"/><stop offset="1" stop-color="#f0e9cb"/></linearGradient><path d="M139 70.3c.3 1 2.2 4.6 4.9 5.3 5.7 1.4 7.4-8.6 7.2-10.7-.2-1.5-1.5-3.6-2.6-4.6-1.4-1.2-3.5-1.3-5.2-.6-4.6 1.9-5.7 6.2-4.3 10.6z" fill="url(#SVGID_14_)"/><path class="st8" d="M137.1 64.7c.1.4.4.8.9.9.5.1.9-.2 1.4-.4.5-.2 1.2-.1 1.7-.3.5-.2 1-.9.7-1.3-.2.7.8 1.2 1.5 1.1.7-.1 1.4-.4 2.1-.1l.3-1.4c-.1.6.3 1.2.8 1.4.6.2 1.1.2 1.7 0 .2-.1.6-.3.5-.5.6.7 1.7.4 2.5.1.1 0 .2-.1.3-.2.1-.1.1-.3 0-.4-.4-1.3-.7-2.7-1.4-3.9-.7-1.2-1.9-2.2-3.2-2.5-.8-.1-1.6-.1-2.4.1-2.1.3-4 1.4-5.3 3-1.1 1-2.5 2.9-2.1 4.4z"/></svg>