<svg id="Layer_1" xmlns="http://www.w3.org/2000/svg" viewBox="0 0 180.6 140"><style>.st1{fill:#6681f2}.st2{fill:#fff}.st3,.st4{opacity:.14;fill:#6681f2;enable-background:new}.st4{opacity:.11}</style><path d="M22.8 43.9c-1.5 7.4-1.5 15.1-3.9 22.3C14.6 79.1 2.8 88.9.4 102.3c-1.7 9.8 2.3 20.4 10.2 26.4 6.7 5.2 15.5 7 23.9 8.2 31.7 4.5 63.8 3.4 95.7 1.1 11.6-.8 23.6-1.9 33.8-7.6 6.5-3.6 12-9.1 14.8-16 2.8-6.9 2.4-15.1-1.6-21.3-4.4-6.8-13-11.1-14.7-19.1-1.5-6.8 2.7-13.3 5.8-19.5 5-10.4 7-23.2 1.4-33.3-3.4-6.2-9.4-10.8-15.8-13.9-17.9-8.9-38.8-8-58.7-6.2-28.7 2.8-65.6 9.5-72.4 42.8z" opacity=".24" fill="#6681f2"/><path class="st1" d="M52.2 38.5h86.7c2.8 0 5.2 2.3 5.2 5.2V96c0 2.8-2.3 5.2-5.2 5.2H52.2c-2.8 0-5.2-2.3-5.2-5.2V43.6c0-2.8 2.3-5.1 5.2-5.1z"/><path class="st2" d="M54.2 40.9H136c2.7 0 4.9 2.2 4.9 4.9v49.4c0 2.7-2.2 4.9-4.9 4.9H54.2c-2.7 0-4.9-2.2-4.9-4.9V45.7c0-2.6 2.2-4.8 4.9-4.8z"/><path class="st3" d="M26.3 75.5h26.6c2.2 0 4 1.8 4 4v6.9c0 2.2-1.8 4-4 4H26.3c-2.2 0-4-1.8-4-4v-6.9c0-2.2 1.8-4 4-4zm108.3.7h26.6c2.2 0 4 1.8 4 4v6.9c0 2.2-1.8 4-4 4h-26.6c-2.2 0-4-1.8-4-4v-6.9c0-2.2 1.8-4 4-4zm.7-34.3h26.6c2.2 0 4 1.8 4 4v6.9c0 2.2-1.8 4-4 4h-26.6c-2.2 0-4-1.8-4-4V46c0-2.2 1.8-4.1 4-4.1z"/><path class="st4" d="M62.5 58h27.3c2.1 0 3.8 1.7 3.8 3.8V92c0 2.1-1.7 3.8-3.8 3.8H62.5c-2.1 0-3.8-1.7-3.8-3.8V61.9c0-2.1 1.7-3.9 3.8-3.9z"/><path class="st3" d="M57.1 68.7s-.8 3 1.7 4.5c2.4 1.5 11.6-2.6 17.2-3.2 5.6-.6 17 1.7 17 1.7s-2.1 3.9-2 8.3c.2 4.4.5 7.8 0 8.6s2.6 3.8 3 3.9 4.5.5 4.5.5l5.1 7.5 13-.3-8-26.4 3.9-13-35.8-4.7-19.6 12.6z"/><path class="st1" d="M50.1 100.7l-18 13.6h126.2l-17.6-13.8z"/><linearGradient id="SVGID_1_" gradientUnits="userSpaceOnUse" x1="94.423" y1="51.386" x2="95.327" y2="21.599" gradientTransform="matrix(1 0 0 -1 0 139.997)"><stop offset="0" stop-color="#fff" stop-opacity="0"/><stop offset=".95" stop-color="#fff"/></linearGradient><path fill="url(#SVGID_1_)" d="M50.1 100.7l-18 13.6h126.2l-17.6-13.8z"/><path class="st1" d="M37.2 119.2l-5.1-4.9h126.2l-4.6 5.2z"/><linearGradient id="SVGID_2_" gradientUnits="userSpaceOnUse" x1="95.137" y1="27.13" x2="96.139" y2="5.468" gradientTransform="matrix(1 0 0 -1 0 139.997)"><stop offset="0" stop-color="#010101" stop-opacity="0"/><stop offset=".95" stop-color="#010101"/></linearGradient><path fill="url(#SVGID_2_)" d="M37.2 119.2l-5.1-4.9h126.2l-4.6 5.2z"/><path d="M81 112.1l5.4-4.2 19.6-.1 5.7 4.2zm-37.4-5l102.2-.1-5.5-4.5H49.9z" opacity=".58" fill="#6681f2"/><linearGradient id="SVGID_3_" gradientUnits="userSpaceOnUse" x1="621.194" y1=".385" x2="663.242" y2=".385" gradientTransform="rotate(180 378.163 42.589)"><stop offset="0" stop-color="#e5c6d6"/><stop offset=".42" stop-color="#ead4d0"/><stop offset="1" stop-color="#f0e9cb"/></linearGradient><path d="M106.3 93c-.6-.8-1.6-1.1-2.6-1.5-3.6-1.4-6.5-4.3-9.1-7.2-.6-.7-1.2-1.4-1.4-2.3-.3-1.1-.1-2.2.6-3.1.1-.2.3-.3.4-.5l.3-.9c.2-.9.6-1.9 1.5-2.1.2 0 .4-.1.6-.1.3-.1.5-.5.6-.8.5-1.2 1.4-2.4 2.6-2.6.2 0 .3 0 .5-.1.4-.2.3-.7.4-1.1.2-1 1.4-1.5 2.4-1.3s1.8.9 2.6 1.6l2.9 2.7c.8.7 1.6 1.5 2.6 1.7.2.1.4 0 .5 0 .2-.1.3-.4.3-.6.4-2.2 4.3-4.7 6.1-4.4-1.1 3-1.9 7.8-2.5 12.1 2.9 4.9 7.3 8.5 11.8 12.1 1.1.9 2.3 1.8 3.5 2.5 1.4.9 3 1.5 4.3 2.6l-18.6.4c-.5 0-1 0-1.5-.2s-.9-.5-1.3-.9c-1.8-1.5-3.5-3.1-5.1-4.8-.7-.4-1.6-1-2.4-1.2z" fill="url(#SVGID_3_)"/><linearGradient id="SVGID_4_" gradientUnits="userSpaceOnUse" x1="645.03" y1=".698" x2="681.234" y2="21.857" gradientTransform="rotate(180 378.163 42.589)"><stop offset="0" stop-color="#010101" stop-opacity="0"/><stop offset=".95" stop-color="#010101"/></linearGradient><path d="M110.6 79.5c-.2 1.6-1.1 3.1-2 4.4-.7 1-1.5 1.9-2.4 2.6-1 .7-2.2 1.1-3.4 1-1-.1-1.9-.6-2.6-1.3-.2-.2-.4-.5-.5-.9-.1-.8.4-1.4 1-2 2-2.1 4.1-4 6.3-5.8.7-.6 2.6-2.2 3.6-1.8.5.2.1 3 0 3.8z" fill="url(#SVGID_4_)"/><path class="st1" d="M116.2 69L99.5 90.5s-4.4-.3-7.1-2.6c-2.7-2.3 2.1-3.6 2.1-3.6s9.9-9.9 11.3-17.8l10.4 2.5z"/><linearGradient id="SVGID_5_" gradientUnits="userSpaceOnUse" x1="651.989" y1="4.383" x2="656.048" y2="31.156" gradientTransform="rotate(180 378.163 42.589)"><stop offset="0" stop-color="#010101" stop-opacity="0"/><stop offset=".95" stop-color="#010101"/></linearGradient><path d="M92.4 87.9c1.3 1 2.8 1.7 4.2 2 .9.3 1.9.4 2.9.5l16.4-21.1.3-.4-10.4-2.4c-1.3 7.8-11.3 17.8-11.3 17.8s-4.8 1.4-2.1 3.6z" fill="url(#SVGID_5_)"/><linearGradient id="SVGID_6_" gradientUnits="userSpaceOnUse" x1="650.824" y1="3.988" x2="654.626" y2="29.058" gradientTransform="rotate(180 378.163 42.589)"><stop offset="0" stop-color="#010101" stop-opacity="0"/><stop offset=".95" stop-color="#010101"/></linearGradient><path d="M95.1 89c.5.4.9.7 1.5 1 .9.3 1.9.4 2.9.5l16.4-21.1-7.4-1.7c-1.4 7.8-11.3 17.8-11.3 17.8s-4.8 1.3-2.1 3.5z" fill="url(#SVGID_6_)"/><path class="st1" d="M128.1 56.6c-1.1-2.1-3-3.5-5.3-4.1-10.4-2.5-43.1-11.6-45-27.3 0 0-.6-4.1-5.7-4.1S58.9 69.6 60.2 70.6c1.4 1.1 6-1.2 8.4-3.4s9.2-6.9 18.4-4.1c4.1 1.3 11.6 3 18.7 4.6 5 1.1 9.8 2.1 12.9 2.7 2.6.5 5.3-.4 7-2.5 1.9-2.3 3.8-5.8 3.1-10.2 0 0-.3-.5-.6-1.1z"/><ellipse transform="rotate(-75.641 65.386 45.887)" class="st1" cx="65.4" cy="45.9" rx="25.4" ry="8.5"/><linearGradient id="SVGID_7_" gradientUnits="userSpaceOnUse" x1="694.317" y1="42.471" x2="663.225" y2="33.042" gradientTransform="rotate(180 378.154 43.27) scale(1.0017)"><stop offset="0" stop-color="#010101" stop-opacity="0"/><stop offset=".95" stop-color="#010101"/></linearGradient><path d="M57.1 43.8c3.5-13.6 10-23.6 14.6-22.5 4.6 1.2 5.5 13.1 2 26.7s-10 23.6-14.6 22.5c-4.6-1.2-5.5-13.2-2-26.7z" fill="url(#SVGID_7_)"/><linearGradient id="SVGID_8_" gradientUnits="userSpaceOnUse" x1="679.665" y1="39.18" x2="696.964" y2="42.19" gradientTransform="rotate(180 378.151 43.268) scale(1.0017)"><stop offset="0" stop-color="#010101" stop-opacity="0"/><stop offset=".95" stop-color="#010101"/></linearGradient><path d="M63.8 45.6c1-4.1 3-7.1 4.4-6.8 1.4.4 1.6 3.9.6 8s-3 7.1-4.4 6.8c-1.3-.4-1.6-4-.6-8z" fill="url(#SVGID_8_)"/><linearGradient id="SVGID_9_" gradientUnits="userSpaceOnUse" x1="688.75" y1="38.313" x2="675.307" y2="34.238" gradientTransform="rotate(180 378.163 42.589)"><stop offset="0" stop-color="#010101" stop-opacity="0"/><stop offset=".95" stop-color="#010101"/></linearGradient><path d="M68.2 38.8l6.5.9s-2.5 15.8-5.3 17.2L65 53.5l3.2-14.7z" fill="url(#SVGID_9_)"/><linearGradient id="SVGID_10_" gradientUnits="userSpaceOnUse" x1="646.097" y1="5.924" x2="660.59" y2="5.924" gradientTransform="rotate(180 378.163 42.589)"><stop offset="0" stop-color="#e5c6d6"/><stop offset=".42" stop-color="#ead4d0"/><stop offset="1" stop-color="#f0e9cb"/></linearGradient><path d="M105.8 73.7c.9.8 2 1.3 3 2 .7.4 1.3 1 1.4 1.8 0 .4-.1.8-.3 1.1-.4.7-.8 1.3-1.4 1.8-.5.4-1 .7-1.4 1.2-.3.3-.5.7-.7 1.1-.7 1.2-1.8 2.1-2.8 3.1-.3.3-.6.5-.9.8-1 .6-2.2.7-3.3.2-1.1-.4-2-1.1-2.6-2.1-.7-.9-1.2-2.1-1-3.3.2-.7.5-1.3.9-1.9 1.3-2.1 2.9-4.1 4.6-5.9.4-.5 1.9-2.5 2.6-2.4.5.2 1.4 2.1 1.9 2.5z" fill="url(#SVGID_10_)"/><linearGradient id="SVGID_11_" gradientUnits="userSpaceOnUse" x1="633.919" y1="29.131" x2="656.987" y2="-2.058" gradientTransform="rotate(180 378.163 42.589)"><stop offset="0" stop-color="#010101" stop-opacity="0"/><stop offset=".95" stop-color="#010101"/></linearGradient><path d="M113.3 59.5s-1.8 8-7.7 8.2l14.6 3.3s5.2-.3 6.2-2.4 6.2-9.4-1.1-15.1l-11.7-3.6c0-.1 1.3 4.8-.3 9.6z" fill="url(#SVGID_11_)"/><linearGradient id="SVGID_12_" gradientUnits="userSpaceOnUse" x1="675.635" y1="36.84" x2="720.465" y2="35.486" gradientTransform="rotate(180 378.163 42.589)"><stop offset="0" stop-color="#010101" stop-opacity="0"/><stop offset=".95" stop-color="#010101"/></linearGradient><path d="M78.7 30.8s1.7 18.8-9.2 35.5c0 0 6.5-5 14.4-3.9 0 0 4.3-15.8 2.4-20.3s-7.6-11.3-7.6-11.3z" fill="url(#SVGID_12_)"/><path class="st2" d="M118.6 10.7h42.6c3.6 0 6.5 2.9 6.5 6.5v11.1c0 3.6-2.9 6.5-6.5 6.5h-42.6c-3.6 0-6.5-2.9-6.5-6.5V17.1c0-3.5 2.9-6.4 6.5-6.4zm18 29.3h26.6c2.2 0 4 1.8 4 4v7c0 2.2-1.8 4-4 4h-26.6c-2.2 0-4-1.8-4-4v-6.9c0-2.3 1.8-4.1 4-4.1zM75.3 4.2h26.6c2.2 0 4 1.8 4 4v6.9c0 2.2-1.8 4-4 4H75.3c-2.2 0-4-1.8-4-4V8.2c0-2.2 1.8-4 4-4zM24.7 73.9h26.6c2.2 0 4 1.8 4 4v6.9c0 2.2-1.8 4-4 4H24.7c-2.2 0-4-1.8-4-4V78c0-2.2 1.8-4.1 4-4.1zm111.7.3H163c2.2 0 4 1.8 4 4v6.9c0 2.2-1.8 4-4 4h-26.6c-2.2 0-4-1.8-4-4v-6.9c-.1-2.2 1.8-4 4-4z"/><path class="st4" d="M120.2 14.8h39.9c.5 0 .9.4.9.9s-.4.9-.9.9h-39.9c-.5 0-.9-.4-.9-.9.1-.5.5-.9.9-.9zm0 6h39.9c.5 0 .9.4.9.9s-.4.9-.9.9h-39.9c-.5 0-.9-.4-.9-.9.1-.6.5-.9.9-.9zm18.1 22.6h24.3c.4 0 .7.3.7.7v.4c0 .4-.3.7-.7.7h-24.3c-.4 0-.7-.3-.7-.7V44c0-.3.3-.6.7-.6zm0 5.9h24.3c.4 0 .7.3.7.7v.4c0 .4-.3.7-.7.7h-24.3c-.4 0-.7-.3-.7-.7V50c0-.4.3-.7.7-.7zm0 28.2h24.3c.4 0 .7.3.7.7v.4c0 .4-.3.7-.7.7h-24.3c-.4 0-.7-.3-.7-.7v-.4c0-.4.3-.7.7-.7zm0 5.9h24.3c.4 0 .7.3.7.7v.4c0 .4-.3.7-.7.7h-24.3c-.4 0-.7-.3-.7-.7v-.4c0-.4.3-.7.7-.7zM26.7 77.1H51c.4 0 .7.3.7.7v.4c0 .4-.3.7-.7.7H26.7c-.4 0-.7-.3-.7-.7v-.4c.1-.4.4-.7.7-.7zm0 5.9H51c.4 0 .7.3.7.7v.4c0 .4-.3.7-.7.7H26.7c-.4 0-.7-.3-.7-.7v-.4c.1-.4.4-.7.7-.7zM76.6 7.6h24.3c.4 0 .7.3.7.7v.4c0 .4-.3.7-.7.7H76.6c-.4 0-.7-.3-.7-.7v-.4c0-.4.3-.7.7-.7zm0 5.9h24.3c.4 0 .7.3.7.7v.4c0 .4-.3.7-.7.7H76.6c-.4 0-.7-.3-.7-.7v-.4c0-.4.3-.7.7-.7zm43.6 13.2h39.9c.5 0 .9.4.9.9s-.4.9-.9.9h-39.9c-.5 0-.9-.4-.9-.9.1-.5.5-.9.9-.9z"/><linearGradient id="SVGID_13_" gradientUnits="userSpaceOnUse" x1="47.647" y1="67.43" x2="57.097" y2="67.43" gradientTransform="matrix(1 0 0 -1 1.35 85.177)"><stop offset="0" stop-color="#fff" stop-opacity="0"/><stop offset=".95" stop-color="#fff"/></linearGradient><path d="M49 13.5c.4.8 6.5 11.2 6.5 11.2l2.9-2-3.2-11.9-6.2 2.7z" fill="url(#SVGID_13_)"/><linearGradient id="SVGID_14_" gradientUnits="userSpaceOnUse" x1="32.521" y1="108.324" x2="46.444" y2="108.324" gradientTransform="matrix(1 0 0 -1 0 139.997)"><stop offset="0" stop-color="#fff" stop-opacity="0"/><stop offset=".95" stop-color="#fff"/></linearGradient><path fill="url(#SVGID_14_)" d="M36.6 26.4l9.8 7.4-2 3.2-11.9-3.7z"/><linearGradient id="SVGID_15_" gradientUnits="userSpaceOnUse" x1="29.71" y1="84.118" x2="42.612" y2="84.118" gradientTransform="matrix(1 0 0 -1 0 139.997)"><stop offset="0" stop-color="#fff" stop-opacity="0"/><stop offset=".95" stop-color="#fff"/></linearGradient><path fill="url(#SVGID_15_)" d="M29.7 54l12.8-2.1.1 3.7-12.5 4.2z"/></svg>