<svg id="Layer_1" xmlns="http://www.w3.org/2000/svg" viewBox="0 0 185.6 140"><style>.st0{opacity:.18;enable-background:new}.st0,.st1{fill:#6681f2}.st5{fill:#3e3e54}.st12{fill:none;stroke:#fff;stroke-width:.84;stroke-miterlimit:10}</style><path class="st0" d="M183.2 89.4c-1.2 4.9-29.8 30.2-55.6 42.4-5.1 2.4-10.1 4.3-14.8 5.5-17.1 4.2-41.3 2.9-57.6 1.3-7.2-.7-12.9-1.5-15.8-1.9-1.3-.2-2-.3-2-.3-7.4-.8-13.9-4.7-18.5-9.6-4.7-4.9-7.8-10.6-10.8-16.3-2.8-5.3-5.7-10.6-7-16.2C.1 90 0 85.7 0 81.3c.1-10.1 1.3-21 8.7-29 8.4-9 22.8-12.6 32.5-20.6 5.4-4.5 9.2-10.3 14.2-15.2 6.1-5.8 14-10.2 22.4-13.5 4.1-1.7 8.5-3.1 13-2.8 1.4.1 2.8.3 4.2.7 8.7 2.2 15.1 8.3 17 15.8 2.2 8.8 10.5 20.5 37.1 28.3 47.8 13.9 35.5 38.5 34.1 44.4z"/><path class="st0" d="M137.1 20.6h24.1c2.6 0 4.6 2.1 4.6 4.6v27.9c0 2.6-2.1 4.6-4.6 4.6h-24.1c-2.6 0-4.6-2.1-4.6-4.6V25.3c-.1-2.6 2-4.7 4.6-4.7zM25.8 22.7h24.1c2.6 0 4.6 2.1 4.6 4.6v27.9c0 2.6-2.1 4.6-4.6 4.6H25.8c-2.6 0-4.6-2.1-4.6-4.6V27.3c0-2.5 2-4.6 4.6-4.6z"/><path class="st1" d="M132.4 52.1c1.2-2.2 2.5-4.5 4.5-5.9 2.3-1.7 5.2-2.1 8-2.3 4-.3 8.1 0 12.1.7.8.1 1.5.3 2.2.6 1.8.7 3.2 2 4.5 3.4.5.5.9 1.1 1.2 1.7.3 1 .4 2.1.2 3.1-.1 1.1-.3 2.2-1 3-1.1 1.4-3 1.8-4.7 1.8-3.4.1-6.9-.4-10.3-.2-1.3.1-2.6.2-3.8.3-2.6.1-5.2 0-7.8-.2-1.1-.1-2.3-.2-3.3-.8-.9-.7-1.5-1.8-1.7-2.9-.1-1.1-.1-2.3 0-3.5"/><linearGradient id="SVGID_1_" gradientUnits="userSpaceOnUse" x1="202.779" y1="105.632" x2="211.155" y2="105.632" gradientTransform="matrix(1 0 0 -1 -57.74 149.759)"><stop offset="0" stop-color="#e5c5d5"/><stop offset=".42" stop-color="#ead4d1"/><stop offset="1" stop-color="#f0e9cb"/></linearGradient><path d="M146.6 40.3c-.1.8-.3 1.6-.7 2.3-.3.6-.8 1.1-.8 1.9 0 .4.1.9.3 1.3.4 1.3 1.1 2.6 2 3.7 1.1 1.3 2.9 1.8 4.5 1.4.4-.1.8-.3 1.1-.6 1-1 .3-2.9-.2-4.4-.6-2 .3-5 0-6.3-.1-.5-.4-1.1-.7-1.5-.4-.4-1-.5-1.6-.4-1.8.2-3.4 1.7-4.2 3.8" fill="url(#SVGID_1_)"/><linearGradient id="SVGID_2_" gradientUnits="userSpaceOnUse" x1="207.452" y1="110.382" x2="207.479" y2="99.014" gradientTransform="matrix(1 0 0 -1 -57.74 149.759)"><stop offset="0" stop-opacity="0"/><stop offset=".99"/></linearGradient><path d="M150.4 44.5c.7.1 1.4 0 1.8-.6.2-.3.3-.7.3-1.1l.1-2.2c-.4.3-.9.4-1.4.3h-2.3c-.5 0-1.6-.3-2 .1-.7.6 1.2 2.3 1.6 2.7.7.4 1.3.7 1.9.8z" fill="url(#SVGID_2_)"/><linearGradient id="SVGID_3_" gradientUnits="userSpaceOnUse" x1="200.411" y1="116.349" x2="214.372" y2="116.349" gradientTransform="matrix(1 0 0 -1 -57.74 149.759)"><stop offset="0" stop-color="#e5c5d5"/><stop offset=".42" stop-color="#ead4d1"/><stop offset="1" stop-color="#f0e9cb"/></linearGradient><path d="M143.4 36.2c.2.8.4 1.5.8 2.3.4.7.8 1.3 1.4 1.8.5.6 1.2 1.2 1.9 1.6.9.4 1.9.5 2.9.5.7 0 1.4-.1 2-.3 1.4-.5 2.3-1.9 2.9-3.2.8-1.8 1.3-3.7 1.4-5.7 0-2-.5-3.9-1.5-5.6-.5-.9-1.2-1.6-2.1-2.2-1.1-.5-2.2-.8-3.4-.7-.7 0-1.5.1-2.2.2-1.1.4-2.1 1-2.9 1.9-.5.5-.9 1-1.2 1.6-1.3 2.3-.6 5.2 0 7.8z" fill="url(#SVGID_3_)"/><path class="st5" d="M143.8 32.5c.1 1.3-.1 2.6-.4 3.9-.7-.9-1.2-2-1.5-3.1-.2-.6-.4-1.2-.5-1.9-.1-.6-.1-1.1-.1-1.7 0-.4 0-.8.1-1.2.1-.4.3-.7.7-1 .1-.1.3-.1.4-.2.1-.1.1-.3.1-.5.1-1.1.7-2.1 1.7-2.6.5-.3 1.1-.5 1.6-.7 2.2-.6 4.5-.6 6.7-.2 1.2.2 2.4.7 3.2 1.6.6.8.9 1.6 1.1 2.6.1.3.1.6-.1.9l-.3.3c-.1.2-.1.3 0 .5.3 1.9.2 4-.9 5.6 0-1.6-.1-3.3-.4-4.9 0-.2-.1-.4-.2-.6-.3-.5-1-.4-1.6-.3-2.1.3-4.2 0-6.1-.9-.3-.2-.7-.3-1.1-.4-.4-.1-.8.1-1 .5-.1.3-.1.6-.2.8-.2.4-.4.7-.7 1-.4.9-.6 1.7-.5 2.5z"/><path class="st1" d="M160.8 48.4c-.1-.5.1-1 .4-1.5.3-.3.8-.4 1.2-.4.9-.1 1.7 0 2.6 0 .1 0 .3 0 .4.1.1.1.2.3.2.5.2 1.4.3 2.8.2 4.3 0 1.4-.3 2.9-1 4.1-.5.8-1.1 1.4-1.9 1.9-.6.4-1.8 1-2.5.7-.8-.4-.3-1.6-.2-2.3.2-1.2.3-2.3.5-3.5.1-1.2.2-2.6.1-3.9z"/><linearGradient id="SVGID_4_" gradientUnits="userSpaceOnUse" x1="217.278" y1="109.147" x2="223.393" y2="109.147" gradientTransform="matrix(1 0 0 -1 -57.74 149.759)"><stop offset="0" stop-color="#e5c5d5"/><stop offset=".42" stop-color="#ead4d1"/><stop offset="1" stop-color="#f0e9cb"/></linearGradient><path d="M162.1 43.8c-.3-.6-.7-1.1-1.2-1.6-.4-.5-.9-1.1-1.2-1.7-.2-.2-.2-.5-.2-.7.1-.3.6-.3.9-.1.5.3.9.8 1.4.6s.5-.8.5-1.3c-.2-1.7-1.2-3.4-.6-4.9.7.9 1.2 1.8 1.6 2.8.2-.1.4-.3.4-.6 0-.2-.1-.5-.1-.7-.2-.7-.1-1.5.1-2.2.5.4.8.9 1 1.5 1.1 3 .9 6.3.8 9.6 0 .6-.1 1.2-.2 1.8-.1.5-.3.9-.7 1.2-.5.4-2 .6-2.3-.2-.2-.5 0-1.3 0-1.8.1-.5 0-1.1-.2-1.7z" fill="url(#SVGID_4_)"/><path class="st5" d="M42.4 28.1c-.9-.5-1.9-.9-2.9-1.2-2.6-.6-5.4.1-7.5 1.8-2.1 1.7-3.5 4-4.1 6.6-.7 2.7-.6 5.5-1.4 8.1-.5 1.7-1.5 3.3-2.1 5-.6 1.7-.9 3.6-.2 5.3.7 1.7 2.4 2.7 4.1 3.2 1.7.5 3.5.5 5.3.5H38c2.8 0 5.9-.2 7.8-2.1 1.6-1.6 2-4 1.8-6.3-.2-2.2-.7-4.4-.7-6.7 0-5.4.9-11.2-4.5-14.2z"/><path class="st1" d="M25.3 52.4c1.3-1.2 3.2-1.5 5-1.5 2.8 0 5.5.2 8.3.7 1.1.1 2.2.4 3.2.7 3.5 1.1 6.2 4 8.7 6.7.2.2.3.4.3.6 0 .5-.7.7-1.2.8-6.6.3-13.3-.5-19.9-.1-2 .1-5.9.6-7-1.8-.9-1.9 1.4-5 2.6-6.1z"/><linearGradient id="SVGID_5_" gradientUnits="userSpaceOnUse" x1="88.674" y1="107.83" x2="100.774" y2="107.83" gradientTransform="matrix(1 0 0 -1 -57.74 149.759)"><stop offset="0" stop-color="#e5c5d5"/><stop offset=".42" stop-color="#ead4d1"/><stop offset="1" stop-color="#f0e9cb"/></linearGradient><path d="M36.6 37.8c-.6.3-1.2.5-1.9.6-1.1.2-2.2-.1-3.3 0-.1 0-.1 0-.2.1 0 .1-.1.1-.1.2-.2 1.9-.3 3.9-.2 5.9.1.8.3 1.6.6 2.4 1 2 3.1 3.2 5.4 3 2.2-.3 4.1-1.7 5-3.7.4-1.2.7-2.4.8-3.6.2-1.6.2-3.2.3-4.7-.7-.4-1.1-1.1-1.2-1.9-.1-.7-.1-1.3.1-2-1.4 1.6-3.2 2.8-5.3 3.7z" fill="url(#SVGID_5_)"/><linearGradient id="SVGID_6_" gradientUnits="userSpaceOnUse" x1="90.27" y1="98.477" x2="96.196" y2="98.477" gradientTransform="matrix(1 0 0 -1 -57.74 149.759)"><stop offset="0" stop-color="#e5c5d5"/><stop offset=".42" stop-color="#ead4d1"/><stop offset="1" stop-color="#f0e9cb"/></linearGradient><path d="M37.9 53.4c-.2.8-.8 1.4-1.5 1.8-.8.3-1.8.2-2.5-.2-.5-.2-.8-.5-1.1-1-.2-.4-.2-.7-.2-1.1 0-.7 0-1.5.1-2.2.2-1.1.6-2.2 1.5-2.9 1-.7 3.2-.9 3.9.3.7 1.2.2 4.1-.2 5.3z" fill="url(#SVGID_6_)"/><path class="st0" d="M90.2 0h24.1c2.6 0 4.6 2.1 4.6 4.6v27.9c0 2.6-2.1 4.6-4.6 4.6H90.2c-2.6 0-4.6-2.1-4.6-4.6V4.6c0-2.5 2.1-4.6 4.6-4.6z"/><path class="st1" d="M89.8 29.7c1.3-1.2 3.2-1.5 5-1.5 2.6-.1 5.2.1 7.7.6 2.5.4 5 .4 7.5.5.9 0 1.9.1 2.5.8.3.4.5.8.7 1.2l.6 1.6c.5 1.1 2.1 3.8.7 4.6-.8.4-2.3.1-3.2.1h-3.4c-4.6-.1-9.3-.4-13.9-.1-2 .1-5.9.6-7-1.8-.7-1.8 1.5-4.9 2.8-6z"/><path class="st5" d="M103.1 3.9c1.4-.9 3.1-.9 4.5-.2.5.2.9.6 1.2 1.1.4.7.7 1.6.7 2.4.3 2.9.4 5.8.2 8.6-.2 2.6-.6 5.3.1 7.9-1.8-1.1-3.2-2.7-4.2-4.5-1-1.8-1.8-3.8-2.4-5.8-.6-1.8-1.1-3.7-1.9-5.5-.6-1.5.6-3.2 1.8-4z"/><linearGradient id="SVGID_7_" gradientUnits="userSpaceOnUse" x1="995.132" y1="-224.861" x2="1001.054" y2="-224.861" gradientTransform="scale(1 -1) rotate(11.04 -465.108 -4761.24)"><stop offset="0" stop-color="#867580"/><stop offset=".57" stop-color="#9b8f8e"/></linearGradient><path d="M105.1 30.2c-.1.8-.5 1.5-1.1 2-.8.5-1.7.6-2.5.3-.5-.1-.9-.4-1.3-.7-.2-.3-.4-.7-.5-1.1-.2-.7-.3-1.5-.3-2.2 0-1.1.2-2.3.9-3.1.8-.9 2.9-1.5 3.9-.5s1 4.1.9 5.3z" fill="url(#SVGID_7_)"/><linearGradient id="SVGID_8_" gradientUnits="userSpaceOnUse" x1="160.057" y1="126.534" x2="160.323" y2="112.925" gradientTransform="matrix(1 0 0 -1 -57.74 149.759)"><stop offset="0" stop-opacity="0"/><stop offset=".99"/></linearGradient><path d="M100.2 28.4c.4.5.9 1 1.5 1.1.4.1.9.1 1.4.1h.5c.1 0 .2-.1.3-.2.8-.6 1.3-1.7 1.1-2.7 0-.1-1.8-.2-2-.2-.7-.1-1.4-.1-2.1-.1-.4 0-1 0-1.1.4-.2.5.2 1.2.4 1.6z" fill="url(#SVGID_8_)"/><linearGradient id="SVGID_9_" gradientUnits="userSpaceOnUse" x1="153.544" y1="131.115" x2="166.904" y2="131.115" gradientTransform="matrix(1 0 0 -1 -57.74 149.759)"><stop offset="0" stop-color="#867580"/><stop offset=".57" stop-color="#9b8f8e"/></linearGradient><path d="M95.8 15.8c0 1.8.1 3.6.5 5.4.4 1.8 1.2 3.4 2.6 4.7 1.2 1.1 2.8 1.7 4.4 1.7 1.7 0 3.2-.8 4.2-2.1.8-1.1 1.2-2.6 1.4-3.9.3-2.4.4-4.9.1-7.3 0-.7-.2-1.4-.5-2-.6-1-1.5-1.7-2.6-2.1-1.7-.6-3.6-.8-5.4-.4-4 .8-4.4 3.6-4.7 3.8v2.2z" fill="url(#SVGID_9_)"/><path class="st5" d="M94 12.4c.1-2 1.2-3.9 2.9-5s3.7-1.2 5.7-1.3c2.1 0 4.3.1 6 1.2 1.9 1.3 3.1 3.5 3 5.8 0 2.1-.9 4.1-2.4 5.5-.4-.5-.5-1.2-.7-1.7-.3-.5-.6-1.1-1-1.5l-1.7-2.2c-.1-.1-.1-.2-.2-.2-.2-.1-.4-.1-.6-.1-1.9.2-3.8.3-5.7.3-.7 0-1.6 0-2.1.5-.7.7-.4 3.5-1.7 3.3-.6-.1-1-1.4-1.1-1.9-.3-.9-.5-1.8-.4-2.7z"/><circle class="st12" cx="99.6" cy="19.1" r="1.9"/><circle class="st12" cx="105.3" cy="19.1" r="1.9"/><path class="st1" d="M84.9 67.5h-.7V53.3h20.6V37.9h.6V54H84.9z"/><path class="st1" d="M91.5 66.5h-.7v-3H145v-5.3h.6v5.9H91.5zm-12.7.8h-.7v-2.4H36.4v-4.6h.6v4h41.8z"/><path class="st1" d="M69.2 66.7h31.7c2.7 0 4.9 2.2 4.9 4.9v45.6c0 2.5-2 4.5-4.5 4.5H69c-2.6 0-4.7-2.1-4.7-4.7V71.5c0-2.7 2.2-4.8 4.9-4.8z"/><linearGradient id="SVGID_10_" gradientUnits="userSpaceOnUse" x1="84.779" y1="33.982" x2="85.845" y2="176.177" gradientTransform="matrix(1 0 0 -1 0 164.569)"><stop offset=".02" stop-color="#fff" stop-opacity="0"/><stop offset=".32" stop-color="#fff" stop-opacity=".39"/><stop offset=".68" stop-color="#fff" stop-opacity=".68"/><stop offset="1" stop-color="#fff"/></linearGradient><path d="M69.2 66.7h31.7c2.7 0 4.9 2.2 4.9 4.9v45.6c0 2.5-2 4.5-4.5 4.5H69c-2.6 0-4.7-2.1-4.7-4.7V71.5c0-2.7 2.2-4.8 4.9-4.8z" fill="url(#SVGID_10_)"/><path fill="#fff" d="M66.3 71h37.6v44H66.3z"/><path class="st1" d="M69.2 104.4l4.2-2.4c1.5-.9 3.1-1.7 4.7-2.3 2.5-.8 5.1-.8 7.7-.7 4.1.1 8.3.5 12 2.4 3.6 1.9 6.5 5.8 6 9.9-.1 1-.4 2-.8 3-.1.2-.2.5-.4.6-.2.1-.5.2-.7.1-9.3.1-18.7.6-28 .1-2.5-.1-4.9.2-7.4.3-.3 0-.3-7-.3-7.6.3-1.7 1.4-2.5 3-3.4z"/><linearGradient id="SVGID_11_" gradientUnits="userSpaceOnUse" x1="157.027" y1="38.289" x2="167.276" y2="53.023" gradientTransform="matrix(1 0 0 -1 -57.74 149.759)"><stop offset="0" stop-opacity="0"/><stop offset=".99"/></linearGradient><path d="M99.3 99c.5 1.3.8 2.7.9 4.2.2 1.6.4 3.2.5 4.8.1 2.2 0 4.3.4 6.5.4 2.1 1.3 4.3 3 5.6.2.2.5.3.8.3.3-.1.4-.4.5-.7 1-3.8-.1-7.9-.6-11.8-.2-1.7-.4-3.5-.8-5.2-.3-1.2-.7-2.3-1.2-3.4-.4-.9-1-1.7-1.7-2.4-.4-.4-2.1-1.6-2.6-.9-.7.5.6 2.4.8 3z" fill="url(#SVGID_11_)"/><linearGradient id="SVGID_12_" gradientUnits="userSpaceOnUse" x1="134.808" y1="38.09" x2="115.45" y2="48.623" gradientTransform="matrix(1 0 0 -1 -57.74 149.759)"><stop offset="0" stop-opacity="0"/><stop offset=".99"/></linearGradient><path d="M70.8 106c-.1 1.1-.2 2.1-.2 3.2v5c0 .9 0 1.8-.2 2.7-.5 1.6-1.6 3-3.2 3.8-.2.1-.4.2-.6.2-.5 0-.9-.6-1.1-1.1-1.1-2.8-1.3-5.9-1.2-8.9.1-3 .3-6.1-.1-9-.1-.4-.1-.8 0-1.2.2-.4.6-.7 1-.9l4.7-2.5c.9-.5 3.1-3.8 3.7-2.3.5 1.1-1.1 5.3-1.5 6.4-.6 1.5-1 3-1.3 4.6z" fill="url(#SVGID_12_)"/><linearGradient id="SVGID_13_" gradientUnits="userSpaceOnUse" x1="108.594" y1="40.334" x2="131.525" y2="40.334" gradientTransform="matrix(1 0 0 -1 -57.74 149.759)"><stop offset="0" stop-color="#e5c5d5"/><stop offset=".42" stop-color="#ead4d1"/><stop offset="1" stop-color="#f0e9cb"/></linearGradient><path d="M62.4 123c2.6-1.9 4.6-4.5 5.7-7.5 1.8-5.3.8-11.4 3.7-16.2.7-1.2 1.6-2.2 1.9-3.5s-.2-3-1.5-3.3c-1.3-.3-2.5.8-3.4 1.9l-4.5 5.4c-.1-.5-.1-4.8 0-6.2-4.6.2-8.7 4-9.8 8.4-.4 1.7-.5 3.4-.5 5.1 0 1.8.1 3.5.2 5.3.1 1.1.1 2.3 0 3.4-.4 3.2-2.4 6-3.3 9.1v.4c.1.1.2.2.3.2 1.3.7 2.9.8 4.4.9 1.5.1 3.1.1 4.7.1.3 0 .6 0 .9-.1.5-.3.7-1 .7-1.6" fill="url(#SVGID_13_)"/><linearGradient id="SVGID_14_" gradientUnits="userSpaceOnUse" x1="155.865" y1="39.931" x2="178.297" y2="39.931" gradientTransform="matrix(1 0 0 -1 -57.74 149.759)"><stop offset="0" stop-color="#e5c5d5"/><stop offset=".42" stop-color="#ead4d1"/><stop offset="1" stop-color="#f0e9cb"/></linearGradient><path d="M104.3 118.4c-3-5.7-1.4-13-4.3-18.7-.8-1.5-1.8-2.9-1.8-4.5-.1-.6.3-1.2.9-1.3.2 0 .4 0 .6.1 2.5.4 3.8 3.2 6.1 4.3l-.2-4.3c2.6.3 5.1 1.5 7 3.3.9.8 1.6 1.8 2.1 2.9.4 1.2.7 2.4.7 3.7.2 3-.1 6 .1 9s.9 6 2.8 8.4c1 1.3 2.4 2.5 2.3 4.2 0 .1 0 .2-.1.3-.1.1-.3.1-.5.1h-5.3c-1.5 0-4.2.4-5.6-.3-1-.5-1.5-2.3-2.2-3.2-.9-1.4-1.8-2.7-2.6-4z" fill="url(#SVGID_14_)"/><linearGradient id="SVGID_15_" gradientUnits="userSpaceOnUse" x1="138.609" y1="49.476" x2="149.058" y2="49.476" gradientTransform="matrix(1 0 0 -1 -57.74 149.759)"><stop offset="0" stop-color="#e5c5d5"/><stop offset=".42" stop-color="#ead4d1"/><stop offset="1" stop-color="#f0e9cb"/></linearGradient><path d="M81.3 102.1c.5 2 1.8 3.7 3.6 4.7 1.1.6 2.4.8 3.5.3 1.6-.7 2.6-2.9 2.8-5 .2-2.1-.2-4.3-.6-6.4-.1-.6-.3-1.2-.7-1.7-.3-.2-.6-.4-1-.5-1.9-.5-5.8-1-7.4 1-1 1.6-.6 5.9-.2 7.6z" fill="url(#SVGID_15_)"/><linearGradient id="SVGID_16_" gradientUnits="userSpaceOnUse" x1="134.898" y1="59.35" x2="152.382" y2="59.35" gradientTransform="matrix(1 0 0 -1 -57.74 149.759)"><stop offset="0" stop-color="#e5c5d5"/><stop offset=".42" stop-color="#ead4d1"/><stop offset="1" stop-color="#f0e9cb"/></linearGradient><path d="M77.2 81.7v12.8s.1 5.7 9.1 6.4c9.1.7 8.2-10.7 8.2-10.7l.2-9.5c-.1 0-15.3-2.3-17.5 1z" fill="url(#SVGID_16_)"/><path d="M78.5 84.6c-.1.2-.4.2-.6.2-.6.2-.8.9-.9 1.4-.2 1.4-.4 2.9-.5 4.3L75 86.4c-.4-.9-.6-1.8-.8-2.8-.1-1 .2-2 .9-2.7.2-.2.4-.4.5-.6.1-.3.2-.6.2-.9.2-1.1.8-2.1 1.8-2.8.9-.7 1.9-1.2 3-1.5 4-1.4 8.3-1.4 12.3-.1 1.3.5 2.7 1.2 3.3 2.4.3.7.4 1.4.5 2.1.1 3-.6 6-2.1 8.7.1-2-.1-4-.6-5.8.2.8-8.4 1-9.1.9-1.5-.2-3-.8-4.5-1-.6-.1-.9-.2-1.3.3-.6.6-.2 1.5-.6 2zm2.1 9.2c.8-1.1 1.9-1.7 3.2-1.8 1.3-.1 2.6 0 3.8.3 1 .2 2 .4 2.6 1.2.5.6.6 1.3 1 1.9.4.6 1.2 1.1 1.8.7.1 1.1-.7 2-1.4 2.8-.7.9-1.2 1.8-2.1 2.4-.7.3-1.4.5-2.2.6-1.7.2-3.5 0-5.1-.6-.8-.3-1.5-.7-2.1-1.3-.4-.4-1.5-1.4-1.5-2 0-.3.4-.5.6-.8.2-.4.4-.7.5-1.1.3-.9.6-1.6.9-2.3z" fill="#b7a451"/><linearGradient id="SVGID_17_" gradientUnits="userSpaceOnUse" x1="140.453" y1="52.82" x2="147.395" y2="52.82" gradientTransform="matrix(1 0 0 -1 -57.74 149.759)"><stop offset="0" stop-color="#e5c5d5"/><stop offset=".42" stop-color="#ead4d1"/><stop offset="1" stop-color="#f0e9cb"/></linearGradient><path d="M83.3 95c.3-.3.6-.4 1-.4 1.1-.1 2.2-.1 3.3-.1.4 0 .7.1 1.1.2.8.5 1 1.5 1 2.4.1.5 0 .9-.2 1.4-.3.4-.8.7-1.4.8-1.5.3-3.4.2-4.8-.6-.4-.2-.7-.7-.6-1.2.1-.7.1-2 .6-2.5z" fill="url(#SVGID_17_)"/><path class="st1" d="M57.7 137.8c-.1.3-.1.6-.2.9-6.6-.8-11.8-1.6-14.5-2.1.1-.9.3-1.8.6-2.6 1-2.4 2.1-4.8 3.5-7.1.3-.6.8-1.2 1.4-1.5.6-.2 1.3-.3 1.9-.1 2.6.3 9.2.2 10.4 3.3 1 2.2-2.6 6.7-3.1 9.2zm66.4-7.2c-.1.3-.2.5-.4.8-4.7 2.6-9.3 4.7-13.5 6-.2-.2-.3-.4-.3-.7-1-3-1.9-6.1-2.9-9.1-.3-1-.6-2.3 0-3.1s2-1 3.1-1c2.9 0 7.5-.7 10.2.3 2.4.9 2.7 3.6 3.6 5.9.2.2.3.5.2.9z"/></svg>