<svg id="Layer_1" xmlns="http://www.w3.org/2000/svg" viewBox="0 0 185.8 140"><style>.st2{fill:#6681f2}.st3{fill:#fff}.st23{fill:#c48067}.st25{fill:#606161}</style><path d="M24 35.7C17.5 42.8 9.6 48.9 4.8 57.3c-8.5 14.8-5 34.5 5.2 48.2 6.4 8.5 15 15.1 23.5 21.6 4.3 3.3 8.8 6.6 13.8 8.8 4.8 2.1 10.1 3.1 15.4 3.7 5.3.6 10.8.8 16-.2 7.9-1.6 14.9-5.9 22.6-8.4 18-5.9 37.5-1 56.4-.3 3.8.1 7.8.1 11.4-1.1 9.5-3.2 14.9-13.5 16.2-23.4s-.6-20-.6-30c0-9.6 1.7-19.3 1-28.9s-4.3-19.7-12.4-25c-3.6-2.3-7.8-3.5-11.9-4.7-22.4-6.5-45-12.9-68.1-15.7C75.6-.2 60.7-3.2 46.4 9.2 37.6 16.8 31.8 27.1 24 35.7z" opacity=".24" fill="#6681f2"/><linearGradient id="SVGID_1_" gradientUnits="userSpaceOnUse" x1="114.811" y1="-15.28" x2="107.099" y2="-134.186" gradientTransform="matrix(1 0 0 -1 -1.45 86.235)"><stop offset="0" stop-color="#010101" stop-opacity="0"/><stop offset=".95" stop-color="#010101"/></linearGradient><path d="M125.9 117.9c-3.2-.9-6.4-2.2-9.7-2.6-3-.4-6.1-.1-9.1.3l-39.2 4.1c-1 .1-2.4.5-2.4 1.6 0 .4.1.8.4 1.1 2.3 3.7 6.7 5.7 11 6.1s8.7-.4 12.9-1c9.4-1.3 19-1.7 28.5-1 13.7.9 28.8 3.6 40.3-4-10.9-1.4-22-1.7-32.7-4.6z" fill="url(#SVGID_1_)"/><path class="st2" d="M55.7 32.6s.9-6.4 7.3-8.8 12.7 2.8 13.9 7.7-21.2 1.1-21.2 1.1z"/><circle class="st3" cx="66.9" cy="35.6" r="8.1"/><linearGradient id="SVGID_2_" gradientUnits="userSpaceOnUse" x1="68.372" y1="59.757" x2="69.144" y2="14.987" gradientTransform="matrix(1 0 0 -1 0 139.235)"><stop offset="0" stop-color="#010101" stop-opacity="0"/><stop offset=".95" stop-color="#010101"/></linearGradient><path d="M45.7 96.3h46.1c.6 0 1.1.5 1.1 1.1 0 .6-.5 1.1-1.1 1.1H45.7c-.6 0-1.1-.5-1.1-1.1 0-.7.5-1.1 1.1-1.1z" opacity=".26" fill="url(#SVGID_2_)"/><path class="st2" d="M100.4 112.5l-42.1.5c-1.5 0-3.1-.2-4.5-.6-2.2-.6-4.3-1.8-6-3.3-2.4-2.1-5.1-4.6-7-6.6-2.6-2.8-5.5-8.9-6.4-15.7-.4-3.2-.3-6.5.4-9.6 2.3-9.8 0-28.4 0-28.4l62.7-.3-.2 6.5c-.8 10.8 3.1 57.5 3.1 57.5z"/><linearGradient id="SVGID_3_" gradientUnits="userSpaceOnUse" x1="46.595" y1="-3.553" x2="42.982" y2="-36.84" gradientTransform="matrix(1 0 0 -1 -1.45 86.235)"><stop offset="0" stop-color="#010101" stop-opacity="0"/><stop offset=".95" stop-color="#010101"/></linearGradient><path d="M53.7 112.3c-2.2-.6-4.3-1.8-6-3.3-2.4-2.1-5.1-4.6-7-6.6-2.6-2.8-5.5-8.9-6.4-15.7 1.7 1.3 2.8 3.3 4.6 4.6 1.6 1.2 3.7 1.7 5.7 2 2.9.5 5.8.8 8.7.9l-.8 11.8c-.1 1.7-.2 3.3.5 4.9.2.5.5.9.7 1.4z" fill="url(#SVGID_3_)"/><linearGradient id="SVGID_4_" gradientUnits="userSpaceOnUse" x1="67.275" y1="53.392" x2="69.985" y2="-64.272" gradientTransform="matrix(1 0 0 -1 -1.45 86.235)"><stop offset="0" stop-color="#010101" stop-opacity="0"/><stop offset=".95" stop-color="#010101"/></linearGradient><path d="M35.9 55.4s35.8 1.2 44.5.8c5.5-.2 11-.1 16.5.4l.7-8-62.7.2 1 6.6z" fill="url(#SVGID_4_)"/><path class="st2" d="M34.8 48.8l2.2-2.9 58-.1 2.5 2.7z"/><linearGradient id="SVGID_5_" gradientUnits="userSpaceOnUse" x1="34.846" y1="91.941" x2="97.546" y2="91.941" gradientTransform="matrix(1 0 0 -1 0 139.235)"><stop offset="0" stop-color="#010101" stop-opacity="0"/><stop offset=".95" stop-color="#010101"/></linearGradient><path opacity=".26" fill="url(#SVGID_5_)" d="M34.8 48.8l2.2-2.9 58-.1 2.5 2.7z"/><linearGradient id="SVGID_6_" gradientUnits="userSpaceOnUse" x1="67.339" y1="91.494" x2="68.114" y2="46.724" gradientTransform="matrix(1 0 0 -1 0 139.235)"><stop offset="0" stop-color="#010101" stop-opacity="0"/><stop offset=".95" stop-color="#010101"/></linearGradient><path d="M44.6 64.5h46.1c.6 0 1.1.5 1.1 1.1 0 .6-.5 1.1-1.1 1.1H44.6c-.6 0-1.1-.5-1.1-1.1.1-.6.5-1.1 1.1-1.1z" opacity=".26" fill="url(#SVGID_6_)"/><linearGradient id="SVGID_7_" gradientUnits="userSpaceOnUse" x1="67.339" y1="83.495" x2="68.114" y2="38.725" gradientTransform="matrix(1 0 0 -1 0 139.235)"><stop offset="0" stop-color="#010101" stop-opacity="0"/><stop offset=".95" stop-color="#010101"/></linearGradient><path d="M44.6 72.5h46.1c.6 0 1.1.5 1.1 1.1 0 .6-.5 1.1-1.1 1.1H44.6c-.6 0-1.1-.5-1.1-1.1.1-.6.5-1.1 1.1-1.1z" opacity=".26" fill="url(#SVGID_7_)"/><linearGradient id="SVGID_8_" gradientUnits="userSpaceOnUse" x1="67.339" y1="75.495" x2="68.114" y2="30.726" gradientTransform="matrix(1 0 0 -1 0 139.235)"><stop offset="0" stop-color="#010101" stop-opacity="0"/><stop offset=".95" stop-color="#010101"/></linearGradient><path d="M44.6 80.5h46.1c.6 0 1.1.5 1.1 1.1 0 .6-.5 1.1-1.1 1.1H44.6c-.6 0-1.1-.5-1.1-1.1.1-.6.5-1.1 1.1-1.1z" opacity=".26" fill="url(#SVGID_8_)"/><linearGradient id="SVGID_9_" gradientUnits="userSpaceOnUse" x1="67.339" y1="67.496" x2="68.114" y2="22.726" gradientTransform="matrix(1 0 0 -1 0 139.235)"><stop offset="0" stop-color="#010101" stop-opacity="0"/><stop offset=".95" stop-color="#010101"/></linearGradient><path d="M44.6 88.5h46.1c.6 0 1.1.5 1.1 1.1 0 .6-.5 1.1-1.1 1.1H44.6c-.6 0-1.1-.5-1.1-1.1.1-.6.5-1.1 1.1-1.1z" opacity=".26" fill="url(#SVGID_9_)"/><path class="st2" d="M34.8 48.8l2.2-2.9 58-.1 2.5 2.7z"/><path class="st2" d="M58 41.7l-2.5 4.6s-.3.8 1.2.5l2.9-3.5-1.6-1.6zm16.8 0l2.5 4.6s.3.8-1.2.5l-2.9-3.5 1.6-1.6z"/><linearGradient id="SVGID_10_" gradientUnits="userSpaceOnUse" x1="56.919" y1="41.929" x2="60.99" y2="41.929" gradientTransform="matrix(1 0 0 -1 -1.45 86.235)"><stop offset="0" stop-color="#010101" stop-opacity="0"/><stop offset=".95" stop-color="#010101"/></linearGradient><path d="M58 41.7l-2.5 4.6s-.3.8 1.2.5l2.9-3.5-1.6-1.6z" fill="url(#SVGID_10_)"/><linearGradient id="SVGID_11_" gradientUnits="userSpaceOnUse" x1="74.718" y1="41.929" x2="78.786" y2="41.929" gradientTransform="matrix(1 0 0 -1 -1.45 86.235)"><stop offset="0" stop-color="#010101" stop-opacity="0"/><stop offset=".95" stop-color="#010101"/></linearGradient><path d="M74.8 41.7l2.5 4.6s.3.8-1.2.5l-2.9-3.5 1.6-1.6z" fill="url(#SVGID_11_)"/><path class="st2" d="M66.5 24.4c6.2 0 11.2 4.9 11.2 11.1 0 6-4.6 10.9-10.6 11.2-6.1.4-11.4-4.3-11.8-10.5-.4-6.1 4.3-11.4 10.5-11.8h.7zm7.7 11.1c-.1-4.3-3.5-7.7-7.8-7.7s-7.7 3.5-7.7 7.7c0 4.3 3.5 7.7 7.7 7.7 4.4.1 7.8-3.4 7.8-7.7z"/><path class="st2" d="M71.9 24.5c.5-1 2-1.7 3.3-1.6 1.5.1 2.8 1.3 3.1 2.9.2 1.3-.4 2.9-1.3 3.3-1.3-2-3-3.5-5.1-4.6zM56 29.1c-1.1-.9-1.5-2.3-1.1-3.6.4-1.3 1.4-2.2 2.7-2.4 1.4-.2 2.7.3 3.5 1.5-2.1.9-3.9 2.5-5.1 4.5zm14.8 1.6c.6.6.6.6 0 1.1l-3 3c-.2.1-.3.4-.2.6.2.6-.2 1.3-.8 1.4-.6.2-1.3-.1-1.5-.7-.1-.3-.3-.5-.6-.6-1-.4-2-.9-3-1.3-.3-.1-.3-.2-.2-.5.5-1.1.3-.9 1.3-.5.9.4 1.7.8 2.6 1.2.2.1.4.1.7.1.1 0 .2-.1.4 0 .4.1.7-.1 1-.4l3-3c.1-.3.2-.4.3-.4z"/><linearGradient id="SVGID_12_" gradientUnits="userSpaceOnUse" x1="68.717" y1="69.427" x2="66.06" y2="5.171" gradientTransform="matrix(1 0 0 -1 -1.45 86.235)"><stop offset="0" stop-color="#010101" stop-opacity="0"/><stop offset=".95" stop-color="#010101"/></linearGradient><path d="M66.5 24.4c6.2 0 11.2 4.9 11.2 11.1 0 6-4.6 10.9-10.6 11.2-6.1.4-11.4-4.3-11.8-10.5-.4-6.1 4.3-11.4 10.5-11.8h.7zm7.7 11.1c-.1-4.3-3.5-7.7-7.8-7.7s-7.7 3.5-7.7 7.7c0 4.3 3.5 7.7 7.7 7.7 4.4.1 7.8-3.4 7.8-7.7z" fill="url(#SVGID_12_)"/><linearGradient id="SVGID_13_" gradientUnits="userSpaceOnUse" x1="76.906" y1="69.097" x2="74.246" y2="4.76" gradientTransform="matrix(1 0 0 -1 -1.45 86.235)"><stop offset="0" stop-color="#010101" stop-opacity="0"/><stop offset=".95" stop-color="#010101"/></linearGradient><path d="M77 29.1l-.1-.1c-.2-.2-.3-.5-.5-.7-1.2-1.6-2.7-2.9-4.5-3.7.5-1 2-1.8 3.3-1.6.5.1.9.2 1.3.4.9.5 1.6 1.4 1.7 2.4.3 1.3-.3 2.9-1.2 3.3z" fill="url(#SVGID_13_)"/><linearGradient id="SVGID_14_" gradientUnits="userSpaceOnUse" x1="77.222" y1="68.564" x2="74.678" y2="7.054" gradientTransform="matrix(1 0 0 -1 -1.45 86.235)"><stop offset="0" stop-color="#010101" stop-opacity="0"/><stop offset=".95" stop-color="#010101"/></linearGradient><path d="M77 29.1l-.1-.1c-.2-.2-.3-.5-.5-.7-1-1.4-2.2-2.6-3.8-3.4.5-1 2-1.8 3.3-1.6.2 0 .4.1.7.1.9.5 1.6 1.4 1.7 2.4.2 1.3-.4 2.9-1.3 3.3z" fill="url(#SVGID_14_)"/><linearGradient id="SVGID_15_" gradientUnits="userSpaceOnUse" x1="59.696" y1="69.803" x2="57.036" y2="5.498" gradientTransform="matrix(1 0 0 -1 -1.45 86.235)"><stop offset="0" stop-color="#010101" stop-opacity="0"/><stop offset=".95" stop-color="#010101"/></linearGradient><path d="M61.1 24.5l-.2.1c-.4.2-.8.4-1.1.7-.1 0-.1.1-.2.1-1.2.8-2.2 1.8-3 2.9-.2.2-.4.5-.5.7-1.1-.9-1.5-2.3-1.1-3.6.1-.5.4-1 .8-1.4.5-.6 1.2-.9 1.9-1 1.2-.3 2.6.3 3.4 1.5z" fill="url(#SVGID_15_)"/><linearGradient id="SVGID_16_" gradientUnits="userSpaceOnUse" x1="59.91" y1="68.989" x2="57.58" y2="12.591" gradientTransform="matrix(1 0 0 -1 -1.45 86.235)"><stop offset="0" stop-color="#010101" stop-opacity="0"/><stop offset=".95" stop-color="#010101"/></linearGradient><path d="M61.1 24.5l-.2.1c-.4.2-.8.4-1.1.7-.1 0-.1.1-.2.1-1.2.7-2.2 1.7-3 2.9-1.1-.9-1.5-2.3-1.1-3.6.1-.2.1-.5.3-.7.5-.6 1.2-.9 1.9-1 1.2-.2 2.6.3 3.4 1.5z" fill="url(#SVGID_16_)"/><linearGradient id="SVGID_17_" gradientUnits="userSpaceOnUse" x1="68.47" y1="69.437" x2="65.814" y2="5.181" gradientTransform="matrix(1 0 0 -1 -1.45 86.235)"><stop offset="0" stop-color="#010101" stop-opacity="0"/><stop offset=".95" stop-color="#010101"/></linearGradient><path d="M70.8 30.7c.6.6.6.6 0 1.1l-3 3c-.2.1-.3.4-.2.6.2.6-.2 1.3-.8 1.4-.6.2-1.3-.1-1.5-.7-.1-.3-.3-.5-.6-.6-1-.4-2-.9-3-1.3-.3-.1-.3-.2-.2-.5.5-1.1.3-.9 1.3-.5.9.4 1.7.8 2.6 1.2.2.1.4.1.7.1.1 0 .2-.1.4 0 .4.1.7-.1 1-.4l3-3c.1-.3.2-.4.3-.4z" fill="url(#SVGID_17_)"/><path class="st2" d="M81 26.4c-.3 0-.6-.2-.6-.5-.3-1.8-1.1-3.1-2.3-3.9-2-1.4-4.6-.9-4.6-.9-.3.1-.7-.2-.7-.5-.1-.3.2-.7.5-.7.1 0 3.1-.6 5.6 1.1 1.5 1 2.4 2.6 2.8 4.7.1.3-.2.7-.5.7H81z"/><path class="st2" d="M84.2 25.4c-.4 0-.8-.3-.8-.7-.4-2.5-1.5-4.3-3.1-5.4-2.8-1.9-6.4-1.2-6.4-1.2-.5.1-.9-.2-1-.6-.1-.5.2-.9.6-1h.1c.2 0 4.3-.8 7.7 1.5 2 1.4 3.3 3.6 3.9 6.6.1.5-.2.9-.7 1-.2-.2-.3-.2-.3-.2z"/><path class="st2" d="M87.5 24.2c-.5 0-1-.4-1.1-.9-.6-3.2-1.9-5.6-4.1-7.1-3.6-2.5-8.3-1.6-8.4-1.6-.6.1-1.2-.3-1.3-.9-.1-.6.3-1.2.9-1.3.2 0 5.7-1.1 10.1 2 2.7 1.8 4.4 4.7 5 8.5.1.6-.3 1.2-.9 1.3-.1.1-.1.1-.2 0z"/><linearGradient id="SVGID_18_" gradientUnits="userSpaceOnUse" x1="80.008" y1="78.87" x2="77.236" y2="24.091" gradientTransform="matrix(1 0 0 -1 -1.45 86.235)"><stop offset="0" stop-color="#010101" stop-opacity="0"/><stop offset=".95" stop-color="#010101"/></linearGradient><path d="M81.6 26.4c-.3 0-.6-.2-.6-.5-.3-1.8-1.1-3.1-2.3-3.9-2-1.4-4.6-.9-4.6-.9-.3.1-.7-.1-.8-.4-.1-.3.1-.7.4-.8h.1c.1 0 3.1-.6 5.6 1.1 1.5 1 2.4 2.6 2.8 4.7.1.3-.2.7-.5.7h-.1z" fill="url(#SVGID_18_)"/><linearGradient id="SVGID_19_" gradientUnits="userSpaceOnUse" x1="81.626" y1="78.787" x2="78.85" y2="24.007" gradientTransform="matrix(1 0 0 -1 -1.45 86.235)"><stop offset="0" stop-color="#010101" stop-opacity="0"/><stop offset=".95" stop-color="#010101"/></linearGradient><path d="M84.8 25.4c-.4 0-.8-.3-.8-.7-.4-2.5-1.5-4.3-3.1-5.4-2.9-2-6.5-1.3-6.5-1.3-.5.1-.9-.2-1-.7-.1-.4.2-.9.7-1 .2 0 4.3-.8 7.7 1.5 2 1.4 3.3 3.6 3.9 6.6.1.5-.2.9-.7 1h-.2z" fill="url(#SVGID_19_)"/><linearGradient id="SVGID_20_" gradientUnits="userSpaceOnUse" x1="83.186" y1="78.707" x2="80.411" y2="23.928" gradientTransform="matrix(1 0 0 -1 -1.45 86.235)"><stop offset="0" stop-color="#010101" stop-opacity="0"/><stop offset=".95" stop-color="#010101"/></linearGradient><path d="M88.1 24.2c-.5 0-1-.4-1.1-.9-.6-3.2-1.9-5.6-4.1-7.1-3.6-2.5-8.3-1.6-8.4-1.6-.6.1-1.2-.3-1.3-.9-.1-.6.3-1.1.8-1.3.2 0 5.7-1.1 10.1 2 2.7 1.8 4.4 4.7 5 8.6.1.6-.3 1.2-.9 1.3 0-.1-.1-.1-.1-.1z" fill="url(#SVGID_20_)"/><path class="st23" d="M149.5 26.3c.3-1 .3-2 0-3s-.8-1.9-1.5-2.7c0 0-1.2-.4-2.2 0s.4 2.1.3 2.9c-.1.8-.9-1.5-1.4-1.3-.5.2.7 3.4 1.6 3.8m-32.7 27.9s-2.5-1.8-3-2.5c-.4-.6 1.1-2.6.7-3s-2.2-1.3-2-2.1c.2-.8 3 1.1 4.3 2.1 1.3 1 2.5 3.5 2.5 3.5s-.3 2.5-2.5 2z"/><path class="st2" d="M145 45.3c-.2 1.5-.4 3.3-.6 5.3-1.2 9.4-3.1 23.1-3.2 24-.1.6-1.5.8-3.4.8-2.4 0-5.5-.3-7.3-.8-2.1-.6-4.1-1.4-6-2.4 0 0 3.5-28.4 4.2-28.8.7-.4 5.5-.8 5.5-.8l5.6.2s1.7-.5 3.2-.8c1.1-.2 2-.4 2.2-.2.1-.1 0 1.3-.2 3.5z"/><path class="st2" d="M129.4 42.9s-1.3.4-2 1.3-6 11.5-5.3 13.7 3 3.8 3.6 3.4c.7-.4 1.9-4.5 2.1-5.4s.7-3.8.7-3.8l.9-9.2zm21.8-6.4c.2 2.2-5.6 11.6-6.7 13.6-.1.1-.1.2-.2.4-1.3 1.8-4.2 2.5-4.2 2.5s0-.1-.1-.1c-.8-2 1.1-7.9 1.1-7.9l1.8-3.3L146 36l.1-9.7s.3-.9 1.9-1.1c.9-.1 1.3.1 1.6.2.1.1.1.2.2.3 0 0 1.2 8.3 1.4 10.8z"/><path class="st23" d="M122 117.9s-.9 3.5-1.4 3.8c-.4.3-2-.6-2.9-1.2s-.6-2-.6-2l.4-1.1 4.5.5zm23.5-1.7s1.7 4.8 1.5 5.3c-.2.5-2.3-.2-3.4-.1s-1.5-1.6-1.5-1.6l-.4-1.1 3.8-2.5zm-5.3-76.3s-.7 2.9-.4 4c.2 1.1-1.5 4.2-3.8 4.2s-2.2-3.8-2.2-4.2.7-.7.4-1.8c-.2-1.1 5.8-3.5 6-2.2z"/><path d="M134.3 42.2c.2.9-.2 1.2-.4 1.5.5.5 1.1.8 1.8.8 1.3 0 3.3-1.1 4.2-3.1v-.1c.1-.7.3-1.3.3-1.3-.2-1.4-6.2 1.1-5.9 2.2z" fill="#b5765e"/><path class="st3" d="M139.8 43.5s-1.8 4.2-3.3 4.6c0 0-.4.2.7.9s4.2-2.7 3.8-5.1c-.1-.6-.5-1.2-1.1-1.4l-.1 1zm-5.5-.9s-.5 3.1.8 5.2c0 0-.5.8-1 .8-.4 0-1.6-2.7-1.1-4.7.2-1.1 1-1.6 1.3-1.3z"/><path class="st25" d="M141.1 74.5l-2.4 19.3 7.5 24.9s-1.4.8-4.3.5l-10.2-24.6-.1-15.7-3.3 13.5-6.4 26.3s-3.2.7-5.2-.7l4.2-25.7 3.5-20.4 16.7 2.6z"/><linearGradient id="SVGID_21_" gradientUnits="userSpaceOnUse" x1="126.805" y1="-24.031" x2="156.027" y2="19.397" gradientTransform="matrix(1 0 0 -1 -1.45 86.235)"><stop offset="0" stop-color="#010101" stop-opacity="0"/><stop offset=".95" stop-color="#010101"/></linearGradient><path d="M146.2 118.7s-1.4.8-4.3.6l-10.2-24.7-.1-15.7-3.3 13.5-6.4 26.4s-3.2.7-5.1-.7l4.2-25.7 3.5-20.4 13.4 2 3.2.5-2.4 19.3 7.5 24.9z" fill="url(#SVGID_21_)"/><path class="st23" d="M132.9 33.5s-.4 5.8 0 7.3c.4 1.6 1.8 2.9 3.1 2.9s3.3-1.1 4.2-3.1c.9-2 1.3-6.9 1.1-7.5-.2-.7-1.6-2.8-5.1-2.4-2.4.2-3.3 1.9-3.3 2.8z"/><path class="st25" d="M141.1 36.4c-.2.5-.9.5-1.3.1-.3-.4-.5-.9-.4-1.4l.3-1.5c0-.1 0-.2-.1-.3-.1-.1-.2-.1-.3-.1-.7 0-1.5.3-1.9-.2-.3-.3-.4-.8-.7-.9-.3-.1-.6.1-.9.2-.7.4-1.5.4-2.3.2-.2 0-.3-.1-.4-.3-.1-.1-.1-.2 0-.4.1-.8.5-1.5 1.2-2 .6-.3 1.2-.5 1.9-.6.8-.1 1.5-.2 2.3-.3.4-.1.8 0 1.2.2.4.2.7.5.9.8.4.4 1 .7 1.3 1.2.3.4.9.4 1.1 1.4.2.9.3 1.7.4 2.6.1.9-.2 1.7-.4 2.6-.4 1.8-.4 1.8-1 2.3-.4.3-.8.6-1.3.8-.2.1-.4.2-.5.1-.2-.1-.3-.4-.1-.4"/><linearGradient id="SVGID_22_" gradientUnits="userSpaceOnUse" x1="138.208" y1="50.328" x2="144.22" y2="54.055" gradientTransform="matrix(1 0 0 -1 -1.45 86.235)"><stop offset="0" stop-color="#010101" stop-opacity="0"/><stop offset=".95" stop-color="#010101"/></linearGradient><path d="M141.1 36.4c-.2.5-.9.5-1.3.1-.3-.4-.5-.9-.4-1.4l.3-1.5c0-.1 0-.2-.1-.3-.1-.1-.2-.1-.3-.1-.7 0-1.5.3-1.9-.2-.3-.3-.4-.8-.7-.9-.3-.1-.6.1-.9.2-.7.4-1.5.4-2.3.2-.2 0-.3-.1-.4-.3-.1-.1-.1-.2 0-.4.1-.8.5-1.5 1.2-2 .6-.3 1.2-.5 1.9-.6.8-.1 1.5-.2 2.3-.3.4-.1.8 0 1.2.2.4.2.7.5.9.8.4.4 1 .7 1.3 1.2.3.4.9.4 1.1 1.4.2.9.3 1.7.4 2.6.1.9-.2 1.7-.4 2.6-.4 1.8-.4 1.8-1 2.3-.4.3-.8.6-1.3.8-.2.1-.4.2-.5.1-.2-.1-.3-.4-.1-.4" fill="url(#SVGID_22_)"/><path class="st23" d="M140.3 37.2s.2-1.3 1.1-.9c.9.4-.2 2.9-.7 3.1-.2.1-.4.2-.7.2"/><path class="st2" d="M125.9 61.5c-.6 1.2-1.7 2.4-3 1.6-5.1-3.1-10-9.3-10-9.3 0-.5.1-1 .3-1.5.4-.9 1.3-1.6 2.3-1.8l9.6 8.1 1 .9.1.1c.3.2.1 1.1-.3 1.9z"/><linearGradient id="SVGID_23_" gradientUnits="userSpaceOnUse" x1="124.715" y1="83.876" x2="144.708" y2="80.749" gradientTransform="matrix(1 0 0 -1 0 139.235)"><stop offset="0" stop-color="#010101" stop-opacity="0"/><stop offset=".95" stop-color="#010101"/></linearGradient><path fill="url(#SVGID_23_)" d="M125.9 61.5l1.5-13-2.3 14.2z"/><path class="st2" d="M113.2 120.4c-1.3.4-2.6.9-3.6 1.7-.2.1-.3.3-.4.5-.1.3.2.6.5.8 1.9 1.3 4.4 1.3 6.8 1.3 1.2 0 2.6-.1 3.5-.9.8-.7 1-1.8 1.2-2.8v-.3c-.1-.4-.6-.4-1-.4-1.3 0-2.1-.8-3.2-1-1.1-.2-2.7.7-3.8 1.1zm26.4 2c-1.1.8-2.2 1.6-2.9 2.8-.1.2-.2.4-.2.6.1.3.4.5.7.6 2.2.7 4.6-.1 6.8-.9 1.2-.4 2.4-.9 3-1.9.5-.9.4-2 .3-3 0-.1 0-.2-.1-.3-.2-.3-.7-.2-1-.1-1.2.5-2.2-.1-3.4 0-1.1.1-2.4 1.5-3.2 2.2z"/><linearGradient id="SVGID_24_" gradientUnits="userSpaceOnUse" x1="114.461" y1="-21.674" x2="123.39" y2="-77.271" gradientTransform="matrix(1 0 0 -1 -1.45 86.235)"><stop offset="0" stop-color="#010101" stop-opacity="0"/><stop offset=".95" stop-color="#010101"/></linearGradient><path d="M113.2 120.4c-1.3.4-2.6.9-3.6 1.7-.2.1-.3.3-.4.5-.1.3.2.6.5.8 1.9 1.3 4.4 1.3 6.8 1.3 1.2 0 2.6-.1 3.5-.9.8-.7 1-1.8 1.2-2.8v-.3c-.1-.4-.6-.4-1-.4-1.3 0-2.1-.8-3.2-1-1.1-.2-2.7.7-3.8 1.1z" fill="url(#SVGID_24_)"/><linearGradient id="SVGID_25_" gradientUnits="userSpaceOnUse" x1="140.237" y1="-17.535" x2="149.166" y2="-73.131" gradientTransform="matrix(1 0 0 -1 -1.45 86.235)"><stop offset="0" stop-color="#010101" stop-opacity="0"/><stop offset=".95" stop-color="#010101"/></linearGradient><path d="M139.6 122.4c-1.1.8-2.2 1.6-2.9 2.8-.1.2-.2.4-.2.6.1.3.4.5.7.6 2.2.7 4.6-.1 6.8-.9 1.2-.4 2.4-.9 3-1.9.5-.9.4-2 .3-3 0-.1 0-.2-.1-.3-.2-.3-.7-.2-1-.1-1.2.5-2.2-.1-3.4 0-1.1.1-2.4 1.5-3.2 2.2z" fill="url(#SVGID_25_)"/><linearGradient id="SVGID_26_" gradientUnits="userSpaceOnUse" x1="127.223" y1="27.626" x2="220.513" y2="22.906" gradientTransform="matrix(1 0 0 -1 -1.45 86.235)"><stop offset="0" stop-color="#010101" stop-opacity="0"/><stop offset=".95" stop-color="#010101"/></linearGradient><path d="M151.2 36.5c.2 2.2-5.6 11.6-6.7 13.6-.1.1-.1.2-.2.4-1.2 9.4-3.1 23.1-3.2 24l-2.4 19.3-2.1-7.3 1.2-11.1.1-1.3s1.6-15.8 4.6-24.3c.5-1.4 1-2.3 2.5-4.4 2.6-3.7 5.2-7.9 4.9-9.3-.6-2.9-1.8-10.7-1.8-10.7l1.6.2c.1.1.1.2.2.3-.1-.2 1.1 8.1 1.3 10.6z" fill="url(#SVGID_26_)"/><linearGradient id="SVGID_27_" gradientUnits="userSpaceOnUse" x1="100.39" y1="29.377" x2="205.78" y2="24.047" gradientTransform="matrix(1 0 0 -1 -1.45 86.235)"><stop offset="0" stop-color="#010101" stop-opacity="0"/><stop offset=".95" stop-color="#010101"/></linearGradient><path d="M126.5 56.6l-.3 2.9-.2 2c-.6 1.2-1.7 2.4-3 1.6-5-3.1-10-9.3-10-9.3 0-.5.1-1 .3-1.5.9.8 9.2 8.5 9.9 8.6.4.1 1.3-1.1 2-2.3.6-1 1.3-2 1.3-2z" fill="url(#SVGID_27_)"/></svg>