<svg id="Layer_1" xmlns="http://www.w3.org/2000/svg" viewBox="0 0 183.2 140"><style>.st0{opacity:.24;fill:#6681f2;enable-background:new}.st2{fill:#f5c7c8}.st3{fill:#606161}.st7{fill:#6681f2}</style><path class="st0" d="M183.2 84.8c-.1 8.5-1.2 17.2-4.7 24.8-2.2 4.8-5.3 9.1-9.2 12.7-9.1 8.6-21.7 13.2-33.9 14.7-17.2 2.1-34.7-.9-52 0-10.8.6-21.6 2.6-32.4 2.9-10.8.3-22.1-1.4-31.3-7.6-3.5-2.4-6.6-5.3-9.2-8.7-3.4-4.3-6-9.2-7.8-14.4-6.7-19.8-1-44.2 13.9-58 5.9-5.5 12.8-9.3 19.8-13 14.5-7.7 38.8-61.6 95.9-26.2 11.1 6.9 16.9 21.1 26.8 30.1 8.8 8 18.7 15.8 22.4 27.6 1.4 4.8 1.8 10 1.7 15.1z"/><path class="st0" d="M169.4 122.3c-9.1 8.6-21.7 13.2-33.9 14.7-17.2 2.1-34.7-.9-52 0-10.8.6-21.6 2.6-32.4 2.9s-22.1-1.4-31.3-7.6c-3.5-2.4-6.6-5.3-9.2-8.7.9-.2 1.8-.4 2.7-.5 18.2-2.5 36.6-2.8 54.9-3l50.1-.8c5.5-.1 11.1-.2 16.7.4 7.1.7 14 2.4 21.1 3 4.4.4 8.8-.3 13.3-.4z"/><linearGradient id="SVGID_1_" gradientUnits="userSpaceOnUse" x1="91.833" y1="-41.059" x2="99.242" y2="151.241" gradientTransform="matrix(1 0 0 -1 -2.28 114.392)"><stop offset="0" stop-color="#010101" stop-opacity="0"/><stop offset=".95" stop-color="#010101"/></linearGradient><path d="M137.8 123.4c-33.8-1.9-67.8-1.9-101.6-.1-5.7.3-11.5.7-16.9 2.8 2.6 2.4 6.5 2.6 10.1 2.6 26 .4 52.1.5 78.1.3 1.5 0 3.6-.7 3.3-2.2-.1-.5-.4-.9-.4-1.3 0-.8 1.1-1.1 2-1.2 2.3-.1 4.5 0 6.8.4.8.1 1.7.3 2.2 1 .4.5.6 1.1.9 1.7 1 1.8 3.5 2.2 5.6 1.8 2.1-.4 4-1.4 6.1-1.5 1.8-.1 3.6.5 5.4.9 5.9 1.4 12 .9 18 .3 6.2-.5 6.4-4.8.2-5.2-6.7-.2-13.3 0-19.8-.3z" fill="url(#SVGID_1_)"/><path class="st2" d="M161 78.8l-2.8-15.3h3.9s.9 12.3 1.3 15.6l-2.4-.3z"/><path class="st2" d="M163.2 77.9s.5 2.4.2 3.7c-.3 1.3-1.6 2.9-2.4 3s-1.2-.3-1.2-.8c.1-.5 2-2.3 1.7-2.9s-1 1.2-1.3.7c-.3-.4-.2-1.1.5-1.9.7-.8 0-2 0-2s2-.8 2.5.2z"/><path class="st3" d="M155.6 31.6c.8-.6 2.4-.4 3.2-.1 1.2.5 2.1 1.5 2.4 2.7.1.6.2 1.2.1 1.7-.1 1.3-.7 2.6-1.7 3.4-2.2 1.6-3.5.1-4.2-1.9-.4-1.1-.5-2.3-.4-3.5.1-.9-.3-1.6.4-2.3h.2z"/><linearGradient id="SVGID_2_" gradientUnits="userSpaceOnUse" x1="162.648" y1="78.565" x2="156.576" y2="78.926" gradientTransform="matrix(1 0 0 -1 -2.28 114.392)"><stop offset="0" stop-color="#010101" stop-opacity="0"/><stop offset=".95" stop-color="#010101"/></linearGradient><path d="M155.6 31.6c.8-.6 2.4-.4 3.2-.1 1.2.5 2.1 1.5 2.4 2.7.1.6.2 1.2.1 1.7-.1 1.3-.7 2.6-1.7 3.4-2.2 1.6-3.5.1-4.2-1.9-.4-1.1-.5-2.3-.4-3.5.1-.9-.3-1.6.4-2.3h.2z" fill="url(#SVGID_2_)"/><ellipse class="st3" cx="151.1" cy="35.3" rx="6.1" ry="7.6"/><path class="st2" d="M131.8 56.2s-1.1-2-1.6-2.3-1.3-1.1-1.6-.9c-.4.3 1.5 2-.2 1.9-.3 0-1.7 0-2.3.6-.5.5-.5 1.3 0 1.8l.1.1c.5.3 2 .5 2.8.4.8 0 1.8.1 2.4.4"/><path class="st2" d="M143.7 47.9s-.8 2.5-.9 3.9-.7 7-.9 7.3c-.2.3-10.4-3.2-10.4-3.2s-.6.9-.1 2.5c0 0 7.6 6.9 12.2 7.1 4.6.3 4-10.6 4-10.6m5.1 64.4l-.8 1.9c.5-.2 2.9 1.7 4 1.7.7 0 1.4-.3 1.9-.7l-.7-3.5-1.2-17.1-6.5.9 3.3 16.8zm-12.5-.1l-1.2 1.2c.5 0 2.4 2.4 3.4 2.7.7.1 1.4.1 2.1-.2l.2-3.5 1.3-15.8-6.4.6.6 15zm13.2-78.8l.3 5.5c-.6.9-1.6 1.3-2.6 1.2-2.7-.3-2.5-1.1-2.5-1.1s0-4-.1-4.9"/><path d="M152.8 42.1l.6-1.1-5 .6c0 .3.1 1.1.1 2 1.6.4 3.3-.1 4.3-1.5z" fill="#dbb4af"/><path class="st3" d="M157.3 80.2s.8 15.1 1.9 27.4c0 0-14.6 2.1-20.6-.2 0 0 1.3-24.4 1.6-27.9l17.1.7z"/><linearGradient id="SVGID_3_" gradientUnits="userSpaceOnUse" x1="154.277" y1="20.047" x2="128.644" y2="22.21" gradientTransform="matrix(1 0 0 -1 -2.28 114.392)"><stop offset="0" stop-color="#010101" stop-opacity="0"/><stop offset=".95" stop-color="#010101"/></linearGradient><path d="M157.3 80.2s.8 15.1 1.9 27.4c0 0-14.6 2.1-20.6-.2 0 0 1.3-24.4 1.6-27.9l17.1.7z" fill="url(#SVGID_3_)"/><path class="st7" d="M157.4 47.5s0-1.1-3.8-1.1c-2.7 0-3.7-.2-5.6.1-3.5.7-3.9.9-4.5 1.4-1.3 1.1-3.5 30.8-3.5 30.8s-2.2 3.6 9.1 4.7c4.2.4 8.2-2.5 8.2-2.5l.1-33.4z"/><path class="st2" d="M155.5 31.5s-.2 7-2.3 9.5c-2.2 2.5-3.4 2.9-6 1.8-2.2-.9-2.5-7-2.6-8.7-.1-4.7 6.8-8.6 10.9-2.6z"/><linearGradient id="SVGID_4_" gradientUnits="userSpaceOnUse" x1="149.558" y1="66.367" x2="197.118" y2="114.546" gradientTransform="matrix(1 0 0 -1 0 140.762)"><stop offset="0" stop-color="#010101" stop-opacity="0"/><stop offset=".95" stop-color="#010101"/></linearGradient><path fill="url(#SVGID_4_)" d="M157.1 52.4l.2 28.5-2.6 1.5-.5-25.2z"/><path class="st7" d="M154.9 45.2v1.3c0 .2-.1.4-.3.5 0 0-2 .7-5.5.9l-2.6-.7c-.2-.1-.3-.3-.3-.5v-.6c0-.3.2-.5.5-.6l7.6-.9c.3 0 .6.2.6.6z"/><linearGradient id="SVGID_5_" gradientUnits="userSpaceOnUse" x1="151.56" y1="67.392" x2="177.735" y2="81.366" gradientTransform="matrix(1 0 0 -1 -2.28 114.392)"><stop offset="0" stop-color="#010101" stop-opacity="0"/><stop offset=".95" stop-color="#010101"/></linearGradient><path d="M154.9 45.2v1.3c0 .2-.1.4-.3.5 0 0-2 .7-5.5.9l-2.6-.7c-.2-.1-.3-.3-.3-.5v-.6c0-.3.2-.5.5-.6l7.6-.9c.3 0 .6.2.6.6z" fill="url(#SVGID_5_)"/><path class="st2" d="M154.7 35.9s.1-1.1 1.2-.6.1 2.3-.3 2.8-1.2.4-1.2.4"/><path fill="#4eae93" d="M156.3 31l.5 1.7h-.7l-.6-2.5z"/><path class="st7" d="M157.2 47.2s1.5 1.4 4.4 8.2c1.2 2.8 2.1 8 2.1 8s-4 2-6.3 2c-1-6-3.5-8.4-4-11.2-.4-2.7 2.4-7.5 3.8-7zM137 120.7c-1.1.3-2.2 1-2.9 1.9-.3.4-.5.8-.5 1.3s.2.9.6 1.2c.3.1.6.2.9.2 2.8.1 5.6.1 8.4-.1.2 0 .5-.1.6-.3.1-.1.1-.3.1-.5l-.1-1.8c0-.2 0-.4-.1-.6-.3-.4-.9-.1-1.4-.1-1-.1-1.2-1.3-2-1.6-1-.3-2.7.1-3.6.4zm13.7-.1c-1.1.3-2.2 1-2.9 1.9-.3.4-.5.8-.5 1.3s.2.9.6 1.2c.3.1.6.2.9.2 2.8.1 5.6.1 8.4-.2.3.1.6-.1.7-.4v-.3l-.1-1.8c0-.2 0-.4-.1-.6-.3-.4-.9-.1-1.4-.1-1-.1-1.2-1.3-2-1.6-1-.3-2.7.1-3.6.4z"/><linearGradient id="SVGID_6_" gradientUnits="userSpaceOnUse" x1="142.741" y1="-14.803" x2="136.564" y2="8.363" gradientTransform="matrix(1 0 0 -1 -2.28 114.392)"><stop offset="0" stop-color="#010101" stop-opacity="0"/><stop offset=".95" stop-color="#010101"/></linearGradient><path d="M137 120.7c-1.1.3-2.2 1-2.9 1.9-.3.4-.5.8-.5 1.3s.2.9.6 1.2c.3.1.6.2.9.2 2.8.1 5.6.1 8.4-.1.2 0 .5-.1.6-.3.1-.1.1-.3.1-.5l-.1-1.8c0-.2 0-.4-.1-.6-.3-.4-.9-.1-1.4-.1-1-.1-1.2-1.3-2-1.6-1-.3-2.7.1-3.6.4z" fill="url(#SVGID_6_)"/><linearGradient id="SVGID_7_" gradientUnits="userSpaceOnUse" x1="155.502" y1="-11.399" x2="149.325" y2="11.767" gradientTransform="matrix(1 0 0 -1 -2.28 114.392)"><stop offset="0" stop-color="#010101" stop-opacity="0"/><stop offset=".95" stop-color="#010101"/></linearGradient><path d="M150.7 120.6c-1.1.3-2.2 1-2.9 1.9-.3.4-.5.8-.5 1.3s.2.9.6 1.2c.3.1.6.2.9.2 2.8.1 5.6.1 8.4-.2.3.1.6-.1.7-.4v-.3l-.1-1.8c0-.2 0-.4-.1-.6-.3-.4-.9-.1-1.4-.1-1-.1-1.2-1.3-2-1.6-1-.3-2.7.1-3.6.4z" fill="url(#SVGID_7_)"/><path class="st3" d="M144.8 29.8l-.3.6c-.3.6-.4 1.2-.4 1.8 0 .3.5 1.5.5 1.6.7-1.3 1.7-2.5 2.9-3.4.5 1.1 1.6 1.6 2.6 2.1s2.2 1.1 2.6 2.2c.3.7.2 1.6.7 2.3 1.2-.2 1.4-2.1 2.6-2.3.2 0 .4 0 .7-.1.5-.2.9-.7.9-1.2.2-2.5-2.8-4.8-4.8-5.6-1.9-.8-4-.8-5.9 0-1 .5-1.7 1.2-2.1 2z"/><linearGradient id="SVGID_8_" gradientUnits="userSpaceOnUse" x1="157.097" y1="84.181" x2="147.935" y2="79.757" gradientTransform="matrix(1 0 0 -1 -2.28 114.392)"><stop offset="0" stop-color="#010101" stop-opacity="0"/><stop offset=".95" stop-color="#010101"/></linearGradient><path d="M144.8 29.8l-.3.6c-.3.6-.4 1.2-.4 1.8 0 .3.5 1.5.5 1.6.7-1.3 1.7-2.5 2.9-3.4.5 1.1 1.6 1.6 2.6 2.1s2.2 1.1 2.6 2.2c.3.7.2 1.6.7 2.3 1.2-.2 1.4-2.1 2.6-2.3.2 0 .4 0 .7-.1.5-.2.9-.7.9-1.2.2-2.5-2.8-4.8-4.8-5.6-1.9-.8-4-.8-5.9 0-1 .5-1.7 1.2-2.1 2z" fill="url(#SVGID_8_)"/><path class="st7" d="M32.6 18.1h60.2c2.9 0 5.2 2.3 5.2 5.2V121c0 2.9-2.3 5.2-5.2 5.2H32.6c-2.9 0-5.2-2.3-5.2-5.2V23.4c0-2.9 2.3-5.3 5.2-5.3z"/><path class="st7" d="M34.6 18.1h60.2c2.9 0 5.2 2.3 5.2 5.2V121c0 2.9-2.3 5.2-5.2 5.2H34.6c-2.9 0-5.2-2.3-5.2-5.2V23.4c0-2.9 2.3-5.3 5.2-5.3z"/><linearGradient id="SVGID_9_" gradientUnits="userSpaceOnUse" x1="59.089" y1="159.021" x2="70.208" y2="-18.457" gradientTransform="matrix(1 0 0 -1 0 140.762)"><stop offset="0" stop-color="#fff" stop-opacity="0"/><stop offset=".14" stop-color="#fff" stop-opacity=".22"/><stop offset=".3" stop-color="#fff" stop-opacity=".45"/><stop offset=".45" stop-color="#fff" stop-opacity=".65"/><stop offset=".6" stop-color="#fff" stop-opacity=".8"/><stop offset=".73" stop-color="#fff" stop-opacity=".91"/><stop offset=".85" stop-color="#fff" stop-opacity=".98"/><stop offset=".94" stop-color="#fff"/></linearGradient><path d="M34.6 18.1h60.2c2.9 0 5.2 2.3 5.2 5.2V121c0 2.9-2.3 5.2-5.2 5.2H34.6c-2.9 0-5.2-2.3-5.2-5.2V23.4c0-2.9 2.3-5.3 5.2-5.3z" fill="url(#SVGID_9_)"/><linearGradient id="SVGID_10_" gradientUnits="userSpaceOnUse" x1="24.115" y1="-5.079" x2="176.887" y2="163.341" gradientTransform="matrix(1 0 0 -1 -2.28 114.392)"><stop offset="0" stop-color="#010101" stop-opacity="0"/><stop offset=".95" stop-color="#010101"/></linearGradient><path d="M34.8 80.3l1.9-56.9 53.5 1.1s-7 59.1-2.1 74.3c4.9 15.3 5.8 21 5.8 21L36 121.5l-1.2-41.2z" fill="url(#SVGID_10_)"/><path d="M103.5 114.8l-58.5.6s-6-35-7.1-46.7c-1-11.3-1.3-45.4-1.3-45.4h55.9s.1 33 1.1 44c1.2 12.1 9.9 47.5 9.9 47.5z" fill="#fff"/><path class="st7" d="M129.6 22.7l-4-9-.3-.8-.1-.1c-.1-.1-.2-.1-.3 0v.1l-4.3 9.8c-.1.2-.1.4-.1.7v94.7h9.2V23.4c.1-.2 0-.4-.1-.7zm.1 95.3h-9.1v-2h9.1v2z"/><linearGradient id="SVGID_11_" gradientUnits="userSpaceOnUse" x1="170.374" y1="66.556" x2="-108.733" y2="-45.374" gradientTransform="matrix(1 0 0 -1 -2.28 114.392)"><stop offset="0" stop-color="#fff" stop-opacity="0"/><stop offset=".14" stop-color="#fff" stop-opacity=".22"/><stop offset=".3" stop-color="#fff" stop-opacity=".45"/><stop offset=".45" stop-color="#fff" stop-opacity=".65"/><stop offset=".6" stop-color="#fff" stop-opacity=".8"/><stop offset=".73" stop-color="#fff" stop-opacity=".91"/><stop offset=".85" stop-color="#fff" stop-opacity=".98"/><stop offset=".94" stop-color="#fff"/></linearGradient><path d="M128.2 23.4V116h-5.7V23.4c0-.2 0-.4.1-.7l2.6-9.8v-.1c.1-.1.2-.1.2.1l.2.8 2.4 9c.1.3.2.5.2.7z" fill="url(#SVGID_11_)"/><linearGradient id="SVGID_12_" gradientUnits="userSpaceOnUse" x1="136.248" y1="-4.218" x2="82.068" y2="-25.945" gradientTransform="matrix(1 0 0 -1 -2.28 114.392)"><stop offset="0" stop-color="#fff" stop-opacity="0"/><stop offset=".14" stop-color="#fff" stop-opacity=".22"/><stop offset=".3" stop-color="#fff" stop-opacity=".45"/><stop offset=".45" stop-color="#fff" stop-opacity=".65"/><stop offset=".6" stop-color="#fff" stop-opacity=".8"/><stop offset=".73" stop-color="#fff" stop-opacity=".91"/><stop offset=".85" stop-color="#fff" stop-opacity=".98"/><stop offset=".94" stop-color="#fff"/></linearGradient><path d="M122.5 118h5.7v6.8c0 .9-.5 1.6-1 1.6h-3.7c-.6 0-1-.7-1-1.6V118z" fill="url(#SVGID_12_)"/><linearGradient id="SVGID_13_" gradientUnits="userSpaceOnUse" x1="127.76" y1="97.075" x2="126.938" y2="82.249" gradientTransform="matrix(1 0 0 -1 -2.28 114.392)"><stop offset="0" stop-color="#fff" stop-opacity="0"/><stop offset=".14" stop-color="#fff" stop-opacity=".22"/><stop offset=".3" stop-color="#fff" stop-opacity=".45"/><stop offset=".45" stop-color="#fff" stop-opacity=".65"/><stop offset=".6" stop-color="#fff" stop-opacity=".8"/><stop offset=".73" stop-color="#fff" stop-opacity=".91"/><stop offset=".85" stop-color="#fff" stop-opacity=".98"/><stop offset=".94" stop-color="#fff"/></linearGradient><path d="M129.8 23.4c-2.9 1.4-6.3 1.4-9.2 0l2.7-5.9 2.1-4.5 1.8 4.2 2.6 6.2z" fill="url(#SVGID_13_)"/><path class="st7" d="M127.1 17.1c-1.2.6-2.6.7-3.8.3l2.1-4.5 1.7 4.2z"/><linearGradient id="SVGID_14_" gradientUnits="userSpaceOnUse" x1="126.567" y1="95.187" x2="131.712" y2="108.217" gradientTransform="matrix(1 0 0 -1 -2.28 114.392)"><stop offset="0" stop-color="#010101" stop-opacity="0"/><stop offset=".95" stop-color="#010101"/></linearGradient><path d="M127.1 17.1c-1.3.7-2.9.5-4.1.3l2.1-4.8 2 4.5z" fill="url(#SVGID_14_)"/><path class="st7" d="M43 34.9h27.6c.5 0 .9.4.9.9s-.4.9-.9.9H43c-.5 0-.9-.4-.9-.9s.4-.9.9-.9zm0 3.2h27.6c.5 0 .9.4.9.9s-.4.9-.9.9H43c-.5 0-.9-.4-.9-.9s.4-.9.9-.9zm0 3.2h27.6c.5 0 .9.4.9.9s-.4.9-.9.9H43c-.5 0-.9-.4-.9-.9s.4-.9.9-.9zm9.5 3.2h18.3c.4 0 .8.3.8.8v.3c0 .4-.3.8-.8.8H52.5c-.4 0-.8-.3-.8-.8v-.3c0-.5.4-.8.8-.8zm-9.2 10.6h27.6c.5 0 .9.4.9.9s-.4.9-.9.9H43.3c-.5 0-.9-.4-.9-.9s.4-.9.9-.9zm0 3.2h27.6c.5 0 .9.4.9.9s-.4.9-.9.9H43.3c-.5 0-.9-.4-.9-.9s.4-.9.9-.9zm0 3.2h27.6c.5 0 .9.4.9.9s-.4.9-.9.9H43.3c-.5 0-.9-.4-.9-.9s.4-.9.9-.9zm9.5 3.2h18.3c.4 0 .8.3.8.8v.3c0 .4-.3.8-.8.8H52.8c-.4 0-.8-.3-.8-.8v-.3c.1-.5.4-.8.8-.8zM73 76.3H45.4c-.5 0-1-.4-1-.9-.1-.4.2-.8.6-.9h27.8c.5 0 1 .4 1.1.9.1.4-.2.8-.6.9H73zm.5 3.2H45.9c-.5 0-1-.4-1.1-.9-.1-.4.2-.8.7-.9h27.8c.5 0 1 .4 1 .9.1.4-.2.8-.6.9h-.2zm.4 3.1H46.3c-.5 0-1-.4-1-.9-.1-.4.2-.8.6-.9h27.8c.5 0 1 .4 1 .9.1.4-.2.8-.7.9 0 0-.1.1-.1 0zm.6 3.2H56.2c-.4 0-.8-.3-.9-.8v-.3c-.1-.4.2-.7.5-.8h18.4c.4 0 .8.3.9.8v.3c.1.4-.2.7-.5.7l-.1.1zm1.9 10.7H48.8c-.5 0-1-.4-1.1-.9-.1-.4.1-.8.5-.9H76c.5 0 1 .4 1.1.9.1.4-.1.8-.5.9-.1 0-.1.1-.2 0zm.6 3.3H49.4c-.5 0-1-.4-1.1-.9-.1-.4.1-.8.5-.9h27.8c.5 0 1 .4 1.1.9.1.4-.1.8-.5.9H77zm.6 3.2H50c-.5 0-1-.4-1.1-.9-.1-.4.2-.8.6-.9h27.8c.5 0 1 .4 1.1.9.1.4-.2.8-.6.9h-.2zm.8 3.2H60.1c-.4 0-.8-.3-.9-.8l-.1-.3c-.1-.3.1-.7.4-.7H78c.4 0 .8.3.9.8l.1.3c.1.3-.1.7-.4.8-.1-.1-.2-.1-.2-.1zm6.2-57.7h-5.5c-2.2 0-4-1.8-4-4v-5.9c0-2.2 1.8-4 4-4h5.5c2.2 0 4 1.8 4 4v6c-.1 2.1-1.8 3.9-4 3.9zm-5.5-12.9c-1.6 0-2.9 1.3-2.9 2.9v6c0 1.6 1.3 2.9 2.9 2.9h5.5c1.6 0 2.9-1.3 2.9-2.9v-5.9c0-1.6-1.3-2.9-2.9-2.9l-5.5-.1zM86 68.9h-5.5c-2.1 0-3.9-1.7-4-3.8l-.3-5.8c-.1-2.2 1.6-4.1 3.8-4.2h5.7c2.1 0 3.9 1.7 3.9 3.8l.3 5.8c.1 2.2-1.6 4.1-3.8 4.2H86zm-5.7-12.7c-1.6 0-2.9 1.3-2.9 2.9v.1l.3 5.8c.1 1.5 1.3 2.7 2.9 2.7H86c1.6 0 2.9-1.3 2.9-2.9v-.1l-.3-5.7c-.1-1.5-1.3-2.8-2.9-2.7l-5.4-.1zm2 31.7c-2.1 0-3.8-1.6-4-3.7l-.5-5.8c-.2-2.2 1.5-4.1 3.6-4.3h.2l5.5-.2c2.1-.1 3.9 1.5 4.1 3.6l.5 5.8c.2 2.2-1.5 4.1-3.7 4.3h-.2l-5.5.2v.1zm5-12.9h-.1l-5.5.2c-1.6.1-2.8 1.4-2.8 3v.1l.5 5.8c.1 1.5 1.4 2.7 3 2.6l5.5-.2c1.6-.1 2.8-1.4 2.8-3v-.1l-.5-5.8c-.2-1.5-1.4-2.6-2.9-2.6zm-.7 32.2c-2 0-3.6-1.4-3.9-3.3l-.9-5.7c-.4-2.2 1.1-4.2 3.3-4.6h.5l5.4-.2c2-.1 3.7 1.4 4.1 3.3l.9 5.7c.4 2.2-1.1 4.2-3.3 4.6h-.5l-5.4.2h-.2zm4.5-12.8H91l-5.4.2c-1.6.1-2.8 1.4-2.8 3v.4l.9 5.7c.2 1.4 1.5 2.5 2.9 2.4l5.4-.2c1.6-.1 2.8-1.4 2.8-3v-.4l-.8-5.6c-.3-1.4-1.5-2.5-2.9-2.5zM52.3 21.2H79c1.1 0 1.9.9 1.9 1.9v3c0 1.1-.9 1.9-1.9 1.9H52.3c-1.1 0-1.9-.9-1.9-1.9v-3c0-1 .9-1.9 1.9-1.9z"/><linearGradient id="SVGID_15_" gradientUnits="userSpaceOnUse" x1="65.772" y1="111.594" x2="65.565" y2="121.681" gradientTransform="matrix(1 0 0 -1 0 140.762)"><stop offset="0" stop-color="#fff" stop-opacity="0"/><stop offset=".14" stop-color="#fff" stop-opacity=".22"/><stop offset=".3" stop-color="#fff" stop-opacity=".45"/><stop offset=".45" stop-color="#fff" stop-opacity=".65"/><stop offset=".6" stop-color="#fff" stop-opacity=".8"/><stop offset=".73" stop-color="#fff" stop-opacity=".91"/><stop offset=".85" stop-color="#fff" stop-opacity=".98"/><stop offset=".94" stop-color="#fff"/></linearGradient><path d="M52.3 21.2H79c1.1 0 1.9.9 1.9 1.9v3c0 1.1-.9 1.9-1.9 1.9H52.3c-1.1 0-1.9-.9-1.9-1.9v-3c0-1 .9-1.9 1.9-1.9z" fill="url(#SVGID_15_)"/><path class="st7" d="M82 46l-4.8-4.8c-.6-.6-.6-1.7 0-2.3.6-.6 1.7-.6 2.3 0l2.3 2.3 7.7-8.9c.6-.7 1.6-.8 2.3-.2.7.6.8 1.6.2 2.3L82 46zm2.3 19.9l-4.8-4.8c-.6-.6-.6-1.7 0-2.3.6-.6 1.7-.6 2.3 0l2.3 2.3 7.7-8.9c.6-.7 1.6-.8 2.3-.2.7.6.8 1.6.2 2.3l-10 11.6zM85.9 85l-4.8-4.8c-.6-.6-.6-1.7 0-2.3.6-.6 1.7-.6 2.3 0l2.3 2.3 7.7-8.9c.6-.7 1.6-.8 2.3-.2.7.6.8 1.6.2 2.3L85.9 85zm4.3 19.1l-4.8-4.8c-.6-.6-.6-1.7 0-2.3s1.7-.6 2.3 0l2.3 2.3 7.7-8.9c.6-.7 1.6-.8 2.3-.2.7.6.8 1.6.2 2.3l-10 11.6zm30.4 11.9h9.1v2h-9.1z"/><linearGradient id="SVGID_16_" gradientUnits="userSpaceOnUse" x1="125.041" y1="26.275" x2="125.66" y2="9.188" gradientTransform="matrix(1 0 0 -1 0 140.762)"><stop offset="0" stop-color="#010101" stop-opacity="0"/><stop offset=".95" stop-color="#010101"/></linearGradient><path fill="url(#SVGID_16_)" d="M120.6 116h9.1v2h-9.1z"/><path class="st7" d="M129.8 118.1v6.8c0 .9-.7 1.6-1.6 1.6h-6c-.9 0-1.6-.7-1.6-1.6v-6.8h9.2z"/><linearGradient id="SVGID_17_" gradientUnits="userSpaceOnUse" x1="127.404" y1="-10.883" x2="127.509" y2="11.251" gradientTransform="matrix(1 0 0 -1 -2.28 114.392)"><stop offset="0" stop-color="#010101" stop-opacity="0"/><stop offset=".95" stop-color="#010101"/></linearGradient><path d="M129.8 118.1v6.8c0 .9-.7 1.6-1.6 1.6h-6c-.9 0-1.6-.7-1.6-1.6v-6.8h9.2z" fill="url(#SVGID_17_)"/></svg>