<svg id="Layer_1" xmlns="http://www.w3.org/2000/svg" viewBox="0 0 160.3 150"><style>.st1{fill:#72b2fc}.st4{fill:#606161}.st8{fill:#f5e0cd}.st19{fill:none;stroke:#fff;stroke-width:1.77;stroke-miterlimit:10}</style><path d="M5.1 98.5C2.7 94.1.5 89.3.1 84.3c-1.2-14 10.6-25.4 16.1-38.4 2.3-5.3 3.5-11.1 5.8-16.4C28.9 13.7 45.4 3.5 62.4.6c4.6-.8 9.5-1.1 13.8.8 5.3 2.3 8.6 7.5 13.1 11 13.5 10.6 33.6 4.9 49.8 10.4 13 4.4 23.3 18 20.8 31.5-2.4 13.3-15.7 23-16.6 36.5-.4 6.1 1.8 12 2.3 18.1.9 12.1-5.9 24.3-16.6 30-5.4 2.8-11.4 4-17.4 5.2-10.4 2-22.3 6.3-33 5.8-9.9-.5-20.6-5-29.3-9.4-18-8.9-35.1-23.8-44.2-42z" fill="#fff"/><path class="st1" d="M78.9 141.9c-.5.3-.9.8-1.2 1.3-.3.5-.2 1.2.1 1.6.4.4 1.1.4 1.7.4 2.3-.2 4.6-.8 6.7-1.6.6-.3 1.3-.6 1.7-1.2.2-.4.3-.8.3-1.2l.1-1.9c0-.4 0-1-.5-1.2h-.3c-1.4.1-3.4-.2-4.7.5-1.3.8-2.6 2.3-3.9 3.3zm25.1 1.4c.4.4.8.9 1 1.4.2.6.1 1.2-.3 1.6-.5.4-1.2.3-1.8.1-2.3-.5-4.4-1.4-6.5-2.5-.6-.3-1.3-.8-1.5-1.4-.1-.4-.1-.8-.1-1.3l.1-1.9c0-.4.2-1 .6-1.1h.3c1.4.3 3.4.3 4.5 1.1 1.5 1.1 2.6 2.8 3.7 4z"/><linearGradient id="SVGID_1_" gradientUnits="userSpaceOnUse" x1="148.928" y1="-5.038" x2="152.833" y2="17.351" gradientTransform="matrix(1 0 0 -1 -66.87 142.586)"><stop offset="0" stop-color="#010101" stop-opacity="0"/><stop offset=".95" stop-color="#010101"/></linearGradient><path d="M78.9 141.9c-.5.3-.9.8-1.2 1.3-.3.5-.2 1.2.1 1.6.4.4 1.1.4 1.7.4 2.3-.2 4.6-.8 6.7-1.6.6-.3 1.3-.6 1.7-1.2.2-.4.3-.8.3-1.2l.1-1.9c0-.4 0-1-.5-1.2h-.3c-1.4.1-3.4-.2-4.7.5-1.3.8-2.6 2.3-3.9 3.3z" fill="url(#SVGID_1_)"/><linearGradient id="SVGID_2_" gradientUnits="userSpaceOnUse" x1="166.257" y1="-6.698" x2="168.164" y2="13.26" gradientTransform="matrix(1 0 0 -1 -66.87 142.586)"><stop offset="0" stop-color="#010101" stop-opacity="0"/><stop offset=".95" stop-color="#010101"/></linearGradient><path d="M104 143.3c.4.4.8.9 1 1.4.2.6.1 1.2-.3 1.6-.5.4-1.2.3-1.8.1-2.3-.5-4.4-1.4-6.5-2.5-.6-.3-1.3-.8-1.5-1.4-.1-.4-.1-.8-.1-1.3l.1-1.9c0-.4.2-1 .6-1.1h.3c1.4.3 3.4.3 4.5 1.1 1.5 1.1 2.6 2.8 3.7 4z" fill="url(#SVGID_2_)"/><path class="st4" d="M81.3 80.3l.9 22.9.9 35.1s1.5 1.1 5.3.2l3.4-36.1 1.7-16.2 4.3 17.7-2.3 34.8s2 1.7 5.5 1.7l6.4-36.5-4.6-26.7-21.5 3.1z"/><linearGradient id="SVGID_3_" gradientUnits="userSpaceOnUse" x1="150.708" y1="22.028" x2="171.647" y2="51.46" gradientTransform="matrix(1 0 0 -1 -66.87 142.586)"><stop offset="0" stop-color="#010101" stop-opacity="0"/><stop offset=".95" stop-color="#010101"/></linearGradient><path d="M81.3 80.3l.9 22.9.9 35.1s1.5.5 5.3.2l3.4-36.1 1.7-16.2 4.3 17.7-2.3 34.8s2 1.7 5.5 1.7l6.4-36.5-4.6-26.7-21.5 3.1z" fill="url(#SVGID_3_)"/><path class="st1" d="M82.7 38.5s-5.7 3.1-6.4 3.8c-.6.6 4.3 36.3 4.6 38 .3 1.7 9.9 1.2 13.9 0 2.7-.8 5.3-1.9 7.8-3.2 0 0-2-37.1-2.9-37.7-.9-.6-9-2.3-9-2.3l-8 1.4z"/><path class="st1" d="M99.8 39.4s1.7.6 2.6 1.7c.9 1.2 7.8 15.1 7 18s-3.8 3.8-4.6 3.2c-.9-.6-2.6-4.6-2.9-5.8-.3-1.2-.9-5-.9-5l-1.2-12.1z"/><path class="st1" d="M108.4 64.6c.4.1.9 0 1.3-.1.4-.2.8-.5 1.2-.8.7-.6 1.3-1.3 1.9-2 .5-.7.8-1.4 1.2-2.1 1-2.4 1.7-4.9 1.9-7.5.1-1.1.1-2.2-.3-3.2-.1-.1-.2-.3-.3-.4-.2-.1-.5-.2-.7-.1-1.2.2-1.9 1.5-2.5 2.5-1.2 2-2.5 3.9-4.1 5.6-.8.8-1.6 1.6-2.2 2.5-.7 1-1.6 2.5-.7 3.7.7 1.1 2 1.8 3.3 1.9z"/><linearGradient id="SVGID_4_" gradientUnits="userSpaceOnUse" x1="173.082" y1="85.629" x2="190.987" y2="87.296" gradientTransform="matrix(1 0 0 -1 -66.87 142.586)"><stop offset="0" stop-color="#010101" stop-opacity="0"/><stop offset=".95" stop-color="#010101"/></linearGradient><path d="M108.4 64.6c.4.1.9 0 1.3-.1.4-.2.8-.5 1.2-.8.7-.6 1.3-1.3 1.9-2 .5-.7.8-1.4 1.2-2.1 1-2.4 1.7-4.9 1.9-7.5.1-1.1.1-2.2-.3-3.2-.1-.1-.2-.3-.3-.4-.2-.1-.5-.2-.7-.1-1.2.2-1.9 1.5-2.5 2.5-1.2 2-2.5 3.9-4.1 5.6-.8.8-1.6 1.6-2.2 2.5-.7 1-1.6 2.5-.7 3.7.7 1.1 2 1.8 3.3 1.9z" fill="url(#SVGID_4_)"/><path class="st1" d="M76.6 42.1s-4 2-4.9 4.9c-.9 2.9-7 17.4-4.9 19.4.2.2.4.5.8.8 1.3 1.5 3.6 1.6 5 .3.5-.4.9-1 1-1.7l3.7-13.1c0-.1 1-8.5-.7-10.6z"/><path class="st1" d="M72.2 67c-.1.2-.2.3-.4.5s-.5.3-.8.4c-.8.4-1.8.6-2.7.4-1.8-.2-3.5-2.2-4.6-4-.2-.3-.2-1-.3-1.4-.1-.3-.1-.6-.1-.9.1-1.8-.1-4.7.1-6.6V55c0-.3.1-.6.3-.6.2 0 .3 0 .5.1 1.7 1 3.6 5.6 4.7 7.3 1 1.5 2.7 2.9 3.2 4.6.2.3.2.5.1.6z"/><linearGradient id="SVGID_5_" gradientUnits="userSpaceOnUse" x1="139.525" y1="79.771" x2="113.395" y2="83.154" gradientTransform="matrix(1 0 0 -1 -66.87 142.586)"><stop offset="0" stop-color="#010101" stop-opacity="0"/><stop offset=".95" stop-color="#010101"/></linearGradient><path d="M71.1 67.8v.1c-.8.4-1.8.6-2.7.4-1.8-.2-3.5-2.2-4.6-4-.2-.3-.2-1-.3-1.4-.1-.3-.1-.6-.1-.9.1-1.8-.1-4.7.1-6.6 1.6 1.3 3.4 5.5 4.4 7.1 1 1.5 2.7 2.9 3.2 4.6.1.3.1.5 0 .7z" fill="url(#SVGID_5_)"/><path class="st8" d="M82.1 35s.9 3.8.6 5.2c-.3 1.5 2 5.5 4.9 5.5s2.9-4.9 2.9-5.5c0-.6-1.2-1.8-.9-3.2.3-1.4-7.2-3.7-7.5-2z"/><linearGradient id="SVGID_6_" gradientUnits="userSpaceOnUse" x1="152.273" y1="102.019" x2="154.746" y2="113.226" gradientTransform="matrix(1 0 0 -1 -66.87 142.586)"><stop offset="0" stop-color="#010101" stop-opacity="0"/><stop offset=".95" stop-color="#010101"/></linearGradient><path d="M83.8 39.5c.3.4.6.8 1 1.1.7.5 1.5.8 2.4.7.6 0 1.2-.2 1.7-.6.3-.4.5-.8.5-1.2.1-.8.2-1.5.2-2.3 0-.3-.1-.8-.5-.9-.2-.1-.4-.1-.7 0-1.3.2-2.6.3-3.9.2-.9-.1-2.1-.3-1.9.7.2.8.6 1.6 1.2 2.3z" fill="url(#SVGID_6_)"/><path d="M82.8 39.7s2.3 5.5 4.3 6.1c0 0 .5.3-.9 1.2-1.5.9-5.5-3.5-4.9-6.7.1-.8.7-1.5 1.4-1.9l.1 1.3zm6.7-2.1s1.1 4.9-.5 7.7c0 0 .7 1 1.3 1s2-3.5 1.4-6.1c-.3-1.5-1.9-3-2.2-2.6z" fill="#fff"/><path class="st8" d="M90.5 26.1s.6 7.5 0 9.6-2.3 3.8-4.1 3.8-4.4-1.5-5.5-4.1c-1.2-2.6-1.7-9-1.5-9.9.3-.9 2-3.6 6.7-3.2 3.3.3 4.4 2.6 4.4 3.8z"/><path class="st8" d="M91.7 30.7c0 .2-.1.4-.2.6 0 .2-.1.3-.2.4-.1.1-.3.2-.5.3h-.3c-.6-.2-.5-1.6-.2-2 .2-.2.7-.7 1-.6.4.2.4 1 .4 1.3zm-11.9.7c-.1-.1-.2-.1-.3-.1-.1 0-.2 0-.2.1-.2.1-.3.3-.3.6 0 .2 0 .5.1.7.1.5.4 1 .8 1.3.1.1.2.1.3 0 0 0 .1-.1.1-.2.2-.4.3-.9.3-1.3 0-.5-.5-.9-.8-1.1z"/><path class="st1" d="M112.3 4.3H63.6c-1.9 0-3.5 1.6-3.5 3.5v90.1c0 1.9 1.6 3.5 3.5 3.5h48.7c1.9 0 3.5-1.6 3.5-3.5V7.8c.1-1.9-1.5-3.5-3.5-3.5.1 0 .1 0 0 0zM111 90.5H64.3V8.3H111v82.2z"/><linearGradient id="SVGID_7_" gradientUnits="userSpaceOnUse" x1="90.572" y1="72.187" x2="88.979" y2="12.549" gradientTransform="matrix(1 0 0 -1 0 150.556)"><stop offset="0" stop-color="#010101" stop-opacity="0"/><stop offset=".95" stop-color="#010101"/></linearGradient><circle cx="90.1" cy="95.5" r="3.4" fill="url(#SVGID_7_)"/><path d="M83.9 38.4c.2.4.4.8.8 1.1.5.4 1.1.6 1.7.5.3 0 .7-.1 1-.3l.5-.5c.6-.7 1.1-1.6 1.5-2.4.2-.3.2-.7.2-1.1 0-.4-.2-.7-.5-1-.3-.2-.6-.2-.9-.2-.9-.1-1.8-.1-2.7 0-.8.1-2.2.4-2.6 1.2-.3.6.6 2 1 2.7z" fill="none"/><path class="st8" d="M60 46.7c1.3-.1 2.6.1 3.9.4.3.1.5.2.7.3.2.1.4.4.4.7 0 .4-.3.7-.6.9.3.2.5.4.7.7.1.3 0 .7-.3.9-.1 0-.2.1-.2.2s.1.2.1.2c.3.4.3 1 0 1.3-.1.1-.3.2-.4.2.3 0 .4.2.4.5v.1c-.1.3-.3.5-.5.5-.3.1-.5.1-.8.1-.9 0-1.9-.1-2.7.3-.3.2-.6.3-1 .3-.3-.1-.6-.3-.7-.5-.1-.3-.2-.6-.2-.9-.1-1.3.3-2.7.1-4-.3-1.3-.2-2.2 1.1-2.2zm52.9-4c-.7.1-1.5.2-2.1.7-.6.5-.9 1.4-.5 2 .1.2.3.4.3.6 0 .2-.1.3-.2.5-.3.7-.2 1.6.2 2.2-.3.7-.4 1.7.2 2.2.5.4 1.3.3 1.9.1l1.7-.4c.4-.1.7-.2 1-.5.1-.2.2-.4.2-.5.5-1.8.8-3.9.5-5.7-.2-2-1.7-1.5-3.2-1.2z"/><path class="st4" d="M81 19.7c1.2-1.1 2.8-1.9 3.7-3.3l.2 1.5 1.7-1.4c-.1.4 0 .7.1 1 .2-.4.5-.7.9-.9 0 .4.1.9.2 1.3.4-.4.8-.9 1.1-1.4-.1.4-.1.9.1 1.3.4-.2.6-.5.7-.9.5 1.6 1.4 3.1 1.7 4.8.3 1.3.2 2.7.2 4.1-.1 1.5-.4 2.9-1.1 4.2-.4-1.3-.6-2.3-1.1-3.5-.2-.6-.6-1.2-1-1.7-1-1-2.7-1-4.2-.9-1.3.1-2.8.3-3.7 1.3-.7.8-.9 2-.8 3.1.1 1.1.3 2.2.2 3.3-.9-1.1-1.9-2.3-2.2-3.8-.2-.7-.1-1.5.1-2.2.3-.7 1-1.1 1.2-1.7.3-.6 0-1.4.2-2.1.6-.8 1.1-1.5 1.8-2.1z"/><linearGradient id="SVGID_8_" gradientUnits="userSpaceOnUse" x1="144.649" y1="118.587" x2="158.685" y2="118.587" gradientTransform="matrix(1 0 0 -1 -66.87 142.586)"><stop offset="0" stop-color="#010101" stop-opacity="0"/><stop offset=".95" stop-color="#010101"/></linearGradient><path d="M81 19.7c1.2-1.1 2.8-1.9 3.7-3.3l.2 1.5 1.7-1.4c-.1.4 0 .7.1 1 .2-.4.5-.7.9-.9 0 .4.1.9.2 1.3.4-.4.8-.9 1.1-1.4-.1.4-.1.9.1 1.3.4-.2.6-.5.7-.9.5 1.6 1.4 3.1 1.7 4.8.3 1.3.2 2.7.2 4.1-.1 1.5-.4 2.9-1.1 4.2-.4-1.3-.6-2.3-1.1-3.5-.2-.6-.6-1.2-1-1.7-1-1-2.7-1-4.2-.9-1.3.1-2.8.3-3.7 1.3-.7.8-.9 2-.8 3.1.1 1.1.3 2.2.2 3.3-.9-1.1-1.9-2.3-2.2-3.8-.2-.7-.1-1.5.1-2.2.3-.7 1-1.1 1.2-1.7.3-.6 0-1.4.2-2.1.6-.8 1.1-1.5 1.8-2.1z" fill="url(#SVGID_8_)"/><path class="st1" d="M104.3 33h9.3c2.4 0 4.4 2 4.4 4.4v4.9c0 2.4-2 4.4-4.4 4.4h-9.3c-2.4 0-4.4-2-4.4-4.4v-4.9c-.1-2.5 1.9-4.4 4.4-4.4z"/><linearGradient id="SVGID_9_" gradientUnits="userSpaceOnUse" x1="108.863" y1="122.057" x2="109.159" y2="64.279" gradientTransform="matrix(1 0 0 -1 0 150.556)"><stop offset="0" stop-color="#010101" stop-opacity="0"/><stop offset=".95" stop-color="#010101"/></linearGradient><path d="M104.3 33h9.3c2.4 0 4.4 2 4.4 4.4v4.9c0 2.4-2 4.4-4.4 4.4h-9.3c-2.4 0-4.4-2-4.4-4.4v-4.9c-.1-2.5 1.9-4.4 4.4-4.4z" fill="url(#SVGID_9_)"/><path class="st1" d="M107.3 36.7l5 3.1-5 3.1zm27.9 24.2v7.5c0 1.7-1.4 3.1-3.1 3.1h-.6v3.3l-1.7-3.3h-12.9c-1.7 0-3.1-1.4-3.1-3.1v-7.5c0-1.7 1.4-3.1 3.1-3.1h15.2c1.7 0 3.1 1.4 3.1 3.1z"/><linearGradient id="SVGID_10_" gradientUnits="userSpaceOnUse" x1="190.676" y1="62.304" x2="192.662" y2="109.953" gradientTransform="matrix(1 0 0 -1 -66.87 142.586)"><stop offset="0" stop-color="#fff" stop-opacity="0"/><stop offset=".95" stop-color="#fff"/></linearGradient><path d="M135.2 60.9v7.5c0 1.7-1.4 3.1-3.1 3.1h-.6v3.3l-1.7-3.3h-12.9c-1.7 0-3.1-1.4-3.1-3.1v-7.5c0-1.7 1.4-3.1 3.1-3.1h15.2c1.7 0 3.1 1.4 3.1 3.1z" fill="url(#SVGID_10_)"/><path class="st1" d="M116.4 60.5h16v.9h-16zm0 2.3h16v.9h-16zm0 2.4h16v.9h-16zM50.8 83.4c0 4.4-4.6 8-10.3 8-1 0-1.9-.1-2.8-.3l-4.5 2.3 1.8-3.3c-2.9-1.4-4.8-3.9-4.8-6.8 0-4.4 4.6-8 10.3-8s10.3 3.6 10.3 8.1z"/><linearGradient id="SVGID_11_" gradientUnits="userSpaceOnUse" x1="106.9" y1="66.057" x2="108.835" y2="35.381" gradientTransform="matrix(1 0 0 -1 -66.87 142.586)"><stop offset="0" stop-color="#fff" stop-opacity="0"/><stop offset=".95" stop-color="#fff"/></linearGradient><path d="M50.8 83.4c0 4.4-4.6 8-10.3 8-1 0-1.9-.1-2.8-.3l-4.5 2.3 1.8-3.3c-2.9-1.4-4.8-3.9-4.8-6.8 0-4.4 4.6-8 10.3-8s10.3 3.6 10.3 8.1z" fill="url(#SVGID_11_)"/><path class="st1" d="M119.2 83.7s-2.4-3.1-4.6-.1c-2.2 3 5.1 6.6 5.1 6.6s5.2-3.7 4.6-6c-.6-2.3-3.9-2.8-5.1-.5zM39.6 53.4s-2.4-3.1-4.6-.1c-2.2 3 5.1 6.6 5.1 6.6s5.2-3.7 4.6-6c-.7-2.3-3.9-2.9-5.1-.5z"/><linearGradient id="SVGID_12_" gradientUnits="userSpaceOnUse" x1="105.567" y1="93.989" x2="108.546" y2="75.424" gradientTransform="matrix(1 0 0 -1 -66.87 142.586)"><stop offset="0" stop-color="#fff" stop-opacity="0"/><stop offset=".95" stop-color="#fff"/></linearGradient><path d="M39.6 53.4s-2.4-3.1-4.6-.1c-2.2 3 5.1 6.6 5.1 6.6s5.2-3.7 4.6-6c-.7-2.3-3.9-2.9-5.1-.5z" fill="url(#SVGID_12_)"/><path class="st1" d="M45.5 31.8h7.1c1.6 0 3 1.3 3 3v5.7c0 1.6-1.3 3-3 3h-7.1c-1.6 0-3-1.3-3-3v-5.7c0-1.7 1.3-3 3-3z"/><path class="st19" d="M46.9 33.9h4.4c.9 0 1.6.7 1.6 1.6v4.4c0 .9-.7 1.6-1.6 1.6h-4.4c-.9 0-1.6-.7-1.6-1.6v-4.4c0-.9.7-1.6 1.6-1.6z"/><circle class="st19" cx="49.1" cy="37.3" r="1.4"/><circle cx="51.3" cy="35.5" r=".5" fill="none" stroke="#fff" stroke-width=".88" stroke-miterlimit="10"/><path class="st1" d="M70.6 16.8s2.6 4.6 6.9 4.1 4.6-4.1 4.6-4.1h1.6l-1.3-1s-.4-1.6-1.6-1.2c-1.2.4-2.8 1.9-2.8 1.9l-4.8-4.3c-.3.6-.3 1.4.1 2 0 0-.6.9.1 1.5 0 0 0 .9.7 1.3 0-.1-1.7 1.3-3.5-.2z"/></svg>