<svg id="Layer_1" xmlns="http://www.w3.org/2000/svg" xmlns:xlink="http://www.w3.org/1999/xlink" viewBox="0 0 178.9 150"><style>.st1{fill:#fdcd01}.st4{fill:#72b2fc}.st7{fill:#606161}.st19{fill:#c58067}</style><path d="M58.1 22.7c-9.4 1.7-18.4 5.5-27.4 9.3-6.8 3-13.7 6-19.4 11.8S1.6 58.9 2.7 68.2c.8 6.7 4.3 12.7 4.9 19.5C8.7 100.3-.1 111.3 0 124c.1 12 8.5 21.6 17.3 24.6s18.2.8 27.3-1c27.8-5.5 55.9-7.5 84-5.9 7.5.4 15.1 1.1 22.6.7 5.7-.3 11.8-1.4 16-6.5 5.7-6.9 6-19 2.8-28.3s-8.9-16.6-14.2-24c-5.3-7.4-10.5-15.7-12-25.7-1-6.6-.3-13.4-1-20-1.5-13.6-9-25.3-18.5-31.2-8.6-5.4-24.4-9.1-33.9-5-5 2.3-7.8 8-11.7 12.3-6.1 6.7-13 7.4-20.6 8.7z" fill="#fff"/><circle class="st1" cx="139" cy="89.6" r="23.2"/><linearGradient id="SVGID_1_" gradientUnits="userSpaceOnUse" x1="113.817" y1="62.082" x2="191.723" y2="-102.266" gradientTransform="matrix(1 0 0 -1 0 98.903)"><stop offset="0" stop-color="#fff" stop-opacity="0"/><stop offset=".95" stop-color="#fff"/></linearGradient><circle cx="138.8" cy="89.5" r="19.6" fill="url(#SVGID_1_)"/><linearGradient id="SVGID_2_" gradientUnits="userSpaceOnUse" x1="114.673" y1="51.869" x2="205.023" y2="-138.73" gradientTransform="matrix(1 0 0 -1 -2.83 79.733)"><stop offset="0" stop-color="#fff" stop-opacity="0"/><stop offset=".95" stop-color="#fff"/></linearGradient><path d="M123 73.1l27.6 36.4s5-2.8 6.9-7.1l-26.3-34" fill="url(#SVGID_2_)"/><path class="st4" d="M118.1 107.2L29 131.7c-4.1 1.1-8.5-1.8-9.8-6.6L.7 57.2c-1.3-4.8 1-9.5 5.1-10.6l89-24.5c4.1-1.1 8.5 1.8 9.8 6.6l18.6 67.9c1.3 4.7-1 9.5-5.1 10.6z"/><linearGradient id="SVGID_3_" gradientUnits="userSpaceOnUse" x1="30.267" y1="43.48" x2="155.852" y2="-67.412" gradientTransform="matrix(1 0 -.28 -1.01 -13.814 79.317)"><stop offset="0" stop-color="#010101" stop-opacity="0"/><stop offset=".95" stop-color="#010101"/></linearGradient><path d="M118.4 107.1l-89.1 24.5c-4.1 1.1-8.5-1.8-9.8-6.6L1 57.2c-1.3-4.8 1-9.5 5.1-10.6l89.1-24.5c4.1-1.1 8.5 1.8 9.8 6.6l18.6 67.9c1.2 4.6-1.1 9.4-5.2 10.5z" fill="url(#SVGID_3_)"/><path class="st4" d="M120.4 107.8l-89 24.5c-4.1 1.1-8.5-1.8-9.8-6.6L3 57.8c-1.4-4.8.9-9.5 5-10.6l89.1-24.5c4.1-1.1 8.5 1.8 9.8 6.6l18.6 67.9c1.2 4.7-1 9.4-5.1 10.6z"/><linearGradient id="SVGID_4_" gradientUnits="userSpaceOnUse" x1="37.199" y1="40.398" x2="154.191" y2="-62.908" gradientTransform="matrix(.9946 -.00288 -.2774 -1.0127 -15.645 79.124)"><stop offset="0" stop-color="#010101" stop-opacity="0"/><stop offset=".95" stop-color="#010101"/></linearGradient><path fill="url(#SVGID_4_)" d="M6.6 54.2L102.3 28l19.6 71.8L26.3 126z"/><path class="st7" d="M110.3 62.1c.2.4.3 1 .4 1.4.1.4.3.9.5 1.3.6 1.6.7 3.4 1.7 4.7.4.5.9 1 1.4 1.3.1.1.3.2.3.4v.3c0 .8-.1 1.6-.4 2.4 1.2-.6 2.5-1 3.5-1.8 1.1-.8 1.8-2.2 1.6-3.5-.4-1.9-2.8-2.8-3.3-4.8-.2-.8 0-1.6-.1-2.3-.2-.7-.6-1.3-1.3-1.7-.3-.2-.6-.3-.9-.4-.5-.3-.9-.7-1.2-1.2-.2-.3-.4-.7-.8-.9-1-.6-3.1 0-3.5 1.1-.2.7 0 1.5.5 2 .5.8 1.2 1.1 1.6 1.7z"/><linearGradient id="SVGID_5_" gradientUnits="userSpaceOnUse" x1="118.805" y1="16.955" x2="113.374" y2="12.387" gradientTransform="matrix(1 0 0 -1 -2.83 79.733)"><stop offset="0" stop-color="#010101" stop-opacity="0"/><stop offset=".95" stop-color="#010101"/></linearGradient><path d="M110.3 62.1c.2.4.3 1 .4 1.4.1.4.3.9.5 1.3.6 1.6.7 3.4 1.7 4.7.4.5.9 1 1.4 1.3.1.1.3.2.3.4v.3c0 .8-.1 1.6-.4 2.4 1.2-.6 2.5-1 3.5-1.8 1.1-.8 1.8-2.2 1.6-3.5-.4-1.9-2.8-2.8-3.3-4.8-.2-.8 0-1.6-.1-2.3-.2-.7-.6-1.3-1.3-1.7-.3-.2-.6-.3-.9-.4-.5-.3-.9-.7-1.2-1.2-.2-.3-.4-.7-.8-.9-1-.6-3.1 0-3.5 1.1-.2.7 0 1.5.5 2 .5.8 1.2 1.1 1.6 1.7z" fill="url(#SVGID_5_)"/><path class="st1" d="M178.1 122.9c-.6 4.1-12.4 7.2-26.3 7.1-13.9-.1-24.7-3.5-24.1-7.6.1-.5.3-2.5.7-4.6 0-.3.1-.5.1-.8.8-2.1 4.6-4 10.1-5.1 4.4 1.3 9.7 3.4 15.3 3.4 5.5.1 11.3-1.9 15.9-3.2 5.3 1.3 8.8 3.2 8.9 5.4 0 .3-.1.6-.1.9-.1 2.1-.4 4-.5 4.5z"/><linearGradient id="SVGID_6_" gradientUnits="userSpaceOnUse" x1="167.479" y1="-51.713" x2="166.104" y2="-22.131" gradientTransform="matrix(.9 .03 .14 -.99 8.838 73.63)"><stop offset="0" stop-color="#010101" stop-opacity="0"/><stop offset=".95" stop-color="#010101"/></linearGradient><path d="M178.1 122.9c-.6 4.1-12.4 7.2-26.3 7.1-13.9-.1-24.7-3.5-24.1-7.6.1-.5.3-2.5.7-4.6 0-.3.1-.5.1-.8.8-2.1 4.6-4 10.1-5.1 4.4 1.3 9.7 3.4 15.3 3.4 5.5.1 11.3-1.9 15.9-3.2 5.3 1.3 8.8 3.2 8.9 5.4 0 .3-.1.6-.1.9-.1 2.1-.4 4-.5 4.5z" fill="url(#SVGID_6_)"/><path class="st1" d="M178.9 118c0 .1 0 .2-.1.4-1.2 3.9-12.7 6.8-26.2 6.7-13.6-.1-24.2-3.4-24.1-7.3v-.3c0-.2.1-.3.1-.5.8-2.1 4.6-4 10.1-5.1 4.5-1 10.1-1.5 16.1-1.5 5.8.1 11.1.7 15.2 1.7 5.3 1.3 8.8 3.2 8.9 5.4v.5z"/><linearGradient id="SVGID_7_" gradientUnits="userSpaceOnUse" x1="162.181" y1="-13.808" x2="175.973" y2="-89.815" gradientTransform="matrix(.9 .03 .14 -.99 8.838 73.63)"><stop offset="0" stop-color="#fff" stop-opacity="0"/><stop offset=".95" stop-color="#fff"/></linearGradient><path d="M174.1 117.5c0 .1 0 .2-.1.3-1 3.2-10.4 5.6-21.4 5.5-11.1-.1-19.8-2.8-19.8-6v-.2c0-.1.1-.3.1-.4.6-1.7 3.7-3.2 8.3-4.2 3.7-.8 8.2-1.3 13.2-1.2 4.8 0 9.1.6 12.4 1.4 4.4 1.1 7.2 2.7 7.3 4.4v.4z" fill="url(#SVGID_7_)"/><path class="st1" d="M148 120.9c-.6 0-1.1 0-1.7-.1-.5-.1-.9-.1-1.4-.3-.3-.1-.7-.2-1-.3-.4-.2-.8-.4-1.1-.8-.3-.3-.5-.6-.7-.9l-2.4-3.3h.3c.2.2.5.3.7.4.5.2 1 .3 1.6.3h.8c.3 0 .6 0 1-.1.3 0 .6-.1 1-.1l1.1-.1 1.6-.2 1.7-.2 1.7-.2 1.6-.2 1.3-.1 1.3-.2c.5-.1 1-.1 1.6-.2.4 0 .7-.1 1.1-.1.4 0 .7-.1 1-.2s.6-.1.9-.2c.2 0 .3-.1.5-.2s.4-.3.4-.4v-.4h.3l2.4 3.3c.2.2.3.5.4.7.1.2.1.5 0 .7-.1.4-.5.7-1.1 1-.6.3-1.5.5-2.7.6-1.1.1-2.3.1-3.4-.1-.8-.1-1.7-.4-2.4-.9h-.1c.1.2.1.5 0 .7-.1.3-.4.5-.6.7-.4.3-.8.5-1.3.6-.6.2-1.3.3-2 .4-1 .4-1.7.4-2.4.4zm13.5-3.3c.6-.3 1-.5 1.2-.8.2-.3.1-.7-.2-1.2-.1-.1-.2-.3-.3-.4-.1-.1-.2-.2-.3-.2h-.7l-.5.1-.9.1c-.7.1-1.4.2-2.3.2l-2.4.3-1.9.2-.9.1.4.5c.1.1.2.2.3.4.5.6 1.3 1 2.5 1.2 1.2.2 2.5.2 3.7.1.7-.2 1.5-.3 2.3-.6zm-11.1 1.8c.4-.1.8-.2 1.2-.4.3-.1.6-.3.8-.5.2-.1.3-.3.4-.6v-.5c-.1-.2-.2-.3-.3-.5l-.7-.9-1.9.2-1.8.2-1.5.2c-.5.1-.9.1-1.2.1-.7.1-1.3.2-1.8.2-.4 0-.7.1-1.1.3-.2.1-.3.2-.4.3-.1.1 0 .3.1.5l.6.6c.3.3.7.4 1.1.6.7.2 1.4.4 2.2.4.9.1 1.8 0 2.7-.1.6.1 1.1 0 1.6-.1z"/><path class="st1" d="M162.3 115.4l-.4-.6 4.2-.4.4.5zm.9 1.2l-.4-.6 4.2-.4.4.6zm-25.7 1.6l-.5-.6 4.2-.4.5.6zm.9 1.2l-.5-.5 4.2-.5.4.6z"/><linearGradient id="SVGID_8_" gradientUnits="userSpaceOnUse" x1="170.781" y1="-27.487" x2="163.822" y2="-64.061" gradientTransform="matrix(.9 .03 .14 -.99 8.838 73.63)"><stop offset="0" stop-color="#fff" stop-opacity="0"/><stop offset=".95" stop-color="#fff"/></linearGradient><path d="M134.8 113l31.5 10.8s7.4-.9 9.3-3l-31.1-10c.1 0-8.8 1.5-9.7 2.2z" fill="url(#SVGID_8_)"/><path class="st1" d="M177.4 115.5c-.6 4.1-12.4 7.2-26.3 7.1-13.9-.1-24.7-3.5-24.1-7.6.1-.5.3-2.5.7-4.6 0-.3.1-.5.1-.8.8-2.1 4.6-4 10.1-5.1 4.4 1.3 9.7 3.4 15.3 3.4 5.5.1 11.3-1.9 15.9-3.2 5.3 1.3 8.8 3.2 8.9 5.4 0 .3-.1.6-.1.9-.1 2.1-.4 4-.5 4.5z"/><linearGradient id="SVGID_9_" gradientUnits="userSpaceOnUse" x1="165.54" y1="-44.309" x2="164.167" y2="-14.727" gradientTransform="matrix(.9 .03 .14 -.99 8.838 73.63)"><stop offset="0" stop-color="#010101" stop-opacity="0"/><stop offset=".95" stop-color="#010101"/></linearGradient><path d="M177.4 115.5c-.6 4.1-12.4 7.2-26.3 7.1-13.9-.1-24.7-3.5-24.1-7.6.1-.5.3-2.5.7-4.6 0-.3.1-.5.1-.8.8-2.1 4.6-4 10.1-5.1 4.4 1.3 9.7 3.4 15.3 3.4 5.5.1 11.3-1.9 15.9-3.2 5.3 1.3 8.8 3.2 8.9 5.4 0 .3-.1.6-.1.9-.1 2.1-.4 4-.5 4.5z" fill="url(#SVGID_9_)"/><path class="st1" d="M178.2 110.6c0 .1 0 .2-.1.4-1.2 3.9-12.7 6.8-26.2 6.7-13.6-.1-24.2-3.4-24.1-7.3v-.3c0-.2.1-.3.1-.5.8-2.1 4.6-4 10.1-5.1 4.5-1 10.1-1.5 16.1-1.5 5.8.1 11.1.7 15.2 1.7 5.3 1.3 8.8 3.2 8.9 5.4v.5z"/><linearGradient id="SVGID_10_" gradientUnits="userSpaceOnUse" x1="160.248" y1="-6.402" x2="174.04" y2="-82.406" gradientTransform="matrix(.9 .03 .14 -.99 8.838 73.63)"><stop offset="0" stop-color="#fff" stop-opacity="0"/><stop offset=".95" stop-color="#fff"/></linearGradient><path d="M173.4 110.1c0 .1 0 .2-.1.3-1 3.2-10.4 5.6-21.4 5.5-11.1-.1-19.8-2.8-19.8-6v-.2c0-.1.1-.3.1-.4.6-1.7 3.7-3.2 8.3-4.2 3.7-.8 8.2-1.3 13.1-1.2 4.8 0 9.1.6 12.5 1.4 4.4 1.1 7.2 2.7 7.3 4.4v.4z" fill="url(#SVGID_10_)"/><path class="st1" d="M147.3 113.5c-.6 0-1.1 0-1.7-.1-.5-.1-.9-.1-1.4-.3-.3-.1-.7-.2-1-.3-.4-.2-.8-.4-1.1-.8-.3-.3-.5-.6-.7-.9l-2.4-3.3h.3c.2.2.5.3.7.4.3.1.7.2 1 .3h1.4c.3 0 .6 0 .9-.1.3 0 .6-.1 1-.1l1.1-.1 1.6-.2 1.7-.2 1.7-.2 1.6-.2 1.3-.1 1.3-.2 1.6-.2c.4 0 .7-.1 1.1-.1.4 0 .7-.1 1-.2s.6-.1.9-.2c.2 0 .3-.1.5-.2s.4-.3.4-.4v-.4h.3l2.4 3.3c.2.2.3.5.4.7.1.2.1.5 0 .7-.1.4-.5.7-1.1 1-.6.3-1.5.5-2.7.6-1.1.1-2.3.1-3.4-.1-.8-.1-1.7-.4-2.4-.9h-.1c.1.2.1.5 0 .7-.1.3-.4.6-.6.7-.4.3-.8.5-1.3.6-.6.2-1.3.3-2 .4-.9.4-1.6.4-2.3.4zm13.5-3.3c.6-.2 1-.5 1.2-.8.2-.3.1-.7-.2-1.2-.1-.1-.2-.3-.3-.4-.1-.1-.2-.2-.3-.2h-.7l-.6.1-.9.1c-.7.1-1.4.2-2.3.2l-2.4.3-1.9.2-.9.1.4.5c.1.1.2.2.3.4.5.6 1.3 1 2.5 1.2 1.2.2 2.5.2 3.7.1.8-.1 1.6-.3 2.4-.6zm-11.1 1.8c.4-.1.8-.2 1.2-.4.3-.1.6-.3.8-.5.2-.1.3-.3.4-.6v-.5c-.1-.2-.2-.3-.3-.5l-.7-.9-1.9.2-1.8.2-1.5.2c-.5.1-.9.1-1.2.1-.7.1-1.3.2-1.8.2-.4 0-.7.1-1.1.3-.2.1-.3.2-.4.3-.1.1 0 .3.1.5l.6.6c.3.3.7.4 1.1.6.7.2 1.4.4 2.2.4.9.1 1.8 0 2.7-.1.6.1 1.1 0 1.6-.1z"/><path class="st1" d="M161.6 108l-.4-.6 4.2-.4.4.6zm.9 1.2l-.4-.5 4.2-.5.4.6zm-25.7 1.6l-.5-.5 4.2-.5.5.6zm.8 1.3l-.4-.6 4.2-.5.4.6z"/><linearGradient id="SVGID_11_" gradientUnits="userSpaceOnUse" x1="168.856" y1="-20.09" x2="161.897" y2="-56.667" gradientTransform="matrix(.9 .03 .14 -.99 8.838 73.63)"><stop offset="0" stop-color="#fff" stop-opacity="0"/><stop offset=".95" stop-color="#fff"/></linearGradient><path d="M134.1 105.6l31.5 10.8s7.4-.9 9.3-3l-31.1-9.9c.1-.1-8.8 1.4-9.7 2.1z" fill="url(#SVGID_11_)"/><path class="st1" d="M171.2 113c-.6 4-12.4 7.2-26.3 7.1-13.9-.1-24.7-3.5-24.1-7.6.1-.5.3-2.5.7-4.6 0-.3.1-.5.1-.8.8-2.1 4.6-4 10.1-5.2 4.4 1.3 9.7 3.4 15.3 3.4 5.5.1 11.3-1.9 15.9-3.2 5.3 1.3 8.8 3.2 8.9 5.4 0 .3-.1.6-.1.9-.1 2.2-.4 4.1-.5 4.6z"/><linearGradient id="SVGID_12_" gradientUnits="userSpaceOnUse" x1="158.297" y1="-42.015" x2="156.922" y2="-12.433" gradientTransform="matrix(.9 .03 .14 -.99 8.838 73.63)"><stop offset="0" stop-color="#010101" stop-opacity="0"/><stop offset=".95" stop-color="#010101"/></linearGradient><path d="M171.2 113c-.6 4-12.4 7.2-26.3 7.1-13.9-.1-24.7-3.5-24.1-7.6.1-.5.3-2.5.7-4.6 0-.3.1-.5.1-.8.8-2.1 4.6-4 10.1-5.2 4.4 1.3 9.7 3.4 15.3 3.4 5.5.1 11.3-1.9 15.9-3.2 5.3 1.3 8.8 3.2 8.9 5.4 0 .3-.1.6-.1.9-.1 2.2-.4 4.1-.5 4.6z" fill="url(#SVGID_12_)"/><path class="st1" d="M172 108.1c0 .1 0 .2-.1.4-1.2 3.9-12.7 6.8-26.2 6.7-13.6-.1-24.2-3.4-24.1-7.3v-.3c0-.2.1-.3.1-.5.8-2.1 4.6-4 10.1-5.2 4.5-1 10.1-1.5 16.1-1.5 5.8.1 11.1.7 15.2 1.7 5.3 1.3 8.8 3.2 8.9 5.4v.6z"/><linearGradient id="SVGID_13_" gradientUnits="userSpaceOnUse" x1="153" y1="-4.112" x2="166.792" y2="-80.116" gradientTransform="matrix(.9 .03 .14 -.99 8.838 73.63)"><stop offset="0" stop-color="#fff" stop-opacity="0"/><stop offset=".95" stop-color="#fff"/></linearGradient><path d="M167.2 107.6c0 .1 0 .2-.1.3-1 3.2-10.4 5.6-21.4 5.5-11.1-.1-19.8-2.8-19.8-6v-.2c0-.1.1-.3.1-.4.6-1.7 3.7-3.2 8.3-4.2 3.7-.8 8.2-1.3 13.1-1.2 4.8 0 9.1.6 12.5 1.4 4.4 1.1 7.2 2.7 7.3 4.4v.4z" fill="url(#SVGID_13_)"/><linearGradient id="SVGID_14_" gradientUnits="userSpaceOnUse" x1="161.602" y1="-17.79" x2="154.646" y2="-54.365" gradientTransform="matrix(.9 .03 .14 -.99 8.838 73.63)"><stop offset="0" stop-color="#fff" stop-opacity="0"/><stop offset=".95" stop-color="#fff"/></linearGradient><path d="M127.9 103.1l31.5 10.8s7.4-.9 9.3-3l-31.1-9.9c.1-.1-8.9 1.4-9.7 2.1z" fill="url(#SVGID_14_)"/><path class="st4" d="M110.8 69.2s-2.1 2.4-2.8 4.3-4.7 8.4-4.7 8.4l-6-1.7c-.7.7-1.1 1.6-1.1 2.6 0 0 6.5 3.7 8 3.5 1.6-.3 5.3-4.7 5.3-4.7"/><linearGradient id="SVGID_15_" gradientUnits="userSpaceOnUse" x1="109.242" y1=".846" x2="113.329" y2="-3.241" gradientTransform="matrix(1 0 0 -1 -2.83 79.733)"><stop offset="0" stop-color="#010101" stop-opacity="0"/><stop offset=".95" stop-color="#010101"/></linearGradient><path d="M110.8 69.2s-2.1 2.4-2.8 4.3-4.7 8.4-4.7 8.4l-6-1.7c-.7.7-1.1 1.6-1.1 2.6 0 0 6.5 3.7 8 3.5 1.6-.3 5.3-4.7 5.3-4.7" fill="url(#SVGID_15_)"/><path class="st19" d="M116.3 130.2l.2 2.7c-.5.3-1 .4-1.6.4-.8-.1-2.5-1.8-2.9-1.7v-.8m-5.4-2.6l.2 2.7c-.5.3-1 .4-1.6.4-.8-.1-2.5-1.8-2.9-1.7v-.8"/><path class="st7" d="M104.2 94.1s-2.9 16.4-2.8 16.7.8 18.3.8 18.3 1.9 1.3 4.5 0l.4-18 2.6-14.3c.1 0-4.2-3.2-5.5-2.7z"/><linearGradient id="SVGID_16_" gradientUnits="userSpaceOnUse" x1="112.534" y1="-32.824" x2="104.477" y2="-31.756" gradientTransform="matrix(1 0 0 -1 -2.83 79.733)"><stop offset="0" stop-color="#010101" stop-opacity="0"/><stop offset=".95" stop-color="#010101"/></linearGradient><path d="M104.2 94.1s-2.9 16.4-2.8 16.7.8 18.3.8 18.3 1.9 1.3 4.5 0l.4-18 2.6-14.3c.1 0-4.2-3.2-5.5-2.7z" fill="url(#SVGID_16_)"/><path class="st7" d="M107.3 93.5s1.5 19.5 1.6 19.8S112 131 112 131s2.1 1.3 4.5-.3l-1.9-17.9.9-17.1s-7-2.8-8.2-2.2z"/><linearGradient id="SVGID_17_" gradientUnits="userSpaceOnUse" x1="110.096" y1="-32.725" x2="119.388" y2="-32.725" gradientTransform="matrix(1 0 0 -1 -2.83 79.733)"><stop offset="0" stop-color="#010101" stop-opacity="0"/><stop offset=".95" stop-color="#010101"/></linearGradient><path d="M107.3 93.5s1.5 19.5 1.6 19.8S112 131 112 131s2.1 1.3 4.5-.3l-1.9-17.9.9-17.1s-7-2.8-8.2-2.2z" fill="url(#SVGID_17_)"/><path class="st4" d="M116.9 76.3c-.4-2.8 1.1-3.5.7-3.8 0 0-1.5-1.1-1.6-1.2 0 0-2.6-2.3-3.9-2.1-1.3.2-2.6 1.3-3 2.9s-1.2 2.6-1.9 4.4c-.6 1.8 0 4.8-.8 8.4-.7 2.8-2.2 9.2-2.2 9.2s5.4 4.2 7.2 4.3c1.7.2 3.5.2 5.2.1 0 0-.5-5.8-.8-8.3-.4-2.6 1.6-10.4 1.1-13.9z"/><linearGradient id="SVGID_18_" gradientUnits="userSpaceOnUse" x1="104.214" y1="-2.201" x2="146.954" y2="-23.526" gradientTransform="matrix(1 0 0 -1 -2.83 79.733)"><stop offset="0" stop-color="#010101" stop-opacity="0"/><stop offset=".95" stop-color="#010101"/></linearGradient><path d="M107.6 91.1c.5-1.7 1.6-3.3 3.2-3.9.3-.1.7-.2.9-.6.1-.2.1-.4.1-.7 0-1.5.8-3 1.3-4.4s1-3.1.4-4.5c-1.3.5-2.1 1.9-3.2 2.7-.2.2-.5.3-.8.3-.7 0-1.1-.8-1.3-1.4-.2-.6-.7-1.4-1.4-1.3-.3.9 0 1.8.1 2.7.6 4.1-1.6 8-2.5 12-.1.6-.2 1.3 0 1.8s2.1 2 2.7 1.7c.4-.2.3-3.8.5-4.4z" fill="url(#SVGID_18_)"/><path class="st4" d="M117.2 81.2c-.4 1.5-1.1 3.1-2.2 4.2-1.4 1.4-3.4 2.1-5.4 2.5-1.9.3-3.9.4-5.8.4-2.2 0-4.3.1-6.5.2-.3 0-.7 0-.9-.3-.1-.3.1-.6.4-.8.3-.2.6-.2.9-.4.5-.3.7-1 1.1-1.3.5-.4 1.9-1.2 2.6-1.2 1.8 0 3.6-.2 5.3-.4.6 0 1.2-.2 1.7-.5.6-.3.9-.1 1.2-.7.6-1 1.2-2.1 1.6-3.2.7-1.8 2-8 4.7-8 3.6.1 1.9 7.7 1.3 9.5z"/><linearGradient id="SVGID_19_" gradientUnits="userSpaceOnUse" x1="110.165" y1="14.074" x2="117.112" y2="14.074" gradientTransform="matrix(1 0 0 -1 -2.83 79.733)"><stop offset="0" stop-color="#e5c6d6"/><stop offset=".42" stop-color="#ead4d0"/><stop offset="1" stop-color="#f0e9cb"/></linearGradient><path d="M108.6 60.2c-.3.8-.2 1.3-.4 2.2-.1.5-.3.9-.7 1.3-.4.4 0 1 0 1.4.1.8-1 2.5.8 2.8 1.8.3 2.9 1.9 3.1 3.3.9.3 1.9.1 2.5-.6 1-1.2-.9-4-1.1-6.3-.2-2.2-.4-4.2-1.5-3.9-1.6.7-2.3-1.1-2.7-.2z" fill="url(#SVGID_19_)"/><path class="st19" d="M97.3 80.5s-.8-1-1.5-1c-.7-.1-3.3-.5-3.1.1.1.6-.4 1.5 0 2s1.6.6 2 .7c.4.1 1.7.3 1.7.3"/><path d="M94.1 77.4l1.6.2c.2 0 .4.2.4.5l-.4 4.4c0 .2-.2.4-.5.4l-1.6-.2c-.2 0-.4-.2-.4-.5l.4-4.4c0-.2.2-.4.5-.4z" fill="#fff"/><path class="st7" d="M99.1 132.1c0 .2 0 .3.2.5.1 0 .2.1.2.1 2 .1 3.9 0 5.9-.3.4 0 .8-.2 1.1-.5.3-.4.3-.9.3-1.4v-.2c-.1-.1-.3-.2-.4-.2l-2.5-.1c-.6 0-1.3-.3-1.9-.3-1.2-.1-2.8 1.2-2.9 2.4zm9.9 1.7c0 .2 0 .3.2.5.1 0 .2.1.2 0 2 .1 3.9 0 5.9-.3.4 0 .8-.2 1.1-.5.3-.4.3-.9.3-1.4 0-.1 0-.2-.1-.2-.1-.1-.3-.2-.4-.2-.8 0-1.7-.1-2.5-.1-.6 0-1.3-.3-1.9-.3-1.1 0-2.7 1.3-2.8 2.5z"/><linearGradient id="SVGID_20_" gradientUnits="userSpaceOnUse" x1="59.005" y1="47.324" x2="69.665" y2="3.963" gradientTransform="matrix(1 0 0 -1 0 98.903)"><stop offset="0" stop-color="#010101" stop-opacity="0"/><stop offset=".95" stop-color="#010101"/></linearGradient><path fill="url(#SVGID_20_)" d="M26.2 83.9l75.3-22 2.9 8.3-75.6 21.4z"/><defs><path id="SVGID_21_" d="M32.6 82l62.7-18 14.2 3 4.1 16.7-35.4 16.4H37.4c-.6 0-4.8-18.1-4.8-18.1z"/></defs><clipPath id="SVGID_22_"><use xlink:href="#SVGID_21_" overflow="visible"/></clipPath><g clip-path="url(#SVGID_22_)"><path class="st1" d="M106.5 79.1c0 5.9-16.1 12.9-35.9 15.6s-35.9.1-35.9-5.8c0-.8-.1-3.6 0-6.7v-1.1c.6-3.2 5.7-6.6 13.3-9.4 6.5.9 14.5 2.8 22.5 1.7 7.9-1.1 15.6-5 22-7.9 7.9.7 13.1 2.8 13.8 5.8v1.2c.3 3.1.2 5.9.2 6.6z"/><linearGradient id="SVGID_23_" gradientUnits="userSpaceOnUse" x1="92.881" y1="-33.977" x2="90.904" y2="8.607" gradientTransform="matrix(.9 -.1 0 -1 -12.428 69.974)"><stop offset="0" stop-color="#010101" stop-opacity="0"/><stop offset=".95" stop-color="#010101"/></linearGradient><path d="M106.5 79.1c0 5.9-16.1 12.9-35.9 15.6s-35.9.1-35.9-5.8c0-.8-.1-3.6 0-6.7v-1.1c.6-3.2 5.7-6.6 13.3-9.4 6.5.9 14.5 2.8 22.5 1.7 7.9-1.1 15.6-5 22-7.9 7.9.7 13.1 2.8 13.8 5.8v1.2c.3 3.1.2 5.9.2 6.6z" fill="url(#SVGID_23_)"/><path class="st1" d="M106.5 71.9v.5c-1 5.8-16.7 12.4-35.9 15-19.4 2.6-35.2.2-35.9-5.4v-.4c0-.2 0-.5.1-.7.6-3.2 5.7-6.6 13.3-9.4 6.2-2.3 14-4.3 22.5-5.4 8.3-1.1 15.9-1.3 22-.8 7.9.7 13.1 2.8 13.8 5.8.1.4.1.6.1.8z"/><linearGradient id="SVGID_24_" gradientUnits="userSpaceOnUse" x1="85.259" y1="20.534" x2="105.113" y2="-88.876" gradientTransform="matrix(.9 -.1 0 -1 -12.428 69.974)"><stop offset="0" stop-color="#fff" stop-opacity="0"/><stop offset=".95" stop-color="#fff"/></linearGradient><path d="M99.6 72.2v.4c-.8 4.8-13.7 10.2-29.4 12.4-15.9 2.2-28.8.2-29.4-4.4v-.3c0-.2 0-.4.1-.6.5-2.6 4.7-5.4 10.9-7.7 5-1.9 11.5-3.5 18.5-4.5 6.8-.9 13-1.1 18-.6 6.5.6 10.8 2.3 11.3 4.8v.5z" fill="url(#SVGID_24_)"/><linearGradient id="SVGID_25_" gradientUnits="userSpaceOnUse" x1="97.542" y1="1.004" x2="87.525" y2="-51.648" gradientTransform="matrix(.9 -.1 0 -1 -12.428 69.974)"><stop offset="0" stop-color="#fff" stop-opacity="0"/><stop offset=".95" stop-color="#fff"/></linearGradient><path d="M42.8 74L90 82.8s10.4-2.8 12.6-6.2l-46.3-7.7c-.1-.1-12.5 4-13.5 5.1z" fill="url(#SVGID_25_)"/></g><path class="st1" d="M56.5 133.2c-.5 3.6-10.9 6.4-23.2 6.3-12.3-.1-21.9-3.1-21.3-6.7.1-.5.3-2.2.6-4.1 0-.2.1-.4.1-.7.7-1.9 4.1-3.5 8.9-4.6 3.9 1.1 8.6 3 13.6 3 4.9 0 10-1.7 14.1-2.8 4.7 1.2 7.7 2.9 7.9 4.8 0 .3-.1.5-.1.8-.3 1.9-.6 3.5-.6 4z"/><linearGradient id="SVGID_26_" gradientUnits="userSpaceOnUse" x1="37.684" y1="-65.386" x2="36.469" y2="-39.209" gradientTransform="matrix(.9 .03 .14 -.99 8.838 73.63)"><stop offset="0" stop-color="#010101" stop-opacity="0"/><stop offset=".95" stop-color="#010101"/></linearGradient><path d="M56.5 133.2c-.5 3.6-10.9 6.4-23.2 6.3-12.3-.1-21.9-3.1-21.3-6.7.1-.5.3-2.2.6-4.1 0-.2.1-.4.1-.7.7-1.9 4.1-3.5 8.9-4.6 3.9 1.1 8.6 3 13.6 3 4.9 0 10-1.7 14.1-2.8 4.7 1.2 7.7 2.9 7.9 4.8 0 .3-.1.5-.1.8-.3 1.9-.6 3.5-.6 4z" fill="url(#SVGID_26_)"/><path class="st1" d="M57.1 128.8c0 .1 0 .2-.1.3-1.1 3.4-11.2 6-23.2 5.9-12-.1-21.4-3-21.4-6.5v-.3c0-.1.1-.3.1-.4.7-1.9 4.1-3.5 8.9-4.6 4-.9 8.9-1.4 14.2-1.3 5.1.1 9.8.6 13.5 1.5 4.7 1.2 7.7 2.9 7.9 4.8.1.3.1.5.1.6z"/><path class="st1" d="M29.8 131.4c-.5 0-1 0-1.5-.1-.4-.1-.8-.1-1.2-.2l-.9-.3c-.4-.2-.7-.4-1-.7-.2-.2-.4-.5-.6-.8l-2.1-3h.3c.2.1.4.3.6.4.4.2.9.3 1.4.3h.7c.3 0 .6 0 .8-.1s.6-.1.8-.1l1-.1 1.4-.1c.5-.1 1-.1 1.5-.2l1.5-.2 1.4-.2 1.1-.1c.4 0 .8-.1 1.2-.1l1.4-.2c.3 0 .6-.1.9-.1s.6-.1.9-.1c.3 0 .5-.1.8-.1.2 0 .3-.1.4-.1.2-.1.3-.2.4-.3v-.4h.3l2.1 2.9c.1.2.3.4.3.6.1.2.1.4 0 .6-.1.3-.4.6-1 .9-.5.3-1.3.5-2.4.6-1 .1-2 .1-3-.1-.7-.1-1.5-.4-2.1-.8h-.1c.1.2.1.5 0 .7-.1.3-.3.5-.6.6-.4.2-.7.4-1.1.5-.6.2-1.2.3-1.8.4h-1.8zm11.9-2.9c.6-.2.9-.5 1.1-.7.2-.3.1-.6-.2-1l-.3-.3c-.1-.1-.2-.1-.3-.2h-1.1l-.8.1c-.6.1-1.3.1-2 .2l-2.1.2-1.7.2-.8.1.3.5.3.3c.5.5 1.2.8 2.2 1 1.1.2 2.2.2 3.3.1.7-.1 1.4-.3 2.1-.5zm-9.8 1.6c.4-.1.7-.2 1.1-.4.3-.1.5-.3.7-.4.2-.1.3-.3.3-.5v-.4c-.1-.2-.1-.3-.2-.4l-.6-.8-1.7.2-1.6.2c-.5.1-.9.1-1.3.2-.4 0-.8.1-1.1.1-.7.1-1.2.2-1.6.2-.3 0-.7.1-1 .2l-.3.3c-.1.1 0 .3.1.5s.3.4.5.5c.3.2.6.4 1 .5.6.2 1.3.3 1.9.4.8.1 1.6 0 2.4-.1.5-.1 1-.2 1.4-.3z"/><linearGradient id="SVGID_27_" gradientUnits="userSpaceOnUse" x1="33.027" y1="-31.898" x2="45.234" y2="-99.155" gradientTransform="matrix(.9 .03 .14 -.99 8.838 73.63)"><stop offset="0" stop-color="#fff" stop-opacity="0"/><stop offset=".95" stop-color="#fff"/></linearGradient><path d="M52.9 128.4c0 .1 0 .2-.1.3-.9 2.8-9.2 5-19 4.9-9.8-.1-17.5-2.4-17.5-5.3v-.2c0-.1 0-.2.1-.3.6-1.5 3.3-2.9 7.3-3.7 3.2-.7 7.3-1.1 11.6-1.1 4.2 0 8 .5 11 1.2 3.9.9 6.3 2.3 6.5 3.9.1 0 .1.2.1.3z" fill="url(#SVGID_27_)"/><linearGradient id="SVGID_28_" gradientUnits="userSpaceOnUse" x1="40.593" y1="-43.844" x2="34.435" y2="-76.21" gradientTransform="matrix(.9 .03 .14 -.99 8.838 73.63)"><stop offset="0" stop-color="#fff" stop-opacity="0"/><stop offset=".95" stop-color="#fff"/></linearGradient><path d="M18.1 124.4l27.9 9.5s6.6-.8 8.2-2.7l-27.5-8.8c.1.1-7.8 1.4-8.6 2z" fill="url(#SVGID_28_)"/><g id="XMLID_340_"><path id="XMLID_341_" class="st1" d="M144.3 86.8c-1.1-.8-2.4-1.4-3.8-1.9v-4.5c.6.1 1.2.4 1.6.8.5.4 1 .8 1.4 1.2l2.5-2.3c-.5-.4-.9-.8-1.3-1.1-.4-.3-.8-.6-1.2-.8-.4-.2-.9-.4-1.3-.5-.5-.1-1-.2-1.6-.3v-1.8H138v1.8c-.7.1-1.4.3-2 .5-.7.3-1.3.6-1.8 1s-.9.9-1.3 1.5c-.3.6-.5 1.3-.5 2 0 1.5.6 2.7 1.7 3.5.9.7 2.2 1.3 3.9 1.9v4.9c-.7-.2-1.3-.5-1.8-.9s-.9-.9-1.3-1.5l-2.7 2.2c.8 1 1.6 1.8 2.6 2.3.9.5 2 .8 3.3 1v3h2.5v-3c1.7-.2 3-.6 3.9-1.3 1.2-.9 1.8-2.1 1.8-3.8v-.3c0-1.4-.6-2.7-2-3.6zm-3.8 2c.5.2.9.4 1.2.6.7.4 1.1.9 1.1 1.5 0 .3-.1.6-.2.8-.1.2-.3.4-.5.6-.2.2-.5.3-.7.4-.3.1-.6.2-.8.2v-4.1zm-3.1-5.1c-.2-.1-.5-.2-.7-.4-.2-.2-.4-.3-.5-.5-.1-.2-.2-.4-.2-.7 0-.3.1-.5.2-.7.1-.2.3-.4.5-.5.2-.1.4-.3.7-.3.2-.1.5-.1.7-.2V84c-.3 0-.5-.1-.7-.3z"/></g><g id="XMLID_1_"><path id="XMLID_2_" class="st1" d="M34 129.8c.7-.6 1.2-1.3 1.6-2l4.2-.3c-.1.3-.3.6-.7.9-.3.3-.7.5-1 .8l2.2 1.1c.4-.3.7-.5 1-.7.3-.2.5-.4.7-.6.2-.2.3-.4.5-.7.1-.2.2-.5.2-.8l1.7-.1-.1-1.2-1.7.1c-.1-.3-.3-.7-.5-1-.3-.3-.6-.6-1-.8-.4-.2-.9-.4-1.4-.5-.6-.1-1.2-.2-1.9-.1-1.4.1-2.5.4-3.2 1-.6.5-1.1 1.2-1.7 2l-4.6.3c.1-.4.4-.7.8-1 .4-.3.8-.5 1.4-.7l-2.2-1.2c-.9.4-1.6.9-2 1.4-.5.5-.7 1.1-.8 1.7l-2.8.2.1 1.2 2.8-.2c.2.8.6 1.4 1.3 1.9.9.5 2 .8 3.6.7h.3c1.3-.4 2.4-.7 3.2-1.4zm-2-1.8c-.2.3-.4.5-.5.6-.3.4-.8.6-1.3.6h-.8c-.2-.1-.4-.1-.6-.2-.2-.1-.3-.2-.4-.3-.1-.1-.2-.3-.2-.4l3.8-.3zm4.6-1.9l.4-.4c.1-.1.3-.2.5-.3.2-.1.4-.1.6-.1.2 0 .5 0 .7.1.2.1.4.1.5.2l.3.3c.1.1.1.2.2.4l-3.4.2c.1-.1.1-.3.2-.4z"/></g><g id="XMLID_7_"><path id="XMLID_8_" class="st1" d="M73.4 80.1c.9-1.1 1.5-2.1 1.9-3.3l6.2-1.6c-.1.5-.3.9-.8 1.4-.4.5-.9.9-1.4 1.4l3.6.8 1.3-1.3c.4-.4.7-.8.9-1.1.2-.4.4-.7.5-1.1.1-.4.1-.8.1-1.2l2.5-.7-.5-1.7-2.5.7c-.2-.4-.6-.8-1.1-1.2-.5-.4-1.1-.6-1.7-.8-.6-.3-1.4-.4-2.2-.4-.9 0-1.8.1-2.9.4-2.1.6-3.6 1.4-4.5 2.4-.7.8-1.4 2-2 3.4L63.9 78c.1-.6.4-1.1.9-1.6s1.1-1 1.9-1.4l-3.6-1c-1.2.9-2.1 1.8-2.7 2.6-.5.8-.8 1.7-.8 2.6l-4.2 1.1.5 1.7 4.2-1.1c.5 1.1 1.3 1.8 2.5 2.2 1.4.5 3.3.4 5.5-.1.1 0 .3-.1.4-.1 2.3-.7 3.9-1.6 4.9-2.8zm-3.5-1.8c-.2.4-.4.8-.6 1-.4.6-1 1-1.8 1.3-.5.1-.9.2-1.2.2-.3 0-.6 0-.9-.1-.3-.1-.5-.2-.7-.4-.2-.2-.3-.3-.4-.5l5.6-1.5zm6.5-4.1c.1-.2.3-.4.4-.6.2-.2.4-.4.6-.5.3-.2.6-.3.9-.4.4-.1.7-.1 1-.1.3 0 .6.1.8.1l.6.3.4.4-5 1.3c.1-.1.2-.3.3-.5z"/></g><g id="XMLID_13_"><path id="XMLID_14_" class="st1" d="M146.3 109.1c.7-.6 1.2-1.3 1.6-2l4.2-.3c-.1.3-.3.6-.7.9-.3.3-.7.5-1 .8l2.2 1.1c.4-.3.7-.5 1-.7.3-.2.5-.4.7-.6.2-.2.3-.4.5-.7.1-.2.2-.5.2-.8l1.7-.1-.1-1.2-1.7.1c-.1-.3-.3-.7-.5-1-.3-.3-.6-.6-1-.8-.4-.2-.9-.4-1.4-.5-.6-.1-1.2-.2-1.9-.1-1.4.1-2.5.4-3.2 1-.6.5-1.1 1.2-1.7 2l-4.6.3c.1-.4.4-.7.8-1 .4-.3.8-.5 1.4-.7l-2.2-1.2c-.9.4-1.6.9-2 1.4-.5.5-.7 1.1-.8 1.7l-2.8.2.1 1.2 2.8-.2c.2.8.6 1.4 1.3 1.9.9.5 2 .8 3.6.7h.3c1.3-.3 2.4-.7 3.2-1.4zm-2-1.7c-.2.3-.4.5-.5.6-.3.4-.8.6-1.3.6h-.8c-.2-.1-.4-.1-.6-.2-.2-.1-.3-.2-.4-.3-.1-.1-.2-.3-.2-.4l3.8-.3zm4.7-1.9l.4-.4c.1-.1.3-.2.5-.3.2-.1.4-.1.6-.1.2 0 .5 0 .7.1.2.1.4.1.5.2l.3.3c.1.1.1.2.2.4l-3.4.2c0-.1.1-.3.2-.4z"/></g></svg>