<svg id="Layer_1" xmlns="http://www.w3.org/2000/svg" viewBox="0 0 174.3 150"><style>.st1{fill:#f7af87}.st2{fill:#72b2fc}.st4{fill:#404040}</style><path d="M11 141.8C-3.5 128.4.1 96.2 1.1 85.8c.5-5.7 1.6-11.4 3.9-16.3 6.5-14.1 20.3-17.7 30.5-26.9C46.8 32.3 54 14.7 66.2 6.5 72.9 2 80.6.8 88.1.2c13.6-1 28.5.7 38.6 13 7.3 8.9 11 22.1 17.5 32.1 5.7 8.8 13.5 14.9 19.5 23.4 8.9 12.6 13.5 32 8.6 48.1-4.5 15-11.3 24.8-14.9 26.3-11.4 4.8-36.3 5.3-48.3 6.4-12.8 1.2-24.3-1.4-37.1-1.3-19.7.2-46.7 1.6-61-6.4" fill="#fff"/><path class="st1" d="M123.7 81s2 4.9-8.3 8-15.9 15.1-15.7 25.3v6.5s31.9 11.7 59 .9c0 0 2.6-27.4-15.9-33.8 0 0-3.8-1.1-2.7-5.6 0 0 8.8-5 7.2-18s-6.6-17.1-11.8-17.4c-20.9-1.4-21 26.1-11.8 34.1z"/><path class="st2" d="M161.3 121.4s.4-19.1-2.8-25.6c-2.7-5.5-9.6-6.9-15.4-8.7-.3-.1-.7-.2-1-.1-.4.1-.8.3-1.1.6-6.6 4.9-15.8 4.2-21.5-1.8-7 2.1-12.5 2.1-16.2 8.4s-5.5 18.7-4.8 26c-.1 0 31.5 12.8 62.8 1.2z"/><linearGradient id="SVGID_1_" gradientUnits="userSpaceOnUse" x1="89.657" y1="38.194" x2="184.549" y2="-10.611" gradientTransform="matrix(1 0 0 -1 -.75 133.768)"><stop offset="0" stop-opacity="0"/><stop offset=".99"/></linearGradient><path d="M105.9 94.4s5.3-5.4 7.4-5.5 15.2 37 15.2 37L109 125l-3.1-30.6z" fill="url(#SVGID_1_)"/><path class="st4" d="M117.3 48.7c1.2-4.1 4.3-7.8 8.4-8.8 1.2-.3 2.5-.3 3.7-.5.8-.1 1.5-.4 2.2-.6 3.1-.8 6.3-.8 9.3.1 3.1.9 5.7 2.9 7.4 5.6 1.5 2.6 2 5.7 1.7 8.7-.2 3-2 8.3-2.8 11.2-1.5-1.9-.5-7.3-2.5-8.6-1.5-.9-3.3-.5-5-.2-3.9.7-7.9.5-11.8-.4-1.8-.5-3.7-1.1-5.6-.7-1.6.3-2.2 1.6-3 2.9-.6.9-1 5.6-1.5 6.6-1.2-.4-1.5-7.9-1.5-9 .1-2.1.4-4.3 1-6.3z"/><path class="st1" d="M148.4 63.2c.4-.4.9-.6 1.5-.5.4.1.8.4 1 .7.2.4.3.8.3 1.2.1 1.7-.4 3.3-1.5 4.6-.6.7-1.5 1.3-2.4 1.1-.2 0-.3-.1-.5-.2-.1-.1-.2-.3-.2-.4-.3-1.3-.4-2.7-.1-4 .1-.6.2-1.1.6-1.5.5-.4.9-.7 1.3-1z"/><path class="st4" d="M59.6 83.1c.7-.1 1.4-.3 1.9-.8.3-.5.5-1 .5-1.6.8-6.3 3.2-24.9-3-35.5-.9-1.5-3.1-1.9-4.3-3-2.8-2.8-6.5-6.2-11.5-6.1-12 .1-17.5 6-22.4 17-3 6.7-3.9 26.8-1.4 28.7 2.6 2.1 9.5 1.9 12.7 2.2 9.2.9 18.4.6 27.5-.9z"/><linearGradient id="SVGID_2_" gradientUnits="userSpaceOnUse" x1="51.637" y1="64.843" x2="66.315" y2="77.644" gradientTransform="matrix(1 0 0 -1 -.75 133.768)"><stop offset="0" stop-opacity="0"/><stop offset=".6" stop-opacity=".36"/><stop offset=".99"/></linearGradient><path d="M54.5 52.2c.2-.3.5-.6.9-.8 1-.5 2.2.1 3 .9 1 1.1 1.7 2.4 2 3.8.3 1.4.5 2.9.4 4.3 0 1.8 0 3.6-.2 5.4-.1 2.6-.7 5.2-1.6 7.7-1 2.4-2.7 4.7-4.9 6-1.7-6-1.8-12.4-2-18.6v-3c0-.4-.1-1.1.1-1.5.2-.3.5-.3.8-.5.5-.4.4-1 .5-1.6.2-.7.6-1.5 1-2.1z" fill="url(#SVGID_2_)"/><linearGradient id="SVGID_3_" gradientUnits="userSpaceOnUse" x1="23.802" y1="58.304" x2="25.066" y2="74.736" gradientTransform="matrix(1 0 0 -1 -.75 133.768)"><stop offset="0" stop-opacity="0"/><stop offset=".99"/></linearGradient><path d="M22.7 65c-.4.1-.9.2-1.2.5-.3.3-.6.6-.7 1-1.4 3.1-1.2 6.6.4 9.5 0 0 2-2.2 2.2-2.4.7-.9 1.3-1.9 1.9-2.9.5-.9 3.1-5.3 1.8-5.8-.9-.4-3.4-.1-4.4.1z" fill="url(#SVGID_3_)"/><linearGradient id="SVGID_4_" gradientUnits="userSpaceOnUse" x1="41.938" y1="68.656" x2="41.417" y2="45.139" gradientTransform="matrix(1 0 0 -1 -.75 133.768)"><stop offset="0" stop-opacity="0"/><stop offset=".99"/></linearGradient><path d="M25.6 81c-1-2.2-.8-4.7-.4-7.1.3-2.1.7-4.2 1.9-5.9 1.1-1.5 2.7-2.6 4.5-3.2 1.8-.6 3.6-.9 5.5-1 2.7-.2 5.3-.1 8 .1 1.9.1 3.7.6 5.4 1.3 2.3 1.1 4.2 3.1 5.3 5.5 1.1 2.4 1.4 5 1 7.6-.1 1.1-.5 2.2-1.1 3.1-.8.8-1.8 1.4-2.8 1.6-3.9 1.3-8.1 1.2-12.1 1-3.4-.1-6.8.1-10.1-.6-2-.4-4.2-.4-5.1-2.4z" fill="url(#SVGID_4_)"/><path class="st1" d="M67.2 121.6c-27.1 10.8-59-.9-59-.9v-6.5C7.9 104 13.6 92 23.9 88.9s9.6-6.6 9.6-6.6C24.2 74.4 23 45.5 44 46.7c5.2.3 10.2 4.3 11.8 17.4C57.4 77.2 47.1 83 47.1 83c-.3 1.3.2 2.7 1.3 3.5.9.7 1.8 1.1 2.9 1.4 18.4 6.3 15.9 33.7 15.9 33.7z"/><path class="st4" d="M32.6 65.8c4.1 0 8.2-.6 12-2.2s7.1-4.4 9-8c.6-1.1 1-2.4 1.1-3.7 0-2.5-1.5-4.8-3.6-6.1-2.1-1.3-4.6-1.8-7-1.9-5.3-.2-10.7 1.3-14.8 4.7-3.4 2.9-5.4 7-5.6 11.4-.3 4.7 5 5.8 8.9 5.8z"/><path class="st2" d="M69.7 121.4s-2.1-15.6-5.2-22.1c-2.7-5.5-7.1-10.4-13-12.2-.3-.1-.7-.2-1-.1-.4.1-.8.3-1.1.6-6.6 4.9-15.8 4.2-21.5-1.8-7 2.2-12.9 6.9-16.6 13.3-3.7 6.3-5.1 13.9-4.4 21.2 0-.1 31.5 12.7 62.8 1.1z"/><linearGradient id="SVGID_5_" gradientUnits="userSpaceOnUse" x1="32.03" y1="32.967" x2="88.937" y2="3.699" gradientTransform="matrix(1 0 0 -1 -.75 133.768)"><stop offset="0" stop-opacity="0"/><stop offset=".99"/></linearGradient><path d="M47.2 125.5s-12 1.3-14.5.1c0 0 6.1-32.7 20.6-37.4 0 0 6.3 1 11.2 11.1 1.4 2.9-17.3 26.2-17.3 26.2z" fill="url(#SVGID_5_)"/><path class="st2" d="M47.2 132.4v-19.8s4.7-17.8 21.2-19.9 34.3.7 34.3.7 17.4 2.3 20.5 23.7V134s-43.8 12.7-76-1.6z"/><path class="st1" d="M69 69.8c-.7-.4-1.6-.7-2.3-.4-.3.1-.6.3-.8.6-1.2 1.3-1.2 3.3-.8 5.1.2 1 .5 1.9.9 2.9l.6 1.2c.9 1 2.4 1.2 3.7 1 .8-.1 1.7-.3 2-1 .1-.3.2-.6.2-.9.4-3.7-.4-6.7-3.5-8.5zm33.1 1.4c1-.7 2.3-1.2 3.4-.7.9.4 1.5 1.3 1.5 2.3.1 1-.1 1.9-.5 2.8-.4 1.1-1 2.2-1.8 3.1-.8.9-1.9 1.5-3.1 1.6-1.2.1-2.4-.5-3-1.6-.3-.7-.4-1.5-.4-2.2-.1-.6 0-1.2.2-1.7.5-1.2 2.7-2.9 3.7-3.6zM75 94.7c-.4.7-.6 1.4-.7 2.2 0 .5.1.9.3 1.3 1.6 3.9 4.9 5.9 8.1 6.8 1 .3 1.9.5 2.9.5 3 0 6-2.1 7.8-5.4.1-.2.2-.4.2-.6 0-.3-.1-.5-.2-.7-1.1-2.4-.9-5.5-.6-8.4v-.7c-.1-.2-.2-.3-.4-.4-1.9-.8-4-.3-6.1-.4-2.8-.1-5.6-1.4-8.4-1.4-1.3 0-1.4.5-1.5 2-.2 1.8-.6 3.6-1.4 5.2z"/><linearGradient id="SVGID_6_" gradientUnits="userSpaceOnUse" x1="79.062" y1="33.463" x2="96.841" y2="58.678" gradientTransform="matrix(1 0 0 -1 -.75 133.768)"><stop offset="0" stop-opacity="0"/><stop offset=".99"/></linearGradient><path d="M75.1 86.5s1.6 6.4 5.6 10.6c3.9 4.2 13.3 3.4 12.2-.4-.9-3.1.8-10.2.8-10.2H75.1z" fill="url(#SVGID_6_)"/><path class="st1" d="M117.3 63c-.4-.4-.9-.9-1.6-.9-.5 0-.9.2-1.2.6-.3.4-.5.8-.6 1.3-.2 1.2-.1 2.3.3 3.4.4 1.4 1.2 2.7 2.5 3.2.5.2 1 .2 1.4-.1.3-.3.5-.7.5-1.1.5-2.5.6-4.5-1.3-6.4zm-16.2 11.5C99.9 85 94 93.6 85.3 93.6S69.5 85 69.5 74.5 75.1 52 83.9 52s19.8 1.1 17.2 22.5z"/><path class="st4" d="M67.1 71.1c-.6-4.1-1-8.3-1.1-12.5-.1-1.8 0-3.9 1.2-5.3.3-.3.6-.6.9-1 .2-.5.3-1 .3-1.5.5-4 3.3-7.3 6.6-9.5 3.6-2.5 7.8-4 12.1-4.3 1.4-.2 2.8-.1 4.2.2 1.4.3 2.7.9 4 1.6 2 1.1 3.9 2.3 5.2 4.1 1.4 1.7 2.3 4 2 6.2 1.9.8 3.4 2.4 4.1 4.4.6 2 .8 4.2.6 6.3-.4 5.1-2.4 10.3-6.4 13.4.1-3.5-.7-7.1-2.3-10.2-.6-1.1-1.1-2.2-1.6-3.3-.5-1.2-.7-2.5-.7-3.8-1.7.9-2.7 2.8-4.3 3.8-1 .6-2.2 1-3.3 1.2-3.8.8-7.7.6-11.5-.4-1.5-.4-3.4-.8-4.3.4-.6.8-.5 1.8-.6 2.7-.1 1-.4 2-.7 3l-2.3 6.9c-.8-.6-1.9-1.4-2.1-2.4z"/><linearGradient id="SVGID_7_" gradientUnits="userSpaceOnUse" x1="41.486" y1="42.394" x2="44.97" y2="58.591" gradientTransform="matrix(1 0 0 -1 -.75 133.768)"><stop offset="0" stop-opacity="0"/><stop offset=".99"/></linearGradient><path d="M48.5 86.6c-7.3 4.7-12.4-3.3-12.6-3.6 3.5 2 7.7 2 11.2 0-.3 1.3.2 2.7 1.3 3.5l.1.1z" fill="url(#SVGID_7_)"/><linearGradient id="SVGID_8_" gradientUnits="userSpaceOnUse" x1="115.16" y1="67.276" x2="123.001" y2="66.885" gradientTransform="matrix(1 0 0 -1 -.75 133.768)"><stop offset="0" stop-opacity="0"/><stop offset=".99"/></linearGradient><path d="M117.2 67.7c-.3-.4-.6-.9-.5-1.4.1-.5.7-.7.7-1.2 0-.3-.2-.5-.4-.7-.2-.2-.6-.4-.9-.4-.1 0-.2 0-.3.1-.1.1-.2.2-.2.3-.5 1.1-.3 2.5.1 3.6l.3.6c.2.2.5.3.8.4.4.1.9.1 1-.4.1-.3-.4-.6-.6-.9z" fill="url(#SVGID_8_)"/><linearGradient id="SVGID_9_" gradientUnits="userSpaceOnUse" x1="-2040.668" y1="67.189" x2="-2032.828" y2="66.798" gradientTransform="rotate(180 -944.88 66.884)"><stop offset="0" stop-opacity="0"/><stop offset=".99"/></linearGradient><path d="M148.1 67.8c.3-.4.6-.9.5-1.4-.1-.5-.7-.7-.7-1.2 0-.3.2-.5.4-.7.2-.2.6-.4.9-.4.1 0 .2 0 .3.1l.3.3c.5 1.1.3 2.5-.1 3.6-.1.5-.6.9-1.1 1-.4.1-.9.1-1.1-.4 0-.3.4-.7.6-.9z" fill="url(#SVGID_9_)"/><linearGradient id="SVGID_10_" gradientUnits="userSpaceOnUse" x1="107.061" y1="56.505" x2="94.925" y2="61.909" gradientTransform="matrix(1 0 0 -1 -.75 133.768)"><stop offset="0" stop-opacity="0"/><stop offset=".99"/></linearGradient><path d="M101.1 76c.5.1 1-.1 1.4-.3.2-.1.4-.2.5-.4.4-.6 0-1.3.2-1.9.3-.4.7-.8 1.2-.8.2-.1.4-.1.5 0 .3.2.4.5.4.8.1 1.4-.4 2.7-1.2 3.8-.9 1.1-2.2 1.7-3.6 1.8h-.2c-.1 0-.1-.1-.1-.2-.3-.8-.1-1.7.4-2.3" fill="url(#SVGID_10_)"/><linearGradient id="SVGID_11_" gradientUnits="userSpaceOnUse" x1="66.385" y1="57.579" x2="73.309" y2="61.063" gradientTransform="matrix(1 0 0 -1 -.75 133.768)"><stop offset="0" stop-opacity="0"/><stop offset=".99"/></linearGradient><path d="M67.1 74.2c.2.3.6.5.9.7.7.4 1.1 1.1 1.1 1.9.1.5-.2 1-.7 1.2-.5.1-1-.2-1.3-.6-.9-1-1.3-2.3-1.3-3.6 0-.4.2-1.5.9-1.3.6.3.1 1.3.4 1.7z" fill="url(#SVGID_11_)"/><linearGradient id="SVGID_12_" gradientUnits="userSpaceOnUse" x1="72.771" y1="62.127" x2="69.635" y2="75.715" gradientTransform="matrix(1 0 0 -1 -.75 133.768)"><stop offset="0" stop-opacity="0"/><stop offset=".6" stop-opacity=".36"/><stop offset=".99"/></linearGradient><path d="M68.6 60.9c-.5.6-.7 1.4-.8 2.2-.1 1.1 0 2.3.1 3.4l.7 5.9c.8-2.8 2.7-5.3 3.2-8.2.1-.9.1-1.9.4-2.8.1-.4.9-1.4.6-1.7s-1.9-.1-2.4 0c-.6.3-1.3.7-1.8 1.2z" fill="url(#SVGID_12_)"/><linearGradient id="SVGID_13_" gradientUnits="userSpaceOnUse" x1="108.179" y1="81.001" x2="95.726" y2="67.062" gradientTransform="matrix(1 0 0 -1 -.75 133.768)"><stop offset="0" stop-opacity="0"/><stop offset=".6" stop-opacity=".36"/><stop offset=".99"/></linearGradient><path d="M101.1 51.1c.1 0 .1-.1.2 0 .1 0 .2.1.2.2 1 1.7 2 3.4 2.5 5.4.2 1.1.3 2.2.3 3.3-.1 3.7-1.2 7.2-3.3 10.3-.4-1.4-.4-2.8-.7-4.2-.4-1.9-1.5-3.5-2.5-5.2-.9-1.5-2.4-4.1-1.3-5.7 1.1-1.9 2.7-3.3 4.6-4.1z" fill="url(#SVGID_13_)"/><linearGradient id="SVGID_14_" gradientUnits="userSpaceOnUse" x1="134.113" y1="38.732" x2="126.112" y2="74.889" gradientTransform="matrix(1 0 0 -1 -.75 133.768)"><stop offset="0" stop-opacity="0"/><stop offset=".99"/></linearGradient><path d="M123.7 81s2.5 3 7.8 3.2c5.8.2 8.5-2 8.5-2s-2.6 5.6-8.9 6.9c-4 .8-8.6-.9-9.4-3 .1 0 2.7-2.5 2-5.1z" fill="url(#SVGID_14_)"/><path class="st2" d="M75.2 93s1.6 7.5 7.1 9.2c5.6 1.7 10.3-3.8 10.5-7.5s1-2.6 1-2.6l1.4.9v13.8l-10.6-1.6-10.5 3s-2.8-12.5-1.2-16"/></svg>