<svg id="Layer_1" xmlns="http://www.w3.org/2000/svg" viewBox="0 0 176.6 142.7"><style>.st3{fill:#f5c7c8}.st4{fill:#606161}.st8{fill:#72b2fc}</style><path d="M176.6 89.5c-.1 8.2-1.1 16.5-4.5 23.9-2.1 4.6-5.2 8.8-8.9 12.3-8.8 8.3-20.9 12.8-32.6 14.2-16.6 2-33.4-.8-50.1 0-10.4.5-20.8 2.5-31.2 2.8s-21.3-1.3-30.1-7.3c-3.4-2.3-6.3-5.1-8.8-8.4-3.2-4.2-5.8-8.8-7.5-13.8C-3.8 94 1.7 70.5 16 57.2c5.6-5.3 12.4-9 19-12.5 14-7.4 37.4-59.4 92.4-25.3 10.7 6.7 16.3 20.4 25.8 29 8.5 7.7 18 15.2 21.6 26.6 1.5 4.6 1.8 9.6 1.8 14.5z" fill="#fff"/><path d="M149.9 127.1c-7.3 6.9-17.3 10.6-27.1 11.8-13.8 1.6-27.7-.7-41.6 0-8.6.5-17.2 2.1-25.9 2.3s-17.7-1.1-25-6.1c-2.8-1.9-5.3-4.3-7.3-6.9.7-.2 1.4-.3 2.1-.4 14.5-2 29.2-2.2 43.9-2.4l40-.6c4.4-.1 8.9-.1 13.3.3 5.7.5 11.2 1.9 16.9 2.4 3.6.2 7.2-.3 10.7-.4z" opacity=".24" fill="#72b2fc"/><linearGradient id="SVGID_1_" gradientUnits="userSpaceOnUse" x1="88.214" y1="-57.416" x2="96.629" y2="160.982" gradientTransform="matrix(1 0 0 -1 -2.28 104.872)"><stop offset="0" stop-color="#010101" stop-opacity="0"/><stop offset=".95" stop-color="#010101"/></linearGradient><path d="M140.8 125.9c-38.4-2.1-77-2.2-115.4-.1-6.5.3-13.1.8-19.2 3.1 3 2.7 7.4 2.9 11.4 3 29.6.5 59.1.6 88.7.4 1.7 0 4.1-.8 3.8-2.5-.1-.5-.5-1-.5-1.5.1-.9 1.3-1.3 2.2-1.3 2.6-.1 5.1 0 7.7.4.9.2 1.9.4 2.5 1.1.5.6.6 1.3 1 1.9 1.1 2.1 4 2.5 6.3 2.1 2.3-.5 4.5-1.6 6.9-1.7 2.1-.1 4.1.6 6.2 1 6.7 1.5 13.6 1 20.4.4 7.1-.6 7.2-5.5.2-5.9-7.4-.3-14.8 0-22.2-.4z" fill="url(#SVGID_1_)"/><path class="st3" d="M167.1 75.2l-3.2-17.4h4.4s1 13.9 1.5 17.7l-2.7-.3z"/><path class="st3" d="M169.5 74.2s.6 2.7.3 4.2-1.9 3.3-2.7 3.4c-.8.1-1.4-.3-1.3-.9.1-.6 2.2-2.6 1.9-3.3s-1.2 1.3-1.5.8c-.3-.5-.2-1.2.6-2.2.7-.9 0-2.3 0-2.3s2.2-.8 2.7.3z"/><path class="st4" d="M161 21.7c.9-.7 2.8-.4 3.7-.1 1.3.5 2.4 1.7 2.7 3.1.2.6.2 1.3.1 2-.1 1.5-.8 2.9-2 3.8-2.5 1.8-4 .1-4.8-2.1-.5-1.3-.6-2.7-.4-4 .1-1-.3-1.8.5-2.6l.2-.1z"/><linearGradient id="SVGID_2_" gradientUnits="userSpaceOnUse" x1="168.64" y1="78.443" x2="161.743" y2="78.852" gradientTransform="matrix(1 0 0 -1 -2.28 104.872)"><stop offset="0" stop-color="#010101" stop-opacity="0"/><stop offset=".95" stop-color="#010101"/></linearGradient><path d="M161 21.7c.9-.7 2.8-.4 3.7-.1 1.3.5 2.4 1.7 2.7 3.1.2.6.2 1.3.1 2-.1 1.5-.8 2.9-2 3.8-2.5 1.8-4 .1-4.8-2.1-.5-1.3-.6-2.7-.4-4 .1-1-.3-1.8.5-2.6l.2-.1z" fill="url(#SVGID_2_)"/><ellipse class="st4" cx="155.8" cy="25.8" rx="6.9" ry="8.6"/><path class="st3" d="M133.9 49.6s-1.3-2.2-1.8-2.6c-.5-.3-1.5-1.3-1.8-1-.5.4 1.7 2.3-.3 2.2-.3 0-1.9 0-2.6.7-.6.6-.6 1.5-.1 2.1l.1.1c.5.3 2.3.5 3.2.5s2.1.1 2.7.5"/><path class="st3" d="M147.4 40.1s-.9 2.8-1 4.4c-.1 1.5-.8 8-1.1 8.3-.2.3-11.8-3.6-11.8-3.6s-.7 1-.1 2.8c0 0 8.6 7.8 13.8 8.1 5.2.3 4.5-12 4.5-12m5.9 73.1l-1 2.2c.6-.2 3.3 2 4.5 2 .8 0 1.6-.3 2.2-.8l-.8-3.9-1.4-19.4-7.3 1.1 3.8 18.8zm-14.2-.1l-1.4 1.3c.6 0 2.7 2.7 3.9 3 .8.2 1.6.1 2.3-.2l.2-4 1.5-18-7.2.7.7 17.2zm15.1-89.5l.3 6.2c-.7 1-1.8 1.5-3 1.4-3-.3-2.9-1.2-2.9-1.2s0-4.5-.1-5.5"/><path d="M157.8 33.6l.7-1.3-5.7.6c0 .4.1 1.3.1 2.2 1.8.6 3.7 0 4.9-1.5z" fill="#dbb4af"/><path class="st4" d="M162.9 76.8s.9 17.2 2.1 31.1c0 0-16.6 2.4-23.4-.3 0 0 1.5-27.7 1.8-31.7l19.5.9z"/><linearGradient id="SVGID_3_" gradientUnits="userSpaceOnUse" x1="159.133" y1="11.983" x2="130.02" y2="14.44" gradientTransform="matrix(1 0 0 -1 -2.28 104.872)"><stop offset="0" stop-color="#010101" stop-opacity="0"/><stop offset=".95" stop-color="#010101"/></linearGradient><path d="M162.9 76.8s.9 17.2 2.1 31.1c0 0-16.6 2.4-23.4-.3 0 0 1.5-27.7 1.8-31.7l19.5.9z" fill="url(#SVGID_3_)"/><path class="st8" d="M162.9 39.7s0-1.2-4.3-1.3c-3.1 0-4.2-.3-6.4.1-4 .8-4.5 1-5.1 1.5-1.5 1.3-3.9 35-3.9 35s-2.5 4 10.3 5.4c4.7.5 9.3-2.8 9.3-2.8l.1-37.9z"/><path class="st3" d="M160.8 21.5s-.2 8-2.6 10.7c-2.5 2.9-3.8 3.2-6.8 2.1-2.5-1-2.8-7.9-2.9-9.9-.2-5.2 7.7-9.7 12.3-2.9z"/><linearGradient id="SVGID_4_" gradientUnits="userSpaceOnUse" x1="154.082" y1="61.01" x2="208.097" y2="115.728" gradientTransform="matrix(1 0 0 -1 0 131.242)"><stop offset="0" stop-color="#010101" stop-opacity="0"/><stop offset=".95" stop-color="#010101"/></linearGradient><path fill="url(#SVGID_4_)" d="M162.7 45.2l.2 32.5-3 1.7-.5-28.7z"/><path class="st8" d="M160.2 37.1l.1 1.5c0 .2-.1.5-.3.6 0 0-2.3.8-6.3 1l-2.9-.7c-.2-.1-.4-.3-.4-.5v-.7c0-.3.2-.6.5-.6l8.6-1c.3-.3.7 0 .7.4 0-.1 0-.1 0 0z"/><linearGradient id="SVGID_5_" gradientUnits="userSpaceOnUse" x1="156.048" y1="65.754" x2="185.774" y2="81.624" gradientTransform="matrix(1 0 0 -1 -2.28 104.872)"><stop offset="0" stop-color="#010101" stop-opacity="0"/><stop offset=".95" stop-color="#010101"/></linearGradient><path d="M160.2 37.1l.1 1.5c0 .2-.1.5-.3.6 0 0-2.3.8-6.3 1l-2.9-.7c-.2-.1-.4-.3-.4-.5v-.7c0-.3.2-.6.5-.6l8.6-1c.3-.3.7 0 .7.4 0-.1 0-.1 0 0z" fill="url(#SVGID_5_)"/><path class="st3" d="M159.9 26.5s.1-1.2 1.3-.7.1 2.6-.4 3.2c-.5.6-1.3.4-1.3.4"/><path fill="#4eae93" d="M161.8 21l.5 1.9h-.8l-.7-2.9z"/><path class="st8" d="M162.8 39.4s1.7 1.6 5 9.4c1.3 3.2 2.4 9 2.4 9s-4.5 2.3-7.1 2.3c-1.2-6.9-4-9.5-4.6-12.7-.6-3.2 2.7-8.6 4.3-8zm-23 83.4c-1.3.4-2.4 1.1-3.3 2.2-.3.4-.5.9-.6 1.5 0 .5.2 1.1.7 1.3.3.1.7.2 1 .2 3.2.1 6.4.1 9.5-.2.3 0 .5-.1.7-.3.1-.2.1-.4.1-.5l-.1-2c0-.2 0-.4-.2-.6-.4-.4-1-.1-1.6-.1-1.1-.1-1.4-1.4-2.3-1.8-.9-.5-2.8 0-3.9.3zm15.5-.1c-1.3.4-2.4 1.1-3.3 2.2-.3.4-.5.9-.6 1.5 0 .5.2 1.1.7 1.3.3.1.7.2 1 .2 3.2.1 6.4.1 9.5-.2.4.1.7-.1.8-.5v-.3l-.1-2c0-.2 0-.4-.2-.6-.4-.4-1-.1-1.6-.1-1.1-.1-1.4-1.4-2.3-1.8-.9-.5-2.8-.1-3.9.3z"/><linearGradient id="SVGID_6_" gradientUnits="userSpaceOnUse" x1="146.031" y1="-27.597" x2="139.015" y2="-1.287" gradientTransform="matrix(1 0 0 -1 -2.28 104.872)"><stop offset="0" stop-color="#010101" stop-opacity="0"/><stop offset=".95" stop-color="#010101"/></linearGradient><path d="M139.8 122.8c-1.3.4-2.4 1.1-3.3 2.2-.3.4-.5.9-.6 1.5 0 .5.2 1.1.7 1.3.3.1.7.2 1 .2 3.2.1 6.4.1 9.5-.2.3 0 .5-.1.7-.3.1-.2.1-.4.1-.5l-.1-2c0-.2 0-.4-.2-.6-.4-.4-1-.1-1.6-.1-1.1-.1-1.4-1.4-2.3-1.8-.9-.5-2.8 0-3.9.3z" fill="url(#SVGID_6_)"/><linearGradient id="SVGID_7_" gradientUnits="userSpaceOnUse" x1="160.524" y1="-23.73" x2="153.508" y2="2.579" gradientTransform="matrix(1 0 0 -1 -2.28 104.872)"><stop offset="0" stop-color="#010101" stop-opacity="0"/><stop offset=".95" stop-color="#010101"/></linearGradient><path d="M155.3 122.7c-1.3.4-2.4 1.1-3.3 2.2-.3.4-.5.9-.6 1.5 0 .5.2 1.1.7 1.3.3.1.7.2 1 .2 3.2.1 6.4.1 9.5-.2.4.1.7-.1.8-.5v-.3l-.1-2c0-.2 0-.4-.2-.6-.4-.4-1-.1-1.6-.1-1.1-.1-1.4-1.4-2.3-1.8-.9-.5-2.8-.1-3.9.3z" fill="url(#SVGID_7_)"/><path class="st4" d="M148.7 19.6c-.1.2-.2.5-.4.7-.3.6-.5 1.4-.4 2.1 0 .3.6 1.7.5 1.8.8-1.5 1.9-2.8 3.3-3.8.5 1.2 1.8 1.8 3 2.4 1.2.6 2.5 1.3 2.9 2.5.3.8.2 1.9.7 2.6 1.4-.2 1.6-2.4 3-2.6.2 0 .5 0 .7-.1.6-.2 1-.7 1.1-1.4.2-2.8-3.2-5.4-5.5-6.4-2.1-.9-4.5-.9-6.7 0-.9.4-1.7 1.2-2.2 2.2z"/><linearGradient id="SVGID_8_" gradientUnits="userSpaceOnUse" x1="162.336" y1="84.821" x2="151.93" y2="79.796" gradientTransform="matrix(1 0 0 -1 -2.28 104.872)"><stop offset="0" stop-color="#010101" stop-opacity="0"/><stop offset=".95" stop-color="#010101"/></linearGradient><path d="M148.7 19.6c-.1.2-.2.5-.4.7-.3.6-.5 1.4-.4 2.1 0 .3.6 1.7.5 1.8.8-1.5 1.9-2.8 3.3-3.8.5 1.2 1.8 1.8 3 2.4 1.2.6 2.5 1.3 2.9 2.5.3.8.2 1.9.7 2.6 1.4-.2 1.6-2.4 3-2.6.2 0 .5 0 .7-.1.6-.2 1-.7 1.1-1.4.2-2.8-3.2-5.4-5.5-6.4-2.1-.9-4.5-.9-6.7 0-.9.4-1.7 1.2-2.2 2.2z" fill="url(#SVGID_8_)"/><path class="st8" d="M21.3 6.3h68.4c3.3 0 5.9 2.7 5.9 5.9v110.9c0 3.3-2.7 5.9-5.9 5.9H21.3c-3.3 0-5.9-2.7-5.9-5.9V12.3c-.1-3.3 2.6-6 5.9-6z"/><path class="st8" d="M23.6 6.3H92c3.3 0 5.9 2.7 5.9 5.9v110.9c0 3.3-2.7 5.9-5.9 5.9H23.6c-3.3 0-5.9-2.7-5.9-5.9V12.3c-.1-3.3 2.6-6 5.9-6z"/><linearGradient id="SVGID_9_" gradientUnits="userSpaceOnUse" x1="51.336" y1="166.238" x2="63.964" y2="-35.326" gradientTransform="matrix(1 0 0 -1 0 131.242)"><stop offset="0" stop-color="#fff" stop-opacity="0"/><stop offset=".14" stop-color="#fff" stop-opacity=".22"/><stop offset=".3" stop-color="#fff" stop-opacity=".45"/><stop offset=".45" stop-color="#fff" stop-opacity=".65"/><stop offset=".6" stop-color="#fff" stop-opacity=".8"/><stop offset=".73" stop-color="#fff" stop-opacity=".91"/><stop offset=".85" stop-color="#fff" stop-opacity=".98"/><stop offset=".94" stop-color="#fff"/></linearGradient><path d="M23.6 6.3H92c3.3 0 5.9 2.7 5.9 5.9v110.9c0 3.3-2.7 5.9-5.9 5.9H23.6c-3.3 0-5.9-2.7-5.9-5.9V12.3c-.1-3.3 2.6-6 5.9-6z" fill="url(#SVGID_9_)"/><linearGradient id="SVGID_10_" gradientUnits="userSpaceOnUse" x1="11.306" y1="-16.553" x2="184.811" y2="174.723" gradientTransform="matrix(1 0 0 -1 -2.28 104.872)"><stop offset="0" stop-color="#010101" stop-opacity="0"/><stop offset=".95" stop-color="#010101"/></linearGradient><path d="M23.7 76.9l2.1-64.7 60.8 1.3s-7.9 67.1-2.3 84.4c5.6 17.3 6.5 23.8 6.5 23.8l-65.7 1.9-1.4-46.7z" fill="url(#SVGID_10_)"/><path d="M101.8 116.1l-66.5.7s-6.8-39.7-8-53c-1.2-12.8-1.4-51.5-1.4-51.5h63.5s.2 37.5 1.3 49.9c1.2 13.7 11.1 53.9 11.1 53.9z" fill="#fff"/><path class="st8" d="M131.4 11.6l-4.5-10.3-.4-.9s0-.1-.1-.1c-.1-.1-.2-.1-.3 0v.1l-4.9 11.1c-.1.2-.2.5-.1.7v107.5h10.5V12.3c0-.2-.1-.5-.2-.7zm.1 108.2h-10.3v-2.3h10.3v2.3z"/><linearGradient id="SVGID_11_" gradientUnits="userSpaceOnUse" x1="177.414" y1="64.803" x2="-139.572" y2="-62.316" gradientTransform="matrix(1 0 0 -1 -2.28 104.872)"><stop offset="0" stop-color="#fff" stop-opacity="0"/><stop offset=".14" stop-color="#fff" stop-opacity=".22"/><stop offset=".3" stop-color="#fff" stop-opacity=".45"/><stop offset=".45" stop-color="#fff" stop-opacity=".65"/><stop offset=".6" stop-color="#fff" stop-opacity=".8"/><stop offset=".73" stop-color="#fff" stop-opacity=".91"/><stop offset=".85" stop-color="#fff" stop-opacity=".98"/><stop offset=".94" stop-color="#fff"/></linearGradient><path d="M129.8 12.3v105.2h-6.4V12.3c0-.3 0-.5.1-.7l3-11.1V.4c.1-.1.2-.1.2.1l.2.9 2.8 10.3c.1.1.1.4.1.6z" fill="url(#SVGID_11_)"/><linearGradient id="SVGID_12_" gradientUnits="userSpaceOnUse" x1="138.657" y1="-15.575" x2="77.124" y2="-40.251" gradientTransform="matrix(1 0 0 -1 -2.28 104.872)"><stop offset="0" stop-color="#fff" stop-opacity="0"/><stop offset=".14" stop-color="#fff" stop-opacity=".22"/><stop offset=".3" stop-color="#fff" stop-opacity=".45"/><stop offset=".45" stop-color="#fff" stop-opacity=".65"/><stop offset=".6" stop-color="#fff" stop-opacity=".8"/><stop offset=".73" stop-color="#fff" stop-opacity=".91"/><stop offset=".85" stop-color="#fff" stop-opacity=".98"/><stop offset=".94" stop-color="#fff"/></linearGradient><path d="M123.4 119.8h6.4v7.7c0 1-.5 1.8-1.1 1.8h-4.2c-.6 0-1.1-.8-1.1-1.8v-7.7z" fill="url(#SVGID_12_)"/><linearGradient id="SVGID_13_" gradientUnits="userSpaceOnUse" x1="129.017" y1="99.464" x2="128.083" y2="82.626" gradientTransform="matrix(1 0 0 -1 -2.28 104.872)"><stop offset="0" stop-color="#fff" stop-opacity="0"/><stop offset=".14" stop-color="#fff" stop-opacity=".22"/><stop offset=".3" stop-color="#fff" stop-opacity=".45"/><stop offset=".45" stop-color="#fff" stop-opacity=".65"/><stop offset=".6" stop-color="#fff" stop-opacity=".8"/><stop offset=".73" stop-color="#fff" stop-opacity=".91"/><stop offset=".85" stop-color="#fff" stop-opacity=".98"/><stop offset=".94" stop-color="#fff"/></linearGradient><path d="M131.6 12.3c-3.3 1.6-7.2 1.6-10.5 0l3.1-6.8 2.3-5.1 2 4.7 3.1 7.2z" fill="url(#SVGID_13_)"/><path class="st8" d="M128.6 5.2c-1.4.6-2.9.8-4.4.4l2.3-5.1 2.1 4.7z"/><linearGradient id="SVGID_14_" gradientUnits="userSpaceOnUse" x1="127.662" y1="97.32" x2="133.505" y2="112.119" gradientTransform="matrix(1 0 0 -1 -2.28 104.872)"><stop offset="0" stop-color="#010101" stop-opacity="0"/><stop offset=".95" stop-color="#010101"/></linearGradient><path d="M128.6 5.2c-1.5.7-3.3.6-4.6.3l2.4-5.5 2.2 5.2z" fill="url(#SVGID_14_)"/><path class="st8" d="M33.1 25.4h31.3c.6 0 1.1.5 1.1 1.1 0 .6-.5 1.1-1.1 1.1H33.1c-.6 0-1.1-.5-1.1-1.1 0-.7.5-1.1 1.1-1.1zm0 3.6h31.3c.6 0 1.1.5 1.1 1.1 0 .6-.5 1.1-1.1 1.1H33.1c-.6 0-1.1-.5-1.1-1.1 0-.6.5-1.1 1.1-1.1zm0 3.6h31.3c.6 0 1.1.5 1.1 1.1 0 .6-.5 1.1-1.1 1.1H33.1c-.6 0-1.1-.5-1.1-1.1 0-.6.5-1.1 1.1-1.1zm10.8 3.6h20.8c.5 0 .9.4.9.9v.4c0 .5-.4.9-.9.9H43.9c-.5 0-.9-.4-.9-.9v-.4c0-.5.4-.9.9-.9zM33.5 48.3h31.3c.6 0 1.1.5 1.1 1.1 0 .6-.5 1.1-1.1 1.1H33.5c-.6 0-1.1-.5-1.1-1.1 0-.6.5-1.1 1.1-1.1zm0 3.7h31.3c.6 0 1.1.5 1.1 1.1 0 .6-.5 1.1-1.1 1.1H33.5c-.6 0-1.1-.5-1.1-1.1 0-.7.5-1.1 1.1-1.1zm0 3.6h31.3c.6 0 1.1.5 1.1 1.1 0 .6-.5 1.1-1.1 1.1H33.5c-.6 0-1.1-.5-1.1-1.1 0-.6.5-1.1 1.1-1.1zm10.7 3.6H65c.5 0 .9.4.9.9v.4c0 .5-.4.9-.9.9H44.2c-.5 0-.9-.4-.9-.9v-.4c0-.5.4-.9.9-.9zm23 13.2H35.8c-.6 0-1.1-.5-1.2-1.1-.1-.5.2-1 .7-1h31.5c.6 0 1.1.5 1.2 1 .1.5-.2 1-.7 1 0 .1-.1.1-.1.1zm.5 3.6H36.3c-.6 0-1.1-.5-1.2-1.1-.1-.5.2-1 .7-1h31.5c.6 0 1.1.5 1.2 1 .1.5-.2 1-.7 1.1h-.1zm.4 3.6H36.8c-.6 0-1.1-.5-1.2-1-.1-.5.2-1 .7-1h31.5c.6 0 1.1.5 1.2 1.1.1.5-.2 1-.7 1 0-.1-.1-.1-.2-.1zm.7 3.6H48c-.5 0-.9-.4-1-.9V82c-.1-.4.2-.8.6-.9h20.9c.5 0 .9.4 1 .9v.4c.1.4-.2.8-.6.9 0-.1 0-.1-.1-.1zM71 95.4H39.6c-.6 0-1.1-.5-1.3-1.1-.1-.5.2-.9.6-1h31.5c.6 0 1.1.5 1.3 1.1.1.5-.2.9-.6 1H71zm.7 3.6H40.3c-.6 0-1.1-.5-1.3-1.1-.1-.5.2-.9.6-1h31.5c.6 0 1.1.5 1.3 1.1.1.5-.2.9-.6 1h-.1zm.7 3.7H41c-.6 0-1.1-.5-1.3-1.1-.1-.5.2-.9.6-1H72c.6 0 1.1.5 1.3 1.1.1.5-.2.9-.6 1h-.3zm.8 3.7H52.5c-.5 0-.9-.4-1-.9l-.1-.4c-.1-.4.1-.8.5-.8h21c.5 0 .9.4 1 .9l.1.4c.1.4-.1.8-.5.9-.1-.1-.2-.1-.3-.1zm7.1-65.6H74c-2.5 0-4.5-2-4.5-4.5v-6.8c0-2.5 2-4.5 4.5-4.5h6.2c2.5 0 4.5 2 4.5 4.5v6.8c.1 2.5-1.9 4.5-4.4 4.5zM74 26.2c-1.8 0-3.3 1.5-3.3 3.3v6.8c0 1.8 1.5 3.3 3.3 3.3h6.2c1.8 0 3.3-1.5 3.3-3.3v-6.8c0-1.8-1.5-3.3-3.3-3.3H74zM81.9 64h-6.2c-2.4 0-4.4-1.9-4.5-4.3l-.3-6.6c-.1-2.5 1.8-4.6 4.3-4.7h6.4c2.4 0 4.4 1.9 4.5 4.3l.3 6.6c.1 2.5-1.8 4.6-4.3 4.7h-.2zm-6.5-14.4c-1.8 0-3.3 1.5-3.3 3.3v.2l.3 6.6c.1 1.7 1.5 3.1 3.3 3.1h6.2c1.8 0 3.3-1.5 3.3-3.3v-.2l-.3-6.6c-.1-1.7-1.5-3.1-3.3-3.1h-6.2zm2.3 35.9c-2.4 0-4.3-1.8-4.5-4.2l-.5-6.6c-.2-2.5 1.7-4.7 4.1-4.9h.2l6.2-.2c2.4-.1 4.4 1.7 4.7 4.1l.5 6.6c.2 2.5-1.7 4.7-4.2 4.9H84l-6.2.2-.1.1zm5.7-14.6h-.1l-6.3.2a3.4 3.4 0 0 0-3.2 3.4v.1l.5 6.6c.1 1.7 1.6 3.1 3.4 3l6.2-.2a3.4 3.4 0 0 0 3.2-3.4v-.2l-.5-6.6c-.1-1.6-1.5-2.9-3.2-2.9zm-.8 36.5c-2.2 0-4.1-1.6-4.5-3.8l-1-6.4c-.4-2.5 1.3-4.8 3.7-5.2.2 0 .4 0 .6-.1l6.2-.2c2.3-.1 4.2 1.6 4.6 3.8l1 6.4c.4 2.5-1.3 4.8-3.7 5.2-.2 0-.4 0-.6.1l-6.2.2h-.1zM87.7 93h-.1l-6.2.2c-1.8.1-3.2 1.6-3.1 3.4v.4l1 6.4c.3 1.6 1.7 2.8 3.3 2.7l6.2-.2a3.4 3.4 0 0 0 3.2-3.4v-.4l-1-6.4c-.3-1.5-1.7-2.7-3.3-2.7zm-44-83.2H74c1.2 0 2.2 1 2.2 2.2v3.5c0 1.2-1 2.2-2.2 2.2H43.7c-1.2 0-2.2-1-2.2-2.2V12c0-1.2.9-2.2 2.2-2.2z"/><linearGradient id="SVGID_15_" gradientUnits="userSpaceOnUse" x1="58.925" y1="112.376" x2="58.691" y2="123.832" gradientTransform="matrix(1 0 0 -1 0 131.242)"><stop offset="0" stop-color="#fff" stop-opacity="0"/><stop offset=".14" stop-color="#fff" stop-opacity=".22"/><stop offset=".3" stop-color="#fff" stop-opacity=".45"/><stop offset=".45" stop-color="#fff" stop-opacity=".65"/><stop offset=".6" stop-color="#fff" stop-opacity=".8"/><stop offset=".73" stop-color="#fff" stop-opacity=".91"/><stop offset=".85" stop-color="#fff" stop-opacity=".98"/><stop offset=".94" stop-color="#fff"/></linearGradient><path d="M43.7 9.8H74c1.2 0 2.2 1 2.2 2.2v3.5c0 1.2-1 2.2-2.2 2.2H43.7c-1.2 0-2.2-1-2.2-2.2V12c0-1.2.9-2.2 2.2-2.2z" fill="url(#SVGID_15_)"/><path class="st8" d="M77.4 37.9l-5.5-5.4c-.7-.7-.7-1.9 0-2.6.7-.7 1.9-.7 2.6 0l2.6 2.6 8.7-10.1c.7-.8 1.9-.9 2.6-.2.8.7.9 1.9.2 2.6L77.4 37.9zM80 60.6l-5.5-5.5c-.7-.7-.7-1.9 0-2.6.7-.7 1.9-.7 2.6 0l2.6 2.6L88.5 45c.7-.8 1.9-.9 2.6-.2.8.7.9 1.9.2 2.6L80 60.6zm1.8 21.6l-5.5-5.5c-.7-.7-.7-1.9 0-2.6.7-.7 1.9-.7 2.6 0l2.6 2.6 8.7-10.1c.7-.8 1.9-.9 2.6-.2.8.7.9 1.9.2 2.6L81.8 82.2zm4.9 21.8l-5.5-5.5c-.7-.7-.7-1.9 0-2.6s1.9-.7 2.6 0l2.6 2.6 8.7-10.1c.7-.8 1.9-.9 2.6-.2.8.7.9 1.9.2 2.6L86.7 104zm34.5 13.5h10.3v2.3h-10.3z"/><linearGradient id="SVGID_16_" gradientUnits="userSpaceOnUse" x1="126.238" y1="15.478" x2="126.942" y2="-3.928" gradientTransform="matrix(1 0 0 -1 0 131.242)"><stop offset="0" stop-color="#010101" stop-opacity="0"/><stop offset=".95" stop-color="#010101"/></linearGradient><path fill="url(#SVGID_16_)" d="M121.2 117.5h10.3v2.3h-10.3z"/><path class="st8" d="M131.6 119.8v7.7c0 1-.8 1.8-1.8 1.8H123c-1 0-1.8-.8-1.8-1.8v-7.7h10.4z"/><linearGradient id="SVGID_17_" gradientUnits="userSpaceOnUse" x1="128.613" y1="-23.145" x2="128.732" y2="1.993" gradientTransform="matrix(1 0 0 -1 -2.28 104.872)"><stop offset="0" stop-color="#010101" stop-opacity="0"/><stop offset=".95" stop-color="#010101"/></linearGradient><path d="M131.6 119.8v7.7c0 1-.8 1.8-1.8 1.8H123c-1 0-1.8-.8-1.8-1.8v-7.7h10.4z" fill="url(#SVGID_17_)"/></svg>