<svg id="Layer_1" xmlns="http://www.w3.org/2000/svg" viewBox="0 0 156.3 150"><style>.st2{fill:#fdcd01}.st5{fill:#72b2fc}.st7{fill:#c58067}.st10{fill:#606161}</style><path d="M61 148.3c13.7-2.5 27.6-5.1 39.7-12 5.1-2.9 9.8-6.6 15.3-8.6 5.1-1.8 10.7-2.1 15.9-3.7 13.8-4.1 24.2-17.7 24.5-32.1.3-13.9-7.9-26.6-10-40.4-2.3-14.4 1.3-31.3-8.9-41.7-5.2-5.3-12.8-7.4-20.1-8.6-8.8-1.5-18-2-26.4 1.1-8 2.9-14.6 8.7-22.3 12.2-13.2 5.9-28.6 4.6-42 10.2-14.5 6-25 20.3-26.5 35.9-2.1 21.2 11.3 40.9 13.1 62.1.4 5.3.2 10.8 2.3 15.7 6.3 14.7 33.2 12.1 45.4 9.9z" fill="#fff"/><linearGradient id="SVGID_1_" gradientUnits="userSpaceOnUse" x1="112.559" y1="1.895" x2="154.836" y2="125.578" gradientTransform="matrix(1 0 0 -1 -64.71 155.559)"><stop offset="0" stop-color="#010101" stop-opacity="0"/><stop offset=".95" stop-color="#010101"/></linearGradient><path d="M87.3 132.4c-28.1-1.1-56.3.1-84.3 3.3-.4 1.5.7 3.1 2.1 3.8s3.1.7 4.7.7l39.3-.2c12.3-.1 24.7-.1 37-.9 6.5-.4 13.1-1 19-3.6-1.2-2.6-4.6-3-7.4-3.1l-23.8-.5" fill="url(#SVGID_1_)"/><path class="st2" d="M147.2 128.7c0 4.3-16.3 7.9-36.3 7.9s-36.3-3.5-36.3-7.9c0-.6-.1-2.7 0-4.9v-.8c.6-2.3 5.8-4.3 13.5-5.6 6.6 1.4 14.7 3.5 22.8 3.5 8 0 15.8-2.1 22.2-3.6 8 1.3 13.3 3.4 14 5.7v.9c.2 2.2.1 4.3.1 4.8z"/><linearGradient id="SVGID_2_" gradientUnits="userSpaceOnUse" x1="176.076" y1="18.733" x2="174.561" y2="51.34" gradientTransform="matrix(1 0 0 -1 -64.71 155.559)"><stop offset="0" stop-color="#010101" stop-opacity="0"/><stop offset=".95" stop-color="#010101"/></linearGradient><path d="M147.2 128.7c0 4.3-16.3 7.9-36.3 7.9s-36.3-3.5-36.3-7.9c0-.6-.1-2.7 0-4.9v-.8c.6-2.3 5.8-4.3 13.5-5.6 6.6 1.4 14.7 3.5 22.8 3.5 8 0 15.8-2.1 22.2-3.6 8 1.3 13.3 3.4 14 5.7v.9c.2 2.2.1 4.3.1 4.8z" fill="url(#SVGID_2_)"/><path class="st2" d="M147.2 123.4v.4c-1 4.1-16.9 7.4-36.3 7.4-19.6 0-35.6-3.4-36.3-7.5v-.3c0-.2 0-.3.1-.5.6-2.3 5.8-4.3 13.5-5.6 6.2-1.1 14.2-1.7 22.8-1.7 8.4 0 16.1.6 22.2 1.6 8 1.3 13.3 3.4 14 5.7v.5z"/><path d="M66.7 39c.3.9.5 1.8.6 2.8.1 1-.2 1.9-.7 2.7-.8 1-2.1 1.4-3.4 1.2-1.2-.2-2.4-.9-3.2-1.8-1.7-1.8-2.5-4.6-1.5-6.9.2-.5.5-.9.9-1.2.6-.5 1.3-.8 2-.9 1.2-.2 3.2-.3 4.1.7.3.3.3.7.4 1.1.3.8.6 1.5.8 2.3z" fill="none"/><path class="st5" d="M41.9 43.8s-5.4 6-5.7 6.8c-3 7.1 3.9 28.3 4.2 29.9.3 1.5 8.6 1 12.2 0 2.4-.7 4.7-1.7 6.9-2.8 0 0-4.1-32.6-4.8-33.1s-6.3-1-6.3-1l-6.5.2z"/><linearGradient id="SVGID_3_" gradientUnits="userSpaceOnUse" x1="93.237" y1="96.111" x2="228.917" y2="65.483" gradientTransform="matrix(1 0 0 -1 -64.71 155.559)"><stop offset="0" stop-color="#010101" stop-opacity="0"/><stop offset=".95" stop-color="#010101"/></linearGradient><path d="M55.7 75.5c-1.2-1.2-3.1-.9-4.7-.8-2.7.2-5.3 0-8-.3-1.4-.1-2.8-.3-3.9-1.1-1.4-1.1-1.8-3.1-2.1-4.8l-1-5.4c-.1-.6-.2-1.3 0-1.9 3.7 5.7 9.8 9.4 16.6 9.9.6-1.1.2-2.4 0-3.6-.5-2.2-.4-4.5-.3-6.7.1-1.4.3-2.8.9-4.1.6-1.3 1.6-2.4 2.9-2.9.6 2.6 1.2 5.2 2.1 7.8.9 2.5 2.1 4.8 2.8 7.4.2.7.3 1.5.2 2.2-.1.8-.6 1.5-.9 2.2-.3.8-.5 1.6-.6 2.4-.1.9-.3 2.4-1.6 2.2-1.1-.2-1.7-1.8-2.4-2.5z" fill="url(#SVGID_3_)"/><path class="st7" d="M62.4 130.3s1.1 4.1 1.6 4.4c.5.3 3.9 0 4.1-1.2 0-.3-.4-2.6-.4-2.6l-.2-1.1-5.1.5zm-27-2s-2 5.5-1.8 6.1 2.6-.3 3.9-.2c1.3.1 1.7-1.9 1.7-1.9l.4-1.2-4.2-2.8zm6-87.6s.8 3.3.5 4.6 1.8 4.8 4.3 4.8 2.5-4.3 2.5-4.8-.8-.8-.5-2-6.5-4.1-6.8-2.6z"/><path d="M48.3 43.3c-.2 1 .2 1.4.4 1.7-.6.6-1.3.9-2.1.9-1.5 0-3.8-1.3-4.8-3.6 0 0 0-.1-.1-.1-.1-.8-.3-1.5-.3-1.5.3-1.5 7.1 1.3 6.9 2.6z" fill="#b6765e"/><path d="M42 44.8s2 4.8 3.8 5.3c0 0 .5.3-.8 1s-4.8-3.1-4.3-5.8c.1-.7.6-1.3 1.3-1.6v1.1zm6.3-1s.6 3.5-.9 6c0 0 .6.9 1.1.9.5 0 1.8-3.1 1.3-5.3-.3-1.4-1.3-2-1.5-1.6z" fill="#fff"/><path class="st10" d="M40.4 80.4l2.8 22.1-8.7 28.6s1.6.9 4.9.6l11.7-28.3.2-18 3.8 15.5 7.3 30.2s3.7.8 5.9-.8L63.5 101l-4.1-23.4-19 2.8z"/><linearGradient id="SVGID_4_" gradientUnits="userSpaceOnUse" x1="112.325" y1="47.381" x2="150.409" y2="62.406" gradientTransform="matrix(1 0 0 -1 -64.71 155.559)"><stop offset="0" stop-color="#010101" stop-opacity="0"/><stop offset=".95" stop-color="#010101"/></linearGradient><path d="M40.4 80.4l2.8 22.1-8.7 28.6s1.6.9 4.9.6l11.7-28.3.2-18 3.8 15.5 7.3 30.2s3.7.8 5.9-.8L63.5 101l-4.1-23.4-19 2.8z" fill="url(#SVGID_4_)"/><path class="st7" d="M49.8 33.4s.5 6.6 0 8.4c-.5 1.8-2 3.3-3.6 3.3-1.5 0-3.8-1.3-4.8-3.6s-1.5-7.9-1.3-8.6c.2-.8 1.8-3.2 5.9-2.8 2.8.2 3.8 2.2 3.8 3.3z"/><path class="st10" d="M40.4 36.6c.2.5 1 .5 1.5.1.4-.4.5-1 .4-1.6-.1-.5-.3-1.1-.3-1.6-.1-.2 0-.4.2-.5h.2c.8 0 1.7.3 2.2-.2.3-.3.4-.9.8-1 .4-.1.7.1 1.1.3.8.4 1.7.5 2.6.3.5-.1 1-1.3 1.1-1.9.3-.9-.1-1.8-.8-2.4-.7-.5-1.6-.5-2.4-.5h-3.3c-.9 0-1.7.1-2.6.3-2.1.7-3.5 2.8-3.2 5 .1.5.2.9 0 1.4-.1.2-.3.4-.5.6-.8.9-.5 2.3 0 3.4s1.4 2 1.7 3.2c.2.7.3 1.5 1 1.8.5.1 1.1-.1 1.3-.6.2-.5.3-1 .2-1.5"/><path class="st7" d="M41.3 37.6s-.3-1.5-1.3-1 .3 3.3.8 3.6c.2.1.5.2.8.2"/><path class="st5" d="M50.9 45.3s1.3-.9 2.6-.8c1.3 0 14.6 2.8 16.2 5 1.5 2.2 1.3 5.4.5 5.7s-5.4-1.5-6.4-1.9-8.9-1.4-8.9-1.4l-4-6.6z"/><path class="st5" d="M68.8 55l-9.7-13.8s.8-2.8 4.2-2.4c0 0 6.1 6.8 8.7 13.1 1.1 2.7-2.7 3.8-3.2 3.1z"/><circle class="st2" cx="84.3" cy="58.9" r="30.4"/><linearGradient id="SVGID_5_" gradientUnits="userSpaceOnUse" x1="51.407" y1="171.781" x2="153.429" y2="-43.444" gradientTransform="matrix(1 0 0 -1 0 161.539)"><stop offset="0" stop-color="#fff" stop-opacity="0"/><stop offset=".95" stop-color="#fff"/></linearGradient><circle cx="84.1" cy="58.8" r="25.6" fill="url(#SVGID_5_)"/><path class="st7" d="M56.3 72.2c3.1.6 6.8 1.3 9.5-.8l.2-.2c.1-.1.1-.2.1-.4.1-.6-.1-1.2-.5-1.7-.3-.4-.9-.5-1.4-.6-1.1-.3-2.3-.6-3.4-.8-1.8-.2-4.8.9-4.8.9s-1.8 2.2.3 3.6z"/><path class="st5" d="M35.9 51.1s2.2.7 2.9 1.7c.8 1 6.9 13.2 6.1 15.8-.8 2.5-3.3 4.2-4.2 3.9-3.3-1.4-5.1-11.6-5.1-11.6l.3-9.8z"/><path class="st5" d="M41.5 66.4L57.6 68s1.8 2.3-.6 4.8c0 0-9.4 1.5-16-.2-2.9-.8-.3-6.3.5-6.2z"/><path class="st7" d="M58.9 39.1c-.3.1-.5.4-.7.6-.2.4-.1.9 0 1.3s.3.8.5 1.1c.2.2.5.4.7.5.3.2.6.3.9.2.3-.1.5-.3.6-.6l.3-.9c.3-.6 1.1-1 1.4-1.6.1-.3.1-.6.1-.9 0-.6-.3-1.3-.9-1.4-.2 0-.5 0-.7.1-.7.3-1.5 1.1-2.2 1.6z"/><linearGradient id="SVGID_6_" gradientUnits="userSpaceOnUse" x1="112.367" y1="97.648" x2="94.663" y2="68.065" gradientTransform="matrix(1 0 0 -1 -64.71 155.559)"><stop offset="0" stop-color="#010101" stop-opacity="0"/><stop offset=".95" stop-color="#010101"/></linearGradient><path d="M43.9 65.6c.1.3.2.6.4.9.3.2.8.4 1.2.3l2.4.1c-3-2.4-4.3-5.8-5.9-9.1.5 2.6 1.2 5.2 1.9 7.8z" fill="url(#SVGID_6_)"/><path class="st10" d="M32.6 134.9c-.2.4-.4.9-.5 1.4-.2 1.5 1 2.8 2.4 3.5.9.6 2.1.8 3.1.7 1.1-.2 2.1-.9 2.3-2 .2-.9-.1-1.7-.4-2.6l-.6-1.8c0-.2-.1-.3-.3-.4-.1-.1-.3-.1-.4-.1-1.2 0-2.5-.2-3.7-.1-.4.1-.7 0-1 .2-.2.2-.8 1.2-.9 1.2zm44.1 1.5c.1.1.2.3.2.5-.1.2-.4.4-.8.4-3.3.8-6.9.6-10.3.5-.5 0-1-.1-1.4-.2-.6-.3-1-.9-1-1.5 0-.4-.1-.7-.1-1.1-.1-.3.2-.6.5-.6 1-.3 1.9-.6 2.8-1 1.2-.4 1.9-.3 3.1 0 2.6.5 5.5 1.2 7 3z"/><linearGradient id="SVGID_7_" gradientUnits="userSpaceOnUse" x1="115.712" y1="179.246" x2="234.031" y2="-70.356" gradientTransform="matrix(1 0 0 -1 -64.71 155.559)"><stop offset="0" stop-color="#fff" stop-opacity="0"/><stop offset=".95" stop-color="#fff"/></linearGradient><path d="M65.6 35.6l36.1 47.7s6.5-3.7 9.1-9.3L76.3 29.4" fill="url(#SVGID_7_)"/><path class="st2" d="M147.2 121.7c0 4.3-16.3 7.9-36.3 7.9s-36.3-3.5-36.3-7.9c0-.6-.1-2.7 0-4.9v-.8c.6-2.3 5.8-4.3 13.5-5.6 6.6 1.3 14.7 3.5 22.8 3.5 8 0 15.8-2.1 22.2-3.6 8 1.3 13.3 3.4 14 5.7v.9c.2 2.2.1 4.3.1 4.8z"/><linearGradient id="SVGID_8_" gradientUnits="userSpaceOnUse" x1="176.076" y1="25.718" x2="174.561" y2="58.328" gradientTransform="matrix(1 0 0 -1 -64.71 155.559)"><stop offset="0" stop-color="#010101" stop-opacity="0"/><stop offset=".95" stop-color="#010101"/></linearGradient><path d="M147.2 121.7c0 4.3-16.3 7.9-36.3 7.9s-36.3-3.5-36.3-7.9c0-.6-.1-2.7 0-4.9v-.8c.6-2.3 5.8-4.3 13.5-5.6 6.6 1.3 14.7 3.5 22.8 3.5 8 0 15.8-2.1 22.2-3.6 8 1.3 13.3 3.4 14 5.7v.9c.2 2.2.1 4.3.1 4.8z" fill="url(#SVGID_8_)"/><path class="st2" d="M147.2 116.4v.4c-1 4.1-16.9 7.4-36.3 7.4-19.6 0-35.6-3.4-36.3-7.5v-.3c0-.2 0-.3.1-.5.6-2.3 5.8-4.3 13.5-5.6 6.2-1.1 14.2-1.7 22.8-1.7 8.4 0 16.1.6 22.2 1.6 8 1.3 13.3 3.4 14 5.7v.5z"/><path class="st2" d="M147.2 114c0 4.3-16.3 7.9-36.3 7.9s-36.3-3.5-36.3-7.9c0-.6-.1-2.7 0-4.9v-.8c.6-2.3 5.8-4.3 13.5-5.6 6.6 1.3 14.7 3.5 22.8 3.5 8 0 15.8-2.1 22.2-3.6 8 1.3 13.3 3.4 14 5.7v.9c.2 2.3.1 4.3.1 4.8z"/><linearGradient id="SVGID_9_" gradientUnits="userSpaceOnUse" x1="176.068" y1="33.406" x2="174.553" y2="66.016" gradientTransform="matrix(1 0 0 -1 -64.71 155.559)"><stop offset="0" stop-color="#010101" stop-opacity="0"/><stop offset=".95" stop-color="#010101"/></linearGradient><path d="M147.2 114c0 4.3-16.3 7.9-36.3 7.9s-36.3-3.5-36.3-7.9c0-.6-.1-2.7 0-4.9v-.8c.6-2.3 5.8-4.3 13.5-5.6 6.6 1.3 14.7 3.5 22.8 3.5 8 0 15.8-2.1 22.2-3.6 8 1.3 13.3 3.4 14 5.7v.9c.2 2.3.1 4.3.1 4.8z" fill="url(#SVGID_9_)"/><path class="st2" d="M147.2 108.8v.4c-1 4.1-16.9 7.4-36.3 7.4-19.6 0-35.6-3.4-36.3-7.5v-.3c0-.2 0-.3.1-.5.6-2.3 5.8-4.3 13.5-5.6 6.2-1.1 14.2-1.8 22.8-1.8 8.4 0 16.1.6 22.2 1.7 8 1.3 13.3 3.4 14 5.7v.5z"/><path class="st2" d="M147.2 107c0 4.3-16.3 7.9-36.3 7.9s-36.3-3.5-36.3-7.9c0-.6-.1-2.7 0-4.9v-.8c.6-2.3 5.8-4.3 13.5-5.6 6.6 1.3 14.7 3.5 22.8 3.5 8 0 15.8-2.1 22.2-3.6 8 1.3 13.3 3.4 14 5.7v.9c.2 2.3.1 4.3.1 4.8z"/><linearGradient id="SVGID_10_" gradientUnits="userSpaceOnUse" x1="176.068" y1="40.394" x2="174.553" y2="73.004" gradientTransform="matrix(1 0 0 -1 -64.71 155.559)"><stop offset="0" stop-color="#010101" stop-opacity="0"/><stop offset=".95" stop-color="#010101"/></linearGradient><path d="M147.2 107c0 4.3-16.3 7.9-36.3 7.9s-36.3-3.5-36.3-7.9c0-.6-.1-2.7 0-4.9v-.8c.6-2.3 5.8-4.3 13.5-5.6 6.6 1.3 14.7 3.5 22.8 3.5 8 0 15.8-2.1 22.2-3.6 8 1.3 13.3 3.4 14 5.7v.9c.2 2.3.1 4.3.1 4.8z" fill="url(#SVGID_10_)"/><path class="st2" d="M147.2 101.8v.4c-1 4.1-16.9 7.4-36.3 7.4-19.6 0-35.6-3.4-36.3-7.5v-.3c0-.2 0-.3.1-.5.6-2.3 5.8-4.3 13.5-5.6 6.2-1.1 14.2-1.8 22.8-1.8 8.4 0 16.1.6 22.2 1.7 8 1.3 13.3 3.4 14 5.7v.5z"/><linearGradient id="SVGID_11_" gradientUnits="userSpaceOnUse" x1="169.814" y1="83.959" x2="186.235" y2="-6.532" gradientTransform="matrix(1 0 0 -1 -64.71 155.559)"><stop offset="0" stop-color="#fff" stop-opacity="0"/><stop offset=".95" stop-color="#fff"/></linearGradient><path d="M140.2 101.3v.3c-.8 3.4-13.8 6.1-29.7 6.1-16 0-29.1-2.7-29.7-6.2v-.3c0-.1 0-.3.1-.4.5-1.9 4.7-3.5 11-4.6 5.1-.9 11.6-1.4 18.7-1.4 6.9 0 13.2.5 18.2 1.4 6.5 1.1 10.9 2.8 11.5 4.7-.1.1-.1.2-.1.4z" fill="url(#SVGID_11_)"/><linearGradient id="SVGID_12_" gradientUnits="userSpaceOnUse" x1="179.718" y1="65.373" x2="172.906" y2="29.56" gradientTransform="matrix(1 0 0 -1 -64.71 155.559)"><stop offset="0" stop-color="#fff" stop-opacity="0"/><stop offset=".95" stop-color="#fff"/></linearGradient><path d="M82.8 96.9l47.7 11.2s10.5-1 12.8-3.3L96.4 94.4s-12.6 1.8-13.6 2.5z" fill="url(#SVGID_12_)"/><g id="XMLID_37_"><path id="XMLID_38_" class="st2" d="M92.4 57.8c-1.9-1.2-3.9-2.3-6.2-3v-7.2c1 .2 1.9.6 2.7 1.3.8.6 1.5 1.3 2.2 1.9l4-3.7c-.8-.7-1.5-1.3-2.1-1.8-.6-.5-1.3-1-2-1.3-.7-.4-1.4-.7-2.2-.9-.8-.2-1.6-.4-2.7-.5v-2.9H82v2.9c-1.1.1-2.2.4-3.3.8-1.1.4-2 1-2.9 1.6-.8.7-1.5 1.5-2 2.5s-.8 2-.8 3.3c0 2.5.9 4.3 2.7 5.7 1.4 1.1 3.5 2.1 6.3 3.2v8c-1.2-.3-2.2-.8-3-1.4-.8-.7-1.5-1.5-2.1-2.5l-4.4 3.6c1.3 1.6 2.7 2.8 4.2 3.7 1.5.8 3.3 1.4 5.3 1.6v4.9h4.1v-4.9c2.7-.2 4.8-.9 6.3-2.1 1.9-1.4 2.9-3.4 3-6.1V64c.2-2.8-.9-4.8-3-6.2zM86.2 61c.8.4 1.5.7 1.9 1 1.2.6 1.7 1.4 1.7 2.4 0 .5-.1 1-.3 1.4-.2.4-.5.7-.8.9-.3.3-.7.5-1.2.6-.4.1-.9.3-1.3.3V61zm-5.1-8.2c-.4-.2-.8-.4-1.1-.6-.3-.2-.6-.5-.8-.9-.2-.3-.3-.7-.3-1.1 0-.4.1-.8.3-1.1.2-.3.5-.6.8-.8.3-.2.7-.4 1.1-.5l1.2-.3v5.9c-.5-.3-.8-.4-1.2-.6z"/></g><g id="XMLID_31_"><path id="XMLID_32_" class="st2" d="M111.3 104.2c.9-.8 1.7-1.7 2.2-2.7l5.7-.4c-.1.4-.4.8-.9 1.2-.5.4-.9.7-1.4 1l3 1.5c.5-.3 1-.7 1.3-1 .4-.3.7-.6 1-.9.3-.3.5-.6.6-.9.1-.3.3-.7.3-1.1l2.3-.1-.1-1.7-2.3.1c-.1-.5-.4-.9-.7-1.3-.4-.4-.8-.8-1.4-1.1-.6-.3-1.2-.6-2-.7-.8-.2-1.6-.2-2.6-.2-1.9.1-3.4.6-4.4 1.4-.8.7-1.6 1.6-2.3 2.8l-6.3.4c.2-.5.5-.9 1-1.3s1.1-.7 1.9-1l-2.9-1.7c-1.2.6-2.2 1.3-2.8 1.9-.6.7-1 1.4-1.1 2.3l-3.9.2.1 1.7 3.8-.2c.3 1.1.9 2 1.8 2.5 1.2.7 2.8 1 4.9.9h.4c2.1-.1 3.7-.7 4.8-1.6zm-2.8-2.5c-.3.4-.5.6-.7.9-.5.5-1.1.8-1.8.8-.4 0-.8 0-1.1-.1-.3-.1-.5-.2-.8-.3-.2-.1-.4-.3-.5-.5-.1-.2-.2-.4-.3-.5l5.2-.3zm6.4-2.5c.1-.2.3-.3.5-.5.2-.1.4-.3.6-.4.2-.1.5-.2.8-.2.3 0 .6 0 .9.1.3.1.5.2.7.3.2.1.3.3.4.4.1.2.2.3.3.5l-4.6.3c.1-.2.3-.3.4-.5z"/></g></svg>