<svg xmlns="http://www.w3.org/2000/svg" viewBox="0 0 46.9 50.1"><path d="M45.9.8h-5.3C33 .8 25.5.3 17.9.4 12.6.5 7.3.2 2.1 0 1 0 .7.3.7 1.3.6 6.7.4 12 .3 17.4c0 .4-.2.8.2 1.2C.3 23.8.2 29.1 0 34.4c0 .8.2 1.1 1 1.1l11.6.3c1.7.1 3.3.1 5-.1.4.3.5.6.6 1 .7 4.1 2.1 8.1 2.9 12.3.1.4.2 1 .7 1 .6.1.6-.5.7-.9 1.5-4 3.1-7.9 4.1-12 .2-.7.5-1 1.2-.9 1.9.1 3.8.1 5.8.2 2.2.1 4.4.1 6.6.2 1.4 0 2.9 0 4.3.1.9.1 1.2-.3 1.1-1.1.3-.2.2-.5.2-.8.3-11 .6-22 1-33 .1-.8-.2-1-.9-1zM22.3 30.3zM9 18.8c0-.1 0-.1 0 0 0-.1 0-.1 0 0zm35.5 13z" fill="#e5ebf2"/><path d="M32.9 20.7c-.2-.1-.4-.1-.5-.1h-3.6c-.2 0-.4-.1-.3-.3 0-.2.1-.5.1-.7.1-.3.1-.6.1-.9.1-.2.1-.4.1-.6.1-.5.1-1 .2-1.5.1-.2.1-.4.1-.6.1-.2.1-.3.1-.5s.1-.3.1-.5c.1-.2.1-.4.1-.6 0-.2.1-.2.3-.2h3.1c.7-.1 1.2-.4 1.4-1.1v-.6c0-.1 0-.2-.1-.3-.1-.3-.3-.5-.5-.6 0 0-.1 0-.1-.1-.2-.1-.5-.2-.7-.2h-3v-.2c.1-.2 0-.3.1-.5s0-.4.1-.6c.1-.5.1-1 .2-1.6.1-.2.1-.4.1-.5.1-.2.1-.4.1-.6 0-.6-.5-1.2-1.1-1.3-1.3.1-1.9.4-2.1 1-.1.1-.1.2-.1.3-.1.7-.2 1.4-.2 2.2-.1.3-.1.7-.1 1.1-.1.2-.1.3-.1.5-.1.1 0 .4-.3.4h-5.3c-.2 0-.3-.1-.2-.3v-.3.1c.1-.2 0-.3.1-.5.1-.3.1-.6.1-1 .1-.7.2-1.3.2-2 .1-.5-.1-.9-.5-1.2-.2-.2-.5-.3-.7-.3h-.4c-.6.1-1 .5-1.1 1.1-.1.4-.1.8-.1 1.1-.1.6-.2 1.2-.2 1.9-.1.2-.1.3-.1.5-.1.2-.1.4-.1.6 0 .2-.1.2-.3.2h-2.7c-.5 0-1-.1-1.5.1-.1.1-.3.1-.3.2-.1 0-.1.1-.2.2v.1c-.3.4-.4.9-.1 1.3.1.2.2.4.5.5.5.3 1 .3 1.5.3h.9V14v.1h1.5c.1.1.3 0 .4 0 0 0 .1 0 .1.1v.3c-.1.1-.1.3 0 .4v.1c-.1.1-.1.3 0 .4-.1.2-.1.3-.1.5-.1.1-.1.3 0 .4-.1.2-.1.3-.1.5-.1.6-.2 1.2-.2 1.9-.1.5-.1.9-.2 1.4-.1.2 0 .3-.1.5h-3.9c-.3 0-.5 0-.8.2-.5.3-.7.8-.6 1.3.1.5.4.9.9 1.1.1.1.1 0 .2 0 .1.1.2 0 .4 0h3.3v.5c-.1.3-.1.6-.1 1-.1.3-.1.6-.1.9-.1.1-.1.3-.1.5-.1.6-.2 1.2-.2 1.8 0 .7.5 1.3 1.2 1.3.7.1 1.3-.4 1.5-1.1.1-.4.1-.9.2-1.3.1-.3.1-.7.1-1 .1-.1.1-.3.1-.5.1-.1.1-.3.1-.5.1-.2.1-.4.1-.6.1-.3.1-.5.1-.8v-.1c.1-.4.1-.4.6-.4h5.5v.2c-.1.3-.1.6-.1 1-.1.2-.1.4-.1.6v.5c-.5 1.1-.5 1.6-.5 2.1-.1.4-.1.7-.1 1.1-.1.8.4 1.4 1.1 1.6.7.1 1.4-.3 1.6-1.1.1-.4.1-.9.1-1.3.1-.2.1-.4.1-.6.1-.2 0-.3.1-.5.1-.3.1-.6.1-.9.1-.2.1-.4.1-.6.1-.3.1-.7.1-1 .1-.1 0-.3.1-.4h.4c.9 0 1.9 0 2.8-.1h.1c.5 0 1.1.1 1.6-.1s.9-.8.9-1.3c-.2-.8-.7-1.3-1.2-1.4zm-20.1-7.8zM27.3 18zm-.2.3s0-.1 0 0c0-.1 0-.1 0 0 0-.1 0 0 0 0zm-.4 1.5s0-.1 0 0c0-.1 0-.1 0 0zm-.3-1zm-.1 5.3zm.4 2.9zm.5-2.1zm-.8-5zm1.4 3.1c.1 0 .1 0 0 0 .1 0 .1 0 0 0 .1 0 .1 0 0 0zm-2.3 1.8zm.5 2.5zm1.3-16.5zm.9 2zm1-.7zm2.2 1.3zm-2.7-2.5zm-2.3 3.5zm-9 8.3s.1 0 0 0c.1 0 .1 0 0 0zm1.3-7.3zm.7.5zm-1.2 3.6c0 .1.1.1 0 0 0 .1 0 .1 0 0 0 .1 0 .1 0 0zm-.2-1s0 .1 0 0c0 .1 0 .1 0 0zm.2 2.3zm-.3 2.1zm-.1 0zm1.8-2.4zm.2-5.5c0-.1 0-.1 0 0 0-.1 0-.1 0 0 0-.1 0-.1 0 0zm-.1-4.2c0 .1 0 .1 0 0 0 .1 0 .1 0 0zm-.9-.7zM17 22.6zm6.9-.1zm.1.3s0 .1 0 0c0 .1 0 0 0 0zm-4.4-2zm-2.7.6zm-.1 0s.1 0 0 0c.1 0 0 0 0 0zm-.8.8zm0 0s-.1 0 0 0c-.1 0-.1 0 0 0zm-2.7 1.1zm2.3-1zM13 23.5zm11-.2zm-3.2-9.1h5c.2 0 .3 0 .5.1h.1v.3c-.1.2-.1.3-.1.5-.1.2 0 .3-.1.5s0 .3-.1.5c-.1.9-.2 1.7-.3 2.6l-.1.1c-.1.3-.2.7-.1 1-.1.2-.1.3-.1.5h-.1c-.2.1-.4.1-.5.1h-4.8c-.1 0-.1.1-.2.1s-.3.1-.4 0v-.2c.1-.1.1-.3.1-.5.1-.2.1-.3.1-.5.1-.2 0-.3.1-.5s0-.3.1-.5c0-.2.1-.4.1-.6.1-.6.1-1.1.2-1.7.1-.3.1-.6.1-.9 0-.2.1-.3.1-.5v-.2c.1-.1.1-.2 0-.3v-.3c.2.4.3.4.4.4zm-6.1-.4zm3 .7zm7.2 8.7zm3 1.9z" fill="#084169"/></svg>