<svg id="Слой_1" xmlns="http://www.w3.org/2000/svg" xmlns:xlink="http://www.w3.org/1999/xlink" viewBox="0 0 700 544"><style>.st1{fill:#609a3e}.st6{fill:#b8b8b8}.st10{fill:#fff}.st11{fill:#1a598c}.st12{fill:#2273b5}.st15{fill:#6f5be0}.st31{fill:#69d198}.st32{fill:#009d56}.st34{fill:#ff9200}.st35{fill:#ffca00}.st36{fill:#f98300}.st37{fill:#ffb000}.st38{opacity:.17;fill:#fff}.st41{fill:#eea886}.st42{fill:#e4e8eb}.st45{fill:#0f324f}.st51{fill:#292c47}.st52{fill:#e2d2ca}.st55{fill:#424773}.st56{fill:#3a3f47}.st57{fill:#323657}</style><image width="871" height="715" xlink:href="8A17F0C1.png" transform="translate(-79.787 -63.109)" overflow="visible" opacity=".25"/><defs><path id="SVGID_1_" d="M260.4 337.5c-.5 1.1-1.7 1.5-2.9 1.1-11.1-4.3-24.1-4.1-35 .7-1.1.5-2.4 0-2.9-1s0-63.5 1.2-64c11.9-5.2 26.2-5.5 38.3-.7 1.2.4 1.8 62.9 1.3 63.9z"/></defs><clipPath id="SVGID_2_"><use xlink:href="#SVGID_1_" overflow="visible"/></clipPath><linearGradient id="SVGID_3_" gradientUnits="userSpaceOnUse" x1="348.063" y1="487.532" x2="348.063" y2="373.296"><stop offset="0" stop-color="#d5e4ff"/><stop offset="1" stop-color="#edfffe"/></linearGradient><path d="M474.8 445.3H221.3c-3.2 0-5.8-2.6-5.8-5.8v-35.4c0-3.2 2.6-5.8 5.8-5.8h253.5c3.2 0 5.8 2.6 5.8 5.8v35.4c0 3.2-2.6 5.8-5.8 5.8z" fill="url(#SVGID_3_)"/><path class="st1" d="M599.2 133.4c-16.5 3.2-22.7 35.3-23.9 42.1-.1.8-.2 1.3-.2 1.3-1.2-1.1-2.3-2.2-3.4-3.4-18.1-20.3-26.8-61.6-4.1-72.1 24-11.1 14-34.3 17.8-54.4 3.9-20.1 36.6-30 36.6-30s-11.7 23.3-2.6 54c9.2 30.8-1.7 58.9-20.2 62.5z"/><linearGradient id="SVGID_4_" gradientUnits="userSpaceOnUse" x1="1284.715" y1="-1760.237" x2="1284.715" y2="-1852.013" gradientTransform="rotate(21.228 -4264.222 -2718.7)"><stop offset=".005" stop-color="#3c6127"/><stop offset="1" stop-color="#639c38"/></linearGradient><path d="M575.1 176.8c-1.2-1.1-2.3-2.2-3.4-3.4-5.6-12-10.3-30.3 1.8-45.7 4.3-5.5 8.2-10 11.6-14 12.2-14.2 18.3-21.4 17.5-41.3l2.4.1c.9 20.6-5.8 28.4-17.9 42.5-3.4 4-7.3 8.5-11.5 13.9-12.4 15.9-6.1 35.1-.2 46.5-.2 1-.3 1.4-.3 1.4z" fill="url(#SVGID_4_)"/><path class="st1" d="M579.5 180.6c-17.5 20-26.3 29.3-36.8 18.7-.4-.4-.9-.9-1.3-1.5-.8-1-1.7-2.3-2.6-3.7-12.4-20.9 3.5-76.4 42.1-85.7 38.6-9.3 18.3-37.6 40.2-56.9 23.4-20.6 49.9 6 49.9 6-18.3-5.9-33.7 50.8-46 78.6-15 33.5-25.8 22.1-45.5 44.5z"/><linearGradient id="SVGID_5_" gradientUnits="userSpaceOnUse" x1="2173.037" y1="-4861.232" x2="2173.037" y2="-5025.902" gradientTransform="rotate(44.283 -4853.187 -4352.17)"><stop offset=".005" stop-color="#3c6127"/><stop offset="1" stop-color="#639c38"/></linearGradient><path d="M542.7 199.3c-.4-.4-.9-.9-1.3-1.5 3.9-18.7 17-49.1 33.2-56.6 24.8-11.5 37.9-26.6 42.4-48.9C622.3 66 639.6 64 639.8 64l.1 1.6c-.2 0-16.3 1.9-21.4 27-4.6 22.9-17.9 38.3-43.3 50.1-8.8 4.1-18 16.2-25.2 33.2-3.5 8.5-6 16.9-7.3 23.4z" fill="url(#SVGID_5_)"/><linearGradient id="SVGID_6_" gradientUnits="userSpaceOnUse" x1="236.49" y1="-1.147" x2="553.681" y2="568.938"><stop offset="0" stop-color="#d5e4ff"/><stop offset="1" stop-color="#edfffe"/></linearGradient><path d="M576.6 421.8H132.4c-6.5 0-11.8-5.3-11.8-11.8V11.8c0-6.5 5.3-11.8 11.8-11.8h444.2c6.5 0 11.8 5.3 11.8 11.8V410c0 6.5-5.3 11.8-11.8 11.8z" fill="url(#SVGID_6_)"/><path d="M148.1 209.7h1v108.6h-1zm73.6 0h1v108.6h-1zm73.5 0h1v108.6h-1zm73.6 0h1v108.6h-1zm73.6 0h1v108.6h-1z" fill="#e0e0e0"/><path class="st6" d="M148.6 324.7h11.7v3.8h-11.7z"/><path d="M148.6 196.4h17.6v2.8h-17.6zm0 5.2h25v2.8h-25zm72.8-5.2h20.7v2.8h-20.7zm0 5.2h13.2v2.8h-13.2zm74.9-5.2h12.8v2.8h-12.8zm0 5.2h14.9v2.8h-14.9zm73.6-5.2h18.7v2.8h-18.7zm0 5.2h14.9v2.8h-14.9zm73-5.2h11.2v2.8h-11.2zm0 5.2h8.9v2.8h-8.9z" fill="#d9d9d9"/><path class="st6" d="M222.2 324.7h11.7v3.8h-11.7zm74.1 0H308v3.8h-11.7zm73.6 0h11.7v3.8h-11.7zm73.5 0h11.7v3.8h-11.7z"/><linearGradient id="SVGID_7_" gradientUnits="userSpaceOnUse" x1="148.61" y1="261.977" x2="442.911" y2="261.977"><stop offset="0" stop-color="#ffc05c"/><stop offset="1" stop-color="#ff3857"/></linearGradient><path d="M417.4 286.1c-22.9 0-42.9-9.9-63.7-20.3-25.7-12.8-52.2-26-87.6-22.4-22.6 2.3-36.8 11.5-49.3 19.6-11.3 7.3-22 13.8-36.5 14.4-23.4.9-31.6-9.1-31.7-9.7v-6.4c0 .1 5.1 11.3 31.7 11.2 13.1-.1 22.7-6.3 33.9-13.6 13-8.4 27.7-18 51.5-20.4 36.8-3.8 64 9.8 90.3 22.8 27.5 13.7 53.8 26.5 87 15.4v5.3c-9.6 3.2-17.1 4.1-25.6 4.1z" fill="url(#SVGID_7_)"/><linearGradient id="SVGID_8_" gradientUnits="userSpaceOnUse" x1="148.61" y1="254.013" x2="443.067" y2="254.013"><stop offset="0" stop-color="#40d5e6"/><stop offset="1" stop-color="#57f"/></linearGradient><path d="M279.7 284.8c-16.9 0-30.4-11.4-43.5-22.5-10-8.5-20.3-17.1-32.3-21.4-36.4-13-55.1 10.7-55.3 11v-7.2c.2-.2 3.5-4.6 13.1-8.7 8.8-3.8 23.5-6.8 43.7.3 12.8 4.5 23.5 13.5 33.8 22.3 20.9 17.7 39 33.1 70.4 9.1 23.8-18.2 46.2-35.5 68.2-41.8 21.6-6.2 44.1-1.7 65.1 19.4l-.2 6.6c-44.7-44.9-82.8-16.5-130.2 19.8-12.3 9.4-23.2 13.1-32.8 13.1z" fill="url(#SVGID_8_)"/><path class="st10" d="M192.1 46.2c-17.1-3.5-33.9 4.8-42 19.3-2 3.5-3.4 7.4-4.3 11.5-2.5 12.6 1.2 24.9 9.1 33.9 5.5 6.2 12.9 10.7 21.6 12.4.9.2 1.7.3 2.6.4 3.9.5 7.8.4 11.5-.2 15.7-2.6 28.8-14.6 32.2-31 4.4-21.3-9.4-42-30.7-46.3zm21.2 44.3c-2.5 12.4-12.4 21.3-24.1 23.3-2.8.5-5.7.5-8.6.1-.6-.1-1.3-.2-1.9-.3-6.5-1.3-12.1-4.7-16.2-9.3-5.9-6.7-8.7-16-6.8-25.4.6-3.1 1.7-6 3.2-8.6 6.1-10.8 18.7-17 31.5-14.4 15.7 3.1 26.1 18.7 22.9 34.6z"/><path class="st11" d="M162.3 104.3l-7.4 6.5c-7.9-8.9-11.7-21.3-9.1-33.9.8-4.2 2.3-8 4.3-11.5l8.6 4.8c-1.5 2.6-2.6 5.5-3.2 8.6-1.9 9.5.9 18.8 6.8 25.5z"/><path class="st12" d="M180.5 113.9l-1.3 9.8c-.9-.1-1.7-.3-2.6-.4-8.7-1.8-16.2-6.3-21.6-12.4l7.4-6.5c4.1 4.6 9.7 8 16.2 9.3.6 0 1.2.1 1.9.2z"/><path d="M190.7 123.5c-3.7.6-7.6.7-11.5.2l1.3-9.8c2.9.4 5.8.3 8.6-.1l1.6 9.7z" fill="#3d96e0"/><path class="st10" d="M329.1 100.1C336 84 331.3 65.9 318.8 55c-3-2.6-6.5-4.8-10.4-6.5-11.8-5-24.7-3.8-35 2.1-7.2 4.1-13.1 10.5-16.6 18.7-.3.8-.7 1.6-1 2.5-1.3 3.7-2 7.5-2.2 11.3-.7 15.9 8.4 31.2 23.9 37.8 20 8.5 43.1-.8 51.6-20.8zm-47.7 11.7c-11.6-4.9-18.4-16.4-17.9-28.3.1-2.8.6-5.7 1.6-8.5.2-.6.5-1.2.7-1.8 2.6-6.1 7.1-10.9 12.4-14 7.7-4.4 17.4-5.3 26.2-1.6 2.9 1.2 5.5 2.9 7.8 4.9 9.4 8.2 12.9 21.7 7.8 33.8-6.3 14.9-23.6 21.9-38.6 15.5z"/><path d="M278.2 59.2l-4.9-8.5c10.3-5.9 23.2-7.1 35-2.1 3.9 1.7 7.4 3.9 10.4 6.5l-6.5 7.4c-2.3-2-4.9-3.6-7.8-4.9-8.8-3.8-18.4-2.9-26.2 1.6z" fill="#4b59c7"/><path class="st15" d="M265.1 75l-9.3-3.2c.3-.8.6-1.6 1-2.5 3.5-8.2 9.4-14.6 16.6-18.7l4.9 8.5c-5.4 3.1-9.8 7.9-12.4 14-.3.7-.6 1.3-.8 1.9z"/><path d="M253.7 83.1c.2-3.8.9-7.6 2.2-11.3l9.3 3.2c-1 2.8-1.5 5.7-1.6 8.5l-9.9-.4z" fill="#b487fe"/><path class="st10" d="M425 53.2c-14-10.4-32.7-10.1-46.2-.5-3.3 2.3-6.2 5.2-8.8 8.6-7.7 10.3-9.5 23.1-6.2 34.5 2.3 7.9 7.1 15.2 14.3 20.5.7.5 1.4 1 2.2 1.5 3.3 2.1 6.9 3.7 10.5 4.8 15.3 4.4 32.3-.8 42.3-14.3 12.9-17.5 9.3-42.1-8.1-55.1zm.2 49.1c-7.5 10.1-20.3 14-31.7 10.7-2.7-.8-5.4-2-7.9-3.6-.5-.4-1.1-.7-1.6-1.1-5.3-4-9-9.4-10.7-15.4-2.5-8.6-1.1-18.2 4.6-25.9 1.9-2.5 4.1-4.7 6.6-6.4 10.1-7.2 24.1-7.4 34.7.4 13 9.8 15.7 28.3 6 41.3z"/><path class="st11" d="M373.2 93l-9.4 2.8c-3.3-11.4-1.5-24.2 6.2-34.5 2.5-3.4 5.5-6.3 8.8-8.6l5.7 8c-2.5 1.7-4.7 3.9-6.6 6.4-5.7 7.7-7.2 17.3-4.7 25.9z"/><path class="st12" d="M385.6 109.5l-5.3 8.3c-.7-.5-1.5-1-2.2-1.5-7.1-5.3-11.9-12.6-14.3-20.5l9.4-2.8c1.7 5.9 5.3 11.4 10.7 15.4.6.3 1.1.7 1.7 1.1z"/><path d="M390.7 122.5c-3.6-1-7.2-2.6-10.5-4.8l5.3-8.3c2.5 1.6 5.1 2.8 7.9 3.6l-2.7 9.5z" fill="#3788cc"/><path d="M145 142.7h78.6v6.1H145zm0 12.9h58.8v6.1H145zm108.6-12.9H297v6.1h-43.4zm0 12.9H318v6.1h-64.4zm115.8-12.9h48.2v6.1h-48.2zm0 12.9h55.8v6.1h-55.8z" fill="#c4c4c4"/><path d="M491.3 64h57.2v5.7h-57.2zm0 17.8H557v5.7h-65.7zm-.1 17.6h34v5.7h-34zm0 17.7h52.4v5.7h-52.4z" fill="#b8d6ff"/><path class="st10" d="M145 363.5h250.2v5.9H145zm0 13.7h270.3v5.9H145zm0 13.7h175.4v5.9H145z"/><linearGradient id="SVGID_9_" gradientUnits="userSpaceOnUse" x1="338.954" y1="366.473" x2="58.087" y2="366.473"><stop offset="0" stop-color="#40d5e6"/><stop offset="1" stop-color="#57f"/></linearGradient><path fill="url(#SVGID_9_)" d="M145 363.5h130.3v5.9H145z"/><linearGradient id="SVGID_10_" gradientUnits="userSpaceOnUse" x1="338.954" y1="380.165" x2="58.087" y2="380.165"><stop offset="0" stop-color="#40d5e6"/><stop offset="1" stop-color="#57f"/></linearGradient><path fill="url(#SVGID_10_)" d="M145 377.2h140.8v5.9H145z"/><linearGradient id="SVGID_11_" gradientUnits="userSpaceOnUse" x1="338.953" y1="393.856" x2="58.088" y2="393.856"><stop offset="0" stop-color="#40d5e6"/><stop offset="1" stop-color="#57f"/></linearGradient><path fill="url(#SVGID_11_)" d="M145 390.9h91.3v5.9H145z"/><path d="M648 452.6H473.9c-6.7 0-12.2-5.4-12.2-12.2V179.2c0-6.7 5.4-12.2 12.2-12.2H648c6.7 0 12.2 5.4 12.2 12.2v261.3c0 6.6-5.5 12.1-12.2 12.1z" opacity=".73" fill="#fff"/><path d="M484.5 309.8h.8v100.3h-.8zm38 0h.8v100.3h-.8zm38.1 0h.8v100.3h-.8zm38 0h.8v100.3h-.8zm38 0h.8v100.3h-.8z" fill="#42cde8"/><linearGradient id="SVGID_12_" gradientUnits="userSpaceOnUse" x1="484.911" y1="363.539" x2="637.032" y2="363.539"><stop offset="0" stop-color="#40d5e6"/><stop offset="1" stop-color="#57f"/></linearGradient><path d="M484.9 369.4s14.1 8.5 29.1-6.9c15-15.5 31.1-27.7 46.4-14.6 15.3 13 24.7 16.3 39.9 1.6 15.3-14.6 14.1-32.5 36.7-32.5v93.1H484.9v-40.7z" fill="url(#SVGID_12_)"/><path d="M484.9 301.4H500v3.7h-15.1zm38 0h9.4v3.7h-9.4zm38.1 0h11.6v3.7H561zm38 0h17.9v3.7H599zm38 0h6.3v3.7H637z" fill="#7bd6e8"/><path class="st10" d="M579.5 235.5h50.9v6.4h-50.9zm0 26.9h46.7v6.4h-46.7zm0-13.4h40.4v6.4h-40.4z"/><linearGradient id="SVGID_13_" gradientUnits="userSpaceOnUse" x1="525.045" y1="184.993" x2="525.045" y2="297.618"><stop offset="0" stop-color="#40d5e6"/><stop offset="1" stop-color="#57f"/></linearGradient><path d="M533.9 226.3c0 4.9-4 8.9-8.9 8.9s-8.9-4-8.9-8.9 4-8.9 8.9-8.9c5 0 8.9 4 8.9 8.9z" fill="url(#SVGID_13_)"/><linearGradient id="SVGID_14_" gradientUnits="userSpaceOnUse" x1="524.967" y1="184.991" x2="524.967" y2="297.619"><stop offset="0" stop-color="#40d5e6"/><stop offset="1" stop-color="#57f"/></linearGradient><path d="M541.1 255.3v16.9c-4.9 2.2-10.4 3.5-16.1 3.5-5.7 0-11.2-1.2-16.1-3.5v-16.9c0-8.9 7.2-16.1 16.1-16.1 8.9 0 16.1 7.2 16.1 16.1z" fill="url(#SVGID_14_)"/><linearGradient id="SVGID_15_" gradientUnits="userSpaceOnUse" x1="524.966" y1="206.402" x2="524.966" y2="298.21"><stop offset="0" stop-color="#40d5e6"/><stop offset="1" stop-color="#57f"/></linearGradient><path d="M525 276.7c-5.8 0-11.3-1.2-16.6-3.6-14.3-6.5-23.5-20.8-23.5-36.5 0-22.1 18-40.1 40.1-40.1s40.1 18 40.1 40.1c0 15.7-9.2 30-23.5 36.5-5.3 2.4-10.9 3.6-16.6 3.6zm0-78c-20.9 0-37.9 17-37.9 37.9 0 14.8 8.7 28.4 22.3 34.6 4.9 2.2 10.2 3.4 15.7 3.4s10.7-1.1 15.7-3.4c13.5-6.1 22.3-19.7 22.3-34.6-.2-20.8-17.2-37.9-38.1-37.9z" fill="url(#SVGID_15_)"/><defs><path id="SVGID_16_" d="M260.4 337.5c-.5 1.1-1.7 1.5-2.9 1.1-11.1-4.3-24.1-4.1-35 .7-1.1.5-2.4 0-2.9-1s0-63.5 1.2-64c11.9-5.2 26.2-5.5 38.3-.7 1.2.4 1.8 62.9 1.3 63.9z"/></defs><clipPath id="SVGID_17_"><use xlink:href="#SVGID_16_" overflow="visible"/></clipPath><g clip-path="url(#SVGID_17_)"><path class="st31" d="M222.2 299.8l.9 47.8.1 4.5c1-.4 2-.8 3.1-1.1.9-.3 1.8-.5 2.7-.8 7.3-1.9 15-2 22.3-.3.9.2 1.8.4 2.7.7 1 .3 2.1.7 3.1 1l-.1-4.5-.9-48-33.9.7z"/><path class="st32" d="M225.4 303.1l.8 43.4.1 4.4c.9-.3 1.8-.5 2.7-.8l-.1-4.3-.7-36.6h.5c1.7 0 3.1-1.5 3.1-3.2 0-.2 0-.3-.1-.5l15.2-.3v.5c0 1.7 1.5 3.1 3.2 3.1.2 0 .3 0 .5-.1l.7 36.7.1 4.3c.9.2 1.8.4 2.7.7l-.1-4.4-.8-43.6-27.8.7z"/><path class="st32" d="M239.4 322.1c-5.5.1-9.9 4.7-9.8 10.2.1 5.5 4.7 9.9 10.2 9.8 5.5-.1 9.9-4.7 9.8-10.2 0-5.5-4.6-9.9-10.2-9.8z"/><path class="st31" d="M241.8 328.4c1.7 0 2.7 1.3 2.9 3.1h2.1v1.7h-2.1c-.2 1.3-.7 2.5-1.5 3.4l-1.8-.9c.9-1 1.5-2.5 1.5-3.5 0-.9-.3-1.5-.9-1.5-1.9 0-.8 5.3-4.3 5.3-1.5 0-2.6-1.1-2.8-2.8h-2.1v-1.7h2c.1-1.1.5-2.3 1-3.1l1.9.9c-.6 1-1 2.3-1 3.1 0 .8.3 1.3.8 1.3 1.8 0 .8-5.3 4.3-5.3z"/></g><path id="XMLID_12_" d="M342.1 393.8c0 2.4-33.1 4.3-73.9 4.3s-73.9-1.9-73.9-4.3 33.1-4.3 73.9-4.3 73.9 1.9 73.9 4.3z" fill="#bbd3e8"/><path class="st34" d="M220.6 390.1h48.5v2.3h-48.5z"/><path class="st35" d="M270.4 381.6v8.2c0 .7-.6 1.3-1.3 1.3h-48.5c-.3 0-.6-.1-.9-.3-.3-.2-.4-.6-.4-.9v-8.2c0-.7.6-1.3 1.3-1.3h48.5c.7-.1 1.3.5 1.3 1.2z"/><path class="st36" d="M270.4 381.6v8.2c0 .7-.6 1.3-1.3 1.3h-4.3v-10.7h4.3c.7-.1 1.3.5 1.3 1.2z"/><path class="st37" d="M255.3 380.3h9.7V391h-9.7z"/><path class="st34" d="M220.1 380.3h2.3V391h-2.3zm4.2 0h2.3V391h-2.3zm4.3 0h2.3V391h-2.3zm4.3 0h2.3V391h-2.3zm4.2 0h2.3V391h-2.3zm4.3 0h2.3V391h-2.3zm4.3 0h2.3V391h-2.3zm4.2 0h2.3V391h-2.3zm4.3 0h2.3V391h-2.3zm4.3 0h2.3V391h-2.3zm4.2 0h2.3V391h-2.3zm4.3 0h2.3V391H267z"/><path class="st38" d="M246.7 380.3l-4.2 7.3-2 3.5h-4.8l2.6-4.5 3.6-6.3zm-21 0l-4.1 7.2-1.8 3.2c-.3-.2-.4-.6-.4-.9V383l1.5-2.7h4.8zm31.5 0l-1.9 3.3-4.2 7.4-.1.1h-8.6l.1-.4 4.3-7.4 1.7-3z"/><path class="st34" d="M223.4 379h45.9v2.3h-45.9z"/><path class="st35" d="M273.2 370.6v8.2c0 .7-.6 1.3-1.3 1.3h-48.5c-.3 0-.6-.1-.9-.3-.3-.2-.4-.6-.4-.9v-8.2c0-.7.6-1.3 1.3-1.3h48.5c.7-.1 1.3.5 1.3 1.2z"/><path class="st36" d="M273.2 370.6v8.2c0 .7-.6 1.3-1.3 1.3h-4.3v-10.7h4.3c.7-.1 1.3.5 1.3 1.2z"/><path class="st37" d="M258.1 369.3h9.7V380h-9.7z"/><path class="st34" d="M222.9 369.3h2.3V380h-2.3zm4.2 0h2.3V380h-2.3zm4.3 0h2.3V380h-2.3zm4.3 0h2.3V380h-2.3zm4.2 0h2.3V380h-2.3zm4.3 0h2.3V380h-2.3zm4.3 0h2.3V380h-2.3zm4.2 0h2.3V380h-2.3zm4.3 0h2.3V380H257zm4.2 0h2.3V380h-2.3zm4.3 0h2.3V380h-2.3zm4.3 0h2.3V380h-2.3z"/><path class="st38" d="M249.5 369.3l-4.2 7.2-2 3.5h-4.8l2.6-4.5 3.5-6.2zm-21.1 0l-4.1 7.2-1.8 3.2c-.3-.2-.4-.6-.4-.9V372l1.5-2.7h4.8zm31.6 0l-1.9 3.2-4.2 7.5h-8.8l.2-.3 4.3-7.5 1.7-2.9z"/><path class="st34" d="M227.9 356.7h45.9v2.3h-45.9z"/><path class="st35" d="M277.7 348.2v8.2c0 .7-.6 1.3-1.3 1.3h-48.5c-.3 0-.6-.1-.9-.3-.3-.2-.4-.6-.4-.9v-8.2c0-.7.6-1.3 1.3-1.3h48.5c.7-.1 1.3.5 1.3 1.2z"/><path class="st36" d="M277.7 348.2v8.2c0 .7-.6 1.3-1.3 1.3h-4.3V347h4.3c.7-.1 1.3.5 1.3 1.2z"/><path class="st37" d="M262.6 346.9h9.7v10.7h-9.7z"/><path class="st34" d="M227.4 347h2.3v10.7h-2.3zm4.2 0h2.3v10.7h-2.3zm4.3 0h2.3v10.7h-2.3zm4.3 0h2.3v10.7h-2.3zm4.2 0h2.3v10.7h-2.3zm4.3 0h2.3v10.7h-2.3zm4.3 0h2.3v10.7H253zm4.2 0h2.3v10.7h-2.3zm4.3 0h2.3v10.7h-2.3zm4.3 0h2.3v10.7h-2.3zm4.2 0h2.3v10.7H270zm4.3 0h2.3v10.7h-2.3z"/><path class="st38" d="M254 346.9l-4.2 7.3-2 3.5H243l2.6-4.5 3.6-6.3zm-21.1 0l-4.1 7.2-1.8 3.2c-.3-.2-.4-.6-.4-.9v-6.8l1.5-2.7h4.8zm31.6 0l-1.9 3.3-4.2 7.4-.1.1h-8.6l.1-.4 4.3-7.4 1.7-3z"/><path class="st34" d="M288 334.4h45.9v2.3H288z"/><path class="st35" d="M337.8 326v8.2c0 .7-.6 1.3-1.3 1.3H288c-.3 0-.6-.1-.9-.3-.3-.2-.4-.6-.4-.9V326c0-.7.6-1.3 1.3-1.3h48.5c.7 0 1.3.5 1.3 1.3z"/><path class="st36" d="M337.8 326v8.2c0 .7-.6 1.3-1.3 1.3h-4.3v-10.7h4.3c.7-.1 1.3.4 1.3 1.2z"/><path class="st37" d="M322.8 324.7h9.7v10.7h-9.7z"/><path class="st34" d="M287.5 324.7h2.3v10.7h-2.3zm4.2 0h2.3v10.7h-2.3zm4.3 0h2.3v10.7H296zm4.3 0h2.3v10.7h-2.3zm4.2 0h2.3v10.7h-2.3zm4.3 0h2.3v10.7h-2.3zm4.3 0h2.3v10.7h-2.3zm4.2 0h2.3v10.7h-2.3zm4.3 0h2.3v10.7h-2.3zm4.3 0h2.3v10.7h-2.3zm4.2 0h2.3v10.7h-2.3zm4.3 0h2.3v10.7h-2.3z"/><path class="st38" d="M314.1 324.7l-4.1 7.2-2.1 3.5h-4.8l2.6-4.5 3.6-6.2zm-21 0l-4.1 7.2-1.8 3.2c-.3-.2-.4-.6-.4-.9v-6.8l1.5-2.7h4.8zm31.5 0l-1.8 3.2-4.3 7.5h-8.7l.2-.3 4.2-7.5 1.7-2.9z"/><path class="st34" d="M224 367.9h43.4v2.3H224z"/><path class="st35" d="M268.6 359.5v8.2c0 .7-.6 1.3-1.3 1.3h-48.5c-.3 0-.6-.1-.9-.3-.3-.2-.4-.6-.4-.9v-8.2c0-.7.6-1.3 1.3-1.3h48.5c.8-.1 1.3.4 1.3 1.2z"/><path class="st36" d="M268.6 359.5v8.2c0 .7-.6 1.3-1.3 1.3H263v-10.7h4.3c.8-.1 1.3.4 1.3 1.2z"/><path class="st37" d="M253.6 358.2h9.7v10.7h-9.7z"/><path class="st34" d="M218.3 358.2h2.3v10.7h-2.3zm4.3 0h2.3v10.7h-2.3zm4.3 0h2.3v10.7h-2.3zm4.2 0h2.3v10.7h-2.3zm4.3 0h2.3v10.7h-2.3zm4.3 0h2.3v10.7h-2.3zm4.2 0h2.3v10.7h-2.3zm4.3 0h2.3v10.7h-2.3zm4.3 0h2.3v10.7h-2.3zm4.2 0h2.3v10.7h-2.3zm4.3 0h2.3v10.7H261zm4.3 0h2.3v10.7h-2.3z"/><path class="st38" d="M245 358.2l-4.2 7.2-2 3.5H234l2.6-4.5 3.5-6.2zm-21.1 0l-4.1 7.2-1.8 3.2c-.3-.2-.4-.6-.4-.9v-6.8l1.5-2.7h4.8zm31.6 0l-1.9 3.2-4.2 7.5h-8.8l.2-.3 4.3-7.5 1.7-2.9z"/><path class="st34" d="M226.3 345.7h43.3v2.3h-43.3z"/><path class="st35" d="M270.9 337.2v8.2c0 .7-.6 1.3-1.3 1.3h-48.5c-.3 0-.6-.1-.9-.3-.3-.2-.4-.6-.4-.9v-8.2c0-.7.6-1.3 1.3-1.3h48.5c.7-.1 1.3.5 1.3 1.2z"/><path class="st36" d="M270.9 337.2v8.2c0 .7-.6 1.3-1.3 1.3h-4.3V336h4.3c.7-.1 1.3.5 1.3 1.2z"/><path class="st37" d="M255.9 335.9h9.7v10.7h-9.7z"/><path class="st34" d="M220.6 336h2.3v10.7h-2.3zm4.3 0h2.3v10.7h-2.3zm4.2 0h2.3v10.7h-2.3zm4.3 0h2.3v10.7h-2.3zm4.3 0h2.3v10.7h-2.3zm4.2 0h2.3v10.7h-2.3zm4.3 0h2.3v10.7h-2.3zm4.3 0h2.3v10.7h-2.3zm4.2 0h2.3v10.7h-2.3zm4.3 0h2.3v10.7H259zm4.3 0h2.3v10.7h-2.3zm4.2 0h2.3v10.7h-2.3z"/><path class="st38" d="M247.2 335.9l-4.1 7.3-2 3.5h-4.9l2.6-4.5 3.6-6.3zm-21 0l-4.1 7.2-1.8 3.2c-.3-.2-.4-.6-.4-.9v-6.8l1.5-2.7h4.8zm31.5 0l-1.8 3.3-4.3 7.4v.1h-8.7l.2-.4 4.2-7.4 1.7-3z"/><path class="st35" d="M211.3 339.7l7.8 2.3c.7.2 1.1.9.9 1.6l-13.5 46.6c-.1.3-.3.6-.6.7-.3.2-.7.2-1 .1l-7.8-2.3c-.7-.2-1.1-.9-.9-1.6l13.5-46.6c.2-.6.9-1 1.6-.8z"/><path class="st36" d="M211.3 339.7l7.8 2.3c.7.2 1.1.9.9 1.6l-1.2 4.1-10.3-3 1.2-4.1c.2-.7.9-1.1 1.6-.9z"/><path transform="rotate(-73.841 212.378 350.647)" class="st37" d="M207.5 345.3h9.7V356h-9.7z"/><path transform="rotate(-73.841 201.514 388.06)" class="st34" d="M200.4 382.7h2.3v10.7h-2.3z"/><path transform="rotate(-73.841 202.705 383.966)" class="st34" d="M201.6 378.6h2.3v10.7h-2.3z"/><path transform="rotate(-73.841 203.889 379.865)" class="st34" d="M202.7 374.5h2.3v10.7h-2.3z"/><path transform="rotate(-73.854 205.07 375.755)" class="st34" d="M203.9 370.4h2.3v10.7h-2.3z"/><path transform="rotate(-73.841 206.262 371.67)" class="st34" d="M205.1 366.3h2.3V377h-2.3z"/><path transform="rotate(-73.847 207.469 367.592)" class="st34" d="M206.3 362.2h2.3v10.7h-2.3z"/><path transform="rotate(-73.841 208.637 363.476)" class="st34" d="M207.5 358.1h2.3v10.7h-2.3z"/><path transform="rotate(-73.852 209.842 359.402)" class="st34" d="M208.7 354h2.3v10.7h-2.3z"/><path transform="rotate(-73.841 211.014 355.283)" class="st34" d="M209.9 349.9h2.3v10.7h-2.3z"/><path transform="rotate(-73.847 212.217 351.202)" class="st34" d="M211.1 345.8h2.3v10.7h-2.3z"/><path transform="rotate(-73.841 213.39 347.088)" class="st34" d="M212.2 341.7h2.3v10.7h-2.3z"/><path transform="rotate(-73.841 214.588 342.994)" class="st34" d="M213.4 337.6h2.3v10.7h-2.3z"/><path class="st38" d="M203.4 362.1l5.8 6 2.9 2.9-1.4 4.7-3.6-3.8-5-5.1zm-5.8 20.2l5.8 6 2.5 2.6c-.3.2-.7.2-1 .1l-6.5-1.9-2.1-2.2 1.3-4.6zm8.8-30.3l2.6 2.7 5.9 6.2h.1l-2.4 8.4-.3-.3-6-6.2-2.3-2.4z"/><path class="st35" d="M285 300.8l4.4 6.9c.4.6.2 1.4-.4 1.8l-40.8 26.2c-.3.2-.6.2-.9.2-.3-.1-.7-.3-.9-.6l-4.4-6.9c-.4-.6-.2-1.4.4-1.8l40.8-26.2c.6-.4 1.4-.2 1.8.4z"/><path class="st36" d="M285 300.8l4.4 6.9c.4.6.2 1.4-.4 1.8l-3.6 2.3-5.8-9 3.6-2.3c.6-.5 1.4-.3 1.8.3z"/><path transform="rotate(-32.719 278.593 309.742)" class="st37" d="M273.8 304.4h9.7v10.7h-9.7z"/><path transform="rotate(-32.712 245.841 330.824)" class="st34" d="M244.7 325.4h2.3v10.7h-2.3z"/><path transform="rotate(-32.719 249.427 328.514)" class="st34" d="M248.3 323.1h2.3v10.7h-2.3z"/><path transform="rotate(-32.716 252.97 326.163)" class="st34" d="M251.8 320.8h2.3v10.7h-2.3z"/><path transform="rotate(-32.719 256.598 323.897)" class="st34" d="M255.4 318.5h2.3v10.7h-2.3z"/><path transform="rotate(-32.712 260.199 321.6)" class="st34" d="M259 316.2h2.3v10.7H259z"/><path transform="rotate(-32.719 263.786 319.291)" class="st34" d="M262.6 313.9h2.3v10.7h-2.3z"/><path transform="rotate(-32.719 267.375 316.984)" class="st34" d="M266.2 311.6h2.3v10.7h-2.3z"/><path transform="rotate(-32.719 270.95 314.67)" class="st34" d="M269.8 309.3h2.3V320h-2.3z"/><path transform="rotate(-32.719 274.545 312.366)" class="st34" d="M273.4 307h2.3v10.7h-2.3z"/><path transform="rotate(-32.719 278.138 310.064)" class="st34" d="M277 304.7h2.3v10.7H277z"/><path transform="rotate(-32.719 281.734 307.761)" class="st34" d="M280.6 302.4h2.3v10.7h-2.3z"/><path transform="rotate(-32.719 285.313 305.45)" class="st34" d="M284.2 300.1h2.3v10.7h-2.3z"/><path class="st38" d="M264.3 312.5l.5 8.3.2 4.1-4.1 2.6-.3-5.2-.3-7.2zm-17.7 11.4l.4 8.3.2 3.6c-.3-.1-.7-.3-.9-.6l-3.7-5.7-.2-3.1 4.2-2.5zm26.6-17.1l.2 3.8.4 8.5v.1l-7.3 4.7v-.4l-.4-8.6-.2-3.4z"/><path class="st34" d="M287.3 323.4h43.4v2.3h-43.4z"/><path class="st35" d="M332 315v8.2c0 .7-.6 1.3-1.3 1.3h-48.5c-.3 0-.6-.1-.9-.3-.3-.2-.4-.6-.4-.9V315c0-.7.6-1.3 1.3-1.3h48.5c.7 0 1.3.5 1.3 1.3z"/><path class="st36" d="M332 315v8.2c0 .7-.6 1.3-1.3 1.3h-4.3v-10.7h4.3c.7-.1 1.3.4 1.3 1.2z"/><path class="st37" d="M316.9 313.7h9.7v10.7h-9.7z"/><path class="st34" d="M281.7 313.7h2.3v10.7h-2.3zm4.2 0h2.3v10.7h-2.3zm4.3 0h2.3v10.7h-2.3zm4.2 0h2.3v10.7h-2.3zm4.3 0h2.3v10.7h-2.3zm4.3 0h2.3v10.7H303zm4.2 0h2.3v10.7h-2.3zm4.3 0h2.3v10.7h-2.3zm4.3 0h2.3v10.7h-2.3zm4.2 0h2.3v10.7H320zm4.3 0h2.3v10.7h-2.3zm4.3 0h2.3v10.7h-2.3z"/><path class="st38" d="M308.3 313.7l-4.2 7.2-2 3.5h-4.8l2.6-4.5 3.5-6.2zm-21.1 0l-4.1 7.2-1.8 3.2c-.3-.2-.4-.6-.4-.9v-6.8l1.5-2.7h4.8zm31.6 0l-1.9 3.2-4.2 7.5h-8.8l.2-.3 4.3-7.5 1.7-2.9z"/><path class="st34" d="M278.9 390.1h48.5v2.3h-48.5z"/><path class="st35" d="M328.7 381.6v8.2c0 .7-.6 1.3-1.3 1.3h-48.5c-.3 0-.6-.1-.9-.3-.3-.2-.4-.6-.4-.9v-8.2c0-.7.6-1.3 1.3-1.3h48.5c.7-.1 1.3.5 1.3 1.2z"/><path class="st36" d="M328.7 381.6v8.2c0 .7-.6 1.3-1.3 1.3h-4.3v-10.7h4.3c.7-.1 1.3.5 1.3 1.2z"/><path class="st37" d="M313.7 380.3h9.7V391h-9.7z"/><path class="st34" d="M278.4 380.3h2.3V391h-2.3zm4.3 0h2.3V391h-2.3zm4.2 0h2.3V391h-2.3zm4.3 0h2.3V391h-2.3zm4.3 0h2.3V391h-2.3zm4.2 0h2.3V391h-2.3zm4.3 0h2.3V391H304zm4.3 0h2.3V391h-2.3zm4.2 0h2.3V391h-2.3zm4.3 0h2.3V391h-2.3zm4.3 0h2.3V391h-2.3zm4.2 0h2.3V391h-2.3z"/><path class="st38" d="M305 380.3l-4.1 7.3-2 3.5H294l2.6-4.5 3.6-6.3zm-21 0l-4.1 7.2-1.8 3.2c-.3-.2-.4-.6-.4-.9V383l1.5-2.7h4.8zm31.6 0l-1.9 3.3-4.3 7.4v.1h-8.7l.2-.4 4.3-7.4 1.7-3z"/><path class="st34" d="M279.2 379h44v2.3h-44z"/><path class="st35" d="M327.1 370.6v8.2c0 .7-.6 1.3-1.3 1.3h-48.5c-.3 0-.6-.1-.9-.3-.3-.2-.4-.6-.4-.9v-8.2c0-.7.6-1.3 1.3-1.3h48.5c.7-.1 1.3.5 1.3 1.2z"/><path class="st36" d="M327.1 370.6v8.2c0 .7-.6 1.3-1.3 1.3h-4.3v-10.7h4.3c.7-.1 1.3.5 1.3 1.2z"/><path class="st37" d="M312.1 369.3h9.7V380h-9.7z"/><path class="st34" d="M276.8 369.3h2.3V380h-2.3zm4.3 0h2.3V380h-2.3zm4.2 0h2.3V380h-2.3zm4.3 0h2.3V380h-2.3zm4.3 0h2.3V380h-2.3zm4.2 0h2.3V380h-2.3zm4.3 0h2.3V380h-2.3zm4.3 0h2.3V380h-2.3zm4.2 0h2.3V380h-2.3zm4.3 0h2.3V380h-2.3zm4.3 0h2.3V380h-2.3zm4.2 0h2.3V380h-2.3z"/><path class="st38" d="M303.4 369.3l-4.1 7.2-2 3.5h-4.9l2.6-4.5 3.6-6.2zm-21 0l-4.1 7.2-1.8 3.2c-.3-.2-.4-.6-.4-.9V372l1.5-2.7h4.8zm31.5 0l-1.8 3.2-4.3 7.5h-8.7l.2-.3 4.3-7.5 1.7-2.9z"/><path class="st34" d="M282.7 356.7h45.9v2.3h-45.9z"/><path class="st35" d="M332.5 348.2v8.2c0 .7-.6 1.3-1.3 1.3h-48.5c-.3 0-.6-.1-.9-.3-.3-.2-.4-.6-.4-.9v-8.2c0-.7.6-1.3 1.3-1.3h48.5c.7-.1 1.3.5 1.3 1.2z"/><path class="st36" d="M332.5 348.2v8.2c0 .7-.6 1.3-1.3 1.3h-4.3V347h4.3c.7-.1 1.3.5 1.3 1.2z"/><path class="st37" d="M317.4 346.9h9.7v10.7h-9.7z"/><path class="st34" d="M282.2 346.9h2.3v10.7h-2.3zm4.2 0h2.3v10.7h-2.3zm4.3 0h2.3v10.7h-2.3zm4.3 0h2.3v10.7H295zm4.2 0h2.3v10.7h-2.3zm4.3 0h2.3v10.7h-2.3zm4.3 0h2.3v10.7h-2.3zm4.2 0h2.3v10.7H312zm4.3 0h2.3v10.7h-2.3zm4.3 0h2.3v10.7h-2.3zm4.2 0h2.3v10.7h-2.3zm4.3 0h2.3v10.7h-2.3z"/><path class="st38" d="M308.8 346.9l-4.2 7.2-2 3.6h-4.8l2.6-4.5 3.5-6.3zm-21.1 0l-4.1 7.2-1.8 3.2c-.3-.2-.4-.6-.4-.9v-6.8l1.5-2.7h4.8zm31.6 0l-1.9 3.3-4.2 7.4-.1.1h-8.7l.2-.4 4.3-7.4 1.7-3z"/><path class="st34" d="M278.8 367.9H326v2.3h-47.2z"/><path class="st35" d="M329.1 359.5v8.2c0 .7-.6 1.3-1.3 1.3h-48.5c-.3 0-.6-.1-.9-.3-.3-.2-.4-.6-.4-.9v-8.2c0-.7.6-1.3 1.3-1.3h48.5c.7-.1 1.3.4 1.3 1.2z"/><path class="st36" d="M329.1 359.5v8.2c0 .7-.6 1.3-1.3 1.3h-4.3v-10.7h4.3c.7-.1 1.3.4 1.3 1.2z"/><path class="st37" d="M314.1 358.2h9.7v10.7h-9.7z"/><path class="st34" d="M278.8 358.2h2.3v10.7h-2.3zm4.3 0h2.3v10.7h-2.3zm4.2 0h2.3v10.7h-2.3zm4.3 0h2.3v10.7h-2.3zm4.3 0h2.3v10.7h-2.3zm4.2 0h2.3v10.7h-2.3zm4.3 0h2.3v10.7h-2.3zm4.3 0h2.3v10.7h-2.3zm4.2 0h2.3v10.7h-2.3zm4.3 0h2.3v10.7h-2.3zm4.3 0h2.3v10.7h-2.3zm4.2 0h2.3v10.7h-2.3z"/><path class="st38" d="M305.4 358.2l-4.1 7.2-2 3.5h-4.9l2.6-4.5 3.6-6.2zm-21 0l-4.1 7.2-1.8 3.2c-.3-.2-.4-.6-.4-.9v-6.8l1.5-2.7h4.8zm31.5 0l-1.8 3.2-4.3 7.5h-8.7l.2-.3 4.2-7.5 1.7-2.9z"/><path class="st34" d="M289.4 345.5h41.8v2.3h-41.8z"/><path class="st35" d="M339 337.1v8.2c0 .7-.6 1.3-1.3 1.3h-48.5c-.3 0-.6-.1-.9-.3-.3-.2-.4-.6-.4-.9v-8.2c0-.7.6-1.3 1.3-1.3h48.5c.7-.1 1.3.5 1.3 1.2z"/><path class="st36" d="M339 337.1v8.2c0 .7-.6 1.3-1.3 1.3h-4.3v-10.7h4.3c.7-.1 1.3.5 1.3 1.2z"/><path class="st37" d="M323.9 335.8h9.7v10.7h-9.7z"/><path class="st34" d="M288.7 335.8h2.3v10.7h-2.3zm4.2 0h2.3v10.7h-2.3zm4.3 0h2.3v10.7h-2.3zm4.3 0h2.3v10.7h-2.3zm4.2 0h2.3v10.7h-2.3zm4.3 0h2.3v10.7H310zm4.3 0h2.3v10.7h-2.3zm4.2 0h2.3v10.7h-2.3zm4.3 0h2.3v10.7h-2.3zm4.3 0h2.3v10.7h-2.3zm4.2 0h2.3v10.7h-2.3zm4.3 0h2.3v10.7h-2.3z"/><path class="st38" d="M315.3 335.8l-4.2 7.2-2 3.5h-4.8l2.6-4.5 3.5-6.2zm-21.1 0l-4.1 7.2-1.8 3.2c-.3-.2-.4-.6-.4-.9v-6.8l1.5-2.7h4.8zm31.6 0l-1.9 3.2-4.2 7.5h-8.8l.2-.3 4.3-7.4 1.7-3z"/><path class="st15" d="M69.2 332.3s11-24.9-1.8-22.8c0 0-4.3 3.6-8.8 10.9-3.4 5.5-10.4 20.2-10.1 25.1.3 5 3.8 8.6 7.6 16.6 0 0 7.9 14.8 8.2 16.5l8.4-4.3s-7.1-14.1-12.1-26.5l8.6-15.5z"/><linearGradient id="SVGID_18_" gradientUnits="userSpaceOnUse" x1="-257.212" y1="378.27" x2="-84.108" y2="378.27" gradientTransform="translate(257.212)"><stop offset="0" stop-color="#ff9f55"/><stop offset="1" stop-color="#ffd255"/></linearGradient><path fill="url(#SVGID_18_)" d="M4.9 406.9l168.2-28.7-4.9-28.6L0 378.3z"/><path transform="rotate(-9.667 175.16 363.278)" fill="#2d3038" d="M170.6 352.2h9.1v22h-9.1z"/><path class="st41" d="M132.7 543h2.1s-.7-7.8 1.2-7.9c1.9-.1 6.7 6.4 9.5 7.4s17.4 1.8 17.5-.8c.1-2.7-5.6-3.8-7.4-4.5-1.8-.8-10.4-9.1-11.9-10.1s-4.2-7.9-4.2-7.9l-8.1-.4s-.5 6.5-1 9.9c-.2 1.3-.3 2.4-.3 3.2 0 2.9 2.6 11.1 2.6 11.1zm-52.4-1.5H82v-7.3c1.4.1 6.3 4.7 7.8 6 1.5 1.3 3.5 1.3 9.8 1.7 6.3.4 6.9-3.4 5.9-4.7-1-1.3-4.2-1.8-5.9-2.6-1.7-.8-8.3-8.3-10.1-10-1.8-1.8-2.8-6.8-2.8-6.8l-7.4.6s0 4.6-.8 8.5c-.1.3-.1.7-.2 1-1 4 2 13.6 2 13.6z"/><path class="st42" d="M107.6 376.4s2.8 6.6 3 8.2c.2 1.7 6.8 17.4 8.6 28 1.1 6.4 4.2 26.3 4.5 28.8.4 4.3 2.5 13.9 2.8 18.3.2 2.5 12.4 40.4 15.3 60.2 0 0-7 1-12.3-.4 0 0-10.7-20.5-16.6-49.5-3.6-17.5-6.7-26.8-9.5-34-2.8-7.2-18.5-27.6-20.1-29.9-1.6-2.3-11.9-15-2.2-28.7 9.8-13.6 26.5-1 26.5-1z"/><path class="st42" d="M72.5 434.7c.9 5.9 0 13.7-1.9 35.3-1.9 21.6 3.2 47.8 3.2 47.8 6.4 2.2 13.8 0 13.8 0-.2-1.5 0-52.7 0-57.2s1.3-9.7 1.6-15c.2-3.6 1.9-10.1 3.8-16.8.6-2 1.1-4 1.7-6 .3-1.1.6-2.2.9-3.2 2.6-9.1 6.2-44.3 6.2-44.3s-19.6-15.8-29.1-.9c-9.5 14.8-4.6 25.7-4.3 27.5.3 1.8 3.2 26.9 4.1 32.8z"/><path d="M80.6 403c.2.3 9.9 22 12.4 25.8.6-2 1.1-4 1.7-6S80.9 403.5 80.6 403z" fill="#bdc0c2"/><path d="M80.3 541.5H82v-7.3c1.4.1 6.3 4.7 7.8 6 1.5 1.3 3.5 1.3 9.8 1.7 6.3.4 6.9-3.4 5.9-4.7-1-1.3-4.2-1.8-5.9-2.6-6.7.4-15-9.1-18.9-9.1-2.1 0-2.1 1.2-2.1 1.4-.1.3-.1.7-.2 1-1.1 4 1.9 13.6 1.9 13.6zm52.4 1.5h2.1s-.7-7.8 1.2-7.9c1.9-.1 6.7 6.4 9.5 7.4s17.4 1.8 17.5-.8c.1-2.7-5.6-3.8-7.4-4.5-6 0-15.8-6.6-18.8-8-3-1.3-6.3-.5-6.3-.5-.2 1.3-.3 2.4-.3 3.2-.1 2.9 2.5 11.1 2.5 11.1z" fill="#c6c9cc"/><path class="st41" d="M90.3 293.8s-3.1 8.3-.7 14.7c0 0-11.5-.7-11.9-2.1-.4-1.3.5-13.7-1.1-17.4-1.6-3.7 13.7 4.8 13.7 4.8z"/><path class="st15" d="M91.4 305.7s6.8 2.4 9.8 3.1c3.1.7 9.5 3.7 8.9 15.1-.5 11.4-2.4 21.3-3.1 26.2-.7 4.9-.3 17.4.9 23.5 0 0-16.2 4.1-35.3 0 0 0 3.4-10.3 3.3-13-.1-2.7-11.3-24.7-11.8-28.2s-2.8-18.8 2.3-22.2c5.1-3.4 9.3-2.9 11.5-4.5 2.1-1.5 10.3-1.1 13.5 0z"/><path class="st15" d="M65.2 391.5c27.7 7.4 49.8 0 49.8 0-2-4.1-3.5-8.3-4.6-12.3-.8-2.8-1.3-5.6-1.7-8.2-2.3-15.1.7-26.7.7-26.7-3.2-26.3-43.1-34.2-46.3-25.9-3.2 8.4 6.2 44.2 6.7 47.3.5 3.2-4.6 25.8-4.6 25.8z"/><path class="st41" d="M80.3 260.6c4.6-1.6 17.1-3.3 20.2 15.9 3.2 19.1-3.8 19.4-10.9 18.9-7.1-.5-18.3-13.4-19.2-17.4-.8-3.9-3.3-12.9 9.9-17.4z"/><path class="st45" d="M98 268s-3.8 8.1-8.8 11c0 0-3.1 8.6-9.9 12.1 0 0-18-11.9-7.5-26 10.4-14.2 25-2.9 26.2 2.9z"/><path class="st41" d="M89.6 276.1c-.4-1-3.1-2.6-4.3.1-1.2 2.7 3.1 7.5 4.3 7.3 1.2-.2 1.5-3.6 0-7.4z"/><path class="st45" d="M72.3 267.2c-.4-.6-12.3-6.1-14.8 5.4s9.6 24.9 11.7 30.6c2.1 5.8-1 19.2-1 19.2s7.3-6.9 9.4-14c2.6-7.8 3.4-27.7-5.3-41.2z"/><path d="M71.7 266.9s3.6 2.9 4.1 7.4c0 0 .7-3.5-.8-5.7-1.4-2.2-3.3-1.7-3.3-1.7z" fill="#e54242"/><path d="M110.5 379.3c-.8-2.8-1.3-5.6-1.7-8.2 0 0-1.8-3.9-2.4-5.7-.6-1.9-5.2-24.7-5.2-24.7s-4.9 21.3 9.3 38.6z" fill="#1d3b54"/><path class="st41" d="M130.9 380.6s3.6 3.6 4.7 3.9c1.2.4 3.4-1.6 11.6-2.2.7-.1 2 .6 1.7 1.5-.3 1-3.9 3.5-5.4 3.9-1.5.4-8.7 3.3-12.3 1.9-3.5-1.4-5.9-5.9-5.9-5.9l5.6-3.1z"/><path class="st15" d="M103.1 309.4s9.5 3.8 10.1 17c.6 13.2 1.1 20.1 1.6 22.1s1.5 10.2 3.9 15.2c2.3 4.8 17.5 19.9 17.5 19.9l-7.4 6.9s-21.2-21.3-22.5-25.2c-1.3-3.9-6.6-31-7-35.5-.3-3.7-5.2-20.1 3.8-20.4z"/><circle cx="280.8" cy="339.7" r="91" opacity=".1" fill="#b8b8b8"/><path d="M221.4 273.7s115.3-14.3 138.3 107.4c6.6-12.4 10.4-26.6 10.4-41.7 0-49.1-39.8-88.9-88.9-88.9-23.1.1-44 8.8-59.8 23.2z" opacity=".3" fill="#869ac2"/><path d="M280.8 234.1c-58.3 0-105.6 47.3-105.6 105.6s47.3 105.6 105.6 105.6S386.4 398 386.4 339.7s-47.3-105.6-105.6-105.6zm0 194c-48.8 0-88.4-39.6-88.4-88.4 0-48.8 39.6-88.4 88.4-88.4s88.4 39.6 88.4 88.4c0 48.9-39.6 88.4-88.4 88.4z" fill="#3f444f"/><path class="st51" d="M632.5 329.5l-26.3 14.4-26.3-41.5 31.9-11.1z"/><path class="st52" d="M630.8 328.2l-24.5 13.5-24.7-38.8 29.8-10.3z"/><path class="st41" d="M639.8 321s-4.6-2.2-6.6-3.3-7.2-2.7-7.6-3.1c-.4-.4-15.3-1.3-16.2-2.1-.9-.8-1.8 1.8 2.1 2.7 3.9.8 9.2 2.9 9.5 4.4.3 1.5-4 1.9-4.4 3.1-.4 1.2.1 1 .7 1.2.6.3 5.1-2.2 7-1.5 2 .7 5-.3 6.5.2s8.8 3 8.8 3l.2-4.6z"/><path d="M631.6 324.2l-2.4-.9s2.9-6.9 4.2-6.7c1.5.2 3.3.7 3.3.7l-5.1 6.9z" fill="#ead8cf"/><path d="M631 325.4c.3-.2 5-9.2 5-9.2l10.1 1.4-5.4 10.7-9.7-2.9z" fill="#da9b5b"/><path class="st41" d="M605 338.7s-3.8-3.5-5.7-4.9c-1.9-1.4-5.3-5.7-5.9-5.9-.5-.2-7.2-13.9-8.3-14.5-1.1-.5 1-2.4 3.3.9s6.3 7.6 7.9 7.2c1.5-.3.2-4.5 1.2-5.3s1-.3 1.4.2c.5.5-.1 5.6 1.3 7.2 1.4 1.6 1.7 4.8 2.7 6 1.1 1.2 6.2 7.1 6.2 7.1l-4.1 2z"/><path class="st55" d="M687.7 523.4s.8 5.8.9 6.6c.1.9 9.2-.5 9.2-.5l.7-6.9c.1.1-9.7 0-10.8.8z"/><path class="st51" d="M688.5 529.3s-2.9 3.5-5.7 5c-2.8 1.5-7.2 2.1-8.9 3.7-1.2 1.1-4.4 6 7.3 5.9 11.6-.1 17.2.7 18.5-1.2 1.2-1.9-1.8-13.8-1.8-13.8s-2.8 1-9.4.4z"/><path class="st55" d="M622.2 523.4s.8 5.8.9 6.6c.1.9 9.2-.5 9.2-.5l.7-6.9c.1.1-9.7 0-10.8.8z"/><path class="st51" d="M623 529.3s-2.9 3.5-5.7 5c-2.8 1.5-13.1 2.8-14.8 4.3-1.2 1.1-3.2 5.7 13.2 5.3 11.6-.3 17.2.7 18.5-1.2 1.2-1.9-1.8-13.8-1.8-13.8s-2.6 1.1-9.4.4zm57.1-154s8.6 13.6 7.9 26c-.6 12.3 3.1 25.8 4.4 38.7 1.4 14.4 7.3 48.3 7.5 56 .2 7.7-.9 32.2-.9 32.2l-11.8.3s-9.9-59.4-12.5-65.5c-2.6-6.1-15.3-49.3-15.7-54.1-.3-5 21.1-33.6 21.1-33.6z"/><path class="st51" d="M634.9 377.1s-6.5 33.8-7.3 41.3c-.9 7.5-1.4 36.5-1.9 41.2-.4 4.7-2.8 61.7-5.1 68.7h15.1s11.6-41.4 11.6-61 8.9-42.6 14.7-55.6 19-13.2 22.5-37.2c-.1.1-44.8-5-49.6 2.6z"/><path class="st41" d="M665.8 260.6s-11.5-4.3-16.8 4.5c-5.3 8.8-4.8 26.3 1 28.5 5.8 2.2 14.5 1 17.5-4.5s5.7-13.4 5.5-18.7c-.2-5.3-4.2-8.3-7.2-9.8z"/><path class="st41" d="M651.2 294s.5 3.1-.3 4.6c-.8 1.5 14.9 1.6 14.9 1.6s1.3-8.3 3.7-15.4c2.4-7-18.3 9.2-18.3 9.2z"/><path class="st56" d="M669.5 284.8s-1.1 1.8-5.5 1.1-9.8-6.6-11.7-7.2c-1.8-.6-1.9-1.7-1.9-1.7l-1.2 1.7-2 .1s1.8-5.3-.9-7.4c-2.7-2.2 2.8-17.1 17-12.1 0 0 10.9 3 10.5 9.2-.3 6.1-1.9 13.2-4.3 16.3z"/><path class="st52" d="M649.9 298.4s0-2.9 1.4-3.2c1.3-.3 14.7-1.6 16.3-.9v3.4s-3.1 1.9-17.7.7z"/><path class="st41" d="M650.7 274.7c.2-1 2.9-4 3.9-.8s-1.5 7.5-3 7.1c-1.3-.4-1.5-3.7-.9-6.3z"/><path class="st57" d="M597.1 333c-.1.1-.1.1 0 0zm92.7 74.8s-7.1 2.1-19.1 3.4c-12.1 1.3-42.2-.5-42.3-1.9-.2-1.4 6.5-53 6.1-55.7-.4-2.7-.6-12.1-.6-12.1-.1 2.6-2.8 13.2-6 19-1.2 2.1-5 8.6-6.9 7.1-9-7.2-23-34.3-23.9-34.6.7-.3 6.6-3 7.4-3.3.7-.2 7.2 6.6 11.2 10.9 1.8 1.9 3 3.3 3 3.3 1.1-2.6 5.3-18.7 6.6-24.3 2.9-12.6 2.5-13.1 2.5-13.1 8.8-2.7 22.2-8.1 22.2-8.1l17.7-.7s16.2 3.6 22.6 6.5c.6.3.6 14.5 2.3 18.2l-5.3 11.2s-3.1 22.1-3.7 31.9c-.4 4.5 6.2 42.3 6.2 42.3z"/><path class="st57" d="M693.2 340.7c-.5 1.5-2.6 2.7-3.9 3.3-.9.4-1.8.5-2.8.3l-.7-.1-12.1-2.2s-2.6-30.5 16.5-37.8c.5.1 7.2 22.9 3 36.5z"/><path d="M689.3 344c-.9.4-1.8.5-2.8.3l-.7-.1 1.2-15.6 2.3 15.4zm-70.6-.1l-1.5 6.3s-1.6-6.3-1.5-9.6c1.8 1.9 3 3.3 3 3.3z" fill="#252840"/><path class="st56" d="M669 261.6s15.1-1.7.3 23.5l-.3-23.5z"/><path class="st51" d="M592 300.2l-1.5-2.7 12.1-4.1 1.5 2.6z"/><g><defs><path id="SVGID_19_" d="M260.4 337.5c-.5 1.1-1.7 1.5-2.9 1.1-11.1-4.3-24.1-4.1-35 .7-1.1.5-2.4 0-2.9-1s0-63.5 1.2-64c11.9-5.2 26.2-5.5 38.3-.7 1.2.4 1.8 62.9 1.3 63.9z"/></defs><clipPath id="SVGID_20_"><use xlink:href="#SVGID_19_" overflow="visible"/></clipPath></g></svg>