<svg id="Слой_1" xmlns="http://www.w3.org/2000/svg" xmlns:xlink="http://www.w3.org/1999/xlink" viewBox="0 0 701.5 538.8"><style>.st0{fill:#609a3e}.st5{fill:#b8b8b8}.st9{fill:#fff}.st10{fill:#1a598c}.st11{fill:#2273b5}.st14{fill:#6f5be0}.st23{fill:#69d198}.st24{fill:#009d56}.st26{fill:#ff9200}.st27{fill:#ffca00}.st28{fill:#f98300}.st29{fill:#ffb000}.st30{opacity:.17;fill:#fff}.st33{fill:#eea886}.st34{fill:#e4e8eb}.st37{fill:#0f324f}.st50{fill:#292c47}.st51{fill:#e2d2ca}.st54{fill:#424773}.st55{fill:#3a3f47}.st56{fill:#323657}</style><image width="873" height="710" xlink:href="F1856405.png" transform="translate(-80.177 -62.553)" overflow="visible" opacity=".25"/><defs><path id="SVGID_1_" d="M211.9 274.6c-.4.9-1.4 1.2-2.3.9-9-3.5-19.6-3.3-28.5.5-.9.4-1.9 0-2.4-.8-.4-.8 0-51.7 1-52.1 9.7-4.2 21.3-4.4 31.1-.6 1 .5 1.5 51.3 1.1 52.1z"/></defs><clipPath id="SVGID_2_"><use xlink:href="#SVGID_1_" overflow="visible"/></clipPath><path class="st0" d="M334.2 347.8c13.6-1.6 20.5-27.3 21.9-32.8.2-.7.2-1 .2-1 .9.9 1.7 1.9 2.5 3 13.5 17.6 18.1 51.6-.9 58.8-20.2 7.6-13.4 27-17.7 43.1-4.3 16.1-31.5 22.2-31.5 22.2s10.8-18.2 5.3-43.7c-5.5-25.6 5-47.8 20.2-49.6z"/><linearGradient id="SVGID_3_" gradientUnits="userSpaceOnUse" x1="1156.343" y1="-1366.721" x2="1156.343" y2="-1441.394" gradientTransform="rotate(-154.642 950.662 -440.141)"><stop offset=".005" stop-color="#3c6127"/><stop offset="1" stop-color="#639c38"/></linearGradient><path d="M356.3 314c.9.9 1.7 1.9 2.5 3 3.8 10.1 6.5 25.2-4.1 37-3.8 4.2-7.2 7.7-10.2 10.7-10.7 10.8-16.1 16.3-16.6 32.5l-1.9-.3c.5-16.8 6.4-22.7 17-33.5 3-3 6.4-6.5 10.2-10.6 11-12.1 7-28.1 2.9-37.7.1-.8.2-1.1.2-1.1z" fill="url(#SVGID_3_)"/><path class="st0" d="M352.9 310.7c15.4-15.2 23-22.3 30.9-13 .3.4.7.8 1 1.3.6.9 1.2 2 1.9 3.2 8.9 17.7-7.3 61.8-39.2 67.1-31.9 5.3-17.1 29.5-36 43.9-20.2 15.4-40.1-7.8-40.1-7.8 14.5 5.8 30.3-39.2 42-61.1 14.1-26.5 22.3-16.6 39.5-33.6z"/><linearGradient id="SVGID_4_" gradientUnits="userSpaceOnUse" x1="2252.842" y1="-4482.954" x2="2252.842" y2="-4616.938" gradientTransform="rotate(-131.583 2398.865 -1669.947)"><stop offset=".005" stop-color="#3c6127"/><stop offset="1" stop-color="#639c38"/></linearGradient><path d="M383.9 297.6c.3.4.7.8 1 1.3-4.2 15-16.7 38.9-30.3 44-20.8 7.9-32.3 19.4-37.3 37.2-5.8 21.1-20 21.6-20.1 21.6v-1.3c.1 0 13.4-.6 18.9-20.7 5.1-18.3 16.8-30.1 38-38.1 7.4-2.8 15.6-12.1 22.4-25.4 3.5-6.7 6-13.4 7.4-18.6z" fill="url(#SVGID_4_)"/><linearGradient id="SVGID_5_" gradientUnits="userSpaceOnUse" x1="192.738" y1="-.362" x2="449.964" y2="461.95"><stop offset="0" stop-color="#d5e4ff"/><stop offset="1" stop-color="#edfffe"/></linearGradient><path d="M466.9 343.2h-357c-6.5 0-11.8-5.3-11.8-11.8V11.8c0-6.5 5.3-11.8 11.8-11.8h357c6.5 0 11.8 5.3 11.8 11.8v319.6c.1 6.5-5.2 11.8-11.8 11.8z" fill="url(#SVGID_5_)"/><path d="M120.5 170.7h.8V259h-.8zm59.9 0h.8V259h-.8zm59.8 0h.8V259h-.8zm59.9 0h.8V259h-.8zm59.9 0h.8V259h-.8z" fill="#e0e0e0"/><path class="st5" d="M120.9 264.2h9.5v3.1h-9.5z"/><path d="M120.9 159.8h14.3v2.3h-14.3zm0 4.2h20.3v2.3h-20.3zm59.2-4.2h16.8v2.3h-16.8zm0 4.2h10.8v2.3h-10.8zm61-4.2h10.4v2.3h-10.4zm0 4.2h12.2v2.3h-12.2zm59.8-4.2h15.2v2.3h-15.2zm0 4.2h12.2v2.3h-12.2zm59.5-4.2h9.1v2.3h-9.1zm0 4.2h7.3v2.3h-7.3z" fill="#d9d9d9"/><path class="st5" d="M180.8 264.2h9.5v3.1h-9.5zm60.3 0h9.5v3.1h-9.5zm59.8 0h9.5v3.1h-9.5zm59.9 0h9.5v3.1h-9.5z"/><linearGradient id="SVGID_6_" gradientUnits="userSpaceOnUse" x1="120.916" y1="213.157" x2="360.374" y2="213.157"><stop offset="0" stop-color="#ffc05c"/><stop offset="1" stop-color="#ff3857"/></linearGradient><path d="M339.6 232.8c-18.7 0-34.9-8.1-51.8-16.5-20.9-10.4-42.5-21.1-71.3-18.2-18.4 1.9-29.9 9.4-40.1 16-9.2 6-17.9 11.2-29.7 11.7-19.1.7-25.7-7.4-25.8-7.9v-5.2c0 .1 4.2 9.2 25.8 9.1 10.6-.1 18.5-5.1 27.6-11 10.6-6.9 22.5-14.6 41.9-16.6 29.9-3.1 52.1 7.9 73.5 18.6 22.4 11.1 43.8 21.6 70.8 12.5v4.3c-7.8 2.5-14 3.2-20.9 3.2z" fill="url(#SVGID_6_)"/><linearGradient id="SVGID_7_" gradientUnits="userSpaceOnUse" x1="120.916" y1="206.678" x2="360.5" y2="206.678"><stop offset="0" stop-color="#40d5e6"/><stop offset="1" stop-color="#57f"/></linearGradient><path d="M227.5 231.7c-13.8 0-24.7-9.3-35.4-18.3-8.1-6.9-16.5-13.9-26.3-17.4-29.7-10.6-44.8 8.7-45 8.9V199c.2-.2 2.9-3.7 10.7-7.1 7.1-3.1 19.1-5.5 35.6.2 10.5 3.6 19.1 11 27.5 18.1 17 14.4 31.7 26.9 57.3 7.4 19.3-14.8 37.6-28.9 55.5-34 17.5-5 35.8-1.3 53 15.8l-.1 5.3c-36.4-36.5-67.4-13.4-105.9 16.1-10.2 7.9-19 10.9-26.9 10.9z" fill="url(#SVGID_7_)"/><path class="st9" d="M156.3 37.6c-13.9-2.8-27.6 3.9-34.2 15.7-1.6 2.8-2.8 6-3.5 9.4-2.1 10.2 1 20.3 7.4 27.5 4.5 5 10.5 8.7 17.6 10.1.7.1 1.4.3 2.1.4 3.2.4 6.3.4 9.4-.1 12.7-2.1 23.5-11.8 26.2-25.2 3.5-17.5-7.7-34.3-25-37.8zm17.2 36.1c-2 10.1-10.1 17.4-19.6 18.9-2.3.4-4.6.4-7 .1-.5-.1-1.1-.2-1.6-.3-5.3-1.1-9.9-3.8-13.2-7.6-4.8-5.4-7.1-13-5.6-20.7.5-2.5 1.4-4.9 2.6-7 5-8.8 15.2-13.9 25.6-11.7 13 2.6 21.4 15.3 18.8 28.3z"/><path class="st10" d="M132.1 84.8l-6 5.3c-6.4-7.2-9.5-17.3-7.4-27.5.7-3.4 1.9-6.5 3.5-9.4l7 3.9c-1.2 2.1-2.1 4.5-2.6 7-1.6 7.8.7 15.3 5.5 20.7z"/><path class="st11" d="M146.9 92.7l-1.1 7.9c-.7-.1-1.4-.2-2.1-.4-7.1-1.4-13.2-5.1-17.6-10.1l6-5.3c3.3 3.8 7.9 6.5 13.2 7.6.5.1 1 .2 1.6.3z"/><path d="M155.2 100.5c-3 .5-6.2.6-9.4.1l1.1-7.9c2.4.3 4.8.3 7-.1l1.3 7.9z" fill="#3d96e0"/><path class="st9" d="M267.8 81.4c5.6-13.1 1.8-27.8-8.4-36.7-2.5-2.1-5.3-3.9-8.5-5.3-9.6-4.1-20.1-3.1-28.5 1.7-5.8 3.3-10.6 8.5-13.5 15.2-.3.7-.5 1.3-.8 2-1.1 3-1.6 6.1-1.8 9.2-.5 12.9 6.8 25.4 19.4 30.7 16.4 7.1 35.2-.5 42.1-16.8zM229 91c-9.4-4-15-13.4-14.6-23 .1-2.3.5-4.6 1.3-6.9l.6-1.5c2.1-5 5.7-8.9 10.1-11.4 6.3-3.6 14.2-4.3 21.4-1.3 2.4 1 4.5 2.4 6.4 4 7.6 6.6 10.5 17.7 6.3 27.5-5.3 12.1-19.4 17.8-31.5 12.6z"/><path d="M226.4 48.1l-4-6.9c8.4-4.8 18.9-5.8 28.5-1.7 3.2 1.3 6 3.1 8.5 5.3l-5.3 6c-1.8-1.6-4-3-6.4-4-7.1-3-15-2.3-21.3 1.3z" fill="#4b59c7"/><path class="st14" d="M215.7 61l-7.6-2.6c.2-.7.5-1.3.8-2 2.8-6.7 7.7-11.8 13.5-15.2l4 6.9c-4.4 2.5-8 6.4-10.1 11.4l-.6 1.5z"/><path d="M206.4 67.6c.1-3.1.7-6.2 1.8-9.2l7.6 2.6c-.8 2.3-1.2 4.6-1.3 6.9l-8.1-.3z" fill="#b487fe"/><path class="st9" d="M345.8 43.3c-11.4-8.5-26.6-8.2-37.6-.4-2.7 1.9-5.1 4.2-7.1 7-6.2 8.4-7.8 18.8-5 28.1 1.9 6.4 5.8 12.4 11.6 16.7l1.8 1.2c2.7 1.7 5.6 3 8.5 3.9 12.4 3.6 26.3-.7 34.5-11.7 10.4-14.2 7.5-34.3-6.7-44.8zm.1 39.9c-6.1 8.2-16.5 11.4-25.8 8.7-2.2-.6-4.4-1.6-6.4-2.9-.4-.3-.9-.6-1.3-.9-4.3-3.2-7.3-7.7-8.7-12.5-2-7-.9-14.8 3.8-21.1 1.5-2.1 3.4-3.8 5.4-5.2 8.2-5.9 19.6-6 28.2.3 10.5 8 12.7 23 4.8 33.6z"/><path class="st10" d="M303.7 75.7l-7.7 2.2c-2.7-9.3-1.2-19.7 5-28.1 2.1-2.8 4.5-5.1 7.1-7l4.6 6.5c-2 1.4-3.8 3.2-5.4 5.2-4.5 6.4-5.6 14.2-3.6 21.2z"/><path class="st11" d="M313.7 89.1l-4.3 6.7-1.8-1.2c-5.8-4.3-9.7-10.2-11.6-16.7l7.7-2.2c1.4 4.8 4.3 9.3 8.7 12.5.4.3.9.6 1.3.9z"/><path d="M317.9 99.7c-3-.8-5.8-2.1-8.5-3.9l4.3-6.7c2 1.3 4.2 2.3 6.4 2.9l-2.2 7.7z" fill="#3788cc"/><path d="M118 116.1h64v4.9h-64zm0 10.5h47.9v4.9H118zm88.4-10.5h35.3v4.9h-35.3zm0 10.5h52.4v4.9h-52.4zm94.1-10.5h39.2v4.9h-39.2zm0 10.5h45.4v4.9h-45.4z" fill="#c4c4c4"/><path d="M399.8 52.1h46.5v4.7h-46.5zm0 14.4h53.5v4.7h-53.5zm-.1 14.4h27.7v4.7h-27.7zm0 14.4h42.6v4.7h-42.6z" fill="#b8d6ff"/><path class="st9" d="M118 295.8h203.6v4.8H118zm0 11.1h220v4.8H118zm0 11.2h142.7v4.8H118z"/><linearGradient id="SVGID_8_" gradientUnits="userSpaceOnUse" x1="275.79" y1="298.18" x2="47.262" y2="298.18"><stop offset="0" stop-color="#40d5e6"/><stop offset="1" stop-color="#57f"/></linearGradient><path fill="url(#SVGID_8_)" d="M118 295.8h106v4.8H118z"/><linearGradient id="SVGID_9_" gradientUnits="userSpaceOnUse" x1="275.789" y1="309.32" x2="47.262" y2="309.32"><stop offset="0" stop-color="#40d5e6"/><stop offset="1" stop-color="#57f"/></linearGradient><path fill="url(#SVGID_9_)" d="M118 306.9h114.5v4.8H118z"/><linearGradient id="SVGID_10_" gradientUnits="userSpaceOnUse" x1="275.789" y1="320.46" x2="47.263" y2="320.46"><stop offset="0" stop-color="#40d5e6"/><stop offset="1" stop-color="#57f"/></linearGradient><path fill="url(#SVGID_10_)" d="M118 318.1h74.3v4.8H118z"/><defs><path id="SVGID_11_" d="M211.9 274.6c-.4.9-1.4 1.2-2.3.9-9-3.5-19.6-3.3-28.5.5-.9.4-1.9 0-2.4-.8-.4-.8 0-51.7 1-52.1 9.7-4.2 21.3-4.4 31.1-.6 1 .5 1.5 51.3 1.1 52.1z"/></defs><clipPath id="SVGID_12_"><use xlink:href="#SVGID_11_" overflow="visible"/></clipPath><g clip-path="url(#SVGID_12_)"><path class="st23" d="M180.8 243.9l.7 38.9.1 3.7c.8-.3 1.6-.6 2.5-.9.7-.2 1.4-.4 2.2-.6 5.9-1.5 12.2-1.6 18.1-.2.7.2 1.5.4 2.2.6.9.3 1.7.5 2.5.8l-.1-3.7-.7-39-27.5.4z"/><path class="st24" d="M183.4 246.7l.7 35.3.1 3.6c.7-.2 1.4-.4 2.2-.6l-.1-3.5-.6-29.7h.4c1.4 0 2.5-1.2 2.5-2.6v-.4l12.4-.2v.4c0 1.4 1.2 2.5 2.6 2.5h.4l.6 29.9.1 3.5c.7.2 1.5.4 2.2.6l-.1-3.6-.7-35.5-22.7.3z"/><path class="st24" d="M194.8 262.1c-4.5.1-8.1 3.8-8 8.3.1 4.5 3.8 8.1 8.3 8 4.5-.1 8.1-3.8 8-8.3 0-4.5-3.8-8.1-8.3-8z"/><path class="st23" d="M196.8 267.2c1.4 0 2.2 1.1 2.4 2.5h1.7v1.4h-1.7c-.1 1-.6 2.1-1.2 2.8l-1.5-.7c.7-.8 1.2-2 1.2-2.9 0-.7-.3-1.2-.8-1.2-1.5 0-.6 4.3-3.5 4.3-1.2 0-2.1-.9-2.3-2.3h-1.7v-1.4h1.6c.1-.9.4-1.8.9-2.5l1.5.7c-.5.9-.8 1.9-.8 2.5 0 .6.2 1 .7 1 1.4.1.6-4.2 3.5-4.2z"/></g><path id="XMLID_12_" d="M278.4 320.4c0 1.9-26.9 3.5-60.1 3.5s-60.1-1.6-60.1-3.5 26.9-3.5 60.1-3.5 60.1 1.6 60.1 3.5z" fill="#bbd3e8"/><path class="st26" d="M179.5 317.4H219v1.9h-39.5z"/><path class="st27" d="M220 310.5v6.6c0 .6-.5 1-1 1h-39.5c-.3 0-.5-.1-.7-.3-.2-.2-.3-.5-.3-.8v-6.6c0-.6.5-1 1-1H219c.5.1 1 .5 1 1.1z"/><path class="st28" d="M220 310.5v6.6c0 .6-.5 1-1 1h-3.5v-8.7h3.5c.5.1 1 .5 1 1.1z"/><path class="st29" d="M207.8 309.5h7.9v8.7h-7.9z"/><path class="st26" d="M179.1 309.5h1.9v8.7h-1.9zm3.4 0h1.9v8.7h-1.9zm3.5 0h1.9v8.7H186zm3.5 0h1.9v8.7h-1.9zm3.4 0h1.9v8.7h-1.9zm3.5 0h1.9v8.7h-1.9zm3.5 0h1.9v8.7h-1.9zm3.5 0h1.9v8.7h-1.9zm3.4 0h1.9v8.7h-1.9zm3.5 0h1.9v8.7h-1.9zm3.5 0h1.9v8.7h-1.9zm3.4 0h1.9v8.7h-1.9z"/><path class="st30" d="M200.7 309.5l-3.4 5.8-1.6 2.9h-3.9l2.1-3.7 2.9-5zm-17.1 0l-3.4 5.9-1.5 2.6c-.2-.2-.3-.5-.3-.8v-5.5l1.2-2.2h4zm25.7 0l-1.5 2.6-3.5 6v.1h-7.1l.1-.3 3.5-6 1.4-2.4z"/><path class="st26" d="M181.7 308.4h37.4v1.9h-37.4z"/><path class="st27" d="M222.3 301.5v6.6c0 .6-.5 1-1 1h-39.5c-.3 0-.5-.1-.7-.3-.2-.2-.3-.5-.3-.8v-6.6c0-.6.5-1 1-1h39.5c.5.1 1 .5 1 1.1z"/><path class="st28" d="M222.3 301.5v6.6c0 .6-.5 1-1 1h-3.5v-8.7h3.5c.5.1 1 .5 1 1.1z"/><path class="st29" d="M210 300.5h7.9v8.7H210z"/><path class="st26" d="M181.3 300.5h1.9v8.7h-1.9zm3.5 0h1.9v8.7h-1.9zm3.5 0h1.9v8.7h-1.9zm3.4 0h1.9v8.7h-1.9zm3.5 0h1.9v8.7h-1.9zm3.5 0h1.9v8.7h-1.9zm3.5 0h1.9v8.7h-1.9zm3.4 0h1.9v8.7h-1.9zm3.5 0h1.9v8.7h-1.9zm3.5 0h1.9v8.7h-1.9zm3.4 0h1.9v8.7H216zm3.5 0h1.9v8.7h-1.9z"/><path class="st30" d="M203 300.5l-3.4 5.8-1.6 2.9h-4l2.2-3.7 2.9-5zm-17.1 0l-3.4 5.9-1.5 2.6c-.2-.2-.3-.5-.3-.8v-5.5l1.2-2.2h4zm25.6 0l-1.5 2.6-3.4 6.1h-7.1l.1-.3 3.5-6 1.4-2.4z"/><path class="st26" d="M185.4 290.2h37.4v1.9h-37.4z"/><path class="st27" d="M225.9 283.3v6.6c0 .6-.5 1-1 1h-39.5c-.3 0-.5-.1-.7-.3-.2-.2-.3-.5-.3-.8v-6.6c0-.6.5-1 1-1h39.5c.6.1 1 .6 1 1.1z"/><path class="st28" d="M225.9 283.3v6.6c0 .6-.5 1-1 1h-3.5v-8.7h3.5c.6.1 1 .6 1 1.1z"/><path class="st29" d="M213.7 282.3h7.9v8.7h-7.9z"/><path class="st26" d="M185 282.3h1.9v8.7H185zm3.5 0h1.9v8.7h-1.9zm3.4 0h1.9v8.7h-1.9zm3.5 0h1.9v8.7h-1.9zm3.5 0h1.9v8.7h-1.9zm3.4 0h1.9v8.7h-1.9zm3.5 0h1.9v8.7h-1.9zm3.5 0h1.9v8.7h-1.9zm3.5 0h1.9v8.7h-1.9zm3.4 0h1.9v8.7h-1.9zm3.5 0h1.9v8.7h-1.9zm3.5 0h1.9v8.7h-1.9z"/><path class="st30" d="M206.7 282.3l-3.4 5.9-1.7 2.8h-3.9l2.1-3.6 2.9-5.1zm-17.2 0l-3.4 5.9-1.5 2.6c-.2-.2-.3-.5-.3-.8v-5.5l1.2-2.2h4zm25.7 0l-1.5 2.6-3.5 6.1h-7.1l.2-.2 3.5-6.1 1.3-2.4z"/><path class="st26" d="M234.3 272.1h37.4v1.9h-37.4z"/><path class="st27" d="M274.8 265.2v6.6c0 .6-.5 1-1 1h-39.5c-.3 0-.5-.1-.7-.3-.2-.2-.3-.5-.3-.8v-6.6c0-.6.5-1 1-1h39.5c.6.1 1 .5 1 1.1z"/><path class="st28" d="M274.8 265.2v6.6c0 .6-.5 1-1 1h-3.5v-8.7h3.5c.6.1 1 .5 1 1.1z"/><path class="st29" d="M262.6 264.2h7.9v8.7h-7.9z"/><path class="st26" d="M233.9 264.2h1.9v8.7h-1.9zm3.5 0h1.9v8.7h-1.9zm3.4 0h1.9v8.7h-1.9zm3.5 0h1.9v8.7h-1.9zm3.5 0h1.9v8.7h-1.9zm3.5 0h1.9v8.7h-1.9zm3.4 0h1.9v8.7h-1.9zm3.5 0h1.9v8.7h-1.9zm3.5 0h1.9v8.7h-1.9zm3.4 0h1.9v8.7h-1.9zm3.5 0h1.9v8.7h-1.9zm3.5 0h1.9v8.7h-1.9z"/><path class="st30" d="M255.6 264.2l-3.4 5.8-1.7 2.9h-3.9l2.1-3.7 2.9-5zm-17.2 0l-3.4 5.9-1.5 2.6c-.2-.2-.3-.5-.3-.8v-5.5l1.2-2.2h4zm25.7 0l-1.5 2.6-3.5 6.1H252l.2-.3 3.5-6 1.3-2.4z"/><path class="st26" d="M182.3 299.4h35.3v1.9h-35.3z"/><path class="st27" d="M218.6 292.5v6.6c0 .6-.5 1-1 1h-39.5c-.3 0-.5-.1-.7-.3-.2-.2-.3-.5-.3-.8v-6.6c0-.6.5-1 1-1h39.5c.5 0 1 .5 1 1.1z"/><path class="st28" d="M218.6 292.5v6.6c0 .6-.5 1-1 1H214v-8.7h3.5c.6 0 1.1.5 1.1 1.1z"/><path class="st29" d="M206.4 291.4h7.9v8.7h-7.9z"/><path class="st26" d="M177.7 291.4h1.9v8.7h-1.9zm3.4 0h1.9v8.7h-1.9zm3.5 0h1.9v8.7h-1.9zm3.5 0h1.9v8.7h-1.9zm3.4 0h1.9v8.7h-1.9zm3.5 0h1.9v8.7H195zm3.5 0h1.9v8.7h-1.9zm3.5 0h1.9v8.7H202zm3.4 0h1.9v8.7h-1.9zm3.5 0h1.9v8.7h-1.9zm3.5 0h1.9v8.7h-1.9zm3.4 0h1.9v8.7h-1.9z"/><path class="st30" d="M199.3 291.4l-3.3 5.9-1.7 2.9h-3.9l2.1-3.7 2.9-5.1zm-17.1 0l-3.4 5.9-1.5 2.6c-.2-.2-.3-.5-.3-.8v-5.5l1.2-2.2h4zm25.7 0l-1.5 2.6-3.5 6.1v.1h-7.1l.2-.3 3.4-6.1 1.4-2.4z"/><path class="st26" d="M184.1 281.3h35.3v1.9h-35.3z"/><path class="st27" d="M220.4 274.4v6.6c0 .6-.5 1-1 1h-39.5c-.3 0-.5-.1-.7-.3-.2-.2-.3-.5-.3-.8v-6.6c0-.6.5-1 1-1h39.5c.6 0 1 .5 1 1.1z"/><path class="st28" d="M220.4 274.4v6.6c0 .6-.5 1-1 1h-3.5v-8.7h3.5c.6 0 1 .5 1 1.1z"/><path class="st29" d="M208.2 273.3h7.9v8.7h-7.9z"/><path class="st26" d="M179.5 273.3h1.9v8.7h-1.9zm3.5 0h1.9v8.7H183zm3.4 0h1.9v8.7h-1.9zm3.5 0h1.9v8.7h-1.9zm3.5 0h1.9v8.7h-1.9zm3.4 0h1.9v8.7h-1.9zm3.5 0h1.9v8.7h-1.9zm3.5 0h1.9v8.7h-1.9zm3.5 0h1.9v8.7h-1.9zm3.4 0h1.9v8.7h-1.9zm3.5 0h1.9v8.7h-1.9zm3.5 0h1.9v8.7h-1.9z"/><path class="st30" d="M201.1 273.3l-3.3 5.9-1.7 2.9h-3.9l2.1-3.7 2.9-5.1zm-17.1 0l-3.4 5.9-1.5 2.6c-.2-.2-.3-.5-.3-.8v-5.5l1.2-2.2h4zm25.7 0l-1.5 2.7-3.5 6v.1h-7.1l.2-.3 3.5-6 1.3-2.5z"/><path class="st27" d="M171.9 276.4l6.4 1.8c.6.2.9.7.7 1.3l-11 37.9c-.1.3-.2.5-.5.6-.2.1-.5.2-.8.1l-6.4-1.8c-.6-.2-.9-.7-.7-1.3l11-37.9c.2-.5.8-.8 1.3-.7z"/><path class="st28" d="M171.9 276.4l6.4 1.8c.6.2.9.7.7 1.3l-1 3.4-8.4-2.4 1-3.4c.2-.5.8-.8 1.3-.7z"/><path transform="rotate(-73.841 172.8 285.303)" class="st29" d="M168.9 280.9h7.9v8.7h-7.9z"/><path transform="rotate(-73.841 163.961 315.745)" class="st26" d="M163 311.4h1.9v8.7H163z"/><path transform="rotate(-73.841 164.93 312.413)" class="st26" d="M164 308.1h1.9v8.7H164z"/><path transform="rotate(-73.841 165.894 309.077)" class="st26" d="M165 304.7h1.9v8.7H165z"/><path transform="rotate(-73.854 166.855 305.732)" class="st26" d="M165.9 301.4h1.9v8.7h-1.9z"/><path transform="rotate(-73.841 167.825 302.41)" class="st26" d="M166.9 298h1.9v8.7h-1.9z"/><path transform="rotate(-73.847 168.807 299.091)" class="st26" d="M167.9 294.7h1.9v8.7h-1.9z"/><path transform="rotate(-73.841 169.757 295.742)" class="st26" d="M168.8 291.4h1.9v8.7h-1.9z"/><path transform="rotate(-73.852 170.737 292.427)" class="st26" d="M169.8 288h1.9v8.7h-1.9z"/><path transform="rotate(-73.841 171.691 289.075)" class="st26" d="M170.8 284.7h1.9v8.7h-1.9z"/><path transform="rotate(-73.847 172.67 285.755)" class="st26" d="M171.7 281.4h1.9v8.7h-1.9z"/><path transform="rotate(-73.841 173.624 282.407)" class="st26" d="M172.7 278h1.9v8.7h-1.9z"/><path transform="rotate(-73.841 174.599 279.077)" class="st26" d="M173.7 274.7h1.9v8.7h-1.9z"/><path class="st30" d="M165.5 294.6l4.7 4.9 2.3 2.4-1.1 3.7-2.9-3-4.1-4.2zm-4.7 16.5l4.7 4.9 2.1 2.1c-.2.1-.5.2-.8.1l-5.3-1.5-1.7-1.8 1-3.8zm7.1-24.7l2.1 2.2 4.9 5v.1l-1.9 6.7-.3-.2-4.8-5-1.9-2z"/><path class="st27" d="M231.9 244.7l3.6 5.6c.3.5.2 1.1-.3 1.4L202 273c-.2.2-.5.2-.8.1-.3 0-.5-.2-.7-.5l-3.6-5.6c-.3-.5-.2-1.1.3-1.4l33.2-21.3c.5-.2 1.2 0 1.5.4z"/><path class="st28" d="M231.9 244.7l3.6 5.6c.3.5.2 1.1-.3 1.4l-2.9 1.9-4.7-7.4 2.9-1.9c.4-.2 1.1 0 1.4.4z"/><path transform="rotate(-32.719 226.676 252.021)" class="st29" d="M222.8 247.7h7.9v8.7h-7.9z"/><path transform="rotate(-32.712 200.028 269.174)" class="st26" d="M199.1 264.8h1.9v8.7h-1.9z"/><path transform="rotate(-32.719 202.946 267.295)" class="st26" d="M202 262.9h1.9v8.7H202z"/><path transform="rotate(-32.716 205.829 265.382)" class="st26" d="M204.9 261h1.9v8.7h-1.9z"/><path transform="rotate(-32.719 208.78 263.538)" class="st26" d="M207.8 259.2h1.9v8.7h-1.9z"/><path transform="rotate(-32.712 211.71 261.67)" class="st26" d="M210.8 257.3h1.9v8.7h-1.9z"/><path transform="rotate(-32.719 214.63 259.79)" class="st26" d="M213.7 255.4h1.9v8.7h-1.9z"/><path transform="rotate(-32.719 217.55 257.914)" class="st26" d="M216.6 253.5h1.9v8.7h-1.9z"/><path transform="rotate(-32.719 220.458 256.03)" class="st26" d="M219.5 251.7h1.9v8.7h-1.9z"/><path transform="rotate(-32.719 223.383 254.157)" class="st26" d="M222.4 249.8h1.9v8.7h-1.9z"/><path transform="rotate(-32.719 226.306 252.283)" class="st26" d="M225.4 247.9h1.9v8.7h-1.9z"/><path transform="rotate(-32.719 229.232 250.41)" class="st26" d="M228.3 246h1.9v8.7h-1.9z"/><path transform="rotate(-32.719 232.144 248.529)" class="st26" d="M231.2 244.2h1.9v8.7h-1.9z"/><path class="st30" d="M215.1 254.3l.3 6.7.2 3.3-3.3 2.2-.2-4.3-.3-5.8zm-14.4 9.2l.3 6.8.2 3c-.3 0-.5-.2-.7-.5l-3-4.6-.1-2.5 3.3-2.2zm21.6-13.8l.1 3 .4 7-6 3.8v-.3l-.3-6.9-.2-2.8z"/><path class="st26" d="M233.8 263.1h35.3v1.9h-35.3z"/><path class="st27" d="M270.1 256.3v6.6c0 .6-.5 1-1 1h-39.5c-.3 0-.5-.1-.7-.3-.2-.2-.3-.5-.3-.8v-6.6c0-.6.5-1 1-1H269c.6 0 1.1.5 1.1 1.1z"/><path class="st28" d="M270.1 256.3v6.6c0 .6-.5 1-1 1h-3.5v-8.7h3.5c.5 0 1 .5 1 1.1z"/><path class="st29" d="M257.9 255.2h7.9v8.7h-7.9z"/><path class="st26" d="M229.2 255.2h1.9v8.7h-1.9zm3.4 0h1.9v8.7h-1.9zm3.5 0h1.9v8.7h-1.9zm3.5 0h1.9v8.7h-1.9zm3.4 0h1.9v8.7H243zm3.5 0h1.9v8.7h-1.9zm3.5 0h1.9v8.7H250zm3.5 0h1.9v8.7h-1.9zm3.4 0h1.9v8.7h-1.9zm3.5 0h1.9v8.7h-1.9zm3.5 0h1.9v8.7h-1.9zm3.4 0h1.9v8.7h-1.9z"/><path class="st30" d="M250.8 255.2l-3.3 5.9-1.7 2.9h-3.9l2.1-3.7 2.9-5.1zm-17.1 0l-3.4 5.9-1.5 2.6c-.2-.2-.3-.5-.3-.8v-5.5l1.2-2.2h4zm25.7 0l-1.5 2.6-3.5 6.1v.1h-7.1l.2-.3 3.4-6.1 1.4-2.4z"/><path class="st26" d="M226.9 317.4h39.5v1.9h-39.5z"/><path class="st27" d="M267.5 310.5v6.6c0 .6-.5 1-1 1H227c-.3 0-.5-.1-.7-.3-.2-.2-.3-.5-.3-.8v-6.6c0-.6.5-1 1-1h39.5c.5.1 1 .5 1 1.1z"/><path class="st28" d="M267.5 310.5v6.6c0 .6-.5 1-1 1H263v-8.7h3.5c.5.1 1 .5 1 1.1z"/><path class="st29" d="M255.2 309.5h7.9v8.7h-7.9z"/><path class="st26" d="M226.5 309.5h1.9v8.7h-1.9zm3.5 0h1.9v8.7H230zm3.5 0h1.9v8.7h-1.9zm3.4 0h1.9v8.7h-1.9zm3.5 0h1.9v8.7h-1.9zm3.5 0h1.9v8.7h-1.9zm3.5 0h1.9v8.7h-1.9zm3.4 0h1.9v8.7h-1.9zm3.5 0h1.9v8.7h-1.9zm3.5 0h1.9v8.7h-1.9zm3.4 0h1.9v8.7h-1.9zm3.5 0h1.9v8.7h-1.9z"/><path class="st30" d="M248.2 309.5l-3.4 5.8-1.6 2.9h-3.9l2.1-3.7 2.9-5zm-17.1 0l-3.4 5.9-1.5 2.6c-.2-.2-.3-.5-.3-.8v-5.5l1.2-2.2h4zm25.6 0l-1.5 2.6-3.4 6-.1.1h-7l.1-.3 3.5-6 1.4-2.4z"/><path class="st26" d="M227.2 308.4H263v1.9h-35.8z"/><path class="st27" d="M266.2 301.5v6.6c0 .6-.5 1-1 1h-39.5c-.3 0-.5-.1-.7-.3-.2-.2-.3-.5-.3-.8v-6.6c0-.6.5-1 1-1h39.5c.5.1 1 .5 1 1.1z"/><path class="st28" d="M266.2 301.5v6.6c0 .6-.5 1-1 1h-3.5v-8.7h3.5c.5.1 1 .5 1 1.1z"/><path class="st29" d="M253.9 300.5h7.9v8.7h-7.9z"/><path class="st26" d="M225.2 300.5h1.9v8.7h-1.9zm3.5 0h1.9v8.7h-1.9zm3.5 0h1.9v8.7h-1.9zm3.4 0h1.9v8.7h-1.9zm3.5 0h1.9v8.7h-1.9zm3.5 0h1.9v8.7h-1.9zm3.5 0h1.9v8.7h-1.9zm3.4 0h1.9v8.7h-1.9zm3.5 0h1.9v8.7H253zm3.5 0h1.9v8.7h-1.9zm3.4 0h1.9v8.7h-1.9zm3.5 0h1.9v8.7h-1.9z"/><path class="st30" d="M246.9 300.5l-3.4 5.8-1.6 2.9h-4l2.2-3.7 2.9-5zm-17.1 0l-3.4 5.9-1.5 2.6c-.2-.2-.3-.5-.3-.8v-5.5l1.2-2.2h4zm25.6 0l-1.5 2.6-3.4 6.1h-7.1l.1-.3 3.5-6 1.4-2.4z"/><path class="st26" d="M230 290.2h37.4v1.9H230z"/><path class="st27" d="M270.5 283.3v6.6c0 .6-.5 1-1 1H230c-.3 0-.5-.1-.7-.3-.2-.2-.3-.5-.3-.8v-6.6c0-.6.5-1 1-1h39.5c.5.1 1 .5 1 1.1z"/><path class="st28" d="M270.5 283.3v6.6c0 .6-.5 1-1 1H266v-8.7h3.5c.5.1 1 .5 1 1.1z"/><path class="st29" d="M258.3 282.3h7.9v8.7h-7.9z"/><path class="st26" d="M229.6 282.3h1.9v8.7h-1.9zm3.4 0h1.9v8.7H233zm3.5 0h1.9v8.7h-1.9zm3.5 0h1.9v8.7H240zm3.5 0h1.9v8.7h-1.9zm3.4 0h1.9v8.7h-1.9zm3.5 0h1.9v8.7h-1.9zm3.5 0h1.9v8.7h-1.9zm3.4 0h1.9v8.7h-1.9zm3.5 0h1.9v8.7h-1.9zm3.5 0h1.9v8.7h-1.9zm3.5 0h1.9v8.7h-1.9z"/><path class="st30" d="M251.2 282.3l-3.3 5.9-1.7 2.8h-3.9l2.1-3.7 2.9-5zm-17.1 0l-3.4 5.9-1.5 2.6c-.2-.2-.3-.5-.3-.8v-5.5l1.2-2.2h4zm25.7 0l-1.5 2.6-3.5 6.1h-7.1l.2-.3 3.4-6 1.4-2.4z"/><path class="st26" d="M226.8 299.4h38.4v1.9h-38.4z"/><path class="st27" d="M267.8 292.5v6.6c0 .6-.5 1-1 1h-39.5c-.3 0-.5-.1-.7-.3-.2-.2-.3-.5-.3-.8v-6.6c0-.6.5-1 1-1h39.5c.5 0 1 .5 1 1.1z"/><path class="st28" d="M267.8 292.5v6.6c0 .6-.5 1-1 1h-3.5v-8.7h3.5c.5 0 1 .5 1 1.1z"/><path class="st29" d="M255.5 291.4h7.9v8.7h-7.9z"/><path class="st26" d="M226.8 291.4h1.9v8.7h-1.9zm3.5 0h1.9v8.7h-1.9zm3.5 0h1.9v8.7h-1.9zm3.4 0h1.9v8.7h-1.9zm3.5 0h1.9v8.7h-1.9zm3.5 0h1.9v8.7h-1.9zm3.5 0h1.9v8.7h-1.9zm3.4 0h1.9v8.7h-1.9zm3.5 0h1.9v8.7h-1.9zm3.5 0h1.9v8.7h-1.9zm3.4 0h1.9v8.7h-1.9zm3.5 0h1.9v8.7H265z"/><path class="st30" d="M248.5 291.4l-3.4 5.9-1.6 2.9h-3.9l2.1-3.7 2.9-5.1zm-17.1 0l-3.4 5.9-1.5 2.6c-.2-.2-.3-.5-.3-.8v-5.5l1.2-2.2h4zm25.7 0l-1.6 2.6-3.4 6.1-.1.1h-7l.1-.3 3.5-6.1 1.4-2.4z"/><path class="st26" d="M235.5 281.1h34v1.9h-34z"/><path class="st27" d="M275.8 274.3v6.6c0 .6-.5 1-1 1h-39.5c-.3 0-.5-.1-.7-.3-.2-.2-.3-.5-.3-.8v-6.6c0-.6.5-1 1-1h39.5c.5 0 1 .5 1 1.1z"/><path class="st28" d="M275.8 274.3v6.6c0 .6-.5 1-1 1h-3.5v-8.7h3.5c.5 0 1 .5 1 1.1z"/><path class="st29" d="M263.6 273.2h7.9v8.7h-7.9z"/><path class="st26" d="M234.9 273.2h1.9v8.7h-1.9zm3.4 0h1.9v8.7h-1.9zm3.5 0h1.9v8.7h-1.9zm3.5 0h1.9v8.7h-1.9zm3.4 0h1.9v8.7h-1.9zm3.5 0h1.9v8.7h-1.9zm3.5 0h1.9v8.7h-1.9zm3.5 0h1.9v8.7h-1.9zm3.4 0h1.9v8.7h-1.9zm3.5 0h1.9v8.7h-1.9zm3.5 0h1.9v8.7h-1.9zm3.4 0h1.9v8.7H273z"/><path class="st30" d="M256.5 273.2l-3.3 5.9-1.7 2.9h-3.9l2.1-3.7 2.9-5.1zm-17.1 0l-3.4 5.9-1.5 2.6c-.2-.2-.3-.5-.3-.8v-5.5l1.2-2.2h4zm25.7 0l-1.5 2.6-3.5 6.1v.1H253l.2-.3 3.4-6.1 1.4-2.4z"/><path class="st14" d="M56.3 270.4s8.9-20.2-1.4-18.6c0 0-3.5 2.9-7.1 8.9-2.7 4.5-8.4 16.4-8.2 20.4.2 4 3.1 7 6.2 13.5 0 0 6.4 12 6.7 13.5l6.8-3.5s-5.8-11.5-9.8-21.6l6.8-12.6z"/><linearGradient id="SVGID_13_" gradientUnits="userSpaceOnUse" x1="-257.212" y1="307.779" x2="-116.366" y2="307.779" gradientTransform="translate(257.212)"><stop offset="0" stop-color="#ff9f55"/><stop offset="1" stop-color="#ffd255"/></linearGradient><path fill="url(#SVGID_13_)" d="M4 331.1l136.8-23.3-3.9-23.3L0 307.8z"/><path transform="rotate(-9.667 142.519 295.58)" fill="#2d3038" d="M138.8 286.5h7.4v17.9h-7.4z"/><path class="st33" d="M108 441.8h1.7s-.6-6.4 1-6.4c1.6-.1 5.4 5.2 7.7 6 2.3.8 14.2 1.5 14.2-.7.1-2.2-4.6-3.1-6-3.7-1.4-.6-8.4-7.4-9.7-8.2s-3.4-6.5-3.4-6.5l-6.6-.3s-.4 5.3-.8 8.1c-.1 1-.3 2-.3 2.6.1 2.4 2.2 9.1 2.2 9.1zm-42.6-1.2h1.4v-5.9c1.2.1 5.1 3.8 6.3 4.9 1.2 1.1 2.9 1 8 1.4 5.1.3 5.6-2.7 4.8-3.8-.8-1-3.4-1.5-4.8-2.2-1.4-.7-6.7-6.7-8.2-8.2-1.4-1.4-2.3-5.5-2.3-5.5l-6 .5s0 3.8-.6 6.9c-.1.3-.1.5-.2.8-.9 3.3 1.6 11.1 1.6 11.1z"/><path class="st34" d="M87.5 306.3s2.3 5.4 2.5 6.7c.2 1.4 5.5 14.2 7 22.8.9 5.2 3.5 21.4 3.7 23.4.4 3.5 2 11.3 2.3 14.9.1 2 10.1 32.9 12.4 49 0 0-5.7.8-10-.3 0 0-8.7-16.7-13.5-40.3-2.9-14.2-5.5-21.8-7.7-27.7-2.3-5.9-15-22.5-16.3-24.3-1.3-1.9-9.7-12.2-1.8-23.3 7.8-11.2 21.4-.9 21.4-.9z"/><path class="st34" d="M59 353.7c.7 4.8 0 11.1-1.5 28.7s2.6 38.9 2.6 38.9c5.2 1.8 11.2 0 11.2 0-.1-1.2 0-42.8 0-46.6 0-3.7 1.1-7.9 1.3-12.2.2-2.9 1.5-8.2 3.1-13.7.5-1.6.9-3.3 1.4-4.9.3-.9.5-1.8.8-2.6 2.1-7.4 5-36 5-36s-15.9-12.8-23.7-.8c-7.8 12.1-3.8 20.9-3.5 22.4.2 1.5 2.6 22 3.3 26.8z"/><path d="M65.6 327.9c.1.3 8.1 17.9 10.1 21 .5-1.6.9-3.3 1.4-4.9s-11.2-15.7-11.5-16.1z" fill="#bdc0c2"/><path d="M65.4 440.6h1.4v-5.9c1.2.1 5.1 3.8 6.3 4.9 1.2 1.1 2.9 1 8 1.4 5.1.3 5.6-2.7 4.8-3.8-.8-1-3.4-1.5-4.8-2.2-5.5.3-12.2-7.4-15.4-7.4-1.7 0-1.7 1-1.7 1.1-.1.3-.1.5-.2.8-.9 3.3 1.6 11.1 1.6 11.1zm42.6 1.2h1.7s-.6-6.4 1-6.4c1.6-.1 5.4 5.2 7.7 6 2.3.8 14.2 1.5 14.2-.7.1-2.2-4.6-3.1-6-3.7-4.9 0-12.8-5.4-15.3-6.5-2.5-1.1-5.1-.4-5.1-.4-.1 1-.3 2-.3 2.6 0 2.4 2.1 9.1 2.1 9.1z" fill="#c6c9cc"/><path class="st33" d="M73.4 239.1s-2.5 6.7-.6 11.9c0 0-9.3-.6-9.7-1.7-.4-1.1.4-11.2-.9-14.1-1.2-3 11.2 3.9 11.2 3.9z"/><path class="st14" d="M74.3 248.7s5.5 2 8 2.5 7.7 3 7.3 12.3c-.4 9.3-2 17.3-2.5 21.3-.6 4-.2 14.2.7 19.1 0 0-13.2 3.3-28.7 0 0 0 2.8-8.4 2.7-10.6-.1-2.2-9.2-20.1-9.6-22.9-.4-2.8-2.3-15.3 1.9-18.1 4.2-2.8 7.6-2.4 9.3-3.6 1.7-1.2 8.4-.9 10.9 0z"/><path class="st14" d="M53.1 318.5c22.6 6 40.5 0 40.5 0-1.6-3.4-2.8-6.7-3.7-10-.6-2.3-1.1-4.5-1.4-6.7-1.8-12.3.6-21.7.6-21.7-2.6-21.4-35-27.8-37.6-21-2.6 6.8 5 36 5.4 38.5.3 2.5-3.8 20.9-3.8 20.9z"/><path class="st33" d="M65.3 212.1c3.7-1.3 13.9-2.7 16.5 12.9 2.6 15.6-3.1 15.8-8.9 15.4-5.8-.4-14.9-10.9-15.6-14.1-.7-3.3-2.7-10.6 8-14.2z"/><path class="st37" d="M79.7 218s-3.1 6.6-7.2 8.9c0 0-2.5 7-8.1 9.9 0 0-14.6-9.7-6.1-21.2 8.6-11.4 20.5-2.3 21.4 2.4z"/><path class="st33" d="M72.9 224.7c-.3-.8-2.5-2.1-3.5.1s2.5 6.1 3.5 5.9c1-.2 1.3-3 0-6z"/><path class="st37" d="M58.9 217.4c-.3-.5-10-5-12 4.4s7.8 20.2 9.5 24.9c1.7 4.7-.8 15.7-.8 15.7s5.9-5.6 7.7-11.4c1.9-6.4 2.6-22.6-4.4-33.6z"/><path d="M58.4 217.1s3 2.3 3.3 6c0 0 .6-2.9-.6-4.6-1.2-1.7-2.7-1.4-2.7-1.4z" fill="#e54242"/><path d="M89.9 308.6c-.6-2.3-1.1-4.5-1.4-6.7 0 0-1.5-3.2-2-4.7s-4.2-20.1-4.2-20.1-4 17.5 7.6 31.5z" fill="#1d3b54"/><path class="st33" d="M106.5 309.7s2.9 2.9 3.9 3.2c.9.3 2.8-1.3 9.4-1.8.6 0 1.6.5 1.4 1.3-.2.8-3.2 2.9-4.4 3.2-1.2.3-7.1 2.7-10 1.5-2.9-1.1-4.8-4.8-4.8-4.8l4.5-2.6z"/><path class="st14" d="M83.9 251.7s7.7 3.1 8.2 13.8c.5 10.7.9 16.3 1.3 18 .4 1.7 1.2 8.3 3.2 12.3 1.9 3.9 14.3 16.2 14.3 16.2l-6 5.6s-17.3-17.3-18.3-20.5c-1-3.2-5.4-25.2-5.7-28.9-.4-2.9-4.3-16.3 3-16.5z"/><circle cx="228.4" cy="276.4" r="74.1" opacity=".1" fill="#b8b8b8"/><path d="M180.1 222.7s93.8-11.6 112.5 87.4c5.4-10.1 8.4-21.7 8.4-33.9 0-39.9-32.4-72.3-72.3-72.3-18.7 0-35.7 7.1-48.6 18.8z" opacity=".3" fill="#869ac2"/><path d="M228.4 190.5c-47.5 0-85.9 38.5-85.9 85.9 0 47.5 38.5 85.9 85.9 85.9s85.9-38.5 85.9-85.9c.1-47.4-38.4-85.9-85.9-85.9zm0 157.8c-39.7 0-71.9-32.2-71.9-71.9s32.2-71.9 71.9-71.9 71.9 32.2 71.9 71.9c.1 39.7-32.1 71.9-71.9 71.9z" fill="#3f444f"/><g><path d="M631.4 446h-264c-6.7 0-12.2-5.4-12.2-12.2V43.1c0-6.7 5.4-12.2 12.2-12.2h264.1c6.7 0 12.2 5.4 12.2 12.2v390.8c-.1 6.6-5.5 12.1-12.3 12.1z" opacity=".73" fill="#fff"/><path d="M388.3 238.4h1.1v145.8h-1.1zm55.3 0h1.1v145.8h-1.1zm55.2 0h1.1v145.8h-1.1zm55.3 0h1.1v145.8h-1.1zm55.3 0h1.1v145.8h-1.1z" fill="#42cde8"/><linearGradient id="SVGID_14_" gradientUnits="userSpaceOnUse" x1="388.862" y1="316.55" x2="609.972" y2="316.55"><stop offset="0" stop-color="#40d5e6"/><stop offset="1" stop-color="#57f"/></linearGradient><path d="M388.9 325.1s20.5 12.4 42.3-10.1c21.8-22.5 45.2-40.2 67.4-21.3 22.2 18.9 35.9 23.6 58.1 2.4 22.2-21.3 20.5-47.3 53.4-47.3v135.4H388.9v-59.1z" fill="url(#SVGID_14_)"/><path d="M388.9 226.3h21.9v5.3h-21.9zm55.2 0h13.7v5.3h-13.7zm55.3 0h16.9v5.3h-16.9zm55.3 0h26.1v5.3h-26.1zm55.3 0h9.1v5.3H610z" fill="#7bd6e8"/><path class="st9" d="M526.4 130.4h73.9v9.3h-73.9zm0 39.2h67.9v9.3h-67.9zm0-19.6h58.7v9.4h-58.7z"/><linearGradient id="SVGID_15_" gradientUnits="userSpaceOnUse" x1="447.197" y1="57.031" x2="447.197" y2="220.733"><stop offset="0" stop-color="#40d5e6"/><stop offset="1" stop-color="#57f"/></linearGradient><path d="M460.1 117.1c0 7.1-5.8 12.9-12.9 12.9-7.1 0-12.9-5.8-12.9-12.9 0-7.1 5.8-12.9 12.9-12.9 7.1 0 12.9 5.7 12.9 12.9z" fill="url(#SVGID_15_)"/><linearGradient id="SVGID_16_" gradientUnits="userSpaceOnUse" x1="447.084" y1="57.028" x2="447.084" y2="220.735"><stop offset="0" stop-color="#40d5e6"/><stop offset="1" stop-color="#57f"/></linearGradient><path d="M470.5 159.2v24.6c-7.1 3.2-15.1 5.1-23.4 5.1-8.4 0-16.3-1.8-23.4-5.1v-24.6c0-12.9 10.5-23.4 23.4-23.4 12.9 0 23.4 10.5 23.4 23.4z" fill="url(#SVGID_16_)"/><linearGradient id="SVGID_17_" gradientUnits="userSpaceOnUse" x1="447.083" y1="88.15" x2="447.083" y2="221.594"><stop offset="0" stop-color="#40d5e6"/><stop offset="1" stop-color="#57f"/></linearGradient><path d="M447.1 190.4c-8.4 0-16.5-1.7-24.1-5.2-20.7-9.4-34.2-30.2-34.2-53 0-32.1 26.1-58.2 58.2-58.2s58.2 26.1 58.2 58.2c0 22.8-13.4 43.6-34.2 53-7.4 3.4-15.5 5.2-23.9 5.2zm0-113.4c-30.4 0-55.1 24.7-55.1 55.1 0 21.6 12.7 41.3 32.4 50.2 7.2 3.3 14.8 4.9 22.8 4.9s15.6-1.7 22.8-4.9c19.7-8.9 32.4-28.7 32.4-50.2-.2-30.4-24.9-55.1-55.3-55.1z" fill="url(#SVGID_17_)"/><path class="st50" d="M603.4 227l-38.2 21-38.3-60.3 46.3-16.1z"/><path class="st51" d="M601 225.2l-35.7 19.6-35.9-56.4 43.4-15z"/><path class="st33" d="M614 214.7s-6.6-3.2-9.6-4.8c-2.9-1.7-10.4-3.9-11-4.5-.6-.5-22.2-1.9-23.5-3-1.3-1.1-2.6 2.7 3 3.9 5.6 1.2 13.4 4.2 13.8 6.4.4 2.2-5.8 2.7-6.4 4.5-.6 1.8.2 1.4 1.1 1.8.9.4 7.4-3.2 10.2-2.2 2.8 1 7.2-.4 9.4.4 2.2.7 12.8 4.3 12.8 4.3l.2-6.8z"/><path d="M602.1 219.4l-3.4-1.3s4.3-10 6.1-9.8c2.1.3 4.8 1 4.8 1l-7.5 10.1z" fill="#ead8cf"/><path d="M601.3 221.1c.4-.3 7.3-13.4 7.3-13.4l14.6 2-7.9 15.5-14-4.1z" fill="#da9b5b"/><path class="st33" d="M563.4 240.4s-5.6-5-8.3-7.1c-2.7-2.1-7.8-8.3-8.5-8.6-.7-.4-10.4-20.2-12-21-1.6-.8 1.5-3.5 4.8 1.3s9.2 11 11.4 10.5c2.2-.5.3-6.5 1.8-7.8 1.5-1.3 1.4-.4 2.1.3.7.7-.1 8.2 1.9 10.5 2.1 2.3 2.4 6.9 4 8.7 1.6 1.8 9 10.4 9 10.4l-6.2 2.8z"/><path class="st54" d="M683.6 508.9s1.2 8.4 1.4 9.6c.2 1.3 13.4-.7 13.4-.7l1.1-10c-.1.1-14.3 0-15.9 1.1z"/><path class="st50" d="M684.8 517.5s-4.2 5-8.3 7.2c-4.1 2.2-10.5 3.1-12.9 5.4-1.7 1.6-6.3 8.7 10.6 8.6 16.9-.1 25 1 26.9-1.7 1.8-2.7-2.6-20-2.6-20s-4.1 1.4-13.7.5z"/><path class="st54" d="M588.4 508.9s1.2 8.4 1.4 9.6c.1 1.3 13.4-.7 13.4-.7l1.1-10c0 .1-14.2 0-15.9 1.1z"/><path class="st50" d="M589.6 517.5s-4.2 5-8.3 7.2c-4.1 2.2-19 4-21.5 6.3-1.7 1.6-4.6 8.3 19.2 7.6 16.9-.4 25 1 26.9-1.7 1.8-2.7-2.6-20-2.6-20s-3.8 1.6-13.7.6zm83-223.9s12.5 19.8 11.5 37.7c-.9 17.9 4.5 37.5 6.4 56.2 2.1 20.9 10.6 70.3 11 81.4.3 11.2-1.3 46.8-1.3 46.8l-17.1.4s-14.4-86.4-18.1-95.2c-3.7-8.8-22.2-71.6-22.8-78.7-.7-6.9 30.4-48.6 30.4-48.6z"/><path class="st50" d="M606.9 296.3s-9.4 49.1-10.6 60.1c-1.2 11-2.1 53.1-2.7 59.9-.6 6.9-4.1 89.7-7.4 99.9H608s16.8-60.2 16.8-88.7 13-62 21.4-80.8c8.4-18.8 27.6-19.2 32.7-54.1-.1 0-65.1-7.4-72 3.7z"/><path class="st33" d="M651.7 126.9s-16.7-6.3-24.5 6.5c-7.7 12.7-7 38.3 1.5 41.4 8.4 3.1 21.1 1.5 25.4-6.5 4.3-8 8.2-19.5 8-27.2-.1-7.7-6-11.9-10.4-14.2z"/><path class="st33" d="M630.5 175.4s.7 4.5-.5 6.7 21.7 2.3 21.7 2.3 1.9-12.1 5.4-22.4c3.6-10.1-26.6 13.4-26.6 13.4z"/><path class="st55" d="M657.2 162.1s-1.6 2.6-8 1.6-14.3-9.6-17-10.5c-2.7-.9-2.7-2.5-2.7-2.5l-1.7 2.5-2.9.2s2.6-7.7-1.3-10.8c-3.9-3.1 4.1-24.8 24.7-17.6 0 0 15.9 4.4 15.3 13.4-.6 8.9-2.9 19.2-6.4 23.7z"/><path class="st51" d="M628.7 181.9s.1-4.3 2-4.7c1.9-.4 21.3-2.3 23.7-1.3v5s-4.6 2.8-25.7 1z"/><path class="st33" d="M629.9 147.4c.4-1.5 4.2-5.8 5.7-1.2s-2.2 10.9-4.3 10.3c-2.1-.5-2.3-5.3-1.4-9.1z"/><path class="st56" d="M551.9 232.2c-.1 0-.1 0 0 0zm134.7 108.6s-10.3 3-27.8 5c-17.5 1.9-61.3-.7-61.6-2.8-.3-2.1 9.4-77.1 8.9-80.9-.6-3.9-.8-17.6-.8-17.6-.2 3.8-4.1 19.2-8.7 27.6-1.7 3-7.3 12.5-10 10.4-13.1-10.5-33.4-49.9-34.7-50.2 1.1-.5 9.6-4.4 10.8-4.8 1-.4 10.5 9.7 16.2 15.9 2.6 2.8 4.4 4.8 4.4 4.8 1.7-3.7 7.7-27.2 9.6-35.3 4.2-18.3 3.6-19.1 3.6-19.1 12.8-3.9 32.3-11.8 32.3-11.8l25.7-1s23.6 5.2 32.8 9.4c.9.4.9 21 3.3 26.4l-7.7 16.2s-4.4 32.1-5.4 46.4c-.4 6.5 9.1 61.4 9.1 61.4z"/><path class="st56" d="M691.6 243.4c-.7 2.2-3.7 4-5.7 4.8-1.3.5-2.7.7-4.1.4l-1-.2-17.6-3.3s-3.8-44.3 24-54.9c.8.3 10.6 33.4 4.4 53.2z"/><path d="M685.9 248.2c-1.3.5-2.7.7-4.1.4l-1-.2 1.7-22.6 3.4 22.4zm-102.6-.2l-2.1 9.1s-2.3-9.1-2.2-13.9c2.5 2.8 4.3 4.8 4.3 4.8z" fill="#252840"/><path class="st55" d="M656.5 128.4s22-2.5.4 34.1l-.4-34.1z"/><path class="st50" d="M544.5 184.5l-2.2-3.9 17.6-6 2.2 3.8z"/></g><g><defs><path id="SVGID_18_" d="M211.9 274.6c-.4.9-1.4 1.2-2.3.9-9-3.5-19.6-3.3-28.5.5-.9.4-1.9 0-2.4-.8-.4-.8 0-51.7 1-52.1 9.7-4.2 21.3-4.4 31.1-.6 1 .5 1.5 51.3 1.1 52.1z"/></defs><clipPath id="SVGID_19_"><use xlink:href="#SVGID_18_" overflow="visible"/></clipPath></g></svg>