<svg xmlns="http://www.w3.org/2000/svg" viewBox="0 0 37.5 38.5"><path d="M37.5 19.4c-.1-2.7-.1-5.5-.2-8.2V11c.4-.6.1-1.2.2-1.8v-.7c-.1-2.2-.1-4.4-.2-6.5 0-1.4-.7-2-2.1-2-2.8 0-5.6.4-8.4.3-3.1 0-6.2 0-9.2.1-2.6.2-5.1 0-7.7.2-2.7.2-5.4 0-8.1.2C.4.9-.1 1.2 0 2.7.2 6.5-.2 10.2 0 14c0 1.5.1 2.9.1 4.4 0 .4-.1.8.2 1.1 0 3 .5 6 .4 9 0 .9.5 1.2 1.3 1.2 1.3 0 2.6-.1 3.9-.1 1.6.2 3.2.2 4.8.1 1.9.3 3.8.1 5.6.1 2.6 1.5 4.9 3.5 7.4 5.1.5.3 1.1.7 1.6 1 .3.4.7.6 1.1.7 1 1 2.4 1.5 3.7 2.1-.8-1.4-1.7-2.8-2.8-3.9-.9-1.8-2.3-3.3-3.5-4.9.1-.3.4-.3.7-.5h5.8c1.8-.1 3.5 0 5.3-.3 1.1-.2 1.6-.6 1.7-1.8.2-2.1.1-4.1.1-6.2.2-.8.1-1.2.1-1.7zm-8.6-1.1c0 .1-.1.1-.1.1 0-.1 0-.1.1-.1zm-9.3.6zm.6 4.2zm3.5-2.7zm-9-4.4c-.1 0-.1 0 0 0 0-.1 0-.1 0 0 0-.1 0 0 0 0zm-8.8 4.1c-.1 0-.1 0 0 0-.1 0-.1 0 0 0-.1 0-.1 0 0 0zm-1 4.4l.1.1h-.2c.1 0 .1 0 .1-.1zm-.1-3zm20.1 2.3zm3.6-1.2zM3.9 14.3zm9.7 10.2s.1 0 0 0c.1 0 .1 0 0 0 .1 0 0 0 0 0z" fill="#dae3ec"/><path d="M28.9 10.3c0-.1 0-.1 0 0 0-.4-.1-.8-.2-1.1-.3-1-.7-1.9-1.6-2.6-.5-.4-1-.7-1.6-.8-.6-.3-1.3-.3-2-.1C21.8 6 20.7 7 20 8.6c-.1.1-.1.1-.1.2-.2.3-.3.7-.4 1-.2.6-.3 1.3-.5 1.9-.1-.2-.1-.3-.2-.5-.2-.7-.5-1.4-.8-2-.5-1.2-1.3-2.2-2.4-2.8-.2-.1-.4-.2-.7-.2-.1-.1-.2-.1-.4 0-.1-.1-.3 0-.4-.1H14c0 .1-.2 0-.3.1-.3 0-.6.2-.9.3-1.3.6-2.2 1.6-3 2.8 0 .1-.1.3-.1.4-.2.4-.3.8-.4 1.3-.1.3-.1.6-.2.9v1.6c0 .1.1.2.1.3v.1c0 .1 0 .1.1.2 0 .3.1.6.2.9 0 .1 0 .2.1.3.1.4.3.8.5 1.1 0 .2.1.3.2.4 0 .1.1.1.1.2s.1.2.2.3c.2.4.4.7.6 1 .1.2.3.4.5.5.1.2.3.3.5.5l.2.2.2.2.3.3c.1.1.3.2.4.3.2.1.3.3.5.4.1.1.2.2.3.2l.1.1c.2.2.4.3.6.5l.2.2c.1.1.2.1.3.2.2.1.4.3.5.4h.1c.3.3.6.5.9.8l.2.2.2.2.1.1.1.1c.2.2.4.4.7.6h.1l.1.1c.1.1.2.3.4.3.3.2.3.2.6-.2l.3-.3c.2-.1.4-.3.5-.5.1-.1.2-.2.2-.3l.2-.2v-.1c.1 0 .2-.1.3-.2.3-.2.5-.4.7-.7l.2-.2c.4-.3.9-.7 1.2-1 .2-.2.4-.3.6-.5.2-.1.3-.2.4-.3.1 0 .1-.1.2-.1l.1-.1c.1 0 .2-.1.2-.2l.3-.3.1-.1c.2-.2.5-.4.7-.6s.5-.4.6-.6c.1-.1.2-.2.2-.3l.3-.3.1-.1c.5-.6.9-1.3 1.2-2 .1-.1.1-.2.1-.3.2-.3.3-.6.3-.9.1-.3.2-.6.2-.9h-.1.1c.1-.5.2-.9.1-1.4.4-.8.4-1.3.3-1.7zM13.1 6.9c0 .1 0 .1 0 0 0 .1 0 .1 0 0zm-.5 3zM25.3 9zm-3.4 10.3zm-10.1-2.9zm13.9-5.2c0-.1 0-.1 0 0zm-9.5 7zm-2.7-3.7zm.1-1zm-1.5.1zm-.1.5zm2.9-.3zm-.4 4zm.4-4zm6.4 5zm.1-5zm-3.6 5.1zm-.6.1zm2.1 2.6zm.4-1.2zm1.8-1.5zm-10.6-7.7zm3.4 7.5zm.4-.1zm3.5 2.6c0 .1 0 .1 0 0 0 .1 0 .1 0 0 0 0 0 .1 0 0zm1.1.4zm6.4-7.5s.1 0 0 0c.1 0 .1 0 0 0 .1 0 0 0 0 0zM23 10.8zm-2.6 4s0 .1 0 0c0 .1 0 .1 0 0 0 .1 0 .1 0 0 0 .1 0 0 0 0zm-2.4 3zm-3.3 1.1c0 .1 0 .1 0 0 0 .1 0 .1 0 0 0 .1 0 0 0 0zm12.6-5.3zm-7.8 1.2c.1 0 0 0 0 0zm-4.4-2.9c-.1 0-.1 0 0 0-.1 0-.1 0 0 0 0 .1 0 .1 0 0zm-2.6 6.3zm.8-.2zm12-2.3zm.2.8zm.2.1s-.1 0 0 0c-.1 0-.1 0 0 0zm.7-5.6zm-2.6-1.1zM18 17.6zm-2.2-3.2s0 .1 0 0zm-.6-3.5zm10.1 4.8c.1 0 0 0 0 0zm1-6.4c0 .1 0 .1 0 0-.1.1 0 0 0 0zM22.5 9zm-8.1-1.2c-.1 0-.1 0 0 0-.1 0-.1 0 0 0-.1 0-.1 0 0 0zm4.8 14.6zm5.3-3.6zM15 7.8zm-3.7 9.5zm6.5 5.9zm7-5.7zm1.1 0zM10 10.7c0-.1 0-.1 0 0 0-.1 0-.1 0 0 0-.1 0 0 0 0zm0 4.4zm0 0zm5.2 5.8c0 .1 0 .1 0 0 0 .1 0 .1 0 0 0 .1 0 .1 0 0zm1 .4zm.1.8zm1.5 1.3zm5-3.2zm.9-.8zm3.4-4.6zM16.8 9.6zm-2.5-2.8zm-4.8 5zm-.2 1.3zm.7 2.5zm2.9 3.5zm.6.4zm4.3 3.9zm1.2-.2zm3.7-2.8zm1.8-1.3zm-15-7.4zm2.9 7.6zm3.2 2.6z" fill="#e55329"/></svg>