<svg xmlns="http://www.w3.org/2000/svg" viewBox="0 0 34.6 34.6"><ellipse transform="rotate(-45.001 17.315 17.315)" cx="17.3" cy="17.3" rx="17.3" ry="17.3" fill="#ff5b8c"/><path d="M21.4 25.2c-1.5.7-2.8.9-4.6.9-4.2 0-7.9-3-7.9-7.9 0-5.1 3.7-9.6 9.4-9.6 4.4 0 7.6 3.1 7.6 7.3 0 3.7-2.1 6-4.8 6-1.2 0-2-.6-2.2-1.9h-.1c-.8 1.3-1.9 1.9-3.3 1.9-1.6 0-2.8-1.2-2.8-3.3 0-3.1 2.3-5.9 5.9-5.9 1.1 0 2.4.3 3 .6L21 18c-.3 1.5-.1 2.2.6 2.2 1.1 0 2.4-1.4 2.4-4.3 0-3.3-2.1-5.8-6-5.8s-7.2 3-7.2 7.8c0 4.2 2.7 6.6 6.5 6.6 1.3 0 2.6-.3 3.7-.8l.4 1.5zm-2.3-10.4c-.2-.1-.5-.1-.8-.1-1.7 0-3 1.6-3 3.6 0 1 .4 1.6 1.3 1.6s1.9-1.2 2.1-2.6l.4-2.5z" fill="#fff"/></svg>