<svg id="OBJECTS" xmlns="http://www.w3.org/2000/svg" viewBox="0 0 42.7 42.7"><style>.st1{fill:#fff}</style><ellipse transform="rotate(-46.937 21.35 21.35)" cx="21.3" cy="21.3" rx="21.3" ry="21.3" fill="#946eff" id="XMLID_869_"/><g id="XMLID_873_"><path class="st1" d="M28.8 32.2l-14.3.7c-2.6.1-4.9-1.9-5-4.5l-.7-14.3c-.1-2.6 1.9-4.9 4.5-5l14.3-.7c2.6-.1 4.9 1.9 5 4.5l.7 14.3c.2 2.6-1.9 4.9-4.5 5zM13.5 11.3c-1.4.1-2.5 1.3-2.4 2.6l.7 14.3c.1 1.4 1.3 2.5 2.6 2.4l14.3-.6c1.4-.1 2.5-1.3 2.4-2.6L30.4 13c-.1-1.4-1.3-2.5-2.6-2.4l-14.3.7z" id="XMLID_898_"/><path class="st1" d="M21.4 26.2c-3.1.2-5.7-2.2-5.9-5.3-.2-3.1 2.2-5.7 5.3-5.9 3.1-.2 5.7 2.2 5.9 5.3.1 3.2-2.3 5.8-5.3 5.9zm-.5-8.9c-1.8.1-3.3 1.7-3.2 3.5.1 1.8 1.7 3.3 3.5 3.2 1.8-.1 3.3-1.7 3.2-3.5-.1-1.8-1.6-3.3-3.5-3.2z" id="XMLID_52_"/><path class="st1" d="M27.1 12.1c.9 0 1.6.6 1.7 1.5 0 .9-.6 1.6-1.5 1.7-.9 0-1.6-.6-1.7-1.5-.1-.9.6-1.6 1.5-1.7z" id="XMLID_874_"/></g></svg>