<svg xmlns="http://www.w3.org/2000/svg" viewBox="0 0 20.4 21"><path d="M20.2 11.5c0-.7.1-1.5.1-2.2 0-2.5.3-5.1.1-7.6 0-.3.1-.6-.3-.6-.5-.1-.9-.2-1.4-.2C15.8.8 12.9.5 10 .3 7 .1 4 .1 1 0 .4 0 .3.2.3.6c0 1.5-.1 3-.1 4.5C.2 6.7.1 8.2.1 9.8c0 .3-.1.5.1.8-.1 1.3-.1 2.6 0 3.8 0 .5.2.5.6.5 2.5.1 4.9.4 7.4.4.9.1.6.8.7 1.3.3 1.4.5 2.9 1 4.3.9-1.8 1.7-3.6 2.2-5.5 1.4 0 2.9.1 4.3.1.8 0 1.6.1 2.5.1 1.4 0 1.2.3 1.3-1.2.1-1 .3-1.9 0-2.9zM8.3 12c0-.1 0-.1 0 0 0-.1 0-.1 0 0 0-.1 0 0 0 0zm-2.2 1.2s0-.1 0 0c0-.1 0-.1 0 0 0-.1 0 0 0 0zm.2-2.3zm11.4 4.6h1c-.4.1-.7.1-1 0zm2.2 0c.1-.1.2-.2.2-.3 0 .1 0 .3-.2.3z" fill="#e3eaf1"/><path d="M2.5 6.2l12.1.4c.1 0 .2-.1.3-.2v-.8c0-.1-.1-.2-.2-.3L2.5 5c-.1 0-.2.1-.3.2V6c0 .1.1.2.3.2zm15.2 3.3L2.5 9.1c-.1-.1-.3.1-.3.2v.7c0 .1.1.3.3.3l15.2.5c.1 0 .3-.1.3-.3v-.7c0-.1-.1-.3-.3-.3z" fill="#83c7bb"/></svg>