<svg id="Capa_1" xmlns="http://www.w3.org/2000/svg" viewBox="0 0 164.3 200"><style>.st0{fill:#ef2648}</style><path class="st0" d="M24.8 146.7L0 178.6l28.6-3.6 7.1 25 25-32.1.1-.1c-4.9-5-10.4-9.5-16.2-13.5-6.3-3.2-13-5.7-19.8-7.6zm114.7 0c-6.9 1.9-13.5 4.4-19.9 7.5-5.8 4-11.2 8.5-16.2 13.5l25.1 32.3 7.1-25 28.6 3.6-24.7-31.9z"/><path d="M157.1 89.3c0-15 9.3-32.6 2.3-44.6-7.2-12.5-27.4-13.1-39.8-20.3C107.6 17.3 97.1 0 82.1 0S56.7 17.3 44.6 24.3C32.2 31.5 12 32.2 4.8 44.6c-7 12.1 2.3 29.7 2.3 44.7s-9.3 32.6-2.3 44.6c7.2 12.5 27.4 13.1 39.8 20.3 12.1 7 22.5 24.3 37.5 24.3s25.4-17.3 37.5-24.3c12.5-7.2 32.6-7.9 39.8-20.3 7.1-12-2.3-29.6-2.3-44.6z" fill="#ffa511"/><circle cx="82.1" cy="89.3" r="60.7" fill="#ffdc13"/><path class="st0" d="M117.6 75H93.1l-7.6-23.3c-.6-1.9-2.6-2.9-4.5-2.3-1.1.4-1.9 1.2-2.3 2.3L71.2 75H46.7c-2 0-3.6 1.6-3.6 3.6 0 1.1.5 2.2 1.5 2.9l19.8 14.4-7.6 23.3c-.6 1.9.4 3.9 2.3 4.5 1.1.4 2.3.2 3.2-.5l19.8-14.4 19.8 14.4c1.6 1.2 3.8.8 5-.8.7-.9.9-2.1.5-3.2l-7.6-23.3 19.8-14.4c1.6-1.2 1.9-3.4.8-5-.6-1-1.7-1.5-2.8-1.5z"/><path d="M159.5 44.6c-.2-.3-.4-.5-.5-.8-5.3 10-11.5 19.5-18.6 28.2 9.5 32.1-8.9 65.9-41 75.4-21.1 6.2-44 .5-59.7-14.9-10.7 2.1-21.6 3.1-32.5 3.1H6.1c8 10.8 26.8 11.7 38.6 18.6 12.1 7 22.5 24.3 37.5 24.3s25.4-17.3 37.5-24.3c12.5-7.2 32.6-7.9 39.8-20.3 7-12.1-2.3-29.7-2.3-44.7s9.3-32.5 2.3-44.6z" fill="#f08015"/><path d="M103.3 106.2l4.2 12.9c.6 1.9-.4 3.9-2.3 4.5-1.1.4-2.3.2-3.2-.5l-12-8.7c-15.7 8.7-32.7 14.8-50.3 18.2 23.9 23.5 62.3 23.2 85.8-.7 15.5-15.7 21.2-38.6 14.9-59.8-10.7 13.2-23.2 24.7-37.1 34.1z" fill="#e5af17"/><path d="M107.4 119.1l-4.2-12.9c-4.3 2.9-8.7 5.6-13.3 8.2l12 8.7c1.6 1.2 3.8.8 5-.8.7-.9.9-2.1.5-3.2zm26.5 48.8c9.3 0 18.4 2.1 26.8 6.1l-21.2-27.2c-6.9 1.9-13.5 4.4-19.9 7.5-5.8 4-11.2 8.5-16.2 13.5l4.5 5.8c8.2-3.8 17.1-5.7 26-5.7zm-89.3-13.6c-6.4-3.1-13-5.6-19.9-7.5l-1.1 1.4c12.1 8.7 19.2 22.7 19.2 37.5 0 1.9-.1 3.7-.4 5.6l18.2-23.4.1-.1c-4.8-5.1-10.2-9.6-16.1-13.5z" fill="#b20d24"/></svg>