<svg id="Layer_1" xmlns="http://www.w3.org/2000/svg" viewBox="0 0 180 180"><style>.st0{fill:#ef2648}.st1{fill:#e5af17}</style><path class="st0" d="M106.5 148.1h-33l5.6-12 4.9-11.2h12l4.9 11.2z"/><path class="st1" d="M127.5 148.1h-75c-4.1 0-7.5 3.4-7.5 7.5V180h89.6v-24.4c.4-4.1-3-7.5-7.1-7.5z"/><path d="M100.9 136.1c-3 1.5-6 3-9 4.1l-1.9.4-1.9-.8c-3-1.1-6-2.6-9-4.1l4.9-11.3h11.6l5.3 11.7z" fill="#b20d24"/><path d="M0 20.6V36c0 37.5 23.3 69.8 55.9 83.3C66.4 123.8 78 126 90 126s23.6-2.2 34.1-6.7C156.8 105.8 180 73.5 180 36V20.6H0zM165 36c0 18-6.4 34.5-17.2 47.6C133.9 100.1 113.2 111 90 111s-43.9-10.5-57.7-27.4C21.8 70.9 15 54 15 36v-.4h149.6v.4h.4zM148.5 0h-117C28.9 0 27 2.2 27 4.5c0 2.6 1.9 4.9 4.5 4.9h117c2.6 0 4.5-2.2 4.5-4.5 0-2.7-1.9-4.9-4.5-4.9z" fill="#ffa511"/><path d="M148.5 9.4v40.5c0 37.5-23.3 71.6-58.5 85.1-35.2-13.9-58.5-47.6-58.5-85.5V9.4h117z" fill="#ffdc13"/><path class="st0" d="M90 26.3l7.9 23.9H123l-20.3 15 7.6 24.1-20.3-15-20.3 15 7.6-24.1-20.3-15h25.1z"/><path class="st1" d="M31.5 9.4h116.6V15H31.5z"/></svg>