<svg id="Layer_2" xmlns="http://www.w3.org/2000/svg" xmlns:xlink="http://www.w3.org/1999/xlink" viewBox="0 0 350.5 279"><style>.st0{fill:#ffd500}.st1{fill:#355e9e}.st2{fill:#fff}.st3{fill:#cadade}.st6{fill:#feffff}.st10{fill:#f18700}.st12{fill-rule:evenodd;clip-rule:evenodd;fill:#67b5eb}.st13{fill:#0055c4}.st13,.st14{opacity:.78}.st15{fill:#0055c4}.st20{fill:#f7b699}.st24{fill:#1e4b6a}.st26{fill:#71cbf4}</style><image width="89" height="104" xlink:href="FCFCF28C.png" transform="translate(281.101 31.11)" overflow="visible" opacity=".4"/><path class="st0" d="M334.4 57.4c0-1.7-1.4-3.1-3.1-3.1s-3.1 1.4-3.1 3.1c0 1.7 1.4 3.1 3.1 3.1s3.1-1.4 3.1-3.1zm-14.1 15.4c0-1.2-.9-2.1-2.1-2.1-1.2 0-2.1.9-2.1 2.1 0 1.2.9 2.1 2.1 2.1 1.1 0 2.1-.9 2.1-2.1zm14.4 12.3c0-1.6-1.3-2.8-2.8-2.8-1.6 0-2.8 1.3-2.8 2.8 0 1.6 1.3 2.8 2.8 2.8 1.6.1 2.8-1.2 2.8-2.8z"/><path class="st0" d="M332 86.1c-.1 0-.5-.2-14.5-13.3l-.3-.3 13.3-15.4.6.5-12.8 14.8c5.4 5.1 13.4 12.5 13.9 12.8h-.1l-.1.9z"/><image width="328" height="243" xlink:href="FCFCF28D.png" transform="translate(29.101 52.11)" overflow="visible" opacity=".4"/><path class="st1" d="M321 242.2l1 1.3c.1 3.7-1.8 4.5-3.8 4.5H66.1c-1.5 0-2.8-1.1-2.8-2.5v-1.8l257.7-1.5zm-26.9-40.6c0 2.8-2.3 5.2-5.1 5.2H98.6c-2.8 0-5.1-2.3-5.1-5.2V80.3c0-2.8 2.3-5.2 5.1-5.2H289c2.8 0 5.1 2.3 5.1 5.2v121.3z"/><path class="st2" d="M103.7 201.6c-2.8 0-5.1-2.3-5.1-5.2V85.5c0-2.8 2.3-5.2 5.1-5.2h180.1c2.8 0 5.1 2.3 5.1 5.2v110.9c0 2.8-2.3 5.2-5.1 5.2H103.7z"/><path class="st3" d="M108.8 196.4c-2.8 0-5.1-2.3-5.1-5.2V90.7c0-2.8 2.3-5.2 5.1-5.2h169.9c2.8 0 5.1 2.3 5.1 5.2v100.5c0 2.8-2.3 5.2-5.1 5.2H108.8z"/><path d="M321.7 243.1c1.3 1.6-1.1 3-5.5 3H68.9c-4.4 0-6.7-1.3-5.2-3l30.7-33.2c1.5-1.6 5.4-3 8.6-3h183.1c3.2 0 7 1.3 8.3 3l27.3 33.2z" fill="#0090d7"/><path d="M108.4 215.9H95.9l5.3-6H113zm18.2 0H114l4.4-6h11.8zm18.1 0h-12.6l3.5-6h11.9zm18.1 0h-12.5l2.5-6h11.9zm18.1 0h-12.5l1.6-6h11.9zm18.1 0h-12.5l.7-6h11.9zm18.1 0h-12.5l-.2-6h11.9zm18.1 0h-12.5l-1.1-6h11.9zm18.1 0h-12.5l-2-6h11.9zm18.1 0h-12.5l-2.9-6h11.9zm18.1 0H277l-3.8-6h11.9zm-187.1 8H89l5.2-6.1H107zm19.3 0h-13.4l4.3-6.1h12.8zm19.3 0h-13.4l3.4-6.1h12.8zm19.3 0h-13.4l2.5-6.1h12.8zm19.3 0h-13.4l1.6-6.1h12.8zm19.3 0h-13.4l.7-6.1H199zm19.3 0h-13.4l-.2-6.1h12.8zm19.3 0h-13.4l-1.1-6.1h12.8zm19.3 0h-13.4l-2-6.1h12.7zm19.3 0h-13.4l-2.9-6.1h12.7zm19.3 0H282l-3.8-6.1h12.7zm-178.6 7.9H82.1l5.2-6h33.2zm20.5 0h-14.2l3.4-6h13.6zm20.5 0h-14.2l2.5-6h13.6zm20.5 0h-14.2l1.6-6h13.6zm20.5 0h-14.2l.7-6h13.5zm20.5 0h-14.2l-.2-6h13.5zm20.5 0h-14.2l-1.1-6H238zm20.5 0h-14.2l-2-6h13.5zm40.9 0h-34.6l-2.9-6h33.1zm-211 8h-15l5.2-6h14.4zm21.7 0h-15l4.3-6h14.4zm21.7 0h-15l3.4-6h14.4zm108.4 0H140.3l2.5-6h97.5zm21.7 0h-15l-2-6h14.4zm21.7 0h-15l-2.9-6h14.4zm21.7 0h-15l-3.8-6h14.4z" opacity=".67" fill="#67b5eb"/><path class="st6" d="M171.4 102v4.9h95.1V102h-95.1zm95.1 9.1h-95.1v4.9h95.1v-4.9zm0 9.2h-95.1v4.9h95.1v-4.9zm0 9.1h-95.1v4.9h95.1v-4.9zm0 9.2H220v4.9h46.5v-4.9z"/><path d="M122.9 104h33.2v28.4h-33.2zm66 53.9h73.8v27.3h-73.8z" fill-rule="evenodd" clip-rule="evenodd" fill="#feffff"/><path class="st6" d="M122.9 140.7v4.9h53.6v-4.9h-53.6zm53.6 9.2h-53.6v4.9h53.6v-4.9zm0 9.2h-53.6v4.9h53.6v-4.9zm0 9.1h-53.6v4.9h53.6v-4.9zm0 9.2h-26.2v4.9h26.2v-4.9z"/><image width="99" height="98" xlink:href="FCFCF28B.png" transform="translate(84.262 -23.511)" overflow="visible" opacity=".4"/><path class="st0" d="M147.5 25.9h-1c.1-6.7-2.4-13-7.1-17.7-4.8-4.8-11.1-7.3-17.8-7.1v-1c7-.2 13.6 2.5 18.6 7.4 4.9 4.9 7.5 11.4 7.3 18.4z"/><path class="st0" d="M140.7 26.7h-1c.1-5.2-1.9-10.1-5.5-13.8-3.7-3.7-8.6-5.7-13.9-5.5v-1c5.5-.1 10.7 1.9 14.6 5.8 3.9 3.9 6 9 5.8 14.5z"/><path class="st0" d="M134.4 25.8h-1c.1-3.3-1.2-6.3-3.5-8.7-2.3-2.3-5.4-3.6-8.7-3.5v-1c3.6-.1 6.9 1.2 9.4 3.8 2.6 2.5 3.9 5.9 3.8 9.4zM122.7 28c-.9 0-1.8-.3-2.5-1-1.4-1.4-1.4-3.7 0-5.1 1.4-1.4 3.7-1.4 5.1 0 1.4 1.4 1.4 3.7 0 5.1-.7.7-1.7 1-2.6 1zm0-6.1c-.7 0-1.3.3-1.8.8-1 1-1 2.6 0 3.6s2.6 1 3.6 0 1-2.6 0-3.6c-.5-.5-1.1-.8-1.8-.8z"/><image width="170" height="132" xlink:href="FCFCF294.png" transform="translate(31.101 25.11)" overflow="visible" opacity=".4"/><path fill-rule="evenodd" clip-rule="evenodd" fill="#fff" d="M67 49.9h97.9v59.5H67z"/><path d="M166.1 110.5H65.8V48.7h100.3v61.8zm-97.9-2.3h95.5V51.1H68.2v57.1z" fill="#67b5eb"/><ellipse class="st10" cx="115.9" cy="79.6" rx="18.6" ry="18.9"/><path class="st2" d="M126.3 78.9l-17.1-10v20z"/><image width="77" height="77" xlink:href="FCFCF297.png" transform="translate(34.101 183.11)" overflow="visible" opacity=".4"/><path class="st0" d="M69.8 213.5c-.3 0-.7-.1-1-.4-.5-.5-.5-1.4 0-1.9l4.7-4.7c.5-.5 1.4-.5 1.9 0s.5 1.4 0 1.9l-4.7 4.7c-.2.3-.6.4-.9.4z"/><path class="st0" d="M74.5 213.5c-.3 0-.7-.1-1-.4l-4.7-4.7c-.5-.5-.5-1.4 0-1.9s1.4-.5 1.9 0l4.7 4.7c.5.5.5 1.4 0 1.9-.2.3-.6.4-.9.4z"/><image width="94" height="94" xlink:href="FCFCF295.png" transform="translate(287.101 115.11)" overflow="visible" opacity=".4"/><ellipse transform="rotate(-76.714 333.595 150.274)" class="st2" cx="333.6" cy="150.3" rx="11.9" ry="11.9"/><path class="st10" d="M333.6 162.6c-6.8 0-12.4-5.6-12.4-12.4s5.6-12.4 12.4-12.4c6.8 0 12.4 5.6 12.4 12.4s-5.6 12.4-12.4 12.4zm0-23.7c-6.3 0-11.4 5.1-11.4 11.4 0 6.3 5.1 11.4 11.4 11.4s11.4-5.1 11.4-11.4c0-6.3-5.1-11.4-11.4-11.4z"/><path class="st10" d="M328 154.2c-.4-.9-.6-1.9-.6-2.8 0-1 .2-1.9.6-2.8h1.4c.3 0 .5-.1.7-.2.1-.1.4-.4.8-.9l.3-.4c.4-.5.6-.8.8-1 .8-.9 1.9-1.4 2.2-2.7.1-.3.1-.6.3-.8.3-.4.9-.3 1.3 0 .3.3.5.8.5 1.3.1.7.2 1.5 0 2.2-.1.3-.7 1-.7 1.3 0 .4 2.6.5 3.1.9.7.4 1.1.9 1.1 1.6 0 .6-.2 1.1-.7 1.5.2.3.3.5.3.8 0 .6-.3 1-1 1.2v.3c0 .7-.4 1.1-1.3 1.2v.2c0 .4-.1.7-.4.9-.3.2-.7.3-1.3.3h-.5l-.4-.2c-.5.1-1 .2-1.4.2h-.7c-.9-.4-1.8-1.1-2.6-2H328z"/><image width="77" height="78" xlink:href="FCFCF29B.png" transform="translate(145.101 35.11)" overflow="visible" opacity=".4"/><path class="st0" d="M180.6 65.8c-.3 0-.7-.1-1-.4-.5-.5-.5-1.4 0-1.9l4.7-4.7c.5-.5 1.4-.5 1.9 0s.5 1.4 0 1.9l-4.7 4.7c-.2.3-.6.4-.9.4z"/><path class="st0" d="M185.3 65.8c-.3 0-.7-.1-1-.4l-4.7-4.7c-.5-.5-.5-1.4 0-1.9s1.4-.5 1.9 0l4.7 4.7c.5.5.5 1.4 0 1.9-.2.3-.6.4-.9.4z"/><image width="133" height="194" xlink:href="FCFCF29C.png" transform="translate(-17.899 44.11)" overflow="visible" opacity=".4"/><path class="st1" d="M76.2 191.3H20.4c-1.9 0-3.5-1.6-3.5-3.5V70.7c0-1.9 1.6-3.5 3.5-3.5h55.8c1.9 0 3.5 1.6 3.5 3.5v117.1c0 1.9-1.5 3.5-3.5 3.5z"/><path opacity=".67" fill-rule="evenodd" clip-rule="evenodd" fill="#67b5eb" d="M19.5 71.3h57.7V78H19.5z"/><path class="st2" d="M19.5 78h57.7v105.9H19.5zm5.4-4.8c-.8 0-1.4.6-1.4 1.4 0 .8.6 1.4 1.4 1.4.8 0 1.4-.6 1.4-1.4 0-.7-.6-1.4-1.4-1.4zm4.4 1.9h12.3v-1H29.3v1zm15.8 0h12.3v-1H45.1v1zm15.8-.9v1h12.3v-1H60.9z"/><path class="st3" d="M72 152.3H24.7c-1.9 0-3.4-1.5-3.4-3.4v-62c0-1.9 1.5-3.4 3.4-3.4H72c1.9 0 3.4 1.5 3.4 3.4V149c-.1 1.8-1.6 3.3-3.4 3.3zm-.1 28.9H24.8c-1.9 0-3.5-1.6-3.5-3.5v-19.9c0-1.9 1.6-3.5 3.5-3.5h47.1c1.9 0 3.5 1.6 3.5 3.5v19.9c-.1 2-1.6 3.5-3.5 3.5z"/><path class="st2" d="M24.2 170.8H37V158H24.2v12.8zm15.6-2.7h32.6v-.8H39.8v.8zm0 2.3h19.3v-.8H39.8v.8zm0-9.1h32.6v-.8H39.8v.8zm0-3.1v.8h32.6v-.8H39.8zm0 7.6h32.6v-.8H39.8v.8zm0-2.3h32.6v-.8H39.8v.8zm-10 11.8h9.3v1h-9.3z"/><path class="st12" d="M28.6 175.8c0 1.2-.9 2.1-2.1 2.1-1.2 0-2.1-.9-2.1-2.1s.9-2.1 2.1-2.1c1.2 0 2.1 1 2.1 2.1z"/><path class="st2" d="M46.4 175.3h9.3v1h-9.3z"/><path class="st12" d="M45.2 175.8c0 1.2-.9 2.1-2.1 2.1-1.2 0-2.1-.9-2.1-2.1s.9-2.1 2.1-2.1c1.2 0 2.1 1 2.1 2.1z"/><path class="st2" d="M62.9 175.3h9.3v1h-9.3z"/><path class="st12" d="M61.8 175.8c0 1.2-.9 2.1-2.1 2.1-1.2 0-2.1-.9-2.1-2.1s.9-2.1 2.1-2.1c1.2 0 2.1 1 2.1 2.1z"/><image width="94" height="95" xlink:href="FCFCF29F.png" transform="translate(27.101 65.11)" overflow="visible" opacity=".4"/><ellipse transform="rotate(-20.901 73.514 100.967)" class="st2" cx="73.5" cy="101" rx="11.9" ry="11.9"/><path class="st13" d="M73.5 113.3c-6.8 0-12.4-5.6-12.4-12.4 0-6.8 5.6-12.4 12.4-12.4 6.8 0 12.4 5.6 12.4 12.4 0 6.9-5.6 12.4-12.4 12.4zm0-23.8c-6.3 0-11.4 5.1-11.4 11.4 0 6.3 5.1 11.4 11.4 11.4 6.3 0 11.4-5.1 11.4-11.4 0-6.2-5.1-11.4-11.4-11.4z"/><g class="st14"><path class="st15" d="M68 104.9c-.4-.9-.6-1.9-.6-2.8 0-1 .2-1.9.6-2.8h1.4c.3 0 .5-.1.7-.2.2-.1.4-.4.8-.9l.3-.4c.4-.5.6-.8.8-1 .8-.9 1.9-1.4 2.2-2.7.1-.3.1-.6.3-.8.3-.4.9-.3 1.3 0 .3.3.5.8.5 1.3.1.7.2 1.5 0 2.2-.1.3-.7 1-.7 1.3 0 .4 2.6.5 3.1.9.7.4 1.1.9 1.1 1.6 0 .6-.2 1.1-.7 1.5.2.3.3.5.3.8 0 .6-.3 1-1 1.2v.3c0 .7-.4 1.1-1.3 1.2v.2c0 .4-.1.7-.4.9-.3.2-.7.3-1.3.3h-.5l-.4-.2c-.5.1-1 .2-1.4.2h-.7c-.9-.4-1.8-1.1-2.6-2H68z"/></g><image width="108" height="98" xlink:href="908F0E9B.png" transform="translate(278.101 79.11)" overflow="visible" opacity=".4"/><path class="st2" d="M315.7 102.5l31.8.1c1.7 0 3 1.4 3 3v14.3c0 1.7-1.4 3-3 3l-18.7-.1-7.8 7.7v-7.7h-5.4c-1.7 0-3-1.4-3-3v-14.3c.1-1.7 1.5-3 3.1-3z"/><path d="M341.3 108.3c0-.5-.4-.9-.9-.9l-17.7-.1c-.5 0-.9.4-.9.9s.4.9.9.9l17.7.1c.5 0 .9-.4.9-.9zm-19.4 2.9c0 .5.4.9.9.9l17.7.1c.5 0 .9-.4.9-.9s-.4-.9-.9-.9l-17.7-.1c-.5 0-.9.4-.9.9zm0 2.9c0 .5.4.9.9.9l17.7.1c.5 0 .9-.4.9-.9s-.4-.9-.9-.9l-17.7-.1c-.5 0-.9.4-.9.9zm0 3c0 .5.4.9.9.9h9.5c.5 0 .9-.4.9-.9s-.4-.9-.9-.9h-9.5c-.5 0-.9.4-.9.9z" fill="#6a78a0"/><image width="107" height="97" xlink:href="908F0E99.png" transform="translate(-34.899 71.11)" overflow="visible" opacity=".4"/><path d="M3 94.1l30.7.1c1.6 0 2.9 1.3 2.9 2.9v13.8c0 1.6-1.3 2.9-2.9 2.9l-18-.1-7.7 7.5v-7.5H2.8c-1.6 0-2.9-1.3-2.9-2.9L0 97c0-1.6 1.3-2.9 3-2.9z" fill="#7dd7ff"/><path class="st2" d="M27.6 99.7c0-.5-.4-.8-.8-.8h-17c-.5 0-.8.4-.8.8 0 .5.4.8.8.8h17c.4 0 .8-.3.8-.8zm-18.7 2.8c0 .5.4.8.8.8h17c.5 0 .8-.4.8-.8 0-.5-.4-.8-.8-.8h-17c-.4-.1-.8.3-.8.8zm0 2.8c0 .5.4.8.8.8h17c.5 0 .8-.4.8-.8 0-.5-.4-.8-.8-.8h-17c-.4 0-.8.4-.8.8zm0 2.9c0 .5.4.8.8.8h9.2c.5 0 .8-.4.8-.8 0-.5-.4-.8-.8-.8H9.7c-.4-.1-.8.3-.8.8z"/><image width="161" height="183" xlink:href="908F0E9F.png" transform="translate(174.101 19.11)" overflow="visible" opacity=".4"/><path d="M296.9 42.6h-85.2c-1.5 0-2.8 1.3-2.8 2.8v107.2c0 1.5 1.3 2.8 2.8 2.8h85.2c1.5 0 2.8-1.3 2.8-2.8V45.4c0-1.6-1.3-2.8-2.8-2.8z" fill="#93d5f6"/><path class="st2" d="M281.4 71h-55.3c-2.9 0-2.9 4.5 0 4.5h55.3c2.9 0 2.9-4.5 0-4.5zm0 9.9h-55.3c-2.9 0-2.9 4.5 0 4.5h55.3c2.9 0 2.9-4.5 0-4.5zm0 10h-55.3c-2.9 0-2.9 4.5 0 4.5h55.3c2.9-.1 2.9-4.5 0-4.5zm0 9.9h-55.3c-2.9 0-2.9 4.5 0 4.5h55.3c2.9-.1 2.9-4.5 0-4.5zm0 9.9h-55.3c-2.9 0-2.9 4.5 0 4.5h55.3c2.9 0 2.9-4.5 0-4.5zm0 9.9h-55.3c-2.9 0-2.9 4.5 0 4.5h55.3c2.9 0 2.9-4.5 0-4.5z"/><image width="164" height="223" xlink:href="908F0E9A.png" transform="translate(213.101 103.11)" overflow="visible" opacity=".4"/><path d="M254.4 200.9c9-2.3 25.9-1.3 25.9-1.3l36.6 4.7s7.4-1.6 14.4-.3c.3.1.7.1 1 .2 2.8.6 5.5 1.8 7.7 3.7 7.6 7-16.6 42.5-26.7 54.3 0 0-1.1-2.5-6.2-2.5 0 0 3.7-25.6 8.2-34.6 0 0 3.7-3.7-3.9-1.7s-60.5-1.7-61.9-7.3c-1.5-5.6-4.1-12.9 4.9-15.2z" fill="#7c4dbd"/><path class="st20" d="M307.1 259.8s3.9-1.1 6.2 2.5c0 0-3.1 3.4-3.7 7-.6 3.7 1.4 8.7 0 9.6-1.4.8-4.2-4.2-5.1-7.6-.8-3.4-2.3-2.5-2-4.2.3-1.7 4.6-7.3 4.6-7.3z"/><path d="M257.2 201c.9.2 2.8.9 5.3 1.9 12.5 5 40.9 18 48 23.7l2.3 1.7c-.1.1-1.7 1.8-3.1 5.1 0 0-36.4-7.2-52.5-12.8-1.4-.5-2.6-.9-3.6-1.4-1.6-.7-2.8-1.4-3.4-2-5.7-5.6-1.6-12.3-1.6-12.3s3-5.3 8.6-3.9z" fill="#9878db"/><path class="st20" d="M312.6 228.1s6.3 3.1 7.4 4.4c1 1.4-.6 1.3.2 4.7.8 3.4.6 9.2-1 9.1-1.6-.1-2.2-5.5-4.4-8.5s-6.5-4.6-6.5-4.6c.3-4.3 4.3-5.1 4.3-5.1z"/><path d="M295.5 179.6c1.3-1 4-5.3 4.3-5.6.3-.3 5.3-3 5.3-3l2-5.3s4 8.6 1.3 22.9c0 0-1.3 1.3.3 2.3 1.7 1 7.3 4.3 7.3 4.3v2l-24.2 1.7v-7.3c.1-.1 2.4-11 3.7-12z" fill="#de9c7e"/><path d="M287.5 150.8c16.9 2.3 21.9 17.6 20.9 21.2-1 3.6-7 4.3-7 4.3s-3.3 9-4.6 12.9c-1.3 4 3.7 11.4 3.7 11.4-19.2 14.2-36.5-1-36.5-1l5.3-7.1 4-17.2c-14.6.3-17.2-4.3-17.2-4.3s1.7-10.9 4.6-13.9c3-3 9.9-8.7 26.8-6.3z" fill="#393e96"/><path class="st20" d="M294.2 132.8c1.7.3 1.3 5.6 1.3 5.6l-2.3 4s-1.7 4.3-4 5c-2.3.7-5.3 0-7-1-1.7-1-1-9 0-10.6 1-1.6 10.3-3.3 12-3z"/><path class="st24" d="M281.3 127.1c2.4-1.4 5.7 0 5.7 0l5.1-1.1c.2 0 .3-.1.5-.1 3.1-.4 6.4 1.1 8.8 3 .6.4 1.8 1.1 1.1 1.9-.2.2-1.7.9-1.1 1.3.9.6 2.4 4.5.3 5-2.1.6-1.5-1.7-2.1.8-.6 2.5-6 4.7-6.3 4.5-.3-.3 0 0 1.2-2.2s-1.2-5.8-1.2-5.8c-.9-.6-3.3 2.2-6 2.2s-3-1.4-4.5-.6c-1.5.8-.6 3.6-1.2 3.9-.6.3-.9-1.7-1.2-3.1-.3-1.4-.9-1.1-1.2-2.2-.3-1.1.3-2.5 0-3.1-.3-.6-.6.6-.9 0-.3-.5.6-3 3-4.4z"/><path class="st20" d="M287.5 146.4v4.3s-4.3 4.4-7.3-.5l1-8.2 6.3 4.4z"/><path class="st0" d="M341.8 181.1v22.2H314v-22.2h19.4z"/><path class="st20" d="M273.3 175.3s2 8.6-.7 17.2c0 0-.7 2.7 4 2 4.6-.7 23.5-1 29.9 1 0 0 4.3-1.3 6 .3 1.7 1.7 2.7 5.3 1 5.6-1.7.3-1-2.3-2-1.7-.6.4.3 2.7-1 2.3-1.3-.3-.8-2.3-2-1.7-.7.3.7 2.3-.3 2.3s-2.3-2.3-3-3c-.7-.7-35.8 10-42.1 1-6.3-9-7-29.9-7-29.9s1.6 4.3 17.2 4.6z"/><path class="st0" d="M301.5 202.4h39.6c1.2 0 1.2 1.8 0 1.8h-39.6c-1.2 0-1.2-1.8 0-1.8z"/><path d="M327.9 190.2c1.1 0 2.1.9 2.1 2.1 0 1.1-.9 2.1-2.1 2.1-1.1 0-2.1-.9-2.1-2.1.1-1.2 1-2.1 2.1-2.1z" fill="#fceee8"/><path class="st24" d="M302.2 126.3c.8.5 1.6 1.2 2.1 2 .2.3.4.7.3 1 0 .1-.1.3-.3.3-.3.1-.5-.2-.7-.5-.6-.7-1.5-.9-2.1-1.6-.6-.7-.2-1.8.7-1.2zm2 9.8l.1.2c.1.7-.3 1.5-1.1 1.5.4-.8.6-1.7.6-2.6-.1.1.3.7.4.9z"/><image width="104" height="104" xlink:href="908F0E85.png" transform="translate(240.101 2.11)" overflow="visible" opacity=".4"/><ellipse class="st10" cx="292" cy="42.6" rx="16.9" ry="17.1"/><path class="st2" d="M296.1 37.7c0 3.4-2.2 5.8-4.1 5.8-1.8 0-4.1-2.3-4.1-5.7 0-3.4 1.6-5.2 4.1-5.2 2.5-.1 4.1 1.7 4.1 5.1z"/><path class="st2" d="M298.1 46.5c-1.4-2.2-4.7-1.3-4.7-1.9 0-.6.2-2.4.2-2.9 0-.6-1-.6-1.6-.6-.5 0-1.6 0-1.6.6s.2 2.3.2 2.9c0 .6-3.3-.3-4.7 1.9-1.4 2.2-.8 4.7-.8 4.7h13.8s.6-2.5-.8-4.7z"/><image width="105" height="96" xlink:href="908F0E86.png" transform="translate(-2.899 96.11)" overflow="visible" opacity=".4"/><path class="st2" d="M34 119.4l29.6.1c1.5 0 2.8 1.3 2.8 2.8v13.3c0 1.5-1.3 2.8-2.8 2.8H46.2l-7.2 7.2v-7.2h-5c-1.5 0-2.8-1.3-2.8-2.8v-13.3c0-1.7 1.3-2.9 2.8-2.9z"/><path class="st3" d="M57.8 124.8c0-.4-.4-.8-.8-.8H40.6c-.4 0-.8.4-.8.8s.4.8.8.8H57c.4 0 .8-.4.8-.8zm-18 2.7c0 .4.4.8.8.8H57c.4 0 .8-.4.8-.8s-.4-.8-.8-.8H40.6c-.5 0-.8.3-.8.8zm-.1 2.7c0 .4.4.8.8.8h16.4c.4 0 .8-.4.8-.8s-.4-.8-.8-.8H40.5c-.4 0-.8.4-.8.8zm0 2.7c0 .4.4.8.8.8h8.9c.4 0 .8-.4.8-.8s-.4-.8-.8-.8h-8.9c-.4 0-.8.4-.8.8z"/><image width="95" height="95" xlink:href="908F0E87.png" transform="translate(164.101 8.11)" overflow="visible" opacity=".4"/><path class="st2" d="M223.1 43.7c0 6.6-5.3 11.9-11.9 11.9-6.6 0-11.9-5.3-11.9-11.9s5.3-11.9 11.9-11.9c6.5 0 11.9 5.3 11.9 11.9z"/><path class="st13" d="M211.2 56.1c-6.8 0-12.4-5.6-12.4-12.4s5.6-12.4 12.4-12.4c6.8 0 12.4 5.6 12.4 12.4s-5.6 12.4-12.4 12.4zm0-23.8c-6.3 0-11.4 5.1-11.4 11.4s5.1 11.4 11.4 11.4c6.3 0 11.4-5.1 11.4-11.4s-5.1-11.4-11.4-11.4z"/><g class="st14"><path class="st15" d="M205.6 47.6c-.4-.9-.6-1.9-.6-2.8 0-1 .2-1.9.6-2.8h1.4c.3 0 .5-.1.7-.2.1-.1.4-.4.8-.9l.3-.4c.4-.5.6-.8.8-1 .8-.9 1.9-1.4 2.2-2.7.1-.3.1-.6.3-.8.3-.4.9-.3 1.3 0 .3.3.5.8.5 1.3.1.7.2 1.5 0 2.2-.1.3-.7 1-.7 1.3 0 .4 2.6.5 3.1.9.7.4 1.1.9 1.1 1.6 0 .6-.2 1.1-.7 1.5.2.3.3.5.3.8 0 .6-.3 1-1 1.2v.3c0 .7-.4 1.1-1.3 1.2v.2c0 .4-.1.7-.4.9-.3.2-.7.3-1.3.3h-.5l-.4-.2c-.5.1-1 .2-1.4.2h-.7c-.9-.4-1.8-1.1-2.6-2h-1.8z"/></g><image width="128" height="105" xlink:href="908F0E89.png" transform="translate(34.101 128.11)" overflow="visible" opacity=".4"/><path transform="matrix(1 -.00542 .00542 1 -.914 .533)" class="st26" d="M69.3 152.1h57.2V186H69.3z"/><path class="st2" d="M68.9 186.6l-.2-34.9 58.2-.3.2 34.9-58.2.3zm.8-33.9l.2 32.9 56.2-.3-.2-32.9-56.2.3z"/><path class="st26" d="M117.2 180.7l-38.9.3c-1.4 0-2.5-1.1-2.5-2.5l-.1-18.7c0-1.4 1.1-2.5 2.5-2.5l38.9-.2c1.4 0 2.5 1.1 2.5 2.5l.1 18.7c0 1.3-1.1 2.4-2.5 2.4z"/><path class="st2" d="M118.3 181.3l-41 .2c-1.1 0-2-.9-2-2l-.1-20.8c0-1.1.9-2 2-2l41-.2c1.1 0 2 .9 2 2l.1 20.8c0 1.1-.9 2-2 2zm-41.2-23.4c-.5 0-.9.4-.9.9l.1 20.8c0 .5.4.9.9.9l41-.2c.5 0 .9-.4.9-.9l-.1-20.8c0-.5-.4-.9-.9-.9l-41 .2z"/><path class="st2" d="M79.1 178.2l8.9-11c.8-1 3.4-1.1 4.3-.1l7.2 7.9 4.4-2.9c1.1-.7 3.2-.6 4 .2l10.1 8-40.8.2 1.9-2.3zm26.4-14.2c0 1.3-1 2.3-2.3 2.3-1.3 0-2.3-1-2.3-2.3 0-1.3 1-2.3 2.3-2.3 1.2 0 2.3 1.1 2.3 2.3z"/></svg>