<?xml version="1.0" encoding="utf-8"?>
<!-- Generator: Adobe Illustrator 22.0.0, SVG Export Plug-In . SVG Version: 6.00 Build 0)  -->
<svg version="1.1" id="Capa_1" xmlns="http://www.w3.org/2000/svg" xmlns:xlink="http://www.w3.org/1999/xlink" x="0px" y="0px"
	 viewBox="0 0 71.7 80" style="enable-background:new 0 0 71.7 80;" xml:space="preserve">
<style type="text/css">
	.st0{fill:#1598FC;}
	.st1{fill:#1072BD;}
	.st2{fill:#FFD33F;}
	.st3{fill:#505968;}
	.st4{fill:#FAA41B;}
	.st5{fill:#CBCFD3;}
</style>
<path class="st0" d="M23.4,41.4h24.8c6.1,0,11,4.9,11,11l0,0c0,6.1-4.9,11-11,11H23.4c-6.1,0-11-4.9-11-11l0,0
	C12.4,46.3,17.4,41.4,23.4,41.4z"/>
<path class="st1" d="M53.7,42.8c3,5.3,1.2,12-4.1,15c-1.7,0.9-3.6,1.4-5.5,1.4H19.3c-1.9,0-3.8-0.5-5.4-1.4c2,3.5,5.6,5.6,9.6,5.6
	h24.8c6.1,0,11-5,11-11C59.3,48.4,57.2,44.8,53.7,42.8z"/>
<g>
	<circle class="st2" cx="16.6" cy="20.7" r="15.2"/>
	<circle class="st2" cx="55.2" cy="15.2" r="15.2"/>
</g>
<g>
	<path class="st3" d="M6.9,53.8H1.4c-0.8,0-1.4-0.6-1.4-1.4C0,51.7,0.6,51,1.4,51h5.5c0.8,0,1.4,0.6,1.4,1.4
		C8.3,53.2,7.7,53.8,6.9,53.8z"/>
	<path class="st3" d="M2.7,61.3c-0.8,0-1.4-0.6-1.4-1.4c0-0.6,0.4-1.1,0.9-1.3l5.2-1.9c0.7-0.3,1.5,0,1.8,0.8c0.3,0.7,0,1.5-0.8,1.8
		c0,0-0.1,0-0.1,0l-5.2,1.9C3,61.3,2.9,61.3,2.7,61.3z"/>
	<path class="st3" d="M7.9,48.1c-0.2,0-0.3,0-0.5-0.1l-5.2-1.9c-0.7-0.2-1.1-1-0.9-1.8s1-1.1,1.8-0.9c0,0,0,0,0.1,0l5.2,1.9
		c0.7,0.3,1.1,1.1,0.8,1.8C9,47.8,8.5,48.1,7.9,48.1L7.9,48.1z"/>
	<path class="st3" d="M70.3,53.8h-5.5c-0.8,0-1.4-0.6-1.4-1.4c0-0.8,0.6-1.4,1.4-1.4h5.5c0.8,0,1.4,0.6,1.4,1.4
		C71.7,53.2,71.1,53.8,70.3,53.8z"/>
	<path class="st3" d="M63.8,48.1c-0.8,0-1.4-0.6-1.4-1.4c0-0.6,0.4-1.1,0.9-1.3l5.2-1.9c0.7-0.3,1.5,0.1,1.8,0.8
		c0.3,0.7-0.1,1.5-0.8,1.8c0,0,0,0-0.1,0l-5.2,1.9C64.1,48.1,64,48.1,63.8,48.1L63.8,48.1z"/>
	<path class="st3" d="M69,61.3c-0.2,0-0.3,0-0.5-0.1l-5.2-1.9c-0.7-0.2-1.1-1-0.9-1.7c0.2-0.7,1-1.1,1.7-0.9c0,0,0.1,0,0.1,0
		l5.2,1.9c0.7,0.3,1.1,1.1,0.8,1.8C70.1,61,69.6,61.3,69,61.3z"/>
</g>
<g>
	<path class="st4" d="M15.2,15.2h2.8c0.8,0,1.4,0.6,1.4,1.4c0,0.8,0.6,1.4,1.4,1.4s1.4-0.6,1.4-1.4c0-2.3-1.9-4.1-4.1-4.1V11
		c0-0.8-0.6-1.4-1.4-1.4c-0.8,0-1.4,0.6-1.4,1.4v1.4c-2.3,0-4.1,1.9-4.1,4.1v1.4c0,2.3,1.9,4.1,4.1,4.1h2.8c0.8,0,1.4,0.6,1.4,1.4
		v1.4c0,0.8-0.6,1.4-1.4,1.4h-2.8c-0.8,0-1.4-0.6-1.4-1.4c0-0.8-0.6-1.4-1.4-1.4c-0.8,0-1.4,0.6-1.4,1.4c0,2.3,1.9,4.1,4.1,4.1v1.4
		c0,0.8,0.6,1.4,1.4,1.4c0.8,0,1.4-0.6,1.4-1.4V29c2.3,0,4.1-1.9,4.1-4.1v-1.4c0-2.3-1.9-4.1-4.1-4.1h-2.8c-0.8,0-1.4-0.6-1.4-1.4
		v-1.4C13.8,15.8,14.4,15.2,15.2,15.2z"/>
	<path class="st4" d="M56.6,13.8h-2.8c-0.8,0-1.4-0.6-1.4-1.4V11c0-0.8,0.6-1.4,1.4-1.4h2.8c0.8,0,1.4,0.6,1.4,1.4
		c0,0.8,0.6,1.4,1.4,1.4s1.4-0.6,1.4-1.4c0-2.3-1.9-4.1-4.1-4.1V5.5c0-0.8-0.6-1.4-1.4-1.4c-0.8,0-1.4,0.6-1.4,1.4v1.4
		c-2.3,0-4.1,1.9-4.1,4.1v1.4c0,2.3,1.9,4.1,4.1,4.1h2.8c0.8,0,1.4,0.6,1.4,1.4v1.4c0,0.8-0.6,1.4-1.4,1.4h-2.8
		c-0.8,0-1.4-0.6-1.4-1.4s-0.6-1.4-1.4-1.4c-0.8,0-1.4,0.6-1.4,1.4c0,2.3,1.9,4.1,4.1,4.1v1.4c0,0.8,0.6,1.4,1.4,1.4
		c0.8,0,1.4-0.6,1.4-1.4v-1.4c2.3,0,4.1-1.9,4.1-4.1v-1.4C60.7,15.6,58.8,13.8,56.6,13.8z"/>
</g>
<path class="st5" d="M35.9,77.2l5.5-5.5l4.1,8.3l5.5-2.8L46.9,69h8.3L35.9,49.7V77.2z"/>
</svg>
