<?xml version="1.0" encoding="utf-8"?>
<!-- Generator: Adobe Illustrator 22.0.0, SVG Export Plug-In . SVG Version: 6.00 Build 0)  -->
<svg version="1.1" id="Слой_1" xmlns="http://www.w3.org/2000/svg" xmlns:xlink="http://www.w3.org/1999/xlink" x="0px" y="0px"
	 viewBox="0 0 80 80" style="enable-background:new 0 0 80 80;" xml:space="preserve">
<style type="text/css">
	.st0{fill:#FFBC05;}
	.st1{fill:#DD970A;}
	.st2{fill:#E38100;}
	.st3{fill:#E5D1B5;}
	.st4{fill:#A30C25;}
	.st5{fill:#D12136;}
</style>
<path class="st0" d="M52.4,73.1H80V80H52.4V73.1z"/>
<path class="st1" d="M52.4,67.6h24.8V69H80v5.5H52.4V67.6z"/>
<path class="st0" d="M40,13.8c0,7.6-6.2,13.8-13.8,13.8s-13.8-6.2-13.8-13.8S18.6,0,26.2,0S40,6.2,40,13.8z"/>
<path class="st2" d="M26.2,12.4c-0.8,0-1.4-0.6-1.4-1.4s0.6-1.4,1.4-1.4s1.4,0.6,1.4,1.4h2.8c0-1.7-1.1-3.3-2.8-3.9v-3h-2.8v3
	c-1.9,0.7-3,2.6-2.7,4.6c0.3,2,2.1,3.4,4.1,3.4c0.8,0,1.4,0.6,1.4,1.4c0,0.8-0.6,1.4-1.4,1.4s-1.4-0.6-1.4-1.4h-2.8
	c0,1.7,1.1,3.3,2.8,3.9v1.6h2.8v-1.6c1.9-0.7,3-2.6,2.7-4.6C29.9,13.9,28.2,12.4,26.2,12.4z"/>
<path class="st3" d="M38.5,33.1l5.7-11H8.3l5.7,11C6.5,37.4,0,51.4,0,60.7C0,74.4,12.5,80,26.2,80s26.2-5.6,26.2-19.3
	C52.4,51.4,46,37.4,38.5,33.1z"/>
<path class="st4" d="M12.4,31.7H40v2.8H12.4V31.7z"/>
<g>
	<path class="st5" d="M28,34.1l2-2l5.5,5.5l-2,2L28,34.1z"/>
	<path class="st5" d="M17,37.6l5.5-5.5l2,2l-5.5,5.5L17,37.6z"/>
	<path class="st5" d="M23.3,34.5c-1.1,0-2.2-0.5-3-1.3l-1-1c-1.7-1.7-1.7-4.4,0-6.1s4.4-1.7,6.1,0l1,1c1.2,1.2,1.6,3.1,0.9,4.7
		C26.6,33.4,25,34.5,23.3,34.5z M22.2,27.6c-0.6,0-1.2,0.4-1.4,1c-0.2,0.6-0.1,1.2,0.3,1.7l1,1c0.6,0.6,1.6,0.6,2.2,0
		c0.6-0.6,0.6-1.6,0-2.2l-1-1C23,27.7,22.6,27.6,22.2,27.6z"/>
	<path class="st5" d="M29.1,34.5c-1.7,0-3.3-1-4-2.7c-0.7-1.6-0.3-3.5,0.9-4.7l1-1c1.7-1.7,4.4-1.7,6.1,0c1.7,1.7,1.7,4.4,0,6.1
		l-1,1C31.4,34,30.3,34.5,29.1,34.5z M30.2,27.6c-0.4,0-0.8,0.2-1.1,0.5l-1,1c-0.6,0.6-0.6,1.6,0,2.2c0.6,0.6,1.6,0.6,2.2,0l1-1
		c0.4-0.4,0.6-1.1,0.3-1.7C31.4,28,30.8,27.6,30.2,27.6z"/>
</g>
<path class="st0" d="M49.7,63.4h2.8v-1.4h24.8V69H49.7V63.4z"/>
<path class="st1" d="M52.4,56.6h24.8v1.4H80v5.5H52.4V56.6z"/>
<path class="st0" d="M49.7,52.4h2.8V51h24.8v6.9H49.7V52.4z"/>
<path class="st1" d="M52.4,46.9H80v5.5H52.4V46.9z"/>
</svg>
