<?xml version="1.0" encoding="utf-8"?>
<!-- Generator: Adobe Illustrator 22.0.0, SVG Export Plug-In . SVG Version: 6.00 Build 0)  -->
<svg version="1.1" id="Capa_1" xmlns="http://www.w3.org/2000/svg" xmlns:xlink="http://www.w3.org/1999/xlink" x="0px" y="0px"
	 viewBox="0 0 66.2 80" style="enable-background:new 0 0 66.2 80;" xml:space="preserve">
<style type="text/css">
	.st0{fill:#E1B494;}
	.st1{fill:#F2CBA7;}
	.st2{fill:#505968;}
	.st3{fill:#EE2849;}
	.st4{fill:#FAA41B;}
	.st5{fill:#F08015;}
	.st6{fill:#B7E5FF;}
	.st7{fill:#EFF2FA;}
</style>
<path class="st0" d="M19.3,44.1h11v11h-11V44.1z"/>
<path class="st1" d="M40,15.2v16.6c0,8.4-6.8,15.2-15.2,15.2l0,0c-8.4,0-15.2-6.8-15.2-15.2V15.2H40z"/>
<g>
	<path class="st2" d="M22.1,31.7h-2.8v-1.4c0-0.8-0.6-1.4-1.4-1.4s-1.4,0.6-1.4,1.4v1.4h-2.8v-1.4c0-2.3,1.9-4.1,4.1-4.1
		s4.1,1.9,4.1,4.1V31.7z"/>
	<path class="st2" d="M35.9,31.7h-2.8v-1.4c0-0.8-0.6-1.4-1.4-1.4s-1.4,0.6-1.4,1.4v1.4h-2.8v-1.4c0-2.3,1.9-4.1,4.1-4.1
		s4.1,1.9,4.1,4.1V31.7z"/>
</g>
<path class="st3" d="M20.7,35.9H29v1.4c0,2.3-1.9,4.1-4.1,4.1s-4.1-1.9-4.1-4.1V35.9z"/>
<g>
	<path class="st0" d="M9.7,27.6H6.9c-1.5,0-2.8,1.2-2.8,2.8s1.2,2.8,2.8,2.8h2.8V27.6z"/>
	<path class="st0" d="M40,27.6h2.8c1.5,0,2.8,1.2,2.8,2.8s-1.2,2.8-2.8,2.8H40V27.6z"/>
</g>
<path class="st4" d="M9.7,16.6H40v-1.4C40,6.8,33.2,0,24.8,0H1.4v8.3C1.4,12.8,5.1,16.6,9.7,16.6z"/>
<path class="st5" d="M40,23.4h-4.1c-3.8,0-6.9-3.1-6.9-6.9h11V23.4z"/>
<path class="st6" d="M19.3,49.7H11c-6.1,0-11,4.9-11,11V80h49.7V60.7c0-6.1-4.9-11-11-11h-8.3c0,3-2.5,5.5-5.5,5.5
	S19.3,52.7,19.3,49.7z"/>
<circle class="st5" cx="49.7" cy="63.4" r="16.6"/>
<path class="st7" d="M46.9,55.2h5.5v5.5h5.5v5.5h-5.5v5.5h-5.5v-5.5h-5.5v-5.5h5.5V55.2z"/>
</svg>
