<?xml version="1.0" encoding="utf-8"?>
<!-- Generator: Adobe Illustrator 22.0.0, SVG Export Plug-In . SVG Version: 6.00 Build 0)  -->
<svg version="1.1" id="Capa_1" xmlns="http://www.w3.org/2000/svg" xmlns:xlink="http://www.w3.org/1999/xlink" x="0px" y="0px"
	 viewBox="0 0 75.9 80" style="enable-background:new 0 0 75.9 80;" xml:space="preserve">
<style type="text/css">
	.st0{fill:#FFD4B0;}
	.st1{fill:#B7E5FF;}
	.st2{fill:#FFA511;}
	.st3{fill:#235087;}
	.st4{fill:#FFDC13;}
	.st5{fill:#F08015;}
	.st6{fill:#3596D8;}
	.st7{fill:#EDC4A2;}
</style>
<path class="st0" d="M27.6,22.1v-6.9h22.1v6.9c0,6.1-4.9,11-11,11l0,0C32.5,33.1,27.6,28.2,27.6,22.1z"/>
<path class="st1" d="M19.3,80V51c0-7.6,6.2-13.8,13.8-13.8h11c7.6,0,13.8,6.2,13.8,13.8v29H19.3z"/>
<polygon class="st2" points="24.8,15.2 52.4,15.2 52.4,2.8 45.5,6.9 38.6,0 31.7,6.9 24.8,2.8 "/>
<polygon class="st3" points="42.8,64.8 40,42.8 42.8,37.2 34.5,37.2 37.2,42.8 34.5,64.8 38.6,69 "/>
<g>
	<path class="st4" d="M63.4,23.4c-0.8,0-1.4-0.6-1.4-1.4c0-0.8,0.6-1.4,1.4-1.4c2.3,0,4.1-1.9,4.1-4.1c0-0.8,0.6-1.4,1.4-1.4
		c0.8,0,1.4,0.6,1.4,1.4C70.3,20.4,67.3,23.4,63.4,23.4z"/>
	<path class="st4" d="M74.5,23.4c-3.8,0-6.9-3.1-6.9-6.9c0-0.8,0.6-1.4,1.4-1.4c0.8,0,1.4,0.6,1.4,1.4c0,2.3,1.9,4.1,4.1,4.1
		c0.8,0,1.4,0.6,1.4,1.4S75.2,23.4,74.5,23.4z"/>
	<path class="st4" d="M69,29c-0.8,0-1.4-0.6-1.4-1.4c0-2.3-1.9-4.1-4.1-4.1c-0.8,0-1.4-0.6-1.4-1.4s0.6-1.4,1.4-1.4
		c3.8,0,6.9,3.1,6.9,6.9C70.3,28.3,69.7,29,69,29z"/>
	<path class="st4" d="M69,29c-0.8,0-1.4-0.6-1.4-1.4c0-3.8,3.1-6.9,6.9-6.9c0.8,0,1.4,0.6,1.4,1.4c0,0.8-0.6,1.4-1.4,1.4
		c-2.3,0-4.1,1.9-4.1,4.1C70.3,28.3,69.7,29,69,29z"/>
	<path class="st4" d="M5.5,38.6c-0.8,0-1.4-0.6-1.4-1.4s0.6-1.4,1.4-1.4c2.3,0,4.1-1.9,4.1-4.1c0-0.8,0.6-1.4,1.4-1.4
		c0.8,0,1.4,0.6,1.4,1.4C12.4,35.5,9.3,38.6,5.5,38.6z"/>
	<path class="st4" d="M16.6,38.6c-3.8,0-6.9-3.1-6.9-6.9c0-0.8,0.6-1.4,1.4-1.4c0.8,0,1.4,0.6,1.4,1.4c0,2.3,1.9,4.1,4.1,4.1
		c0.8,0,1.4,0.6,1.4,1.4C17.9,38,17.3,38.6,16.6,38.6z"/>
	<path class="st4" d="M11,44.1c-0.8,0-1.4-0.6-1.4-1.4c0-2.3-1.9-4.1-4.1-4.1c-0.8,0-1.4-0.6-1.4-1.4s0.6-1.4,1.4-1.4
		c3.8,0,6.9,3.1,6.9,6.9C12.4,43.5,11.8,44.1,11,44.1z"/>
	<path class="st4" d="M11,44.1c-0.8,0-1.4-0.6-1.4-1.4c0-3.8,3.1-6.9,6.9-6.9c0.8,0,1.4,0.6,1.4,1.4s-0.6,1.4-1.4,1.4
		c-2.3,0-4.1,1.9-4.1,4.1C12.4,43.5,11.8,44.1,11,44.1z"/>
	<path class="st4" d="M1.4,13.8c-0.8,0-1.4-0.6-1.4-1.4S0.6,11,1.4,11c2.3,0,4.1-1.9,4.1-4.1c0-0.8,0.6-1.4,1.4-1.4s1.4,0.6,1.4,1.4
		C8.3,10.7,5.2,13.8,1.4,13.8z"/>
	<path class="st4" d="M12.4,13.8c-3.8,0-6.9-3.1-6.9-6.9c0-0.8,0.6-1.4,1.4-1.4s1.4,0.6,1.4,1.4c0,2.3,1.9,4.1,4.1,4.1
		c0.8,0,1.4,0.6,1.4,1.4C13.8,13.2,13.2,13.8,12.4,13.8z"/>
	<path class="st4" d="M6.9,19.3c-0.8,0-1.4-0.6-1.4-1.4c0-2.3-1.9-4.1-4.1-4.1c-0.8,0-1.4-0.6-1.4-1.4S0.6,11,1.4,11
		c3.8,0,6.9,3.1,6.9,6.9C8.3,18.7,7.7,19.3,6.9,19.3z"/>
	<path class="st4" d="M6.9,19.3c-0.8,0-1.4-0.6-1.4-1.4c0-3.8,3.1-6.9,6.9-6.9c0.8,0,1.4,0.6,1.4,1.4s-0.6,1.4-1.4,1.4
		c-2.3,0-4.1,1.9-4.1,4.1C8.3,18.7,7.7,19.3,6.9,19.3z"/>
</g>
<g>
	<path class="st5" d="M24.8,15.2h1.4C25.7,15.2,25.3,15.2,24.8,15.2L24.8,15.2z"/>
	<path class="st5" d="M26.2,15.2h26.2V2.8l-0.7,0.4C45.4,10.8,36.1,15.2,26.2,15.2z"/>
</g>
<path class="st6" d="M19.3,77.7V80h38.6V51c0-0.7-0.1-1.4-0.2-2.1C50.2,64,35.9,74.7,19.3,77.7z"/>
<path class="st7" d="M48.3,15.2v4.1c0,6.1-4.9,11-11,11c-3.6,0-7-1.8-9.1-4.8c2,5.8,8.2,8.9,14,6.9c4.5-1.5,7.5-5.7,7.5-10.4v-6.9
	H48.3z"/>
</svg>
