<?xml version="1.0" encoding="utf-8"?>
<!-- Generator: Adobe Illustrator 22.0.0, SVG Export Plug-In . SVG Version: 6.00 Build 0)  -->
<svg version="1.1" id="OBJECTS" xmlns="http://www.w3.org/2000/svg" xmlns:xlink="http://www.w3.org/1999/xlink" x="0px" y="0px"
	 viewBox="0 0 36.6 34.3" style="enable-background:new 0 0 36.6 34.3;" xml:space="preserve">
<style type="text/css">
	.st0{fill:#4D99FF;}
	.st1{fill:#FCFEFF;}
</style>
<g>
	<path class="st0" d="M31.3,0h-26C2.4,0,0,2.4,0,5.3v18.2c0,2.9,2.4,5.3,5.3,5.3h9.1l3.9,5.5l3.8-5.5h9.2c2.9,0,5.3-2.4,5.3-5.3V5.3
		C36.6,2.4,34.2,0,31.3,0z"/>
	<g>
		<path class="st1" d="M13,20.9H8.7c-0.3,0-0.5-0.2-0.5-0.5v-9.4c0-0.3,0.2-0.5,0.5-0.5H13c0.3,0,0.5,0.2,0.5,0.5v9.4
			C13.5,20.7,13.3,20.9,13,20.9z"/>
		<path class="st1" d="M15.5,12c0-0.6,0.3-1.1,0.7-1.4c0.9-0.7,2.5-1.4,3.1-5.6c0.4-2.2,3-0.7,3.1,1.7c0.1,2,0,3.6,0,3.6h4
			c1,0,1.9,0.9,1.9,1.9v7.6c0,1-0.9,1.9-1.9,1.9h-7.9c-0.4,0-0.7-0.1-1-0.3l-1.3-0.9c-0.5-0.3-0.8-0.9-0.8-1.5V12z"/>
	</g>
</g>
</svg>
