<?xml version="1.0" encoding="utf-8"?>
<!-- Generator: Adobe Illustrator 22.0.0, SVG Export Plug-In . SVG Version: 6.00 Build 0)  -->
<svg version="1.1" id="OBJECTS" xmlns="http://www.w3.org/2000/svg" xmlns:xlink="http://www.w3.org/1999/xlink" x="0px" y="0px"
	 viewBox="0 0 42.7 42.7" style="enable-background:new 0 0 42.7 42.7;" xml:space="preserve">
<style type="text/css">
	.st0{fill:#5CDBFF;}
	.st1{fill:#FFFFFF;}
</style>
<g id="XMLID_872_">
	<g id="XMLID_864_">
		<circle class="st0" cx="21.3" cy="21.3" r="21.3"/>
	</g>
	<g id="XMLID_866_">
		<path class="st1" d="M33.7,13c-0.9,0.4-1.6,0.6-2.7,0.7c1.1-0.6,1.9-1.6,2.3-2.8c-1,0.6-2.1,1-3.3,1.2c-0.9-1-2.3-1.6-3.7-1.6
			c-2.8,0-5.1,2.3-5.1,5.1c0,0.4,0,0.8,0.1,1.2c-4.3-0.2-8-2.3-10.6-5.4C10.3,12.2,10,13.1,10,14c0,1.8,0.9,3.4,2.3,4.3
			c-0.8,0-1.6-0.3-2.3-0.6c0,0,0,0,0,0.1c0,2.5,1.8,4.6,4.1,5c-0.4,0.1-0.9,0.2-1.4,0.2c-0.3,0-0.7,0-1-0.1c0.7,2,2.5,3.5,4.8,3.6
			c-1.8,1.4-4,2.2-6.4,2.2c-0.4,0-0.8,0-1.2-0.1c0,0,1.9,2.6,8.5,3.5c6.6,0.9,18-3.5,14-16.5C32.4,14.9,33,14.1,33.7,13z"/>
	</g>
</g>
</svg>
